<svg xmlns="http://www.w3.org/2000/svg" xmlns:xlink="http://www.w3.org/1999/xlink" contentStyleType="text/css" data-diagram-type="STATE" height="353px" preserveAspectRatio="none" style="width:246px;height:353px;background:#FFFFFF;" version="1.1" viewBox="0 0 246 353" width="246px" zoomAndPan="magnify"><defs/><g><ellipse cx="185" cy="16" fill="#222222" rx="10" ry="10" style="stroke:#222222;stroke-width:1;"/><g id="Post"><rect fill="#F1F1F1" height="50" rx="12.5" ry="12.5" style="stroke:#181818;stroke-width:0.5;" width="50" x="7" y="103"/><line style="stroke:#181818;stroke-width:0.5;" x1="7" x2="57" y1="129.2969" y2="129.2969"/><text fill="#000000" font-family="sans-serif" font-size="14" lengthAdjust="spacing" textLength="29.791" x="17.1045" y="120.9951">Post</text></g><g id="Registrarse_o_IniciarSesion"><rect fill="#F1F1F1" height="50" rx="12.5" ry="12.5" style="stroke:#181818;stroke-width:0.5;" width="211.3994" x="28.5" y="214"/><line style="stroke:#181818;stroke-width:0.5;" x1="28.5" x2="239.8994" y1="240.2969" y2="240.2969"/><text fill="#000000" font-family="sans-serif" font-size="14" lengthAdjust="spacing" textLength="191.3994" x="38.5" y="231.9951">Registrarse_o_IniciarSesion</text></g><ellipse cx="134" cy="336" fill="none" rx="11" ry="11" style="stroke:#222222;stroke-width:1;"/><ellipse cx="134" cy="336" fill="#222222" rx="6" ry="6" style="stroke:#222222;stroke-width:1;"/><!--link *start* to Post--><g class="link" data-entity-1="*start*" data-entity-2="Post" data-source-line="1" data-uid="lnk4" id="link_*start*_Post"><path d="M177.2,22.61 C155.34,38.32 97.6212,79.817 62.1612,105.317" fill="none" id="*start*-to-Post" style="stroke:#181818;stroke-width:1;"/><polygon fill="#181818" points="57.29,108.82,66.9322,106.813,61.3494,105.9008,62.2615,100.318,57.29,108.82" style="stroke:#181818;stroke-width:1;"/><text fill="#000000" font-family="sans-serif" font-size="13" lengthAdjust="spacing" textLength="54.0313" x="128" y="69.0669">Ver Post</text></g><!--link *start* to Registrarse_o_IniciarSesion--><g class="link" data-entity-1="*start*" data-entity-2="Registrarse_o_IniciarSesion" data-source-line="2" data-uid="lnk6" id="link_*start*_Registrarse_o_IniciarSesion"><path d="M188.68,25.56 C197.53,47.45 218.15,106.97 202,153 C193.81,176.36 180.3801,193.7755 165.1301,209.4055" fill="none" id="*start*-to-Registrarse_o_IniciarSesion" style="stroke:#181818;stroke-width:1;"/><polygon fill="#181818" points="160.94,213.7,170.0882,210.0516,164.4318,210.1212,164.3622,204.4648,160.94,213.7" style="stroke:#181818;stroke-width:1;"/></g><!--link Post to Post--><g class="link" data-entity-1="Post" data-entity-2="Post" data-source-line="3" data-uid="lnk7" id="link_Post_Post"><path d="M57.28,118.86 C74.77,116.1 92,119.14 92,128 C92,136.86 80.6967,140.8353 63.2067,138.0753" fill="none" id="Post-to-Post" style="stroke:#181818;stroke-width:1;"/><polygon fill="#181818" points="57.28,137.14,65.5465,142.494,62.2189,137.9194,66.7935,134.5918,57.28,137.14" style="stroke:#181818;stroke-width:1;"/><text fill="#000000" font-family="sans-serif" font-size="13" lengthAdjust="spacing" textLength="97.1064" x="98" y="132.5669">Compartir Post</text></g><!--link Post to Registrarse_o_IniciarSesion--><g class="link" data-entity-1="Post" data-entity-2="Registrarse_o_IniciarSesion" data-source-line="4" data-uid="lnk8" id="link_Post_Registrarse_o_IniciarSesion"><path d="M54.64,153.19 C71.54,171.25 90.4405,191.4489 107.3305,209.4989" fill="none" id="Post-to-Registrarse_o_IniciarSesion" style="stroke:#181818;stroke-width:1;"/><polygon fill="#181818" points="111.43,213.88,108.2014,204.5754,108.0137,210.2291,102.36,210.0414,111.43,213.88" style="stroke:#181818;stroke-width:1;"/></g><!--link Registrarse_o_IniciarSesion to *end*--><g class="link" data-entity-1="Registrarse_o_IniciarSesion" data-entity-2="*end*" data-source-line="5" data-uid="lnk10" id="link_Registrarse_o_IniciarSesion_*end*"><path d="M134,264.46 C134,284.04 134,304.49 134,318.8" fill="none" id="Registrarse_o_IniciarSesion-to-*end*" style="stroke:#181818;stroke-width:1;"/><polygon fill="#181818" points="134,324.8,138,315.8,134,319.8,130,315.8,134,324.8" style="stroke:#181818;stroke-width:1;"/></g><!--SRC=[YzQALT3LjLC8o2ykiL88Ioq2ixYYeS91gUcPnIL5YKN5gV7vyPvvcScPYKN1gSMP-NbS88L8UftpSmiIYqeoeIR0PV4PWKSEh1Ve3000]--></g></svg>