<svg xmlns="http://www.w3.org/2000/svg" xmlns:xlink="http://www.w3.org/1999/xlink" contentStyleType="text/css" data-diagram-type="CLASS" height="546px" preserveAspectRatio="none" style="width:436px;height:546px;background:#FFFFFF;" version="1.1" viewBox="0 0 436 546" width="436px" zoomAndPan="magnify"><defs/><g><!--class Usuario--><g id="elem_Usuario"><rect codeLine="1" fill="#F1F1F1" height="48" id="Usuario" rx="2.5" ry="2.5" style="stroke:#181818;stroke-width:0.5;" width="85.2041" x="145.38" y="116"/><ellipse cx="160.38" cy="132" fill="#ADD1B2" rx="11" ry="11" style="stroke:#181818;stroke-width:1;"/><path d="M163.3488,137.6406 Q162.7706,137.9375 162.13,138.0781 Q161.4894,138.2344 160.7863,138.2344 Q158.2863,138.2344 156.9581,136.5938 Q155.6456,134.9375 155.6456,131.8125 Q155.6456,128.6875 156.9581,127.0313 Q158.2863,125.375 160.7863,125.375 Q161.4894,125.375 162.13,125.5313 Q162.7863,125.6875 163.3488,125.9844 L163.3488,128.7031 Q162.7238,128.125 162.13,127.8594 Q161.5363,127.5781 160.9113,127.5781 Q159.5675,127.5781 158.88,128.6563 Q158.1925,129.7188 158.1925,131.8125 Q158.1925,133.9063 158.88,134.9844 Q159.5675,136.0469 160.9113,136.0469 Q161.5363,136.0469 162.13,135.7813 Q162.7238,135.5 163.3488,134.9219 L163.3488,137.6406 Z " fill="#000000"/><text fill="#000000" font-family="sans-serif" font-size="14" lengthAdjust="spacing" textLength="53.2041" x="174.38" y="136.8467">Usuario</text><line style="stroke:#181818;stroke-width:0.5;" x1="146.38" x2="229.5841" y1="148" y2="148"/><line style="stroke:#181818;stroke-width:0.5;" x1="146.38" x2="229.5841" y1="156" y2="156"/></g><!--class Alumno--><g id="elem_Alumno"><rect codeLine="2" fill="#F1F1F1" height="48" id="Alumno" rx="2.5" ry="2.5" style="stroke:#181818;stroke-width:0.5;" width="85.416" x="81.27" y="7"/><ellipse cx="96.27" cy="23" fill="#ADD1B2" rx="11" ry="11" style="stroke:#181818;stroke-width:1;"/><path d="M99.2388,28.6406 Q98.6606,28.9375 98.02,29.0781 Q97.3794,29.2344 96.6763,29.2344 Q94.1763,29.2344 92.8481,27.5938 Q91.5356,25.9375 91.5356,22.8125 Q91.5356,19.6875 92.8481,18.0313 Q94.1763,16.375 96.6763,16.375 Q97.3794,16.375 98.02,16.5313 Q98.6763,16.6875 99.2388,16.9844 L99.2388,19.7031 Q98.6138,19.125 98.02,18.8594 Q97.4263,18.5781 96.8013,18.5781 Q95.4575,18.5781 94.77,19.6563 Q94.0825,20.7188 94.0825,22.8125 Q94.0825,24.9063 94.77,25.9844 Q95.4575,27.0469 96.8013,27.0469 Q97.4263,27.0469 98.02,26.7813 Q98.6138,26.5 99.2388,25.9219 L99.2388,28.6406 Z " fill="#000000"/><text fill="#000000" font-family="sans-serif" font-size="14" lengthAdjust="spacing" textLength="53.416" x="110.27" y="27.8467">Alumno</text><line style="stroke:#181818;stroke-width:0.5;" x1="82.27" x2="165.686" y1="39" y2="39"/><line style="stroke:#181818;stroke-width:0.5;" x1="82.27" x2="165.686" y1="47" y2="47"/></g><!--class Exalumno--><g id="elem_Exalumno"><rect codeLine="3" fill="#F1F1F1" height="48" id="Exalumno" rx="2.5" ry="2.5" style="stroke:#181818;stroke-width:0.5;" width="101.5488" x="201.21" y="7"/><ellipse cx="216.21" cy="23" fill="#ADD1B2" rx="11" ry="11" style="stroke:#181818;stroke-width:1;"/><path d="M219.1788,28.6406 Q218.6006,28.9375 217.96,29.0781 Q217.3194,29.2344 216.6163,29.2344 Q214.1163,29.2344 212.7881,27.5938 Q211.4756,25.9375 211.4756,22.8125 Q211.4756,19.6875 212.7881,18.0313 Q214.1163,16.375 216.6163,16.375 Q217.3194,16.375 217.96,16.5313 Q218.6163,16.6875 219.1788,16.9844 L219.1788,19.7031 Q218.5538,19.125 217.96,18.8594 Q217.3663,18.5781 216.7413,18.5781 Q215.3975,18.5781 214.71,19.6563 Q214.0225,20.7188 214.0225,22.8125 Q214.0225,24.9063 214.71,25.9844 Q215.3975,27.0469 216.7413,27.0469 Q217.3663,27.0469 217.96,26.7813 Q218.5538,26.5 219.1788,25.9219 L219.1788,28.6406 Z " fill="#000000"/><text fill="#000000" font-family="sans-serif" font-size="14" lengthAdjust="spacing" textLength="69.5488" x="230.21" y="27.8467">Exalumno</text><line style="stroke:#181818;stroke-width:0.5;" x1="202.21" x2="301.7588" y1="39" y2="39"/><line style="stroke:#181818;stroke-width:0.5;" x1="202.21" x2="301.7588" y1="47" y2="47"/></g><!--class Posts--><g id="elem_Posts"><rect codeLine="4" fill="#F1F1F1" height="48" id="Posts" rx="2.5" ry="2.5" style="stroke:#181818;stroke-width:0.5;" width="69.085" x="128.44" y="366"/><ellipse cx="143.44" cy="382" fill="#ADD1B2" rx="11" ry="11" style="stroke:#181818;stroke-width:1;"/><path d="M146.4088,387.6406 Q145.8306,387.9375 145.19,388.0781 Q144.5494,388.2344 143.8463,388.2344 Q141.3463,388.2344 140.0181,386.5938 Q138.7056,384.9375 138.7056,381.8125 Q138.7056,378.6875 140.0181,377.0313 Q141.3463,375.375 143.8463,375.375 Q144.5494,375.375 145.19,375.5313 Q145.8463,375.6875 146.4088,375.9844 L146.4088,378.7031 Q145.7838,378.125 145.19,377.8594 Q144.5963,377.5781 143.9713,377.5781 Q142.6275,377.5781 141.94,378.6563 Q141.2525,379.7188 141.2525,381.8125 Q141.2525,383.9063 141.94,384.9844 Q142.6275,386.0469 143.9713,386.0469 Q144.5963,386.0469 145.19,385.7813 Q145.7838,385.5 146.4088,384.9219 L146.4088,387.6406 Z " fill="#000000"/><text fill="#000000" font-family="sans-serif" font-size="14" lengthAdjust="spacing" textLength="37.085" x="157.44" y="386.8467">Posts</text><line style="stroke:#181818;stroke-width:0.5;" x1="129.44" x2="196.525" y1="398" y2="398"/><line style="stroke:#181818;stroke-width:0.5;" x1="129.44" x2="196.525" y1="406" y2="406"/></g><!--class Comunidades--><g id="elem_Comunidades"><rect codeLine="5" fill="#F1F1F1" height="48" id="Comunidades" rx="2.5" ry="2.5" style="stroke:#181818;stroke-width:0.5;" width="127.874" x="196.04" y="241"/><ellipse cx="211.04" cy="257" fill="#ADD1B2" rx="11" ry="11" style="stroke:#181818;stroke-width:1;"/><path d="M214.0088,262.6406 Q213.4306,262.9375 212.79,263.0781 Q212.1494,263.2344 211.4463,263.2344 Q208.9463,263.2344 207.6181,261.5938 Q206.3056,259.9375 206.3056,256.8125 Q206.3056,253.6875 207.6181,252.0313 Q208.9463,250.375 211.4463,250.375 Q212.1494,250.375 212.79,250.5313 Q213.4463,250.6875 214.0088,250.9844 L214.0088,253.7031 Q213.3838,253.125 212.79,252.8594 Q212.1963,252.5781 211.5713,252.5781 Q210.2275,252.5781 209.54,253.6563 Q208.8525,254.7188 208.8525,256.8125 Q208.8525,258.9063 209.54,259.9844 Q210.2275,261.0469 211.5713,261.0469 Q212.1963,261.0469 212.79,260.7813 Q213.3838,260.5 214.0088,259.9219 L214.0088,262.6406 Z " fill="#000000"/><text fill="#000000" font-family="sans-serif" font-size="14" lengthAdjust="spacing" textLength="95.874" x="225.04" y="261.8467">Comunidades</text><line style="stroke:#181818;stroke-width:0.5;" x1="197.04" x2="322.914" y1="273" y2="273"/><line style="stroke:#181818;stroke-width:0.5;" x1="197.04" x2="322.914" y1="281" y2="281"/></g><!--class Etiquetas--><g id="elem_Etiquetas"><rect codeLine="6" fill="#F1F1F1" height="48" id="Etiquetas" rx="2.5" ry="2.5" style="stroke:#181818;stroke-width:0.5;" width="97.96" x="7" y="491"/><ellipse cx="22" cy="507" fill="#ADD1B2" rx="11" ry="11" style="stroke:#181818;stroke-width:1;"/><path d="M24.9688,512.6406 Q24.3906,512.9375 23.75,513.0781 Q23.1094,513.2344 22.4063,513.2344 Q19.9063,513.2344 18.5781,511.5938 Q17.2656,509.9375 17.2656,506.8125 Q17.2656,503.6875 18.5781,502.0313 Q19.9063,500.375 22.4063,500.375 Q23.1094,500.375 23.75,500.5313 Q24.4063,500.6875 24.9688,500.9844 L24.9688,503.7031 Q24.3438,503.125 23.75,502.8594 Q23.1563,502.5781 22.5313,502.5781 Q21.1875,502.5781 20.5,503.6563 Q19.8125,504.7188 19.8125,506.8125 Q19.8125,508.9063 20.5,509.9844 Q21.1875,511.0469 22.5313,511.0469 Q23.1563,511.0469 23.75,510.7813 Q24.3438,510.5 24.9688,509.9219 L24.9688,512.6406 Z " fill="#000000"/><text fill="#000000" font-family="sans-serif" font-size="14" lengthAdjust="spacing" textLength="65.96" x="36" y="511.8467">Etiquetas</text><line style="stroke:#181818;stroke-width:0.5;" x1="8" x2="103.96" y1="523" y2="523"/><line style="stroke:#181818;stroke-width:0.5;" x1="8" x2="103.96" y1="531" y2="531"/></g><!--class Comentario--><g id="elem_Comentario"><rect codeLine="7" fill="#F1F1F1" height="48" id="Comentario" rx="2.5" ry="2.5" style="stroke:#181818;stroke-width:0.5;" width="113.7441" x="270.11" y="491"/><ellipse cx="285.11" cy="507" fill="#ADD1B2" rx="11" ry="11" style="stroke:#181818;stroke-width:1;"/><path d="M288.0788,512.6406 Q287.5006,512.9375 286.86,513.0781 Q286.2194,513.2344 285.5163,513.2344 Q283.0163,513.2344 281.6881,511.5938 Q280.3756,509.9375 280.3756,506.8125 Q280.3756,503.6875 281.6881,502.0313 Q283.0163,500.375 285.5163,500.375 Q286.2194,500.375 286.86,500.5313 Q287.5163,500.6875 288.0788,500.9844 L288.0788,503.7031 Q287.4538,503.125 286.86,502.8594 Q286.2663,502.5781 285.6413,502.5781 Q284.2975,502.5781 283.61,503.6563 Q282.9225,504.7188 282.9225,506.8125 Q282.9225,508.9063 283.61,509.9844 Q284.2975,511.0469 285.6413,511.0469 Q286.2663,511.0469 286.86,510.7813 Q287.4538,510.5 288.0788,509.9219 L288.0788,512.6406 Z " fill="#000000"/><text fill="#000000" font-family="sans-serif" font-size="14" lengthAdjust="spacing" textLength="81.7441" x="299.11" y="511.8467">Comentario</text><line style="stroke:#181818;stroke-width:0.5;" x1="271.11" x2="382.8541" y1="523" y2="523"/><line style="stroke:#181818;stroke-width:0.5;" x1="271.11" x2="382.8541" y1="531" y2="531"/></g><!--link Alumno to Usuario--><g id="link_Alumno_Usuario"><path codeLine="10" d="M138.03,55.48 C148.7,73.32 160.2177,92.6022 170.8877,110.4222 " fill="#FFFFFF" fill-opacity="0.00000" id="Alumno-to-Usuario" style="stroke:#181818;stroke-width:1;"/><polygon fill="#181818" points="173.97,115.57,172.7784,105.7935,171.4014,111.2802,165.9147,109.9032,173.97,115.57" style="stroke:#181818;stroke-width:1;"/></g><!--link Exalumno to Usuario--><g id="link_Exalumno_Usuario"><path codeLine="11" d="M237.93,55.48 C227.26,73.32 215.7302,92.601 205.0702,110.421 " fill="#FFFFFF" fill-opacity="0.00000" id="Exalumno-to-Usuario" style="stroke:#181818;stroke-width:1;"/><polygon fill="#181818" points="201.99,115.57,210.0429,109.8999,204.5568,111.2791,203.1776,105.793,201.99,115.57" style="stroke:#181818;stroke-width:1;"/></g><!--link Usuario to Posts--><g id="link_Usuario_Posts"><path codeLine="14" d="M171.08,164.26 C158.07,183.69 141.14,212.69 133.98,241 C122.98,284.53 137.4167,330.6239 149.6767,359.9639 " fill="#FFFFFF" fill-opacity="0.00000" id="Usuario-to-Posts" style="stroke:#181818;stroke-width:1;"/><polygon fill="#181818" points="151.99,365.5,152.2108,355.6536,150.0622,360.8866,144.8293,358.738,151.99,365.5" style="stroke:#181818;stroke-width:1;"/><text fill="#000000" font-family="sans-serif" font-size="13" lengthAdjust="spacing" textLength="43.3228" x="134.98" y="269.5669">realiza</text></g><!--link Usuario to Comunidades--><g id="link_Usuario_Comunidades"><path codeLine="15" d="M201.69,164.42 C214.5,186.31 230.4882,213.6223 243.2882,235.4823 " fill="#FFFFFF" fill-opacity="0.00000" id="Usuario-to-Comunidades" style="stroke:#181818;stroke-width:1;"/><polygon fill="#181818" points="246.32,240.66,245.2241,230.8723,243.7935,236.3453,238.3206,234.9147,246.32,240.66" style="stroke:#181818;stroke-width:1;"/><text fill="#000000" font-family="sans-serif" font-size="13" lengthAdjust="spacing" textLength="57.2495" x="228.98" y="207.0669">participa</text></g><!--link Comunidades to Posts--><g id="link_Comunidades_Posts"><path codeLine="16" d="M241.51,289.42 C224.25,311.31 202.3355,339.0888 185.0955,360.9488 " fill="#FFFFFF" fill-opacity="0.00000" id="Comunidades-to-Posts" style="stroke:#181818;stroke-width:1;"/><polygon fill="#181818" points="181.38,365.66,190.094,361.0702,184.4762,361.734,183.8125,356.1162,181.38,365.66" style="stroke:#181818;stroke-width:1;"/><text fill="#000000" font-family="sans-serif" font-size="13" lengthAdjust="spacing" textLength="87.1787" x="217.98" y="332.0669">formadas por</text></g><!--link Posts to Etiquetas--><g id="link_Posts_Etiquetas"><path codeLine="17" d="M142.6,414.42 C123.56,436.31 99.2384,464.2735 80.2184,486.1335 " fill="#FFFFFF" fill-opacity="0.00000" id="Posts-to-Etiquetas" style="stroke:#181818;stroke-width:1;"/><polygon fill="#181818" points="76.28,490.66,85.2053,486.4959,79.562,486.8879,79.17,481.2447,76.28,490.66" style="stroke:#181818;stroke-width:1;"/><text fill="#000000" font-family="sans-serif" font-size="13" lengthAdjust="spacing" textLength="110.0493" x="116.98" y="457.0669">categorizado por</text></g><!--link Posts to Comentario--><g id="link_Posts_Comentario"><path codeLine="18" d="M195.46,414.29 C208.16,423.47 222.81,434.16 235.98,444 C256.58,459.39 274.7791,473.3725 292.4791,487.1025 " fill="#FFFFFF" fill-opacity="0.00000" id="Posts-to-Comentario" style="stroke:#181818;stroke-width:1;"/><polygon fill="#181818" points="297.22,490.78,292.5604,482.1031,293.2693,487.7154,287.657,488.4243,297.22,490.78" style="stroke:#181818;stroke-width:1;"/><text fill="#000000" font-family="sans-serif" font-size="13" lengthAdjust="spacing" textLength="32.9443" x="256.98" y="457.0669">tiene</text></g><!--link Comentario to Usuario--><g id="link_Comentario_Usuario"><path codeLine="19" d="M334.61,490.61 C349.1,441.98 376.2,327.35 340.98,241 C322.22,195.02 274.8499,169.9547 236.4799,155.8147 " fill="#FFFFFF" fill-opacity="0.00000" id="Comentario-to-Usuario" style="stroke:#181818;stroke-width:1;"/><polygon fill="#181818" points="230.85,153.74,237.9117,160.6053,235.5416,155.4689,240.678,153.0988,230.85,153.74" style="stroke:#181818;stroke-width:1;"/><text fill="#000000" font-family="sans-serif" font-size="13" lengthAdjust="spacing" textLength="69.6084" x="358.98" y="332.0669">escrito por</text></g><!--link Usuario to Etiquetas--><g id="link_Usuario_Etiquetas"><path codeLine="20" d="M156.99,164.26 C119.14,194.85 57.17,252.58 32.98,319 C11.45,378.1 30.8411,447.6643 44.5011,485.0543 " fill="#FFFFFF" fill-opacity="0.00000" id="Usuario-to-Etiquetas" style="stroke:#181818;stroke-width:1;"/><polygon fill="#181818" points="46.56,490.69,47.2287,480.8639,44.8442,485.9936,39.7145,483.6091,46.56,490.69" style="stroke:#181818;stroke-width:1;"/><text fill="#000000" font-family="sans-serif" font-size="13" lengthAdjust="spacing" textLength="94.4023" x="33.98" y="332.0669">Asigna a Posts</text></g><!--SRC=[NOzD2i9038NtSuhiNFK2BWIHxaNm064cra0xKvCfYATt-clgBddvUE_5jwWATnrGE3a_RUTswEAwr6-qwpLfrcM-f6w8733GgjIPNmDbD0J5F5cx0zoeHSyfaa8WU99Gz8nkZeEgEcqzrj2Tk7Sela8mnfJq1PdmgI4SGGXR_k3kPXeNeaV9xBb7PtNhyKZIOK25FecRnV6ylLaGZvcQ92Kff3_izttXCbCaPoJpMZcJUk4yEzZ6Dkgit4G4dEjz0G00]--></g></svg>