<svg xmlns="http://www.w3.org/2000/svg" xmlns:xlink="http://www.w3.org/1999/xlink" contentStyleType="text/css" data-diagram-type="CLASS" height="716px" preserveAspectRatio="none" style="width:357px;height:716px;background:#FFFFFF;" version="1.1" viewBox="0 0 357 716" width="357px" zoomAndPan="magnify"><defs/><g><g class="entity" data-entity="Usuario" data-source-line="1" data-uid="ent0002" id="entity_Usuario"><rect fill="#F1F1F1" height="126.0781" rx="2.5" ry="2.5" style="stroke:#181818;stroke-width:0.5;" width="156.4844" x="58" y="177"/><text fill="#000000" font-family="sans-serif" font-size="14" lengthAdjust="spacing" textLength="53.2041" x="109.6401" y="191.9951">Usuario</text><line style="stroke:#181818;stroke-width:0.5;" x1="59" x2="213.4844" y1="197.2969" y2="197.2969"/><ellipse cx="69" cy="210.9453" fill="none" rx="3" ry="3" style="stroke:#038048;stroke-width:1;"/><text fill="#000000" font-family="sans-serif" font-size="14" lengthAdjust="spacing" textLength="12.7764" x="78" y="214.292">id</text><ellipse cx="69" cy="227.2422" fill="none" rx="3" ry="3" style="stroke:#038048;stroke-width:1;"/><text fill="#000000" font-family="sans-serif" font-size="14" lengthAdjust="spacing" textLength="107.5361" x="78" y="230.5889">nombreUsuario</text><ellipse cx="69" cy="243.5391" fill="none" rx="3" ry="3" style="stroke:#038048;stroke-width:1;"/><text fill="#000000" font-family="sans-serif" font-size="14" lengthAdjust="spacing" textLength="63.0684" x="78" y="246.8857">fotoPerfil</text><ellipse cx="69" cy="259.8359" fill="none" rx="3" ry="3" style="stroke:#038048;stroke-width:1;"/><text fill="#000000" font-family="sans-serif" font-size="14" lengthAdjust="spacing" textLength="130.4844" x="78" y="263.1826">correoInstitucional</text><ellipse cx="69" cy="276.1328" fill="none" rx="3" ry="3" style="stroke:#038048;stroke-width:1;"/><text fill="#000000" font-family="sans-serif" font-size="14" lengthAdjust="spacing" textLength="93.7959" x="78" y="279.4795">comunidades</text><ellipse cx="69" cy="292.4297" fill="none" rx="3" ry="3" style="stroke:#038048;stroke-width:1;"/><text fill="#000000" font-family="sans-serif" font-size="14" lengthAdjust="spacing" textLength="93.7002" x="78" y="295.7764">fechaEntrada</text></g><g class="entity" data-entity="Comunidad" data-source-line="10" data-uid="ent0003" id="entity_Comunidad"><rect fill="#F1F1F1" height="93.4844" rx="2.5" ry="2.5" style="stroke:#181818;stroke-width:0.5;" width="162.0898" x="149" y="7"/><text fill="#000000" font-family="sans-serif" font-size="14" lengthAdjust="spacing" textLength="79.9668" x="190.0615" y="21.9951">Comunidad</text><line style="stroke:#181818;stroke-width:0.5;" x1="150" x2="310.0898" y1="27.2969" y2="27.2969"/><ellipse cx="160" cy="40.9453" fill="none" rx="3" ry="3" style="stroke:#038048;stroke-width:1;"/><text fill="#000000" font-family="sans-serif" font-size="14" lengthAdjust="spacing" textLength="134.2988" x="169" y="44.292">nombreComunidad</text><ellipse cx="160" cy="57.2422" fill="none" rx="3" ry="3" style="stroke:#038048;stroke-width:1;"/><text fill="#000000" font-family="sans-serif" font-size="14" lengthAdjust="spacing" textLength="107.5156" x="169" y="60.5889">fotoComunidad</text><ellipse cx="160" cy="73.5391" fill="none" rx="3" ry="3" style="stroke:#038048;stroke-width:1;"/><text fill="#000000" font-family="sans-serif" font-size="14" lengthAdjust="spacing" textLength="136.0898" x="169" y="76.8857">etiquetasAsociadas</text><ellipse cx="160" cy="89.8359" fill="none" rx="3" ry="3" style="stroke:#038048;stroke-width:1;"/><text fill="#000000" font-family="sans-serif" font-size="14" lengthAdjust="spacing" textLength="70.2803" x="169" y="93.1826">miembros</text></g><g class="entity" data-entity="Post" data-source-line="17" data-uid="ent0004" id="entity_Post"><rect fill="#F1F1F1" height="158.6719" rx="2.5" ry="2.5" style="stroke:#181818;stroke-width:0.5;" width="126.4404" x="181" y="380"/><text fill="#000000" font-family="sans-serif" font-size="14" lengthAdjust="spacing" textLength="29.791" x="229.3247" y="394.9951">Post</text><line style="stroke:#181818;stroke-width:0.5;" x1="182" x2="306.4404" y1="400.2969" y2="400.2969"/><ellipse cx="192" cy="413.9453" fill="none" rx="3" ry="3" style="stroke:#038048;stroke-width:1;"/><text fill="#000000" font-family="sans-serif" font-size="14" lengthAdjust="spacing" textLength="12.7764" x="201" y="417.292">id</text><ellipse cx="192" cy="430.2422" fill="none" rx="3" ry="3" style="stroke:#038048;stroke-width:1;"/><text fill="#000000" font-family="sans-serif" font-size="14" lengthAdjust="spacing" textLength="71.292" x="201" y="433.5889">usuarioOP</text><ellipse cx="192" cy="446.5391" fill="none" rx="3" ry="3" style="stroke:#038048;stroke-width:1;"/><text fill="#000000" font-family="sans-serif" font-size="14" lengthAdjust="spacing" textLength="100.4404" x="201" y="449.8857">fechaCreacion</text><ellipse cx="192" cy="462.8359" fill="none" rx="3" ry="3" style="stroke:#038048;stroke-width:1;"/><text fill="#000000" font-family="sans-serif" font-size="14" lengthAdjust="spacing" textLength="69.4531" x="201" y="466.1826">contenido</text><ellipse cx="192" cy="479.1328" fill="none" rx="3" ry="3" style="stroke:#038048;stroke-width:1;"/><text fill="#000000" font-family="sans-serif" font-size="14" lengthAdjust="spacing" textLength="57.0938" x="201" y="482.4795">resuelto</text><ellipse cx="192" cy="495.4297" fill="none" rx="3" ry="3" style="stroke:#038048;stroke-width:1;"/><text fill="#000000" font-family="sans-serif" font-size="14" lengthAdjust="spacing" textLength="65.7275" x="201" y="498.7764">etiquetas</text><ellipse cx="192" cy="511.7266" fill="none" rx="3" ry="3" style="stroke:#038048;stroke-width:1;"/><text fill="#000000" font-family="sans-serif" font-size="14" lengthAdjust="spacing" textLength="31.7939" x="201" y="515.0732">likes</text><ellipse cx="192" cy="528.0234" fill="none" rx="3" ry="3" style="stroke:#038048;stroke-width:1;"/><text fill="#000000" font-family="sans-serif" font-size="14" lengthAdjust="spacing" textLength="86.96" x="201" y="531.3701">comentarios</text></g><g class="entity" data-entity="Comentario" data-source-line="28" data-uid="ent0005" id="entity_Comentario"><rect fill="#F1F1F1" height="93.4844" rx="2.5" ry="2.5" style="stroke:#181818;stroke-width:0.5;" width="126.4404" x="7" y="616"/><text fill="#000000" font-family="sans-serif" font-size="14" lengthAdjust="spacing" textLength="81.7441" x="29.3481" y="630.9951">Comentario</text><line style="stroke:#181818;stroke-width:0.5;" x1="8" x2="132.4404" y1="636.2969" y2="636.2969"/><ellipse cx="18" cy="649.9453" fill="none" rx="3" ry="3" style="stroke:#038048;stroke-width:1;"/><text fill="#000000" font-family="sans-serif" font-size="14" lengthAdjust="spacing" textLength="12.7764" x="27" y="653.292">id</text><ellipse cx="18" cy="666.2422" fill="none" rx="3" ry="3" style="stroke:#038048;stroke-width:1;"/><text fill="#000000" font-family="sans-serif" font-size="14" lengthAdjust="spacing" textLength="53.8535" x="27" y="669.5889">creador</text><ellipse cx="18" cy="682.5391" fill="none" rx="3" ry="3" style="stroke:#038048;stroke-width:1;"/><text fill="#000000" font-family="sans-serif" font-size="14" lengthAdjust="spacing" textLength="69.4531" x="27" y="685.8857">contenido</text><ellipse cx="18" cy="698.8359" fill="none" rx="3" ry="3" style="stroke:#038048;stroke-width:1;"/><text fill="#000000" font-family="sans-serif" font-size="14" lengthAdjust="spacing" textLength="100.4404" x="27" y="702.1826">fechaCreacion</text></g><g class="entity" data-entity="Etiqueta" data-source-line="35" data-uid="ent0006" id="entity_Etiqueta"><rect fill="#F1F1F1" height="60.8906" rx="2.5" ry="2.5" style="stroke:#181818;stroke-width:0.5;" width="136.7969" x="175.5" y="632"/><text fill="#000000" font-family="sans-serif" font-size="14" lengthAdjust="spacing" textLength="58.666" x="214.5654" y="646.9951">Etiqueta</text><line style="stroke:#181818;stroke-width:0.5;" x1="176.5" x2="311.2969" y1="652.2969" y2="652.2969"/><ellipse cx="186.5" cy="665.9453" fill="none" rx="3" ry="3" style="stroke:#038048;stroke-width:1;"/><text fill="#000000" font-family="sans-serif" font-size="14" lengthAdjust="spacing" textLength="105.7246" x="195.5" y="669.292">nombre : Playa</text><ellipse cx="186.5" cy="682.2422" fill="none" rx="3" ry="3" style="stroke:#038048;stroke-width:1;"/><text fill="#000000" font-family="sans-serif" font-size="14" lengthAdjust="spacing" textLength="110.7969" x="195.5" y="685.5889">numeroDePosts</text></g><!--reverse link Comunidad to Post--><g class="link" data-entity-1="Comunidad" data-entity-2="Post" data-source-line="41" data-uid="lnk7" id="link_Comunidad_Post"><path codeLine="41" d="M272.5062,110.5605 C278.1562,119.9105 276.92,119.76 280,130 C304.98,212.95 287.96,312.34 269.81,379.91" fill="none" id="Comunidad-backto-Post" style="stroke:#181818;stroke-width:1;"/><polygon fill="none" points="266.3,100.29,265.9796,107.494,272.5062,110.5605,272.8266,103.3565,266.3,100.29" style="stroke:#181818;stroke-width:1;"/><text fill="#000000" font-family="sans-serif" font-size="13" lengthAdjust="spacing" textLength="56.2847" x="293" y="244.5669">contiene</text></g><!--reverse link Comunidad to Usuario--><g class="link" data-entity-1="Comunidad" data-entity-2="Usuario" data-source-line="42" data-uid="lnk8" id="link_Comunidad_Usuario"><path codeLine="42" d="M204.0371,105.4566 C192.2471,128.6066 180.46,151.74 167.66,176.87" fill="none" id="Comunidad-backto-Usuario" style="stroke:#181818;stroke-width:1;"/><polygon fill="#181818" points="206.76,100.11,199.1112,106.3145,204.4909,104.5655,206.24,109.9451,206.76,100.11" style="stroke:#181818;stroke-width:1;"/><text fill="#000000" font-family="sans-serif" font-size="13" lengthAdjust="spacing" textLength="78.8696" x="193" y="143.0669">miembro de</text></g><!--link Usuario to Comentario--><g class="link" data-entity-1="Usuario" data-entity-2="Comentario" data-source-line="43" data-uid="lnk9" id="link_Usuario_Comentario"><path codeLine="43" d="M105.72,303.13 C101.9,312.94 98.47,323.11 96,333 C71.38,431.66 68.3642,545.6902 68.8542,609.8402" fill="none" id="Usuario-to-Comentario" style="stroke:#181818;stroke-width:1;"/><polygon fill="#181818" points="68.9,615.84,72.8311,606.8097,68.8618,610.8401,64.8314,606.8708,68.9,615.84" style="stroke:#181818;stroke-width:1;"/><text fill="#000000" font-family="sans-serif" font-size="13" lengthAdjust="spacing" textLength="28.4565" x="87" y="464.0669">crea</text></g><!--link Usuario to Post--><g class="link" data-entity-1="Usuario" data-entity-2="Post" data-source-line="44" data-uid="lnk10" id="link_Usuario_Post"><path codeLine="44" d="M193.25,303.04 C200.27,312.62 206.79,322.75 212,333 C219.38,347.53 223.5322,358.1222 228.0122,374.1222" fill="none" id="Usuario-to-Post" style="stroke:#181818;stroke-width:1;"/><polygon fill="#181818" points="229.63,379.9,231.0552,370.1548,228.2819,375.0852,223.3515,372.3118,229.63,379.9" style="stroke:#181818;stroke-width:1;"/><text fill="#000000" font-family="sans-serif" font-size="13" lengthAdjust="spacing" textLength="28.4565" x="221" y="346.0669">crea</text></g><!--link Usuario to Post--><g class="link" data-entity-1="Usuario" data-entity-2="Post" data-source-line="49" data-uid="lnk13" id="link_Usuario_Post"><path codeLine="49" d="M105.28,303.04 C101.44,318.79 100.97,335.39 108,350 C123.33,381.84 148.0323,403.9503 175.7923,422.1503" fill="none" id="Usuario-to-Post-1" style="stroke:#181818;stroke-width:1;"/><polygon fill="#181818" points="180.81,425.44,175.4765,417.1603,176.6286,422.6986,171.0902,423.8506,180.81,425.44" style="stroke:#181818;stroke-width:1;"/><text fill="#000000" font-family="sans-serif" font-size="13" lengthAdjust="spacing" textLength="94.1802" x="109" y="346.0669">interact&#250;a con</text></g><!--reverse link Post to Comentario--><g class="link" data-entity-1="Post" data-entity-2="Comentario" data-source-line="47" data-uid="lnk11" id="link_Post_Comentario"><path codeLine="47" d="M173.0864,542.4231 C149.2564,569.9531 130.68,591.4 109.6,615.75" fill="none" id="Post-backto-Comentario" style="stroke:#181818;stroke-width:1;"/><polygon fill="#181818" points="180.94,533.35,173.9888,535.2686,173.0864,542.4231,180.0375,540.5044,180.94,533.35" style="stroke:#181818;stroke-width:1;"/><text fill="#000000" font-family="sans-serif" font-size="13" lengthAdjust="spacing" textLength="32.9443" x="148" y="582.0669">tiene</text></g><!--reverse link Post to Etiqueta--><g class="link" data-entity-1="Post" data-entity-2="Etiqueta" data-source-line="48" data-uid="lnk12" id="link_Post_Etiqueta"><path codeLine="48" d="M244,551.08 C244,583.67 244,607.49 244,631.92" fill="none" id="Post-backto-Etiqueta" style="stroke:#181818;stroke-width:1;"/><polygon fill="none" points="244,539.08,240,545.08,244,551.08,248,545.08,244,539.08" style="stroke:#181818;stroke-width:1;"/><text fill="#000000" font-family="sans-serif" font-size="13" lengthAdjust="spacing" textLength="22.9785" x="245" y="582.0669">usa</text></g><!--SRC=[TL9BIWGn4Dtd5A4tWj8N64IGSHQkR0GFK9EkOQBTAKqg2ncyc5ilPgMJ_gAz2VLUyZv5q_4L3UkN4C5RkYWjturjy-ceFteiN8PEnDIWFzakpuQyHtfqWIr7Oyd1HFJHsHPQ3EKbcZCS77jeGNqfHTbvFzxJbwNf1C-s6mZPVaHa2FU1Z1NHujDR504A2u-60kjDjvXRFJMBT7kFa3gC3HoZ69Rc7aF4ZcdZdiVEleqzfJWwJjfXNREWso16J5loVtgkKyrgX-A-tfdUwQQ3JoXOxD7J0wRoGv8h_OmTi2Y5itqFQjuyrNNUqKvNAO55XzM2lnM-_0NfIjcmRkNI2DVrtR9Z4fBOQtwo61YbXlbQjDSFY_t0fcHJMU5Y-4VJojuy6Fxv1YqLgby0]--></g></svg>