<svg xmlns="http://www.w3.org/2000/svg" xmlns:xlink="http://www.w3.org/1999/xlink" contentStyleType="text/css" data-diagram-type="CLASS" height="716px" preserveAspectRatio="none" style="width:859px;height:716px;background:#FFFFFF;" version="1.1" viewBox="0 0 859 716" width="859px" zoomAndPan="magnify"><defs/><g><g class="entity" data-entity="Volleyball" data-source-line="1" data-uid="ent0002" id="entity_Volleyball"><rect fill="#F1F1F1" height="93.4844" rx="2.5" ry="2.5" style="stroke:#181818;stroke-width:0.5;" width="329.6934" x="278" y="7"/><text fill="#000000" font-family="sans-serif" font-size="14" lengthAdjust="spacing" textLength="68.0654" x="408.814" y="21.9951">Volleyball</text><line style="stroke:#181818;stroke-width:0.5;" x1="279" x2="606.6934" y1="27.2969" y2="27.2969"/><ellipse cx="289" cy="40.9453" fill="none" rx="3" ry="3" style="stroke:#038048;stroke-width:1;"/><text fill="#000000" font-family="sans-serif" font-size="14" lengthAdjust="spacing" textLength="215.9814" x="298" y="44.292">nombreComunidad : Volleyball</text><ellipse cx="289" cy="57.2422" fill="none" rx="3" ry="3" style="stroke:#038048;stroke-width:1;"/><text fill="#000000" font-family="sans-serif" font-size="14" lengthAdjust="spacing" textLength="193.7578" x="298" y="60.5889">fotoComunidad : volley.png</text><ellipse cx="289" cy="73.5391" fill="none" rx="3" ry="3" style="stroke:#038048;stroke-width:1;"/><text fill="#000000" font-family="sans-serif" font-size="14" lengthAdjust="spacing" textLength="303.6934" x="298" y="76.8857">etiquetasAsociadas : Deportes, Actividades</text><ellipse cx="289" cy="89.8359" fill="none" rx="3" ry="3" style="stroke:#038048;stroke-width:1;"/><text fill="#000000" font-family="sans-serif" font-size="14" lengthAdjust="spacing" textLength="271.585" x="298" y="93.1826">miembros : Monica, Carmen, Emilio, ...</text></g><g class="entity" data-entity="Gabriel" data-source-line="8" data-uid="ent0003" id="entity_Gabriel"><rect fill="#F1F1F1" height="126.0781" rx="2.5" ry="2.5" style="stroke:#181818;stroke-width:0.5;" width="366.3955" x="7" y="177"/><text fill="#000000" font-family="sans-serif" font-size="14" lengthAdjust="spacing" textLength="50.4629" x="164.9663" y="191.9951">Gabriel</text><line style="stroke:#181818;stroke-width:0.5;" x1="8" x2="372.3955" y1="197.2969" y2="197.2969"/><ellipse cx="18" cy="210.9453" fill="none" rx="3" ry="3" style="stroke:#038048;stroke-width:1;"/><text fill="#000000" font-family="sans-serif" font-size="14" lengthAdjust="spacing" textLength="75.0928" x="27" y="214.292">id : #U001</text><ellipse cx="18" cy="227.2422" fill="none" rx="3" ry="3" style="stroke:#038048;stroke-width:1;"/><text fill="#000000" font-family="sans-serif" font-size="14" lengthAdjust="spacing" textLength="239.668" x="27" y="230.5889">nombreUsuario : Gbrl_lechuga413</text><ellipse cx="18" cy="243.5391" fill="none" rx="3" ry="3" style="stroke:#038048;stroke-width:1;"/><text fill="#000000" font-family="sans-serif" font-size="14" lengthAdjust="spacing" textLength="152.6533" x="27" y="246.8857">fotoPerfil : perfil1.png</text><ellipse cx="18" cy="259.8359" fill="none" rx="3" ry="3" style="stroke:#038048;stroke-width:1;"/><text fill="#000000" font-family="sans-serif" font-size="14" lengthAdjust="spacing" textLength="336.7246" x="27" y="263.1826">correoInstitucional : gabriel.sicacha@alumnos...</text><ellipse cx="18" cy="276.1328" fill="none" rx="3" ry="3" style="stroke:#038048;stroke-width:1;"/><text fill="#000000" font-family="sans-serif" font-size="14" lengthAdjust="spacing" textLength="340.3955" x="27" y="279.4795">comunidades : Volleyball, Calabozos y Dragones</text><ellipse cx="18" cy="292.4297" fill="none" rx="3" ry="3" style="stroke:#038048;stroke-width:1;"/><text fill="#000000" font-family="sans-serif" font-size="14" lengthAdjust="spacing" textLength="188.6787" x="27" y="295.7764">fechaEntrada : 2025-09-02</text></g><g class="entity" data-entity="Samuel" data-source-line="17" data-uid="ent0004" id="entity_Samuel"><rect fill="#F1F1F1" height="126.0781" rx="2.5" ry="2.5" style="stroke:#181818;stroke-width:0.5;" width="316.3906" x="536" y="177"/><text fill="#000000" font-family="sans-serif" font-size="14" lengthAdjust="spacing" textLength="52.4795" x="667.9556" y="191.9951">Samuel</text><line style="stroke:#181818;stroke-width:0.5;" x1="537" x2="851.3906" y1="197.2969" y2="197.2969"/><ellipse cx="547" cy="210.9453" fill="none" rx="3" ry="3" style="stroke:#038048;stroke-width:1;"/><text fill="#000000" font-family="sans-serif" font-size="14" lengthAdjust="spacing" textLength="75.0928" x="556" y="214.292">id : #U002</text><ellipse cx="547" cy="227.2422" fill="none" rx="3" ry="3" style="stroke:#038048;stroke-width:1;"/><text fill="#000000" font-family="sans-serif" font-size="14" lengthAdjust="spacing" textLength="210.0889" x="556" y="230.5889">nombreUsuario : Samu_jketos</text><ellipse cx="547" cy="243.5391" fill="none" rx="3" ry="3" style="stroke:#038048;stroke-width:1;"/><text fill="#000000" font-family="sans-serif" font-size="14" lengthAdjust="spacing" textLength="152.6533" x="556" y="246.8857">fotoPerfil : perfil2.png</text><ellipse cx="547" cy="259.8359" fill="none" rx="3" ry="3" style="stroke:#038048;stroke-width:1;"/><text fill="#000000" font-family="sans-serif" font-size="14" lengthAdjust="spacing" textLength="290.3906" x="556" y="263.1826">correoInstitucional : samuel.j@alumnos...</text><ellipse cx="547" cy="276.1328" fill="none" rx="3" ry="3" style="stroke:#038048;stroke-width:1;"/><text fill="#000000" font-family="sans-serif" font-size="14" lengthAdjust="spacing" textLength="222.79" x="556" y="279.4795">comunidades : Volleyball, Padel</text><ellipse cx="547" cy="292.4297" fill="none" rx="3" ry="3" style="stroke:#038048;stroke-width:1;"/><text fill="#000000" font-family="sans-serif" font-size="14" lengthAdjust="spacing" textLength="188.6787" x="556" y="295.7764">fechaEntrada : 2025-10-02</text></g><g class="entity" data-entity="Post1" data-source-line="26" data-uid="ent0005" id="entity_Post1"><rect fill="#F1F1F1" height="158.6719" rx="2.5" ry="2.5" style="stroke:#181818;stroke-width:0.5;" width="270.7402" x="314.5" y="380"/><text fill="#000000" font-family="sans-serif" font-size="14" lengthAdjust="spacing" textLength="38.6982" x="430.521" y="394.9951">Post1</text><line style="stroke:#181818;stroke-width:0.5;" x1="315.5" x2="584.2402" y1="400.2969" y2="400.2969"/><ellipse cx="325.5" cy="413.9453" fill="none" rx="3" ry="3" style="stroke:#038048;stroke-width:1;"/><text fill="#000000" font-family="sans-serif" font-size="14" lengthAdjust="spacing" textLength="73.2881" x="334.5" y="417.292">id : #P001</text><ellipse cx="325.5" cy="430.2422" fill="none" rx="3" ry="3" style="stroke:#038048;stroke-width:1;"/><text fill="#000000" font-family="sans-serif" font-size="14" lengthAdjust="spacing" textLength="173.8447" x="334.5" y="433.5889">usuarioOP : Samu_jketos</text><ellipse cx="325.5" cy="446.5391" fill="none" rx="3" ry="3" style="stroke:#038048;stroke-width:1;"/><text fill="#000000" font-family="sans-serif" font-size="14" lengthAdjust="spacing" textLength="195.4189" x="334.5" y="449.8857">fechaCreacion : 2025-02-11</text><ellipse cx="325.5" cy="462.8359" fill="none" rx="3" ry="3" style="stroke:#038048;stroke-width:1;"/><text fill="#000000" font-family="sans-serif" font-size="14" lengthAdjust="spacing" textLength="244.7402" x="334.5" y="466.1826">contenido : "A la playa el s&#225;bado?"</text><ellipse cx="325.5" cy="479.1328" fill="none" rx="3" ry="3" style="stroke:#038048;stroke-width:1;"/><text fill="#000000" font-family="sans-serif" font-size="14" lengthAdjust="spacing" textLength="104.0156" x="334.5" y="482.4795">resuelto : false</text><ellipse cx="325.5" cy="495.4297" fill="none" rx="3" ry="3" style="stroke:#038048;stroke-width:1;"/><text fill="#000000" font-family="sans-serif" font-size="14" lengthAdjust="spacing" textLength="194.0859" x="334.5" y="498.7764">etiquetas : Playa, Volleyball</text><ellipse cx="325.5" cy="511.7266" fill="none" rx="3" ry="3" style="stroke:#038048;stroke-width:1;"/><text fill="#000000" font-family="sans-serif" font-size="14" lengthAdjust="spacing" textLength="63.2256" x="334.5" y="515.0732">likes : 12</text><ellipse cx="325.5" cy="528.0234" fill="none" rx="3" ry="3" style="stroke:#038048;stroke-width:1;"/><text fill="#000000" font-family="sans-serif" font-size="14" lengthAdjust="spacing" textLength="109.4844" x="334.5" y="531.3701">comentarios : 1</text></g><g class="entity" data-entity="Comentario1" data-source-line="37" data-uid="ent0006" id="entity_Comentario1"><rect fill="#F1F1F1" height="93.4844" rx="2.5" ry="2.5" style="stroke:#181818;stroke-width:0.5;" width="287.0986" x="41.5" y="616"/><text fill="#000000" font-family="sans-serif" font-size="14" lengthAdjust="spacing" textLength="90.6514" x="139.7236" y="630.9951">Comentario1</text><line style="stroke:#181818;stroke-width:0.5;" x1="42.5" x2="327.5986" y1="636.2969" y2="636.2969"/><ellipse cx="52.5" cy="649.9453" fill="none" rx="3" ry="3" style="stroke:#038048;stroke-width:1;"/><text fill="#000000" font-family="sans-serif" font-size="14" lengthAdjust="spacing" textLength="74.6211" x="61.5" y="653.292">id : #C001</text><ellipse cx="52.5" cy="666.2422" fill="none" rx="3" ry="3" style="stroke:#038048;stroke-width:1;"/><text fill="#000000" font-family="sans-serif" font-size="14" lengthAdjust="spacing" textLength="185.9854" x="61.5" y="669.5889">creador : Gbrl_lechuga413</text><ellipse cx="52.5" cy="682.5391" fill="none" rx="3" ry="3" style="stroke:#038048;stroke-width:1;"/><text fill="#000000" font-family="sans-serif" font-size="14" lengthAdjust="spacing" textLength="261.0986" x="61.5" y="685.8857">contenido : "&#191;Qu&#233; hay del domingo?"</text><ellipse cx="52.5" cy="698.8359" fill="none" rx="3" ry="3" style="stroke:#038048;stroke-width:1;"/><text fill="#000000" font-family="sans-serif" font-size="14" lengthAdjust="spacing" textLength="195.4189" x="61.5" y="702.1826">fechaCreacion : 2025-02-11</text></g><g class="entity" data-entity="EtiquetaPlaya" data-source-line="44" data-uid="ent0007" id="entity_EtiquetaPlaya"><rect fill="#F1F1F1" height="60.8906" rx="2.5" ry="2.5" style="stroke:#181818;stroke-width:0.5;" width="177.1357" x="363.5" y="632"/><text fill="#000000" font-family="sans-serif" font-size="14" lengthAdjust="spacing" textLength="96.4414" x="403.8472" y="646.9951">EtiquetaPlaya</text><line style="stroke:#181818;stroke-width:0.5;" x1="364.5" x2="539.6357" y1="652.2969" y2="652.2969"/><ellipse cx="374.5" cy="665.9453" fill="none" rx="3" ry="3" style="stroke:#038048;stroke-width:1;"/><text fill="#000000" font-family="sans-serif" font-size="14" lengthAdjust="spacing" textLength="105.7246" x="383.5" y="669.292">nombre : Playa</text><ellipse cx="374.5" cy="682.2422" fill="none" rx="3" ry="3" style="stroke:#038048;stroke-width:1;"/><text fill="#000000" font-family="sans-serif" font-size="14" lengthAdjust="spacing" textLength="151.1357" x="383.5" y="685.5889">numeroDePosts : 157</text></g><g class="entity" data-entity="EtiquetaVolley" data-source-line="49" data-uid="ent0008" id="entity_EtiquetaVolley"><rect fill="#F1F1F1" height="60.8906" rx="2.5" ry="2.5" style="stroke:#181818;stroke-width:0.5;" width="168.2285" x="575" y="632"/><text fill="#000000" font-family="sans-serif" font-size="14" lengthAdjust="spacing" textLength="101.4863" x="608.3711" y="646.9951">EtiquetaVolley</text><line style="stroke:#181818;stroke-width:0.5;" x1="576" x2="742.2285" y1="652.2969" y2="652.2969"/><ellipse cx="586" cy="665.9453" fill="none" rx="3" ry="3" style="stroke:#038048;stroke-width:1;"/><text fill="#000000" font-family="sans-serif" font-size="14" lengthAdjust="spacing" textLength="136.0146" x="595" y="669.292">nombre : Volleyball</text><ellipse cx="586" cy="682.2422" fill="none" rx="3" ry="3" style="stroke:#038048;stroke-width:1;"/><text fill="#000000" font-family="sans-serif" font-size="14" lengthAdjust="spacing" textLength="142.2285" x="595" y="685.5889">numeroDePosts : 68</text></g><!--reverse link Volleyball to Post1--><g class="link" data-entity-1="Volleyball" data-entity-2="Post1" data-source-line="55" data-uid="lnk9" id="link_Volleyball_Post1"><path codeLine="55" d="M443.9985,112.0582 C445.1785,179.9482 447.19,296.59 448.64,379.88" fill="none" id="Volleyball-backto-Post1" style="stroke:#181818;stroke-width:1;"/><polygon fill="none" points="443.79,100.06,439.8949,106.1286,443.9985,112.0582,447.8937,105.9896,443.79,100.06" style="stroke:#181818;stroke-width:1;"/><text fill="#000000" font-family="sans-serif" font-size="13" lengthAdjust="spacing" textLength="56.2847" x="449" y="244.5669">contiene</text></g><!--link Gabriel to Comentario1--><g class="link" data-entity-1="Gabriel" data-entity-2="Comentario1" data-source-line="56" data-uid="lnk10" id="link_Gabriel_Comentario1"><path codeLine="56" d="M189.26,303.05 C188.25,388.37 186.5221,533.9604 185.6121,609.7304" fill="none" id="Gabriel-to-Comentario1" style="stroke:#181818;stroke-width:1;"/><polygon fill="#181818" points="185.54,615.73,189.6478,606.7787,185.6,610.7304,181.6484,606.6826,185.54,615.73" style="stroke:#181818;stroke-width:1;"/><text fill="#000000" font-family="sans-serif" font-size="13" lengthAdjust="spacing" textLength="28.4565" x="190" y="464.0669">crea</text></g><!--reverse link Volleyball to Gabriel--><g class="link" data-entity-1="Volleyball" data-entity-2="Gabriel" data-source-line="57" data-uid="lnk11" id="link_Volleyball_Gabriel"><path codeLine="57" d="M373.7959,103.5051 C360.0059,113.3451 350.43,120.24 337,130 C316.31,145.04 294.1,161.39 273.37,176.76" fill="none" id="Volleyball-backto-Gabriel" style="stroke:#181818;stroke-width:1;"/><polygon fill="#181818" points="378.68,100.02,369.0305,101.9916,374.6099,102.9242,373.6773,108.5037,378.68,100.02" style="stroke:#181818;stroke-width:1;"/><text fill="#000000" font-family="sans-serif" font-size="13" lengthAdjust="spacing" textLength="78.8696" x="338" y="143.0669">miembro de</text></g><!--reverse link Volleyball to Samuel--><g class="link" data-entity-1="Volleyball" data-entity-2="Samuel" data-source-line="58" data-uid="lnk12" id="link_Volleyball_Samuel"><path codeLine="58" d="M509.8753,103.6624 C541.3853,126.8124 575.29,151.74 609.47,176.87" fill="none" id="Volleyball-backto-Samuel" style="stroke:#181818;stroke-width:1;"/><polygon fill="#181818" points="505.04,100.11,509.9247,108.6622,509.0694,103.0704,514.6613,102.2151,505.04,100.11" style="stroke:#181818;stroke-width:1;"/><text fill="#000000" font-family="sans-serif" font-size="13" lengthAdjust="spacing" textLength="78.8696" x="570" y="143.0669">miembro de</text></g><!--link Samuel to Post1--><g class="link" data-entity-1="Samuel" data-entity-2="Post1" data-source-line="59" data-uid="lnk13" id="link_Samuel_Post1"><path codeLine="59" d="M624.41,303.04 C597.64,326.89 571.2093,350.458 542.8993,375.688" fill="none" id="Samuel-to-Post1" style="stroke:#181818;stroke-width:1;"/><polygon fill="#181818" points="538.42,379.68,547.8003,376.6782,542.1528,376.3534,542.4776,370.7058,538.42,379.68" style="stroke:#181818;stroke-width:1;"/><text fill="#000000" font-family="sans-serif" font-size="13" lengthAdjust="spacing" textLength="28.4565" x="588" y="346.0669">crea</text></g><!--reverse link Post1 to Comentario1--><g class="link" data-entity-1="Post1" data-entity-2="Comentario1" data-source-line="62" data-uid="lnk14" id="link_Post1_Comentario1"><path codeLine="62" d="M336.8483,546.3308 C302.5883,572.3108 275.18,593.1 245.28,615.78" fill="none" id="Post1-backto-Comentario1" style="stroke:#181818;stroke-width:1;"/><polygon fill="#181818" points="346.41,539.08,339.2122,539.5182,336.8483,546.3308,344.0461,545.8926,346.41,539.08" style="stroke:#181818;stroke-width:1;"/><text fill="#000000" font-family="sans-serif" font-size="13" lengthAdjust="spacing" textLength="32.9443" x="303" y="582.0669">tiene</text></g><!--reverse link Post1 to EtiquetaPlaya--><g class="link" data-entity-1="Post1" data-entity-2="EtiquetaPlaya" data-source-line="63" data-uid="lnk15" id="link_Post1_EtiquetaPlaya"><path codeLine="63" d="M450.9015,551.0794 C451.2315,583.6694 451.46,607.49 451.71,631.92" fill="none" id="Post1-backto-EtiquetaPlaya" style="stroke:#181818;stroke-width:1;"/><polygon fill="none" points="450.78,539.08,446.841,545.1202,450.9015,551.0794,454.8405,545.0392,450.78,539.08" style="stroke:#181818;stroke-width:1;"/><text fill="#000000" font-family="sans-serif" font-size="13" lengthAdjust="spacing" textLength="22.9785" x="453" y="582.0669">usa</text></g><!--reverse link Post1 to EtiquetaVolley--><g class="link" data-entity-1="Post1" data-entity-2="EtiquetaVolley" data-source-line="64" data-uid="lnk16" id="link_Post1_EtiquetaVolley"><path codeLine="64" d="M540.3496,547.3978 C574.2396,579.9878 602.84,607.49 628.24,631.92" fill="none" id="Post1-backto-EtiquetaVolley" style="stroke:#181818;stroke-width:1;"/><polygon fill="none" points="531.7,539.08,533.2522,546.1221,540.3496,547.3978,538.7974,540.3557,531.7,539.08" style="stroke:#181818;stroke-width:1;"/><text fill="#000000" font-family="sans-serif" font-size="13" lengthAdjust="spacing" textLength="22.9785" x="581" y="582.0669">usa</text></g><!--link Gabriel to Post1--><g class="link" data-entity-1="Gabriel" data-entity-2="Post1" data-source-line="65" data-uid="lnk17" id="link_Gabriel_Post1"><path codeLine="65" d="M264.16,303.04 C292.68,326.89 321.0179,350.6002 351.1779,375.8302" fill="none" id="Gabriel-to-Post1" style="stroke:#181818;stroke-width:1;"/><polygon fill="#181818" points="355.78,379.68,351.4434,370.8372,351.9449,376.4718,346.3104,376.9733,355.78,379.68" style="stroke:#181818;stroke-width:1;"/><text fill="#000000" font-family="sans-serif" font-size="13" lengthAdjust="spacing" textLength="94.1802" x="321" y="346.0669">interact&#250;a con</text></g><!--SRC=[bPJFZjCm4CRlUGgh792WgPh0yay8gDfgnG5HGCjrDKcdhRkEfzZEIbt4mt3a5RWWqHTZdAHfahOWSeeydsU-tnSxbAmnTU8pAONR19GINmF1pqDDMM9mJ5ckvHpcuaL3KoeMvAXPlotgWurUbdLqyakE3kp8KYfX3fP54zoGSMZxOfGwUUkteYtrcKGUILxrZhHCeI_6O3BKVJ7Df9BK5uF18FWM15IQleJ4IAmTIs_YtjLm63K9hcmEHXANBXEZhXMcgtm9ZwD71uWPceLKhDWKBz418ILZaDvgwwJBKqaQl6nPpXrOzfYku0seFDDalRbgLnKAsbPidaT1GdVCk1KJ0qlIU_W5-uAfTePpuatnCBu8Xy_3OTpW_GHPVW8tFethrTVh6tHapwB6_qArnSZ1-ZyOPxocpaD5mpRKZAoBsaop-XFc9StxsKaUttri4BpREhCuZAAzHUsGFVemUYEXG6mKR45mX7RtFO4vlUwLIeEMAPqNBa1Px9nVNfxvdVsZAw3aJS4VnNKgg9stNAmsCCTrfGCxhc5JHfcJENTIMpY_Vtt8Tp_42hQ2qnPpogHUrZn_IURWQ5hX5MZjMxy7hjRo30rDq7-f0klYwOasPJH7VRg9TPizUUPxtHSVKO5ZjtObDpPe_8ue3AipmjW-0uaQUy7-xeVXgrQsNiJWlMQBbznYh-TwzP_Xu8vKrGthYAfLF-hWf1WI1EN20zxRSL7vBEiUefqtAt8Bf-fLa7j14xIUBlae64ZTxYS8pgJt1m00]--></g></svg>