<svg xmlns="http://www.w3.org/2000/svg" xmlns:xlink="http://www.w3.org/1999/xlink" contentStyleType="text/css" data-diagram-type="STATE" height="554px" preserveAspectRatio="none" style="width:942px;height:554px;background:#FFFFFF;" version="1.1" viewBox="0 0 942 554" width="942px" zoomAndPan="magnify"><defs/><g><ellipse cx="194" cy="16" fill="#222222" rx="10" ry="10" style="stroke:#222222;stroke-width:1;"/><g id="Inicio"><rect fill="#F1F1F1" height="50" rx="12.5" ry="12.5" style="stroke:#181818;stroke-width:0.5;" width="57.0439" x="165.5" y="87"/><line style="stroke:#181818;stroke-width:0.5;" x1="165.5" x2="222.5439" y1="113.2969" y2="113.2969"/><text fill="#000000" font-family="sans-serif" font-size="14" lengthAdjust="spacing" textLength="37.0439" x="175.5" y="104.9951">Inicio</text></g><g id="Usuario"><rect fill="#F1F1F1" height="50" rx="12.5" ry="12.5" style="stroke:#181818;stroke-width:0.5;" width="73.2041" x="76.5" y="214"/><line style="stroke:#181818;stroke-width:0.5;" x1="76.5" x2="149.7041" y1="240.2969" y2="240.2969"/><text fill="#000000" font-family="sans-serif" font-size="14" lengthAdjust="spacing" textLength="53.2041" x="86.5" y="231.9951">Usuario</text></g><g id="Moderador"><rect fill="#F1F1F1" height="50" rx="12.5" ry="12.5" style="stroke:#181818;stroke-width:0.5;" width="95.6875" x="227" y="341"/><line style="stroke:#181818;stroke-width:0.5;" x1="227" x2="322.6875" y1="367.2969" y2="367.2969"/><text fill="#000000" font-family="sans-serif" font-size="14" lengthAdjust="spacing" textLength="75.6875" x="237" y="358.9951">Moderador</text></g><g id="Publicaciones"><rect fill="#F1F1F1" height="50" rx="12.5" ry="12.5" style="stroke:#181818;stroke-width:0.5;" width="115.1904" x="744.5" y="498"/><line style="stroke:#181818;stroke-width:0.5;" x1="744.5" x2="859.6904" y1="524.2969" y2="524.2969"/><text fill="#000000" font-family="sans-serif" font-size="14" lengthAdjust="spacing" textLength="95.1904" x="754.5" y="515.9951">Publicaciones</text></g><g id="Reportes"><rect fill="#F1F1F1" height="50" rx="12.5" ry="12.5" style="stroke:#181818;stroke-width:0.5;" width="82.9453" x="80.5" y="498"/><line style="stroke:#181818;stroke-width:0.5;" x1="80.5" x2="163.4453" y1="524.2969" y2="524.2969"/><text fill="#000000" font-family="sans-serif" font-size="14" lengthAdjust="spacing" textLength="62.9453" x="90.5" y="515.9951">Reportes</text></g><g id="Usuarios"><rect fill="#F1F1F1" height="50" rx="12.5" ry="12.5" style="stroke:#181818;stroke-width:0.5;" width="80.498" x="235" y="498"/><line style="stroke:#181818;stroke-width:0.5;" x1="235" x2="315.498" y1="524.2969" y2="524.2969"/><text fill="#000000" font-family="sans-serif" font-size="14" lengthAdjust="spacing" textLength="60.498" x="245" y="515.9951">Usuarios</text></g><g id="Aplicacion"><rect fill="#F1F1F1" height="50" rx="12.5" ry="12.5" style="stroke:#181818;stroke-width:0.5;" width="91.5449" x="413" y="498"/><line style="stroke:#181818;stroke-width:0.5;" x1="413" x2="504.5449" y1="524.2969" y2="524.2969"/><text fill="#000000" font-family="sans-serif" font-size="14" lengthAdjust="spacing" textLength="71.5449" x="423" y="515.9951">Aplicacion</text></g><g id="Comunidades"><rect fill="#F1F1F1" height="50" rx="12.5" ry="12.5" style="stroke:#181818;stroke-width:0.5;" width="115.874" x="573" y="498"/><line style="stroke:#181818;stroke-width:0.5;" x1="573" x2="688.874" y1="524.2969" y2="524.2969"/><text fill="#000000" font-family="sans-serif" font-size="14" lengthAdjust="spacing" textLength="95.874" x="583" y="515.9951">Comunidades</text></g><ellipse cx="17" cy="523" fill="none" rx="11" ry="11" style="stroke:#222222;stroke-width:1;"/><ellipse cx="17" cy="523" fill="#222222" rx="6" ry="6" style="stroke:#222222;stroke-width:1;"/><!--link *start* to Inicio--><g class="link" data-entity-1="*start*" data-entity-2="Inicio" data-source-line="1" data-uid="lnk4" id="link_*start*_Inicio"><path d="M194,26.01 C194,39.89 194,60.97 194,80.84" fill="none" id="*start*-to-Inicio" style="stroke:#181818;stroke-width:1;"/><polygon fill="#181818" points="194,86.84,198,77.84,194,81.84,190,77.84,194,86.84" style="stroke:#181818;stroke-width:1;"/></g><!--link Inicio to Usuario--><g class="link" data-entity-1="Inicio" data-entity-2="Usuario" data-source-line="2" data-uid="lnk6" id="link_Inicio_Usuario"><path d="M165.47,122.91 C146.01,131.34 121.71,145.54 110,167 C102.26,181.19 102.0825,193.5488 104.8725,207.9988" fill="none" id="Inicio-to-Usuario" style="stroke:#181818;stroke-width:1;"/><polygon fill="#181818" points="106.01,213.89,108.2313,204.2949,105.0621,208.9807,100.3763,205.8115,106.01,213.89" style="stroke:#181818;stroke-width:1;"/><text fill="#000000" font-family="sans-serif" font-size="13" lengthAdjust="spacing" textLength="137.2173" x="111" y="180.0669">Elije perfil de usuario</text></g><!--link Inicio to Moderador--><g class="link" data-entity-1="Inicio" data-entity-2="Moderador" data-source-line="3" data-uid="lnk8" id="link_Inicio_Moderador"><path d="M222.62,132.12 C234,141.28 246.02,153.26 253,167 C281.99,224.04 281.0346,296.058 278.0146,334.938" fill="none" id="Inicio-to-Moderador" style="stroke:#181818;stroke-width:1;"/><polygon fill="#181818" points="277.55,340.92,282.235,332.2568,277.9372,335.935,274.259,331.6373,277.55,340.92" style="stroke:#181818;stroke-width:1;"/><text fill="#000000" font-family="sans-serif" font-size="13" lengthAdjust="spacing" textLength="159.3706" x="278" y="243.5669">Elije perfil de Moderador</text></g><!--link Usuario to Moderador--><g class="link" data-entity-1="Usuario" data-entity-2="Moderador" data-source-line="4" data-uid="lnk9" id="link_Usuario_Moderador"><path d="M117.03,264.08 C120.69,279.25 127.52,298.3 140,311 C163.27,334.67 192.4537,346.7199 220.9837,354.3499" fill="none" id="Usuario-to-Moderador" style="stroke:#181818;stroke-width:1;"/><polygon fill="#181818" points="226.78,355.9,219.119,349.7106,221.9498,354.6082,217.0521,357.439,226.78,355.9" style="stroke:#181818;stroke-width:1;"/><text fill="#000000" font-family="sans-serif" font-size="13" lengthAdjust="spacing" textLength="107.4468" x="141" y="307.0669">Cambia de perfil</text></g><!--link Moderador to Publicaciones--><g class="link" data-entity-1="Moderador" data-entity-2="Publicaciones" data-source-line="5" data-uid="lnk11" id="link_Moderador_Publicaciones"><path d="M323,366.54 C430.75,366.41 687.73,371.47 756,421 C780.95,439.1 791.3703,468.1747 796.6603,491.8247" fill="none" id="Moderador-to-Publicaciones" style="stroke:#181818;stroke-width:1;"/><polygon fill="#181818" points="797.97,497.68,799.909,488.0239,796.8786,492.8006,792.1019,489.7702,797.97,497.68" style="stroke:#181818;stroke-width:1;"/><text fill="#000000" font-family="sans-serif" font-size="13" lengthAdjust="spacing" textLength="145.7866" x="789" y="434.0669">Eliminar Publicaciones</text><text fill="#000000" font-family="sans-serif" font-size="13" lengthAdjust="spacing" textLength="145.7866" x="789" y="449.1997">Eliminar Publicaciones</text><text fill="#000000" font-family="sans-serif" font-size="13" lengthAdjust="spacing" textLength="135.2305" x="794.2781" y="464.3325">Revisar Comentarios</text></g><!--link Moderador to Reportes--><g class="link" data-entity-1="Moderador" data-entity-2="Reportes" data-source-line="6" data-uid="lnk13" id="link_Moderador_Reportes"><path d="M226.94,377.33 C201.09,385.22 170.58,398.67 151,421 C132.24,442.4 126.1939,469.2525 123.8539,491.6325" fill="none" id="Moderador-to-Reportes" style="stroke:#181818;stroke-width:1;"/><polygon fill="#181818" points="123.23,497.6,128.1442,489.0648,123.75,492.6271,120.1876,488.2328,123.23,497.6" style="stroke:#181818;stroke-width:1;"/><text fill="#000000" font-family="sans-serif" font-size="13" lengthAdjust="spacing" textLength="111.0015" x="152" y="441.5669">Revisar Reportes</text><text fill="#000000" font-family="sans-serif" font-size="13" lengthAdjust="spacing" textLength="84.8745" x="165.0635" y="456.6997">de contenido</text></g><!--link Moderador to Usuarios--><g class="link" data-entity-1="Moderador" data-entity-2="Usuarios" data-source-line="7" data-uid="lnk15" id="link_Moderador_Usuarios"><path d="M273.37,391.18 C272.82,400.5 272.27,411.24 272,421 C271.42,441.88 271.42,447.12 272,468 C272.27,477.76 272.4665,482.5104 273.0165,491.8304" fill="none" id="Moderador-to-Usuarios" style="stroke:#181818;stroke-width:1;"/><polygon fill="#181818" points="273.37,497.82,276.8329,488.6,273.0754,492.8287,268.8468,489.0713,273.37,497.82" style="stroke:#181818;stroke-width:1;"/><text fill="#000000" font-family="sans-serif" font-size="13" lengthAdjust="spacing" textLength="135.1543" x="276.7769" y="434.0669">Suspender ususarios</text><text fill="#000000" font-family="sans-serif" font-size="13" lengthAdjust="spacing" textLength="129.2891" x="279.7095" y="449.1997">Enviar advertencias</text><text fill="#000000" font-family="sans-serif" font-size="13" lengthAdjust="spacing" textLength="142.708" x="273" y="464.3325">Desbloquear Usuarios</text></g><!--link Moderador to Aplicacion--><g class="link" data-entity-1="Moderador" data-entity-2="Aplicacion" data-source-line="8" data-uid="lnk17" id="link_Moderador_Aplicacion"><path d="M323.24,374.47 C354.42,381.59 393.92,395.23 420,421 C440.99,441.74 449.7228,469.1466 454.2528,491.7866" fill="none" id="Moderador-to-Aplicacion" style="stroke:#181818;stroke-width:1;"/><polygon fill="#181818" points="455.43,497.67,457.5865,488.0601,454.449,492.7672,449.7419,489.6297,455.43,497.67" style="stroke:#181818;stroke-width:1;"/><text fill="#000000" font-family="sans-serif" font-size="13" lengthAdjust="spacing" textLength="130.6348" x="447" y="441.5669">Bloquear palabras o</text><text fill="#000000" font-family="sans-serif" font-size="13" lengthAdjust="spacing" textLength="78.8506" x="472.8921" y="456.6997">Expresiones</text></g><!--link Moderador to Comunidades--><g class="link" data-entity-1="Moderador" data-entity-2="Comunidades" data-source-line="9" data-uid="lnk19" id="link_Moderador_Comunidades"><path d="M323.02,369.88 C399.84,375.37 545.79,389.68 586,421 C610.08,439.76 620.2888,468.3273 625.5688,491.7173" fill="none" id="Moderador-to-Comunidades" style="stroke:#181818;stroke-width:1;"/><polygon fill="#181818" points="626.89,497.57,628.81,487.9101,625.789,492.6927,621.0064,489.6717,626.89,497.57" style="stroke:#181818;stroke-width:1;"/><text fill="#000000" font-family="sans-serif" font-size="13" lengthAdjust="spacing" textLength="129.7207" x="618" y="449.0669">Eliminar comunidad</text></g><!--link Usuario to *end*--><g class="link" data-entity-1="Usuario" data-entity-2="*end*" data-source-line="10" data-uid="lnk21" id="link_Usuario_*end*"><path d="M102.32,264.22 C87.43,298.61 60.23,363.75 42,421 C31.53,453.88 23.9895,488.0452 20.2095,506.2552" fill="none" id="Usuario-to-*end*" style="stroke:#181818;stroke-width:1;"/><polygon fill="#181818" points="18.99,512.13,24.7357,504.1308,20.0062,507.2344,16.9027,502.5049,18.99,512.13" style="stroke:#181818;stroke-width:1;"/><text fill="#000000" font-family="sans-serif" font-size="13" lengthAdjust="spacing" textLength="48.8706" x="71" y="370.5669">Log out</text></g><!--link Moderador to *end*--><g class="link" data-entity-1="Moderador" data-entity-2="*end*" data-source-line="11" data-uid="lnk22" id="link_Moderador_*end*"><path d="M226.7,373.38 C188.56,380.25 135.38,394.06 96,421 C59.44,446.01 34.7766,487.8616 24.3666,507.6216" fill="none" id="Moderador-to-*end*" style="stroke:#181818;stroke-width:1;"/><polygon fill="#181818" points="21.57,512.93,29.3038,506.8318,23.9005,508.5063,22.2259,503.103,21.57,512.93" style="stroke:#181818;stroke-width:1;"/><text fill="#000000" font-family="sans-serif" font-size="13" lengthAdjust="spacing" textLength="23.4482" x="97" y="449.0669">Log</text></g><!--SRC=[TL7DJiCm3BxtAN96sWliW0I30n98Q8ZJni5D339AxP0qrHv_Jai6ZU2KwFlpv-HmzMOscslpm6H9kkMOaTUK8UfzQ-uzVQ896D_96uScBynlyPCuZE0a_Y6_S5sDR1qx67g2ebrStGzPfC-vzsH1Pp6cPS10375D7Fa_V8yJ9OLtCY2FfK5g9kmnI1pdy2gkq96rbXKUaSb9u_jUgFXUSWgesbYU9yseDkA9D0lSX9h5ba31Eqozbw-CojI09lScrFwQV5l50Jpq4P8HJJw5Y6bUiF7gbbchWbk_bQtmwXSE-lrRyoWVHlBO15suCm00]--></g></svg>