<svg xmlns="http://www.w3.org/2000/svg" xmlns:xlink="http://www.w3.org/1999/xlink" contentStyleType="text/css" data-diagram-type="STATE" height="660px" preserveAspectRatio="none" style="width:761px;height:660px;background:#FFFFFF;" version="1.1" viewBox="0 0 761 660" width="761px" zoomAndPan="magnify"><title>Navegaci&#243;n Principal del Usuario</title><defs/><g><g class="title" data-source-line="1"><text fill="#000000" font-family="sans-serif" font-size="14" font-weight="bold" lengthAdjust="spacing" textLength="260.6064" x="243.2146" y="22.9951">Navegaci&#243;n Principal del Usuario</text></g><g id="Inicio"><rect fill="#F1F1F1" height="50" rx="12.5" ry="12.5" style="stroke:#181818;stroke-width:0.5;" width="57.0439" x="490.5" y="124.2969"/><line style="stroke:#181818;stroke-width:0.5;" x1="490.5" x2="547.5439" y1="150.5938" y2="150.5938"/><text fill="#000000" font-family="sans-serif" font-size="14" lengthAdjust="spacing" textLength="37.0439" x="500.5" y="142.292">Inicio</text></g><g id="Dashboard"><rect fill="#F1F1F1" height="50" rx="12.5" ry="12.5" style="stroke:#181818;stroke-width:0.5;" width="96.2002" x="311" y="251.2969"/><line style="stroke:#181818;stroke-width:0.5;" x1="311" x2="407.2002" y1="277.5938" y2="277.5938"/><text fill="#000000" font-family="sans-serif" font-size="14" lengthAdjust="spacing" textLength="76.2002" x="321" y="269.292">Dashboard</text></g><g id="Perfil"><rect fill="#F1F1F1" height="50" rx="12.5" ry="12.5" style="stroke:#181818;stroke-width:0.5;" width="55.5195" x="7" y="378.2969"/><line style="stroke:#181818;stroke-width:0.5;" x1="7" x2="62.5195" y1="404.5938" y2="404.5938"/><text fill="#000000" font-family="sans-serif" font-size="14" lengthAdjust="spacing" textLength="35.5195" x="17" y="396.292">Perfil</text></g><g id="Comunidades"><rect fill="#F1F1F1" height="50" rx="12.5" ry="12.5" style="stroke:#181818;stroke-width:0.5;" width="115.874" x="101" y="378.2969"/><line style="stroke:#181818;stroke-width:0.5;" x1="101" x2="216.874" y1="404.5938" y2="404.5938"/><text fill="#000000" font-family="sans-serif" font-size="14" lengthAdjust="spacing" textLength="95.874" x="111" y="396.292">Comunidades</text></g><g id="Ajustes"><rect fill="#F1F1F1" height="50" rx="12.5" ry="12.5" style="stroke:#181818;stroke-width:0.5;" width="71.0303" x="261.5" y="378.2969"/><line style="stroke:#181818;stroke-width:0.5;" x1="261.5" x2="332.5303" y1="404.5938" y2="404.5938"/><text fill="#000000" font-family="sans-serif" font-size="14" lengthAdjust="spacing" textLength="51.0303" x="271.5" y="396.292">Ajustes</text></g><g id="Etiqueta"><rect fill="#F1F1F1" height="50" rx="12.5" ry="12.5" style="stroke:#181818;stroke-width:0.5;" width="78.666" x="379.5" y="378.2969"/><line style="stroke:#181818;stroke-width:0.5;" x1="379.5" x2="458.166" y1="404.5938" y2="404.5938"/><text fill="#000000" font-family="sans-serif" font-size="14" lengthAdjust="spacing" textLength="58.666" x="389.5" y="396.292">Etiqueta</text></g><g id="Cerrado_de_Sesi&#243;n"><rect fill="#F1F1F1" height="50" rx="12.5" ry="12.5" style="stroke:#181818;stroke-width:0.5;" width="153.5537" x="281" y="505.2969"/><line style="stroke:#181818;stroke-width:0.5;" x1="281" x2="434.5537" y1="531.5938" y2="531.5938"/><text fill="#000000" font-family="sans-serif" font-size="14" lengthAdjust="spacing" textLength="133.5537" x="291" y="523.292">Cerrado_de_Sesi&#243;n</text></g><ellipse cx="519" cy="53.2969" fill="#222222" rx="10" ry="10" style="stroke:#222222;stroke-width:1;"/><ellipse cx="358" cy="643.2969" fill="none" rx="11" ry="11" style="stroke:#222222;stroke-width:1;"/><ellipse cx="358" cy="643.2969" fill="#222222" rx="6" ry="6" style="stroke:#222222;stroke-width:1;"/><!--link *start* to Inicio--><g class="link" data-entity-1="*start*" data-entity-2="Inicio" data-source-line="11" data-uid="lnk3" id="link_*start*_Inicio"><path d="M519,63.3069 C519,77.1869 519,98.2669 519,118.1369" fill="none" id="*start*-to-Inicio" style="stroke:#181818;stroke-width:1;"/><polygon fill="#181818" points="519,124.1369,523,115.1369,519,119.1369,515,115.1369,519,124.1369" style="stroke:#181818;stroke-width:1;"/></g><!--link Inicio to Dashboard--><g class="link" data-entity-1="Inicio" data-entity-2="Dashboard" data-source-line="12" data-uid="lnk4" id="link_Inicio_Dashboard"><path d="M490.4,172.6469 C462.08,194.7669 423.5984,224.8333 394.5384,247.5333" fill="none" id="Inicio-to-Dashboard" style="stroke:#181818;stroke-width:1;"/><polygon fill="#181818" points="389.81,251.2269,399.365,248.8388,393.7503,248.1489,394.4402,242.5343,389.81,251.2269" style="stroke:#181818;stroke-width:1;"/><text fill="#000000" font-family="sans-serif" font-size="13" lengthAdjust="spacing" textLength="60.8042" x="450" y="217.3638">Ver Posts</text></g><!--link Dashboard to Perfil--><g class="link" data-entity-1="Dashboard" data-entity-2="Perfil" data-source-line="14" data-uid="lnk5" id="link_Dashboard_Perfil"><path d="M310.82,277.8369 C255.17,280.4669 162.59,291.1969 95,331.2969 C75.85,342.6569 63.2622,357.4306 52.6322,373.2106" fill="none" id="Dashboard-to-Perfil" style="stroke:#181818;stroke-width:1;"/><polygon fill="#181818" points="49.28,378.1869,57.6258,372.9573,52.0735,374.04,50.9908,368.4877,49.28,378.1869" style="stroke:#181818;stroke-width:1;"/><text fill="#000000" font-family="sans-serif" font-size="13" lengthAdjust="spacing" textLength="59.3506" x="96" y="344.3638">Ver Perfil</text></g><!--link Dashboard to Comunidades--><g class="link" data-entity-1="Dashboard" data-entity-2="Comunidades" data-source-line="15" data-uid="lnk6" id="link_Dashboard_Comunidades"><path d="M310.6,277.9969 C268.18,281.3269 207.97,293.1069 173,331.2969 C161.55,343.8069 158.4888,356.8705 157.9588,372.0905" fill="none" id="Dashboard-to-Comunidades" style="stroke:#181818;stroke-width:1;"/><polygon fill="#181818" points="157.75,378.0869,162.0608,369.2315,157.924,373.0899,154.0656,368.9531,157.75,378.0869" style="stroke:#181818;stroke-width:1;"/><text fill="#000000" font-family="sans-serif" font-size="13" lengthAdjust="spacing" textLength="115.394" x="174" y="344.3638">Ver Comunidades</text></g><!--link Dashboard to Ajustes--><g class="link" data-entity-1="Dashboard" data-entity-2="Ajustes" data-source-line="16" data-uid="lnk7" id="link_Dashboard_Ajustes"><path d="M326.36,301.2969 C317.26,309.7269 308.39,319.9569 303,331.2969 C296.09,345.8169 294.5409,357.8979 294.8009,372.1879" fill="none" id="Dashboard-to-Ajustes" style="stroke:#181818;stroke-width:1;"/><polygon fill="#181818" points="294.91,378.1869,298.7456,369.1156,294.819,373.1877,290.7469,369.2611,294.91,378.1869" style="stroke:#181818;stroke-width:1;"/><text fill="#000000" font-family="sans-serif" font-size="13" lengthAdjust="spacing" textLength="73.7534" x="304" y="344.3638">Ver Ajustes</text></g><!--link Dashboard to Etiqueta--><g class="link" data-entity-1="Dashboard" data-entity-2="Etiqueta" data-source-line="17" data-uid="lnk8" id="link_Dashboard_Etiqueta"><path d="M370.57,301.3969 C381.19,323.5369 394.2522,350.7484 404.8722,372.8584" fill="none" id="Dashboard-to-Etiqueta" style="stroke:#181818;stroke-width:1;"/><polygon fill="#181818" points="407.47,378.2669,407.1789,368.4223,405.3052,373.7598,399.9676,371.8861,407.47,378.2669" style="stroke:#181818;stroke-width:1;"/><text fill="#000000" font-family="sans-serif" font-size="13" lengthAdjust="spacing" textLength="95.6401" x="394" y="344.3638">Elegir Etiqueta</text></g><!--link Inicio to Cerrado_de_Sesi?n--><g class="link" data-entity-1="Inicio" data-entity-2="Cerrado_de_Sesi&#243;n" data-source-line="20" data-uid="lnk9" id="link_Inicio_Cerrado_de_Sesi&#243;n"><path d="M546.5,174.4469 C600.21,224.5669 708.82,342.3769 649,428.2969 C601.41,496.6569 509.9777,518.5948 440.9977,525.7848" fill="none" id="Inicio-to-Cerrado_de_Sesi&#243;n" style="stroke:#181818;stroke-width:1;"/><polygon fill="#181818" points="435.03,526.4069,444.3962,529.4523,440.0031,525.8885,443.5668,521.4954,435.03,526.4069" style="stroke:#181818;stroke-width:1;"/><text fill="#000000" font-family="sans-serif" font-size="13" lengthAdjust="spacing" textLength="88.0356" x="665" y="344.3638">Cerrar Sesi&#243;n</text></g><!--link Dashboard to Cerrado_de_Sesi?n--><g class="link" data-entity-1="Dashboard" data-entity-2="Cerrado_de_Sesi&#243;n" data-source-line="21" data-uid="lnk10" id="link_Dashboard_Cerrado_de_Sesi&#243;n"><path d="M407.17,282.2769 C438.73,288.3269 477.75,301.7069 498,331.2969 C518.05,360.5969 631.27,278.8569 491,475.2969 C477.6,494.0569 462.1524,504.2119 440.6824,512.2119" fill="none" id="Dashboard-to-Cerrado_de_Sesi&#243;n" style="stroke:#181818;stroke-width:1;"/><polygon fill="#181818" points="435.06,514.3069,444.8902,514.9127,439.7453,512.5611,442.0969,507.4162,435.06,514.3069" style="stroke:#181818;stroke-width:1;"/><text fill="#000000" font-family="sans-serif" font-size="13" lengthAdjust="spacing" textLength="88.0356" x="552" y="407.8638">Cerrar Sesi&#243;n</text></g><!--link Perfil to Cerrado_de_Sesi?n--><g class="link" data-entity-1="Perfil" data-entity-2="Cerrado_de_Sesi&#243;n" data-source-line="22" data-uid="lnk11" id="link_Perfil_Cerrado_de_Sesi&#243;n"><path d="M43.58,428.3969 C50.46,444.1869 61.68,463.9269 78,475.2969 C110.14,497.6869 203.5819,512.3191 274.8019,520.7791" fill="none" id="Perfil-to-Cerrado_de_Sesi&#243;n" style="stroke:#181818;stroke-width:1;"/><polygon fill="#181818" points="280.76,521.4869,272.2947,516.4532,275.7949,520.8971,271.351,524.3973,280.76,521.4869" style="stroke:#181818;stroke-width:1;"/><text fill="#000000" font-family="sans-serif" font-size="13" lengthAdjust="spacing" textLength="88.0356" x="79" y="471.3638">Cerrar Sesi&#243;n</text></g><!--link Comunidades to Cerrado_de_Sesi?n--><g class="link" data-entity-1="Comunidades" data-entity-2="Cerrado_de_Sesi&#243;n" data-source-line="23" data-uid="lnk12" id="link_Comunidades_Cerrado_de_Sesi&#243;n"><path d="M163.37,428.3769 C167.34,443.7469 174.69,463.0169 188,475.2969 C213.37,498.7169 243.0485,510.6068 275.0685,518.1168" fill="none" id="Comunidades-to-Cerrado_de_Sesi&#243;n" style="stroke:#181818;stroke-width:1;"/><polygon fill="#181818" points="280.91,519.4869,273.0612,513.5375,276.0421,518.3452,271.2344,521.3261,280.91,519.4869" style="stroke:#181818;stroke-width:1;"/><text fill="#000000" font-family="sans-serif" font-size="13" lengthAdjust="spacing" textLength="88.0356" x="189" y="471.3638">Cerrar Sesi&#243;n</text></g><!--link Ajustes to Cerrado_de_Sesi?n--><g class="link" data-entity-1="Ajustes" data-entity-2="Cerrado_de_Sesi&#243;n" data-source-line="24" data-uid="lnk13" id="link_Ajustes_Cerrado_de_Sesi&#243;n"><path d="M288.49,428.4269 C284.91,442.7169 283,460.7969 290,475.2969 C295.7,487.1069 300.6592,493.4236 310.9592,501.5036" fill="none" id="Ajustes-to-Cerrado_de_Sesi&#243;n" style="stroke:#181818;stroke-width:1;"/><polygon fill="#181818" points="315.68,505.2069,311.0677,496.5048,311.746,502.1208,306.13,502.7991,315.68,505.2069" style="stroke:#181818;stroke-width:1;"/><text fill="#000000" font-family="sans-serif" font-size="13" lengthAdjust="spacing" textLength="88.0356" x="291" y="471.3638">Cerrar Sesi&#243;n</text></g><!--link Etiqueta to Cerrado_de_Sesi?n--><g class="link" data-entity-1="Etiqueta" data-entity-2="Cerrado_de_Sesi&#243;n" data-source-line="25" data-uid="lnk14" id="link_Etiqueta_Cerrado_de_Sesi&#243;n"><path d="M407.24,428.3969 C396.44,450.5369 383.1515,477.7647 372.3615,499.8747" fill="none" id="Etiqueta-to-Cerrado_de_Sesi&#243;n" style="stroke:#181818;stroke-width:1;"/><polygon fill="#181818" points="369.73,505.2669,377.272,498.9329,371.9229,500.7734,370.0824,495.4243,369.73,505.2669" style="stroke:#181818;stroke-width:1;"/><text fill="#000000" font-family="sans-serif" font-size="13" lengthAdjust="spacing" textLength="88.0356" x="394" y="471.3638">Cerrar Sesi&#243;n</text></g><!--link Cerrado_de_Sesi?n to *end*--><g class="link" data-entity-1="Cerrado_de_Sesi&#243;n" data-entity-2="*end*" data-source-line="26" data-uid="lnk16" id="link_Cerrado_de_Sesi&#243;n_*end*"><path d="M358,555.3869 C358,579.3569 358,608.9969 358,626.2369" fill="none" id="Cerrado_de_Sesi&#243;n-to-*end*" style="stroke:#181818;stroke-width:1;"/><polygon fill="#181818" points="358,632.2369,362,623.2369,358,627.2369,354,623.2369,358,632.2369" style="stroke:#181818;stroke-width:1;"/><text fill="#000000" font-family="sans-serif" font-size="13" lengthAdjust="spacing" textLength="88.0356" x="359" y="598.3638">Cerrar Sesi&#243;n</text></g><!--SRC=[ZP91Ri8m44NtFiNiAbNY0Ymg8Sg2JHMfQZS8eI6UmbHkN6QSNemZSB4wn0u9RBoo_kYD_V-N0mT7y8P_TC2QB-S6Ak6cvbzqOCd1XxOex8tHW85WtN0TLIzUKOzxZsAJhaY-s2Mnz3zjmnOjQPeilbiDWre5FhKKCECaWjRlBEtUIJiZncoUjp2RlUH7- -Cw6Lw6ENoIGEKrg36tSGVrTZBHUviI8uy96xkUiibzudAMAPCpHMZbwC1oIscUOCan8yLMGLF2KQB7_11lkKu5SYDtxajMKWd5_BYIugNSJV72K5IvhqUes-s-o3tx3m00]--></g></svg>