<svg xmlns="http://www.w3.org/2000/svg" xmlns:xlink="http://www.w3.org/1999/xlink" contentStyleType="text/css" data-diagram-type="STATE" height="434px" preserveAspectRatio="none" style="width:487px;height:434px;background:#FFFFFF;" version="1.1" viewBox="0 0 487 434" width="487px" zoomAndPan="magnify"><title>Funciones dentro de "Comunidades"</title><defs/><g><g class="title" data-source-line="1"><text fill="#000000" font-family="sans-serif" font-size="14" font-weight="bold" lengthAdjust="spacing" textLength="287.9639" x="89.3264" y="22.9951">Funciones dentro de "Comunidades"</text></g><path d="M19.5,44.2969 L461.1167,44.2969 A12.5,12.5 0 0 1 473.6167,56.7969 L473.6167,70.5938 L7,70.5938 L7,56.7969 A12.5,12.5 0 0 1 19.5,44.2969" fill="#F1F1F1"/><rect fill="none" height="257.2969" rx="12.5" ry="12.5" style="stroke:#181818;stroke-width:0.5;" width="466.6167" x="7" y="44.2969"/><line style="stroke:#181818;stroke-width:0.5;" x1="7" x2="473.6167" y1="70.5938" y2="70.5938"/><text fill="#000000" font-family="sans-serif" font-size="14" lengthAdjust="spacing" textLength="95.874" x="192.3713" y="62.292">Comunidades</text><ellipse cx="228" cy="91.5938" fill="#222222" rx="10" ry="10" style="stroke:#222222;stroke-width:1;"/><g id="Comunidades.Selecci&#243;n"><rect fill="#F1F1F1" height="50" rx="12.5" ry="12.5" style="stroke:#181818;stroke-width:0.5;" width="86.7256" x="184.5" y="138.5938"/><line style="stroke:#181818;stroke-width:0.5;" x1="184.5" x2="271.2256" y1="164.8906" y2="164.8906"/><text fill="#000000" font-family="sans-serif" font-size="14" lengthAdjust="spacing" textLength="66.7256" x="194.5" y="156.5889">Selecci&#243;n</text></g><g id="Comunidades.Creaci&#243;nComunidad"><rect fill="#F1F1F1" height="50" rx="12.5" ry="12.5" style="stroke:#181818;stroke-width:0.5;" width="161.7158" x="19" y="241.5938"/><line style="stroke:#181818;stroke-width:0.5;" x1="19" x2="180.7158" y1="267.8906" y2="267.8906"/><text fill="#000000" font-family="sans-serif" font-size="14" lengthAdjust="spacing" textLength="141.7158" x="29" y="259.5889">Creaci&#243;nComunidad</text></g><ellipse cx="366" cy="266.5938" fill="none" rx="11" ry="11" style="stroke:#222222;stroke-width:1;"/><ellipse cx="366" cy="266.5938" fill="#222222" rx="6" ry="6" style="stroke:#222222;stroke-width:1;"/><!--link *start*Comunidades to Selecci?n--><g class="link" data-entity-1="*start*Comunidades" data-entity-2="Selecci&#243;n" data-source-line="4" data-uid="lnk4" id="link_*start*Comunidades_Selecci&#243;n"><path d="M228,101.7438 C228,111.0137 228,119.7337 228,132.3738" fill="none" id="*start*Comunidades-to-Selecci&#243;n" style="stroke:#181818;stroke-width:1;"/><polygon fill="#181818" points="228,138.3738,232,129.3738,228,133.3738,224,129.3738,228,138.3738" style="stroke:#181818;stroke-width:1;"/></g><!--link Selecci?n to Creaci?nComunidad--><g class="link" data-entity-1="Selecci&#243;n" data-entity-2="Creaci&#243;nComunidad" data-source-line="5" data-uid="lnk6" id="link_Selecci&#243;n_Creaci&#243;nComunidad"><path d="M184.2,165.0338 C152.45,167.9538 111.47,177.6137 90,206.5938 C82.64,216.5238 82.3738,224.2846 86.2438,235.8346" fill="none" id="Selecci&#243;n-to-Creaci&#243;nComunidad" style="stroke:#181818;stroke-width:1;"/><polygon fill="#181818" points="88.15,241.5238,89.0834,231.7192,86.5615,236.7828,81.4979,234.2609,88.15,241.5238" style="stroke:#181818;stroke-width:1;"/><text fill="#000000" font-family="sans-serif" font-size="13" lengthAdjust="spacing" textLength="114.1182" x="91" y="219.6606">Crear Comunidad</text></g><!--link Creaci?nComunidad to Selecci?n--><g class="link" data-entity-1="Creaci&#243;nComunidad" data-entity-2="Selecci&#243;n" data-source-line="6" data-uid="lnk7" id="link_Creaci&#243;nComunidad_Selecci&#243;n"><path d="M181.2,241.9438 C190.31,236.9237 198.87,230.8738 206,223.5938 C215.26,214.1438 219.1383,206.2423 222.2783,194.4323" fill="none" id="Creaci&#243;nComunidad-to-Selecci&#243;n" style="stroke:#181818;stroke-width:1;"/><polygon fill="#181818" points="223.82,188.6338,217.6418,196.3038,222.5353,193.4659,225.3732,198.3594,223.82,188.6338" style="stroke:#181818;stroke-width:1;"/><text fill="#000000" font-family="sans-serif" font-size="13" lengthAdjust="spacing" textLength="113.6167" x="218" y="219.6606">Guardar Cambios</text></g><!--link Creaci?nComunidad to Creaci?nComunidad--><g class="link" data-entity-1="Creaci&#243;nComunidad" data-entity-2="Creaci&#243;nComunidad" data-source-line="7" data-uid="lnk8" id="link_Creaci&#243;nComunidad_Creaci&#243;nComunidad"><path d="M181.18,258.3238 C191.89,259.7338 199,262.4938 199,266.5938 C199,270.6938 197.8387,272.6706 187.1287,274.0806" fill="none" id="Creaci&#243;nComunidad-to-Creaci&#243;nComunidad" style="stroke:#181818;stroke-width:1;"/><polygon fill="#181818" points="181.18,274.8638,190.6251,277.6548,186.1372,274.2111,189.5809,269.7232,181.18,274.8638" style="stroke:#181818;stroke-width:1;"/><text fill="#000000" font-family="sans-serif" font-size="13" lengthAdjust="spacing" textLength="114.1182" x="205" y="271.1606">Crear Comunidad</text></g><!--link Selecci?n to *end*Comunidades--><g class="link" data-entity-1="Selecci&#243;n" data-entity-2="*end*Comunidades" data-source-line="8" data-uid="lnk10" id="link_Selecci&#243;n_*end*Comunidades"><path d="M271.63,173.7638 C293.05,180.0638 318.03,190.3238 336,206.5938 C350.99,220.1638 357.8243,237.2173 361.7043,250.1373" fill="none" id="Selecci&#243;n-to-*end*Comunidades" style="stroke:#181818;stroke-width:1;"/><polygon fill="#181818" points="363.43,255.8838,364.6724,246.1136,361.9919,251.095,357.0104,248.4145,363.43,255.8838" style="stroke:#181818;stroke-width:1;"/><text fill="#000000" font-family="sans-serif" font-size="13" lengthAdjust="spacing" textLength="113.6167" x="350" y="219.6606">Guardar Cambios</text></g><g id="Dashboard"><rect fill="#F1F1F1" height="50" rx="12.5" ry="12.5" style="stroke:#181818;stroke-width:0.5;" width="96.2002" x="31.5" y="378.2969"/><line style="stroke:#181818;stroke-width:0.5;" x1="31.5" x2="127.7002" y1="404.5938" y2="404.5938"/><text fill="#000000" font-family="sans-serif" font-size="14" lengthAdjust="spacing" textLength="76.2002" x="41.5" y="396.292">Dashboard</text></g><g id="Perfil"><rect fill="#F1F1F1" height="50" rx="12.5" ry="12.5" style="stroke:#181818;stroke-width:0.5;" width="55.5195" x="162.5" y="378.2969"/><line style="stroke:#181818;stroke-width:0.5;" x1="162.5" x2="218.0195" y1="404.5938" y2="404.5938"/><text fill="#000000" font-family="sans-serif" font-size="14" lengthAdjust="spacing" textLength="35.5195" x="172.5" y="396.292">Perfil</text></g><g id="Ajustes"><rect fill="#F1F1F1" height="50" rx="12.5" ry="12.5" style="stroke:#181818;stroke-width:0.5;" width="71.0303" x="256" y="378.2969"/><line style="stroke:#181818;stroke-width:0.5;" x1="256" x2="327.0303" y1="404.5938" y2="404.5938"/><text fill="#000000" font-family="sans-serif" font-size="14" lengthAdjust="spacing" textLength="51.0303" x="266" y="396.292">Ajustes</text></g><g id="Etiqueta"><rect fill="#F1F1F1" height="50" rx="12.5" ry="12.5" style="stroke:#181818;stroke-width:0.5;" width="78.666" x="367" y="378.2969"/><line style="stroke:#181818;stroke-width:0.5;" x1="367" x2="445.666" y1="404.5938" y2="404.5938"/><text fill="#000000" font-family="sans-serif" font-size="14" lengthAdjust="spacing" textLength="58.666" x="377" y="396.292">Etiqueta</text></g><!--link Comunidades to Dashboard--><g class="link" data-entity-1="Comunidades" data-entity-2="Dashboard" data-source-line="11" data-uid="lnk12" id="link_Comunidades_Dashboard"><path d="M136.65,301.7169 C129.62,311.5769 122.83,321.5069 116.5,331.2969 C106.84,346.2369 100.2177,358.5929 93.3877,372.6129" fill="none" id="Comunidades-to-Dashboard" style="stroke:#181818;stroke-width:1;"/><polygon fill="#181818" points="90.76,378.0069,98.2976,371.6677,92.9498,373.5119,91.1056,368.1641,90.76,378.0069" style="stroke:#181818;stroke-width:1;"/><text fill="#000000" font-family="sans-serif" font-size="13" lengthAdjust="spacing" textLength="60.8042" x="117.5" y="344.3638">Ver Posts</text></g><!--link Comunidades to Perfil--><g class="link" data-entity-1="Comunidades" data-entity-2="Perfil" data-source-line="12" data-uid="lnk14" id="link_Comunidades_Perfil"><path d="M193.74,301.4269 C191.25,311.4369 189.11,321.4769 187.5,331.2969 C184.97,346.7569 185.1015,358.3858 186.4615,372.1858" fill="none" id="Comunidades-to-Perfil" style="stroke:#181818;stroke-width:1;"/><polygon fill="#181818" points="187.05,378.1569,190.148,368.808,186.5596,373.181,182.1866,369.5926,187.05,378.1569" style="stroke:#181818;stroke-width:1;"/><text fill="#000000" font-family="sans-serif" font-size="13" lengthAdjust="spacing" textLength="59.3506" x="188.5" y="344.3638">Ver Perfil</text></g><!--link Comunidades to Ajustes--><g class="link" data-entity-1="Comunidades" data-entity-2="Ajustes" data-source-line="13" data-uid="lnk16" id="link_Comunidades_Ajustes"><path d="M268.98,301.4069 C275.55,330.8469 280.5555,353.2304 284.8055,372.3104" fill="none" id="Comunidades-to-Ajustes" style="stroke:#181818;stroke-width:1;"/><polygon fill="#181818" points="286.11,378.1669,288.0576,368.5125,285.0229,373.2865,280.2489,370.2518,286.11,378.1669" style="stroke:#181818;stroke-width:1;"/><text fill="#000000" font-family="sans-serif" font-size="13" lengthAdjust="spacing" textLength="73.7534" x="280.5" y="344.3638">Ver Ajustes</text></g><!--link Comunidades to Etiqueta--><g class="link" data-entity-1="Comunidades" data-entity-2="Etiqueta" data-source-line="14" data-uid="lnk18" id="link_Comunidades_Etiqueta"><path d="M341.16,301.4769 C348.51,311.4769 355.69,321.4969 362.5,331.2969 C373.09,346.5469 381.0068,359.1496 389.3568,373.0896" fill="none" id="Comunidades-to-Etiqueta" style="stroke:#181818;stroke-width:1;"/><polygon fill="#181818" points="392.44,378.2369,391.2467,368.4606,389.8707,373.9475,384.3837,372.5715,392.44,378.2369" style="stroke:#181818;stroke-width:1;"/><text fill="#000000" font-family="sans-serif" font-size="13" lengthAdjust="spacing" textLength="95.6401" x="373.5" y="344.3638">Elegir Etiqueta</text></g><!--SRC=[ZOzD2i8m48NtESNWKkW5N0XIgzk2u4PSfCseaJJ1PB8IJ-KHl9XfrBOQ1LV9U_Ez-I592c7XTIsDHWS2DLaJ7XZbfl5Q2YxGZHXpn0bXuC6P0Mp6MyYoAQnGOLtBsrK7inUnbblaKNLXc4JJzkr2wWlstZcabfvRqUPuKqdZVgV-dFcnQNjDEkJ2sF3i5fnpTwXCm0A-HWkbSUGIgaIxa-g5H94miwDt5FuFwAaIgY1vyaWyO8N2lRITSmS0]--></g></svg>