<svg xmlns="http://www.w3.org/2000/svg" xmlns:xlink="http://www.w3.org/1999/xlink" contentStyleType="text/css" data-diagram-type="STATE" height="362px" preserveAspectRatio="none" style="width:291px;height:362px;background:#FFFFFF;" version="1.1" viewBox="0 0 291 362" width="291px" zoomAndPan="magnify"><defs/><g><ellipse cx="206.17" cy="16" fill="#222222" rx="10" ry="10" style="stroke:#222222;stroke-width:1;"/><g id="Draft"><rect fill="#F1F1F1" height="50.2656" rx="12.5" ry="12.5" style="stroke:#181818;stroke-width:0.5;" width="155.8262" x="128.26" y="86"/><line style="stroke:#181818;stroke-width:0.5;" x1="128.26" x2="284.0862" y1="112.2969" y2="112.2969"/><text fill="#000000" font-family="sans-serif" font-size="14" lengthAdjust="spacing" textLength="35.5332" x="188.4065" y="103.9951">Draft</text><text fill="#000000" font-family="sans-serif" font-size="12" lengthAdjust="spacing" textLength="135.8262" x="133.26" y="128.4355">Post creado (borrador)</text></g><g id="Publicado"><rect fill="#F1F1F1" height="50.2656" rx="12.5" ry="12.5" style="stroke:#181818;stroke-width:0.5;" width="107.7676" x="152.29" y="196.27"/><line style="stroke:#181818;stroke-width:0.5;" x1="152.29" x2="260.0576" y1="222.5669" y2="222.5669"/><text fill="#000000" font-family="sans-serif" font-size="14" lengthAdjust="spacing" textLength="67.71" x="172.3188" y="214.2651">Publicado</text><text fill="#000000" font-family="sans-serif" font-size="12" lengthAdjust="spacing" textLength="87.7676" x="157.29" y="238.7055">Post publicado</text></g><g id="Eliminado"><rect fill="#F1F1F1" height="50.2656" rx="12.5" ry="12.5" style="stroke:#181818;stroke-width:0.5;" width="108.3418" x="7" y="306.53"/><line style="stroke:#181818;stroke-width:0.5;" x1="7" x2="115.3418" y1="332.8269" y2="332.8269"/><text fill="#000000" font-family="sans-serif" font-size="14" lengthAdjust="spacing" textLength="69.0566" x="26.6426" y="324.5251">Eliminado</text><text fill="#000000" font-family="sans-serif" font-size="12" lengthAdjust="spacing" textLength="88.3418" x="12" y="348.9655">Post eliminado</text></g><g id="Editado"><rect fill="#F1F1F1" height="50.2656" rx="12.5" ry="12.5" style="stroke:#181818;stroke-width:0.5;" width="111.3652" x="150.49" y="306.53"/><line style="stroke:#181818;stroke-width:0.5;" x1="150.49" x2="261.8552" y1="332.8269" y2="332.8269"/><text fill="#000000" font-family="sans-serif" font-size="14" lengthAdjust="spacing" textLength="53.1426" x="179.6013" y="324.5251">Editado</text><text fill="#000000" font-family="sans-serif" font-size="12" lengthAdjust="spacing" textLength="91.3652" x="155.49" y="348.9655">Post en edici&#243;n</text></g><!--link *start* to Draft--><g class="link" data-entity-1="*start*" data-entity-2="Draft" data-source-line="1" data-uid="lnk4" id="link_*start*_Draft"><path d="M206.17,26.27 C206.17,39.98 206.17,60.14 206.17,79.62" fill="none" id="*start*-to-Draft" style="stroke:#181818;stroke-width:1;"/><polygon fill="#181818" points="206.17,85.62,210.17,76.62,206.17,80.62,202.17,76.62,206.17,85.62" style="stroke:#181818;stroke-width:1;"/></g><!--link Draft to Publicado--><g class="link" data-entity-1="Draft" data-entity-2="Publicado" data-source-line="4" data-uid="lnk6" id="link_Draft_Publicado"><path d="M206.17,136.7 C206.17,154.42 206.17,172.24 206.17,189.93" fill="none" id="Draft-to-Publicado" style="stroke:#181818;stroke-width:1;"/><polygon fill="#181818" points="206.17,195.93,210.17,186.93,206.17,190.93,202.17,186.93,206.17,195.93" style="stroke:#181818;stroke-width:1;"/></g><!--link Publicado to Eliminado--><g class="link" data-entity-1="Publicado" data-entity-2="Eliminado" data-source-line="7" data-uid="lnk8" id="link_Publicado_Eliminado"><path d="M173.27,246.97 C149.54,264.69 122.4473,284.9097 98.7473,302.6097" fill="none" id="Publicado-to-Eliminado" style="stroke:#181818;stroke-width:1;"/><polygon fill="#181818" points="93.94,306.2,103.5444,304.0195,97.9461,303.2081,98.7574,297.6098,93.94,306.2" style="stroke:#181818;stroke-width:1;"/></g><!--link Publicado to Editado--><g class="link" data-entity-1="Publicado" data-entity-2="Editado" data-source-line="10" data-uid="lnk10" id="link_Publicado_Editado"><path d="M195.29,246.97 C192.79,264.69 191.9609,282.559 194.4609,300.259" fill="none" id="Publicado-to-Editado" style="stroke:#181818;stroke-width:1;"/><polygon fill="#181818" points="195.3,306.2,198.002,296.729,194.6007,301.2491,190.0806,297.8479,195.3,306.2" style="stroke:#181818;stroke-width:1;"/></g><!--link Editado to Publicado--><g class="link" data-entity-1="Editado" data-entity-2="Publicado" data-source-line="12" data-uid="lnk11" id="link_Editado_Publicado"><path d="M217.68,306.2 C220.33,288.5 221.2274,270.624 218.5774,252.904" fill="none" id="Editado-to-Publicado" style="stroke:#181818;stroke-width:1;"/><polygon fill="#181818" points="217.69,246.97,215.0651,256.4626,218.4295,251.915,222.9771,255.2794,217.69,246.97" style="stroke:#181818;stroke-width:1;"/></g><!--SRC=[YzQALT3LjLDmAKfCA-42amfM2W7vnIKAoKMfYIdv2Xf9-KL5G4QH9XTK7gG-e3Gf9pCP9C-5O48r5i04k93aG9fSSp9pC_F0cX1CgAPKc026ffJC4eWMA0Ec8KyXDIKpEVFmvZou58hB0000]--></g></svg>