<svg xmlns="http://www.w3.org/2000/svg" xmlns:xlink="http://www.w3.org/1999/xlink" contentStyleType="text/css" data-diagram-type="STATE" height="397px" preserveAspectRatio="none" style="width:283px;height:397px;background:#FFFFFF;" version="1.1" viewBox="0 0 283 397" width="283px" zoomAndPan="magnify"><defs/><g><ellipse cx="156.17" cy="16" fill="#222222" rx="10" ry="10" style="stroke:#222222;stroke-width:1;"/><g id="Draft"><rect fill="#F1F1F1" height="50.2656" rx="12.5" ry="12.5" style="stroke:#181818;stroke-width:0.5;" width="155.8262" x="78.26" y="87"/><line style="stroke:#181818;stroke-width:0.5;" x1="78.26" x2="234.0862" y1="113.2969" y2="113.2969"/><text fill="#000000" font-family="sans-serif" font-size="14" lengthAdjust="spacing" textLength="35.5332" x="138.4065" y="104.9951">Draft</text><text fill="#000000" font-family="sans-serif" font-size="12" lengthAdjust="spacing" textLength="135.8262" x="83.26" y="129.4355">Post creado (borrador)</text></g><g id="Publicado"><rect fill="#F1F1F1" height="50.2656" rx="12.5" ry="12.5" style="stroke:#181818;stroke-width:0.5;" width="107.7676" x="102.29" y="214.27"/><line style="stroke:#181818;stroke-width:0.5;" x1="102.29" x2="210.0576" y1="240.5669" y2="240.5669"/><text fill="#000000" font-family="sans-serif" font-size="14" lengthAdjust="spacing" textLength="67.71" x="122.3188" y="232.2651">Publicado</text><text fill="#000000" font-family="sans-serif" font-size="12" lengthAdjust="spacing" textLength="87.7676" x="107.29" y="256.7055">Post publicado</text></g><g id="Eliminado"><rect fill="#F1F1F1" height="50.2656" rx="12.5" ry="12.5" style="stroke:#181818;stroke-width:0.5;" width="108.3418" x="7" y="341.53"/><line style="stroke:#181818;stroke-width:0.5;" x1="7" x2="115.3418" y1="367.8269" y2="367.8269"/><text fill="#000000" font-family="sans-serif" font-size="14" lengthAdjust="spacing" textLength="69.0566" x="26.6426" y="359.5251">Eliminado</text><text fill="#000000" font-family="sans-serif" font-size="12" lengthAdjust="spacing" textLength="88.3418" x="12" y="383.9655">Post eliminado</text></g><g id="Editado"><rect fill="#F1F1F1" height="50.2656" rx="12.5" ry="12.5" style="stroke:#181818;stroke-width:0.5;" width="111.3652" x="165.49" y="341.53"/><line style="stroke:#181818;stroke-width:0.5;" x1="165.49" x2="276.8552" y1="367.8269" y2="367.8269"/><text fill="#000000" font-family="sans-serif" font-size="14" lengthAdjust="spacing" textLength="53.1426" x="194.6013" y="359.5251">Editado</text><text fill="#000000" font-family="sans-serif" font-size="12" lengthAdjust="spacing" textLength="91.3652" x="170.49" y="383.9655">Post en edici&#243;n</text></g><!--link *start* to Draft--><g class="link" data-entity-1="*start*" data-entity-2="Draft" data-source-line="1" data-uid="lnk4" id="link_*start*_Draft"><path d="M156.17,26.37 C156.17,40.32 156.17,61.03 156.17,80.75" fill="none" id="*start*-to-Draft" style="stroke:#181818;stroke-width:1;"/><polygon fill="#181818" points="156.17,86.75,160.17,77.75,156.17,81.75,152.17,77.75,156.17,86.75" style="stroke:#181818;stroke-width:1;"/></g><!--link Draft to Publicado--><g class="link" data-entity-1="Draft" data-entity-2="Publicado" data-source-line="4" data-uid="lnk6" id="link_Draft_Publicado"><path d="M156.17,137.59 C156.17,159.66 156.17,185.96 156.17,208.01" fill="none" id="Draft-to-Publicado" style="stroke:#181818;stroke-width:1;"/><polygon fill="#181818" points="156.17,214.01,160.17,205.01,156.17,209.01,152.17,205.01,156.17,214.01" style="stroke:#181818;stroke-width:1;"/><text fill="#000000" font-family="sans-serif" font-size="13" lengthAdjust="spacing" textLength="52.0127" x="157.17" y="180.3369">Publicar</text></g><!--link Publicado to Eliminado--><g class="link" data-entity-1="Publicado" data-entity-2="Eliminado" data-source-line="7" data-uid="lnk8" id="link_Publicado_Eliminado"><path d="M116.25,265.03 C105.32,273.3 94.26,283.32 86.17,294.53 C76.13,308.44 71.324,320.9316 67.554,335.4916" fill="none" id="Publicado-to-Eliminado" style="stroke:#181818;stroke-width:1;"/><polygon fill="#181818" points="66.05,341.3,72.1783,333.59,67.3033,336.4596,64.4337,331.5847,66.05,341.3" style="stroke:#181818;stroke-width:1;"/><text fill="#000000" font-family="sans-serif" font-size="13" lengthAdjust="spacing" textLength="53.2632" x="87.17" y="307.5969">Eliminar</text></g><!--link Publicado to Editado--><g class="link" data-entity-1="Publicado" data-entity-2="Editado" data-source-line="10" data-uid="lnk10" id="link_Publicado_Editado"><path d="M149.58,264.95 C147.06,279.22 146.25,297.17 153.17,311.53 C158.81,323.22 163.6272,329.4439 173.7872,337.4939" fill="none" id="Publicado-to-Editado" style="stroke:#181818;stroke-width:1;"/><polygon fill="#181818" points="178.49,341.22,173.9199,332.4956,174.571,338.1149,168.9518,338.766,178.49,341.22" style="stroke:#181818;stroke-width:1;"/><text fill="#000000" font-family="sans-serif" font-size="13" lengthAdjust="spacing" textLength="38.4858" x="154.17" y="307.5969">Editar</text></g><!--link Editado to Publicado--><g class="link" data-entity-1="Editado" data-entity-2="Publicado" data-source-line="12" data-uid="lnk11" id="link_Editado_Publicado"><path d="M215.02,341.16 C210.98,327.06 204.98,309.28 197.17,294.53 C191.71,284.22 188.0376,278.5153 181.0576,269.5953" fill="none" id="Editado-to-Publicado" style="stroke:#181818;stroke-width:1;"/><polygon fill="#181818" points="177.36,264.87,179.7562,274.4229,180.4413,268.8077,186.0565,269.4928,177.36,264.87" style="stroke:#181818;stroke-width:1;"/><text fill="#000000" font-family="sans-serif" font-size="13" lengthAdjust="spacing" textLength="69.4561" x="205.17" y="307.5969">Republicar</text></g><!--SRC=[YzQALT3LjLDmAKfCA-42amfM2W7vnIKAoKMfYIdv2Xf9-KL5G4QH9XTK7gG-e3Gf9pCP96y5OnTneGY2Z2Y02N0XoO6qk-PavcRcGLH2sKLSo89WxQam0GpjAPabKCqW5b0hN02YCKyXDIKpEVFmvZou5BghWrAXhYi20000]--></g></svg>