<svg xmlns="http://www.w3.org/2000/svg" xmlns:xlink="http://www.w3.org/1999/xlink" contentStyleType="text/css" data-diagram-type="STATE" height="1430px" preserveAspectRatio="none" style="width:1643px;height:1430px;background:#FFFFFF;" version="1.1" viewBox="0 0 1643 1430" width="1643px" zoomAndPan="magnify"><defs/><g><g id="Inicio"><rect fill="#F1F1F1" height="50" rx="12.5" ry="12.5" style="stroke:#181818;stroke-width:0.5;" width="57.0439" x="7" y="118"/><line style="stroke:#181818;stroke-width:0.5;" x1="7" x2="64.0439" y1="144.2969" y2="144.2969"/><text fill="#000000" font-family="sans-serif" font-size="14" lengthAdjust="spacing" textLength="37.0439" x="17" y="135.9951">Inicio</text></g><g id="Dashboard"><rect fill="#F1F1F1" height="50" rx="12.5" ry="12.5" style="stroke:#181818;stroke-width:0.5;" width="96.2002" x="826.5" y="245"/><line style="stroke:#181818;stroke-width:0.5;" x1="826.5" x2="922.7002" y1="271.2969" y2="271.2969"/><text fill="#000000" font-family="sans-serif" font-size="14" lengthAdjust="spacing" textLength="76.2002" x="836.5" y="262.9951">Dashboard</text></g><path d="M641,372 L833.6104,372 A12.5,12.5 0 0 1 846.1104,384.5 L846.1104,398.2969 L628.5,398.2969 L628.5,384.5 A12.5,12.5 0 0 1 641,372 " fill="#F1F1F1" style="stroke:#F1F1F1;stroke-width:1;"/><rect fill="transparent" height="245.2969" rx="12.5" ry="12.5" style="stroke:#181818;stroke-width:0.5;" width="217.6104" x="628.5" y="372"/><line style="stroke:#181818;stroke-width:0.5;" x1="628.5" x2="846.1104" y1="398.2969" y2="398.2969"/><text fill="#000000" font-family="sans-serif" font-size="14" lengthAdjust="spacing" textLength="35.5195" x="719.5454" y="389.9951">Perfil</text><ellipse cx="676" cy="419.2969" fill="#222222" rx="10" ry="10" style="stroke:#222222;stroke-width:1;"/><g id="Perfil.Edici&#243;n"><rect fill="#F1F1F1" height="50" rx="12.5" ry="12.5" style="stroke:#181818;stroke-width:0.5;" width="70.6475" x="640.5" y="482.2969"/><line style="stroke:#181818;stroke-width:0.5;" x1="640.5" x2="711.1475" y1="508.5938" y2="508.5938"/><text fill="#000000" font-family="sans-serif" font-size="14" lengthAdjust="spacing" textLength="50.6475" x="650.5" y="500.292">Edici&#243;n</text></g><ellipse cx="676" cy="596.2969" fill="transparent" rx="11" ry="11" style="stroke:#222222;stroke-width:1;"/><ellipse cx="676" cy="596.2969" fill="#222222" rx="6" ry="6" style="stroke:#222222;stroke-width:1;"/><!--link *start*Perfil to Edici?n--><g id="link_*start*Perfil_Edici&#243;n"><path d="M676,429.4969 C676,441.9769 676,458.7169 676,476.2269 " fill="transparent" id="*start*Perfil-to-Edici&#243;n" style="stroke:#181818;stroke-width:1;"/><polygon fill="#181818" points="676,482.2269,680,473.2269,676,477.2269,672,473.2269,676,482.2269" style="stroke:#181818;stroke-width:1;"/><text fill="#000000" font-family="sans-serif" font-size="13" lengthAdjust="spacing" textLength="159.1104" x="677" y="460.3638">Modificar Datos de Perfil</text></g><!--link Edici?n to *end*Perfil--><g id="link_Edici&#243;n_*end*Perfil"><path d="M676,532.5269 C676,549.8269 676,566.2169 676,579.0469 " fill="transparent" id="Edici&#243;n-to-*end*Perfil" style="stroke:#181818;stroke-width:1;"/><polygon fill="#181818" points="676,585.0469,680,576.0469,676,580.0469,672,576.0469,676,585.0469" style="stroke:#181818;stroke-width:1;"/><text fill="#000000" font-family="sans-serif" font-size="13" lengthAdjust="spacing" textLength="113.6167" x="677" y="563.3638">Guardar Cambios</text></g><path d="M647.5,694 L935.4487,694 A12.5,12.5 0 0 1 947.9487,706.5 L947.9487,720.2969 L635,720.2969 L635,706.5 A12.5,12.5 0 0 1 647.5,694 " fill="#F1F1F1" style="stroke:#F1F1F1;stroke-width:1;"/><rect fill="transparent" height="257.2969" rx="12.5" ry="12.5" style="stroke:#181818;stroke-width:0.5;" width="312.9487" x="635" y="694"/><line style="stroke:#181818;stroke-width:0.5;" x1="635" x2="947.9487" y1="720.2969" y2="720.2969"/><text fill="#000000" font-family="sans-serif" font-size="14" lengthAdjust="spacing" textLength="95.874" x="743.5373" y="711.9951">Comunidades</text><ellipse cx="798" cy="741.2969" fill="#222222" rx="10" ry="10" style="stroke:#222222;stroke-width:1;"/><g id="Comunidades.Selecci&#243;n"><rect fill="#F1F1F1" height="50" rx="12.5" ry="12.5" style="stroke:#181818;stroke-width:0.5;" width="86.7256" x="754.5" y="788.2969"/><line style="stroke:#181818;stroke-width:0.5;" x1="754.5" x2="841.2256" y1="814.5938" y2="814.5938"/><text fill="#000000" font-family="sans-serif" font-size="14" lengthAdjust="spacing" textLength="66.7256" x="764.5" y="806.292">Selecci&#243;n</text></g><g id="Comunidades.Creaci&#243;nComunidad"><rect fill="#F1F1F1" height="50" rx="12.5" ry="12.5" style="stroke:#181818;stroke-width:0.5;" width="161.7158" x="647" y="891.2969"/><line style="stroke:#181818;stroke-width:0.5;" x1="647" x2="808.7158" y1="917.5938" y2="917.5938"/><text fill="#000000" font-family="sans-serif" font-size="14" lengthAdjust="spacing" textLength="141.7158" x="657" y="909.292">Creaci&#243;nComunidad</text></g><ellipse cx="928" cy="916.2969" fill="transparent" rx="11" ry="11" style="stroke:#222222;stroke-width:1;"/><ellipse cx="928" cy="916.2969" fill="#222222" rx="6" ry="6" style="stroke:#222222;stroke-width:1;"/><!--link *start*Comunidades to Selecci?n--><g id="link_*start*Comunidades_Selecci&#243;n"><path d="M798,751.4469 C798,760.7169 798,769.4369 798,782.0769 " fill="transparent" id="*start*Comunidades-to-Selecci&#243;n" style="stroke:#181818;stroke-width:1;"/><polygon fill="#181818" points="798,788.0769,802,779.0769,798,783.0769,794,779.0769,798,788.0769" style="stroke:#181818;stroke-width:1;"/></g><!--link Selecci?n to Creaci?nComunidad--><g id="link_Selecci&#243;n_Creaci&#243;nComunidad"><path d="M754.2,814.7369 C722.45,817.6569 681.47,827.3169 660,856.2969 C650.42,869.2369 654.5984,877.9184 668.9484,887.7384 " fill="transparent" id="Selecci&#243;n-to-Creaci&#243;nComunidad" style="stroke:#181818;stroke-width:1;"/><polygon fill="#181818" points="673.9,891.1269,668.7316,882.7431,669.7737,888.3031,664.2136,889.3452,673.9,891.1269" style="stroke:#181818;stroke-width:1;"/><text fill="#000000" font-family="sans-serif" font-size="13" lengthAdjust="spacing" textLength="114.1182" x="661" y="869.3638">Crear Comunidad</text></g><!--link Creaci?nComunidad to Selecci?n--><g id="link_Creaci&#243;nComunidad_Selecci&#243;n"><path d="M760.22,891.0969 C766.01,885.7069 771.6,879.6769 776,873.2969 C783.21,862.8669 786.601,855.4908 790.121,844.2908 " fill="transparent" id="Creaci&#243;nComunidad-to-Selecci&#243;n" style="stroke:#181818;stroke-width:1;"/><polygon fill="#181818" points="791.92,838.5669,785.4056,845.9535,790.4209,843.3368,793.0375,848.3521,791.92,838.5669" style="stroke:#181818;stroke-width:1;"/><text fill="#000000" font-family="sans-serif" font-size="13" lengthAdjust="spacing" textLength="113.6167" x="787" y="869.3638">Guardar Cambios</text></g><!--link Selecci?n to *end*Comunidades--><g id="link_Selecci&#243;n_*end*Comunidades"><path d="M841.66,822.7569 C863.11,828.8869 887.95,839.2069 905,856.2969 C918.51,869.8369 923.2271,886.32 925.5371,899.28 " fill="transparent" id="Selecci&#243;n-to-*end*Comunidades" style="stroke:#181818;stroke-width:1;"/><polygon fill="#181818" points="926.59,905.1869,928.9487,895.6246,925.7126,900.2645,921.0728,897.0284,926.59,905.1869" style="stroke:#181818;stroke-width:1;"/></g><path d="M860.5,1155 L976.6807,1155 A12.5,12.5 0 0 1 989.1807,1167.5 L989.1807,1181.2969 L848,1181.2969 L848,1167.5 A12.5,12.5 0 0 1 860.5,1155 " fill="#F1F1F1" style="stroke:#F1F1F1;stroke-width:1;"/><rect fill="transparent" height="170.2969" rx="12.5" ry="12.5" style="stroke:#181818;stroke-width:0.5;" width="141.1807" x="848" y="1155"/><line style="stroke:#181818;stroke-width:0.5;" x1="848" x2="989.1807" y1="1181.2969" y2="1181.2969"/><text fill="#000000" font-family="sans-serif" font-size="14" lengthAdjust="spacing" textLength="51.0303" x="893.0752" y="1172.9951">Ajustes</text><ellipse cx="918.5" cy="1202.2969" fill="#222222" rx="10" ry="10" style="stroke:#222222;stroke-width:1;"/><g id="Ajustes.Configuraci&#243;n"><rect fill="#F1F1F1" height="50" rx="12.5" ry="12.5" style="stroke:#181818;stroke-width:0.5;" width="117.1523" x="860" y="1265.2969"/><line style="stroke:#181818;stroke-width:0.5;" x1="860" x2="977.1523" y1="1291.5938" y2="1291.5938"/><text fill="#000000" font-family="sans-serif" font-size="14" lengthAdjust="spacing" textLength="97.1523" x="870" y="1283.292">Configuraci&#243;n</text></g><!--link *start*Ajustes to Configuraci?n--><g id="link_*start*Ajustes_Configuraci&#243;n"><path d="M918.5,1212.4969 C918.5,1224.9769 918.5,1241.7169 918.5,1259.2269 " fill="transparent" id="*start*Ajustes-to-Configuraci&#243;n" style="stroke:#181818;stroke-width:1;"/><polygon fill="#181818" points="918.5,1265.2269,922.5,1256.2269,918.5,1260.2269,914.5,1256.2269,918.5,1265.2269" style="stroke:#181818;stroke-width:1;"/><text fill="#000000" font-family="sans-serif" font-size="13" lengthAdjust="spacing" textLength="59.6807" x="919.5" y="1243.3638">Modificar</text></g><ellipse cx="35.5" cy="16" fill="#222222" rx="10" ry="10" style="stroke:#222222;stroke-width:1;"/><g id="Etiqueta"><rect fill="#F1F1F1" height="50" rx="12.5" ry="12.5" style="stroke:#181818;stroke-width:0.5;" width="78.666" x="373" y="1028"/><line style="stroke:#181818;stroke-width:0.5;" x1="373" x2="451.666" y1="1054.2969" y2="1054.2969"/><text fill="#000000" font-family="sans-serif" font-size="14" lengthAdjust="spacing" textLength="58.666" x="383" y="1045.9951">Etiqueta</text></g><ellipse cx="715.5" cy="1413" fill="transparent" rx="11" ry="11" style="stroke:#222222;stroke-width:1;"/><ellipse cx="715.5" cy="1413" fill="#222222" rx="6" ry="6" style="stroke:#222222;stroke-width:1;"/><!--link *start* to Inicio--><g id="link_*start*_Inicio"><path d="M35.5,26.4 C35.5,45.59 35.5,83.82 35.5,111.67 " fill="transparent" id="*start*-to-Inicio" style="stroke:#181818;stroke-width:1;"/><polygon fill="#181818" points="35.5,117.67,39.5,108.67,35.5,112.67,31.5,108.67,35.5,117.67" style="stroke:#181818;stroke-width:1;"/><text fill="#000000" font-family="sans-serif" font-size="13" lengthAdjust="spacing" textLength="74.1914" x="42.762" y="69.0669">Registrarse</text><text fill="#000000" font-family="sans-serif" font-size="13" lengthAdjust="spacing" textLength="86.7153" x="40.6323" y="84.1997">Iniciar Sesi&#243;n</text></g><!--link Inicio to Dashboard--><g id="link_Inicio_Dashboard"><path d="M64.38,148.3 C187.78,166.69 665.5855,237.876 820.5355,260.956 " fill="transparent" id="Inicio-to-Dashboard" style="stroke:#181818;stroke-width:1;"/><polygon fill="#181818" points="826.47,261.84,818.1575,256.5577,821.5246,261.1034,816.9789,264.4704,826.47,261.84" style="stroke:#181818;stroke-width:1;"/><text fill="#000000" font-family="sans-serif" font-size="13" lengthAdjust="spacing" textLength="60.8042" x="505.5" y="211.0669">Ver Posts</text></g><!--link Dashboard to Perfil--><g id="link_Dashboard_Perfil"><path d="M852.61,295.21 C844.9,304.25 836.43,314.81 829.5,325 C819.47,339.74 812.6414,350.5063 803.3214,366.4963 " fill="transparent" id="Dashboard-to-Perfil" style="stroke:#181818;stroke-width:1;"/><polygon fill="#181818" points="800.3,371.68,808.2879,365.9187,802.8178,367.3602,801.3763,361.8901,800.3,371.68" style="stroke:#181818;stroke-width:1;"/><text fill="#000000" font-family="sans-serif" font-size="13" lengthAdjust="spacing" textLength="59.3506" x="830.5" y="338.0669">Ver Perfil</text></g><!--link Perfil to Dashboard--><g id="link_Perfil_Dashboard"><path d="M731.09,371.91 C734.57,355.1 740.63,338.86 750.5,325 C768.06,300.32 793.6234,288.386 820.4034,281.046 " fill="transparent" id="Perfil-to-Dashboard" style="stroke:#181818;stroke-width:1;"/><polygon fill="#181818" points="826.19,279.46,816.4528,277.9813,821.3678,280.7817,818.5675,285.6967,826.19,279.46" style="stroke:#181818;stroke-width:1;"/><text fill="#000000" font-family="sans-serif" font-size="13" lengthAdjust="spacing" textLength="60.8042" x="751.5" y="338.0669">Ver Posts</text></g><!--link Dashboard to Comunidades--><g id="link_Dashboard_Comunidades"><path d="M885.55,295.22 C889.16,304.35 892.7,314.96 894.5,325 C895.83,332.44 894.91,334.46 894.5,342 C887.82,464.77 892.02,497.17 864.5,617 C858.7,642.26 852.6758,663.0175 844.1458,688.1875 " fill="transparent" id="Dashboard-to-Comunidades" style="stroke:#181818;stroke-width:1;"/><polygon fill="#181818" points="842.22,693.87,848.897,686.63,843.8248,689.1345,841.3203,684.0623,842.22,693.87" style="stroke:#181818;stroke-width:1;"/><text fill="#000000" font-family="sans-serif" font-size="13" lengthAdjust="spacing" textLength="115.394" x="893.5" y="499.0669">Ver Comunidades</text></g><!--link Comunidades to Dashboard--><g id="link_Comunidades_Dashboard"><path d="M948.26,712.09 C976.38,684.54 1001.72,652.55 1017.5,617 C1061.67,517.47 1067.58,468.69 1017.5,372 C997.65,333.68 961.2068,309.4325 927.8968,293.0925 " fill="transparent" id="Comunidades-to-Dashboard" style="stroke:#181818;stroke-width:1;"/><polygon fill="#181818" points="922.51,290.45,928.8285,298.0049,926.999,292.652,932.3518,290.8225,922.51,290.45" style="stroke:#181818;stroke-width:1;"/><text fill="#000000" font-family="sans-serif" font-size="13" lengthAdjust="spacing" textLength="60.8042" x="1053.5" y="499.0669">Ver Posts</text></g><!--link Dashboard to Ajustes--><g id="link_Dashboard_Ajustes"><path d="M922.66,271.81 C1022.62,274.32 1248.64,284.43 1312.5,325 C1387.18,372.44 1418.5,405.03 1418.5,493.5 C1418.5,493.5 1418.5,493.5 1418.5,990.5 C1418.5,1054.59 1414.45,1082.47 1366.5,1125 C1310.81,1174.39 1106.5315,1211.1561 994.9715,1228.1561 " fill="transparent" id="Dashboard-to-Ajustes" style="stroke:#181818;stroke-width:1;"/><polygon fill="#181818" points="989.04,1229.06,998.5399,1231.6585,993.9829,1228.3068,997.3347,1223.7498,989.04,1229.06" style="stroke:#181818;stroke-width:1;"/><text fill="#000000" font-family="sans-serif" font-size="13" lengthAdjust="spacing" textLength="73.7534" x="1419.5" y="827.0669">Ver Ajustes</text></g><!--link Ajustes to Dashboard--><g id="link_Ajustes_Dashboard"><path d="M989.34,1226.1 C1066.4,1207.88 1185.87,1166.39 1240.5,1078 C1252.18,1059.1 1242.47,1050.13 1240.5,1028 C1214.17,732.94 1307.03,603.74 1122.5,372 C1073.2,310.08 985.712,286.8143 928.662,277.5243 " fill="transparent" id="Ajustes-to-Dashboard" style="stroke:#181818;stroke-width:1;"/><polygon fill="#181818" points="922.74,276.56,930.9801,281.9545,927.675,277.3636,932.2659,274.0585,922.74,276.56" style="stroke:#181818;stroke-width:1;"/><text fill="#000000" font-family="sans-serif" font-size="13" lengthAdjust="spacing" textLength="60.8042" x="1241.5" y="827.0669">Ver Posts</text></g><!--link Dashboard to Etiqueta--><g id="link_Dashboard_Etiqueta"><path d="M826.45,272.27 C689.63,276.3 304.91,290.59 260.5,325 C134.84,422.35 121.11,507.08 146.5,664 C171.49,818.42 147.69,886.6 257.5,998 C288.31,1029.25 332.2148,1041.5056 367.0348,1047.0556 " fill="transparent" id="Dashboard-to-Etiqueta" style="stroke:#181818;stroke-width:1;"/><polygon fill="#181818" points="372.96,1048,364.7018,1042.6332,368.0223,1047.213,363.4426,1050.5335,372.96,1048" style="stroke:#181818;stroke-width:1;"/><text fill="#000000" font-family="sans-serif" font-size="13" lengthAdjust="spacing" textLength="95.6401" x="147.5" y="660.0669">Elegir Etiqueta</text></g><!--link Etiqueta to Dashboard--><g id="link_Etiqueta_Dashboard"><path d="M394.57,1027.77 C381.3,1008.2 364.37,979.33 357.5,951 C325.64,819.67 301.54,772.56 351.5,647 C413.68,490.72 471.92,465.85 611.5,372 C659.38,339.81 678.65,345.7 732.5,325 C763.77,312.98 793.3499,301.7275 820.8799,291.2875 " fill="transparent" id="Etiqueta-to-Dashboard" style="stroke:#181818;stroke-width:1;"/><polygon fill="#181818" points="826.49,289.16,816.6564,288.6111,821.8149,290.9329,819.4931,296.0913,826.49,289.16" style="stroke:#181818;stroke-width:1;"/><text fill="#000000" font-family="sans-serif" font-size="13" lengthAdjust="spacing" textLength="60.8042" x="352.5" y="660.0669">Ver Posts</text></g><!--link Perfil to Comunidades--><g id="link_Perfil_Comunidades"><path d="M628.83,617.21 C624.8,632.57 624.96,648.38 631.5,664 C635.83,674.34 637.9733,679.2815 644.1033,688.8915 " fill="transparent" id="Perfil-to-Comunidades" style="stroke:#181818;stroke-width:1;"/><polygon fill="#181818" points="647.33,693.95,645.8623,684.2111,644.6411,689.7346,639.1176,688.5134,647.33,693.95" style="stroke:#181818;stroke-width:1;"/><text fill="#000000" font-family="sans-serif" font-size="13" lengthAdjust="spacing" textLength="115.394" x="632.5" y="660.0669">Ver Comunidades</text></g><!--link Comunidades to Perfil--><g id="link_Comunidades_Perfil"><path d="M770.35,693.8 C766.18,668.65 762.8018,648.2291 758.6618,623.2691 " fill="transparent" id="Comunidades-to-Perfil" style="stroke:#181818;stroke-width:1;"/><polygon fill="#181818" points="757.68,617.35,755.2066,626.8832,758.4981,622.2826,763.0988,625.5742,757.68,617.35" style="stroke:#181818;stroke-width:1;"/><text fill="#000000" font-family="sans-serif" font-size="13" lengthAdjust="spacing" textLength="59.3506" x="765.5" y="660.0669">Ver Perfil</text></g><!--link Perfil to Ajustes--><g id="link_Perfil_Ajustes"><path d="M846.7,608.46 C849.97,611.37 853.24,614.22 856.5,617 C901.66,655.46 935.42,642.88 965.5,694 C1034.43,811.13 977.82,863.68 998.5,998 C1003.93,1033.24 1013.16,1043.41 1004.5,1078 C997.92,1104.28 988.9685,1125.6785 976.1985,1149.5685 " fill="transparent" id="Perfil-to-Ajustes" style="stroke:#181818;stroke-width:1;"/><polygon fill="#181818" points="973.37,1154.86,981.1404,1148.8084,975.7271,1150.4504,974.0851,1145.0371,973.37,1154.86" style="stroke:#181818;stroke-width:1;"/><text fill="#000000" font-family="sans-serif" font-size="13" lengthAdjust="spacing" textLength="73.7534" x="999.5" y="994.0669">Ver Ajustes</text></g><!--link Ajustes to Perfil--><g id="link_Ajustes_Perfil"><path d="M989.01,1163.32 C1024.74,1118.93 1063.48,1059.58 1077.5,998 C1108.26,862.91 1082.92,810.86 1008.5,694 C990.49,665.72 979.04,662.85 949.5,647 C911.23,626.47 893.44,639.85 856.5,617 C853.24,614.98 854.9348,616.2629 851.7248,614.0429 " fill="transparent" id="Ajustes-to-Perfil" style="stroke:#181818;stroke-width:1;"/><polygon fill="#181818" points="846.79,610.63,851.917,619.0392,850.9023,613.4741,856.4675,612.4594,846.79,610.63" style="stroke:#181818;stroke-width:1;"/><text fill="#000000" font-family="sans-serif" font-size="13" lengthAdjust="spacing" textLength="59.3506" x="1081.5" y="994.0669">Ver Perfil</text></g><!--link Perfil to Etiqueta--><g id="link_Perfil_Etiqueta"><path d="M628.5,527.41 C549.5,556.84 448.17,609.08 398.5,694 C334.28,803.8 379.5857,960.9747 401.2257,1022.0347 " fill="transparent" id="Perfil-to-Etiqueta" style="stroke:#181818;stroke-width:1;"/><polygon fill="#181818" points="403.23,1027.69,403.9938,1017.8708,401.5598,1022.9772,396.4534,1020.5432,403.23,1027.69" style="stroke:#181818;stroke-width:1;"/><text fill="#000000" font-family="sans-serif" font-size="13" lengthAdjust="spacing" textLength="95.6401" x="399.5" y="827.0669">Elegir Etiqueta</text></g><!--link Etiqueta to Perfil--><g id="link_Etiqueta_Perfil"><path d="M417.38,1027.94 C421.44,1012.97 428.55,994.14 440.5,981 C460.29,959.24 481.48,974.25 499.5,951 C571.17,858.52 502.6,797.84 556.5,694 C574.92,658.51 597.2631,628.9497 624.2231,599.4397 " fill="transparent" id="Etiqueta-to-Perfil" style="stroke:#181818;stroke-width:1;"/><polygon fill="#181818" points="628.27,595.01,619.2465,598.9566,624.8976,598.7014,625.1527,604.3525,628.27,595.01" style="stroke:#181818;stroke-width:1;"/><text fill="#000000" font-family="sans-serif" font-size="13" lengthAdjust="spacing" textLength="59.3506" x="557.5" y="827.0669">Ver Perfil</text></g><!--link Comunidades to Ajustes--><g id="link_Comunidades_Ajustes"><path d="M775.46,951.13 C772.81,966.98 769.83,982.91 766.5,998 C763.5,1011.59 759.52,1014.23 757.5,1028 C754.27,1049.99 744.28,1060.13 757.5,1078 C784.59,1114.62 820.95,1078.32 855.5,1108 C870.24,1120.66 879.0633,1132.2256 888.0433,1149.6656 " fill="transparent" id="Comunidades-to-Ajustes" style="stroke:#181818;stroke-width:1;"/><polygon fill="#181818" points="890.79,1155,890.2262,1145.1673,888.5011,1150.5547,883.1137,1148.8296,890.79,1155" style="stroke:#181818;stroke-width:1;"/><text fill="#000000" font-family="sans-serif" font-size="13" lengthAdjust="spacing" textLength="73.7534" x="758.5" y="1057.5669">Ver Ajustes</text></g><!--link Ajustes to Comunidades--><g id="link_Ajustes_Comunidades"><path d="M900.58,1154.81 C896.86,1139.18 892.77,1123.04 888.5,1108 C873.77,1056.17 857.1253,1005.5355 840.1353,956.8055 " fill="transparent" id="Ajustes-to-Comunidades" style="stroke:#181818;stroke-width:1;"/><polygon fill="#181818" points="838.16,951.14,837.346,960.9552,839.8061,955.8613,844.9,958.3214,838.16,951.14" style="stroke:#181818;stroke-width:1;"/><text fill="#000000" font-family="sans-serif" font-size="13" lengthAdjust="spacing" textLength="115.394" x="880.5" y="1057.5669">Ver Comunidades</text></g><!--link Comunidades to Etiqueta--><g id="link_Comunidades_Etiqueta"><path d="M635,937.74 C625.88,942.56 616.68,947.02 607.5,951 C549.1,976.28 521.37,947.12 467.5,981 C449.29,992.46 437.8418,1007.06 428.2818,1022.82 " fill="transparent" id="Comunidades-to-Etiqueta" style="stroke:#181818;stroke-width:1;"/><polygon fill="#181818" points="425.17,1027.95,433.2577,1022.3296,427.7632,1023.675,426.4178,1018.1805,425.17,1027.95" style="stroke:#181818;stroke-width:1;"/><text fill="#000000" font-family="sans-serif" font-size="13" lengthAdjust="spacing" textLength="95.6401" x="468.5" y="994.0669">Elegir Etiqueta</text></g><!--link Etiqueta to Comunidades--><g id="link_Etiqueta_Comunidades"><path d="M452.15,1042.2 C484.62,1033.26 531.12,1018.35 568.5,998 C593.33,984.48 613.38,971.7347 637.1,954.6647 " fill="transparent" id="Etiqueta-to-Comunidades" style="stroke:#181818;stroke-width:1;"/><polygon fill="#181818" points="641.97,951.16,632.3285,953.1704,637.9116,954.0806,637.0014,959.6637,641.97,951.16" style="stroke:#181818;stroke-width:1;"/><text fill="#000000" font-family="sans-serif" font-size="13" lengthAdjust="spacing" textLength="115.394" x="595.5" y="994.0669">Ver Comunidades</text></g><!--link Ajustes to Etiqueta--><g id="link_Ajustes_Etiqueta"><path d="M847.83,1211.33 C791.17,1188.86 709.78,1155.93 639.5,1125 C623.3,1117.87 620.07,1114.21 603.5,1108 C552.35,1088.84 497.1498,1074.129 458.0798,1064.619 " fill="transparent" id="Ajustes-to-Etiqueta" style="stroke:#181818;stroke-width:1;"/><polygon fill="#181818" points="452.25,1063.2,460.0487,1069.2151,457.1082,1064.3825,461.9407,1061.442,452.25,1063.2" style="stroke:#181818;stroke-width:1;"/><text fill="#000000" font-family="sans-serif" font-size="13" lengthAdjust="spacing" textLength="95.6401" x="640.5" y="1121.0669">Elegir Etiqueta</text></g><!--link Etiqueta to Ajustes--><g id="link_Etiqueta_Ajustes"><path d="M452,1054.61 C515.32,1056.86 642.38,1066.65 740.5,1108 C779.04,1124.24 812.3414,1146.6561 843.2614,1171.3461 " fill="transparent" id="Etiqueta-to-Ajustes" style="stroke:#181818;stroke-width:1;"/><polygon fill="#181818" points="847.95,1175.09,843.413,1166.3484,844.0428,1171.9701,838.4211,1172.5999,847.95,1175.09" style="stroke:#181818;stroke-width:1;"/><text fill="#000000" font-family="sans-serif" font-size="13" lengthAdjust="spacing" textLength="73.7534" x="773.5" y="1121.0669">Ver Ajustes</text></g><!--link Inicio to *end*--><g id="link_Inicio_*end*"><path d="M26.48,168.05 C17.97,192.94 6.5,233.13 6.5,269 C6.5,269 6.5,269 6.5,1241 C6.5,1391.04 608.1614,1409.6997 698.3614,1411.6597 " fill="transparent" id="Inicio-to-*end*" style="stroke:#181818;stroke-width:1;"/><polygon fill="#181818" points="704.36,1411.79,695.449,1407.5954,699.3612,1411.6814,695.2752,1415.5935,704.36,1411.79" style="stroke:#181818;stroke-width:1;"/><text fill="#000000" font-family="sans-serif" font-size="13" lengthAdjust="spacing" textLength="88.0356" x="7.5" y="827.0669">Cerrar Sesi&#243;n</text></g><!--link Dashboard to *end*--><g id="link_Dashboard_*end*"><path d="M922.8,273.68 C1027.55,279.95 1272.46,297.17 1350.5,325 C1458.7,363.58 1546.5,378.62 1546.5,493.5 C1546.5,493.5 1546.5,493.5 1546.5,1241 C1546.5,1416.65 831.2295,1413.5067 732.6195,1412.2467 " fill="transparent" id="Dashboard-to-*end*" style="stroke:#181818;stroke-width:1;"/><polygon fill="#181818" points="726.62,1412.17,735.5682,1416.2847,731.6196,1412.2339,735.6704,1408.2853,726.62,1412.17" style="stroke:#181818;stroke-width:1;"/><text fill="#000000" font-family="sans-serif" font-size="13" lengthAdjust="spacing" textLength="88.0356" x="1547.5" y="994.0669">Cerrar Sesi&#243;n</text></g><!--link Perfil to *end*--><g id="link_Perfil_*end*"><path d="M846.55,611.04 C849.83,613.14 853.15,615.13 856.5,617 C946.28,666.99 1011.65,612.71 1074.5,694 C1159.62,804.1 1177.98,861.78 1149.5,998 C1117.03,1153.26 1122,1216.27 1006.5,1325 C922.42,1404.16 775.2296,1411.4823 732.7096,1411.9623 " fill="transparent" id="Perfil-to-*end*" style="stroke:#181818;stroke-width:1;"/><polygon fill="#181818" points="726.71,1412.03,735.7546,1415.9282,731.7097,1411.9736,735.6643,1407.9287,726.71,1412.03" style="stroke:#181818;stroke-width:1;"/><text fill="#000000" font-family="sans-serif" font-size="13" lengthAdjust="spacing" textLength="88.0356" x="1143.5" y="1057.5669">Cerrar Sesi&#243;n</text></g><!--link Comunidades to *end*--><g id="link_Comunidades_*end*"><path d="M751.31,951.42 C742.54,968.26 732.04,984.37 719.5,998 C647.1,1076.71 561.21,1016.72 505.5,1108 C467.15,1170.83 661.9812,1361.1963 703.6312,1400.7863 " fill="transparent" id="Comunidades-to-*end*" style="stroke:#181818;stroke-width:1;"/><polygon fill="#181818" points="707.98,1404.92,704.2126,1395.8202,704.356,1401.4752,698.7009,1401.6186,707.98,1404.92" style="stroke:#181818;stroke-width:1;"/><text fill="#000000" font-family="sans-serif" font-size="13" lengthAdjust="spacing" textLength="88.0356" x="506.5" y="1121.0669">Cerrar Sesi&#243;n</text></g><!--link Ajustes to *end*--><g id="link_Ajustes_*end*"><path d="M847.79,1300.57 C800.87,1340.09 748.8487,1383.9043 728.1587,1401.3343 " fill="transparent" id="Ajustes-to-*end*" style="stroke:#181818;stroke-width:1;"/><polygon fill="#181818" points="723.57,1405.2,733.0302,1402.4606,727.3939,1401.9786,727.8759,1396.3423,723.57,1405.2" style="stroke:#181818;stroke-width:1;"/><text fill="#000000" font-family="sans-serif" font-size="13" lengthAdjust="spacing" textLength="88.0356" x="781.5" y="1368.0669">Cerrar Sesi&#243;n</text></g><!--link Etiqueta to *end*--><g id="link_Etiqueta_*end*"><path d="M402.53,1078.28 C383.62,1128.51 348.51,1245.79 396.5,1325 C430.04,1380.35 646.04,1405.0908 698.45,1410.3508 " fill="transparent" id="Etiqueta-to-*end*" style="stroke:#181818;stroke-width:1;"/><polygon fill="#181818" points="704.42,1410.95,695.8644,1406.0712,699.445,1410.4507,695.0655,1414.0313,704.42,1410.95" style="stroke:#181818;stroke-width:1;"/><text fill="#000000" font-family="sans-serif" font-size="13" lengthAdjust="spacing" textLength="88.0356" x="397.5" y="1244.5669">Cerrar Sesi&#243;n</text></g><!--SRC=[VPD1JiGm34NtEKKqIwIvG1T8g5I81TA8aTW0YqpZ3a6THiJf2d4gZi35IDEqTJ9fTtNoxFzjDsY51VxOgLffXZwu5_XnqiB84EyEO1hLxhX0FdxoR_PwyxxVt_9AkiI_twxWJrggHjN2k7ohaKi8C9iOFYIul88_zAww8qjnEIcDx8TDKgM-z9sIGW9wFH9xJL_Z22tKlYHRFlrDQK3uQCuh_9bP2h5h9YbwxIzHSJw8vRlF7csm6xuNgwNk6dNkpQZ8wPY64ZCtBi3TFyDPeJN28F2tRZnty17Gznku8MLUayjw0SCF6YsovNHWmhe2CAuZ9iY00qPE4ZPq5xWG9KnbrLSFLZYeQbqlPZvXmSowT-fbdPfSh1EpXtM4UDcU007pxHDWe_UqjTnYKYQlbr8RedHIEK5wlpq5Icu8HeFFAKR0jcI4vaT17iFmZjnJ1sF8Oud_p2n2jfUzJwUTXUXqia3KIuxu1m00]--></g></svg>