<svg xmlns="http://www.w3.org/2000/svg" xmlns:xlink="http://www.w3.org/1999/xlink" contentStyleType="text/css" data-diagram-type="STATE" height="668px" preserveAspectRatio="none" style="width:637px;height:668px;background:#FFFFFF;" version="1.1" viewBox="0 0 637 668" width="637px" zoomAndPan="magnify"><defs/><g><ellipse cx="431.13" cy="16" fill="#222222" rx="10" ry="10" style="stroke:#222222;stroke-width:1;"/><g id="ViendoLista"><rect fill="#F1F1F1" height="50" rx="12.5" ry="12.5" style="stroke:#181818;stroke-width:0.5;" width="101.457" x="380.4" y="87"/><line style="stroke:#181818;stroke-width:0.5;" x1="380.4" x2="481.857" y1="113.2969" y2="113.2969"/><text fill="#000000" font-family="sans-serif" font-size="14" lengthAdjust="spacing" textLength="81.457" x="390.4" y="104.9951">ViendoLista</text></g><g id="ViendoDetalles"><rect fill="#F1F1F1" height="50" rx="12.5" ry="12.5" style="stroke:#181818;stroke-width:0.5;" width="125.5537" x="207.35" y="214"/><line style="stroke:#181818;stroke-width:0.5;" x1="207.35" x2="332.9037" y1="240.2969" y2="240.2969"/><text fill="#000000" font-family="sans-serif" font-size="14" lengthAdjust="spacing" textLength="105.5537" x="217.35" y="231.9951">ViendoDetalles</text></g><g id="Miembro"><rect fill="#F1F1F1" height="50" rx="12.5" ry="12.5" style="stroke:#181818;stroke-width:0.5;" width="81.4277" x="229.41" y="374"/><line style="stroke:#181818;stroke-width:0.5;" x1="229.41" x2="310.8377" y1="400.2969" y2="400.2969"/><text fill="#000000" font-family="sans-serif" font-size="14" lengthAdjust="spacing" textLength="61.4277" x="239.41" y="391.9951">Miembro</text></g><g id="ComunidadAbandonada"><rect fill="#F1F1F1" height="50" rx="12.5" ry="12.5" style="stroke:#181818;stroke-width:0.5;" width="188.2529" x="7" y="501"/><line style="stroke:#181818;stroke-width:0.5;" x1="7" x2="195.2529" y1="527.2969" y2="527.2969"/><text fill="#000000" font-family="sans-serif" font-size="14" lengthAdjust="spacing" textLength="168.2529" x="17" y="518.9951">ComunidadAbandonada</text></g><g id="Creando"><rect fill="#F1F1F1" height="50" rx="12.5" ry="12.5" style="stroke:#181818;stroke-width:0.5;" width="79.0488" x="551.6" y="294"/><line style="stroke:#181818;stroke-width:0.5;" x1="551.6" x2="630.6488" y1="320.2969" y2="320.2969"/><text fill="#000000" font-family="sans-serif" font-size="14" lengthAdjust="spacing" textLength="59.0488" x="561.6" y="311.9951">Creando</text></g><g id="MiembroLider"><rect fill="#F1F1F1" height="50" rx="12.5" ry="12.5" style="stroke:#181818;stroke-width:0.5;" width="116.373" x="380.94" y="501"/><line style="stroke:#181818;stroke-width:0.5;" x1="380.94" x2="497.313" y1="527.2969" y2="527.2969"/><text fill="#000000" font-family="sans-serif" font-size="14" lengthAdjust="spacing" textLength="96.373" x="390.94" y="518.9951">MiembroLider</text></g><g id="Gestionando"><rect fill="#F1F1F1" height="50" rx="12.5" ry="12.5" style="stroke:#181818;stroke-width:0.5;" width="108.4775" x="297.89" y="612"/><line style="stroke:#181818;stroke-width:0.5;" x1="297.89" x2="406.3675" y1="638.2969" y2="638.2969"/><text fill="#000000" font-family="sans-serif" font-size="14" lengthAdjust="spacing" textLength="88.4775" x="307.89" y="629.9951">Gestionando</text></g><g id="ComunidadEliminada"><rect fill="#F1F1F1" height="50" rx="12.5" ry="12.5" style="stroke:#181818;stroke-width:0.5;" width="169.0371" x="441.61" y="612"/><line style="stroke:#181818;stroke-width:0.5;" x1="441.61" x2="610.6471" y1="638.2969" y2="638.2969"/><text fill="#000000" font-family="sans-serif" font-size="14" lengthAdjust="spacing" textLength="149.0371" x="451.61" y="629.9951">ComunidadEliminada</text></g><!--link *start* to ViendoLista--><g class="link" data-entity-1=".start." data-entity-2="ViendoLista" data-source-line="1" data-uid="lnk4" id="link_.start._ViendoLista"><path d="M431.13,26.36 C431.13,40.29 431.13,60.95 431.13,80.65" fill="none" id="*start*-to-ViendoLista" style="stroke:#181818;stroke-width:1;"/><polygon fill="#181818" points="431.13,86.65,435.13,77.65,431.13,81.65,427.13,77.65,431.13,86.65" style="stroke:#181818;stroke-width:1;"/></g><!--link ViendoLista to ViendoDetalles--><g class="link" data-entity-1="ViendoLista" data-entity-2="ViendoDetalles" data-source-line="3" data-uid="lnk6" id="link_ViendoLista_ViendoDetalles"><path d="M379.95,118.02 C320.37,125.04 227.36,140.07 206.13,167 C193.39,183.16 203.1447,196.7949 221.6147,210.2049" fill="none" id="ViendoLista-to-ViendoDetalles" style="stroke:#181818;stroke-width:1;"/><polygon fill="#181818" points="226.47,213.73,221.5372,205.2055,222.424,210.7924,216.837,211.6792,226.47,213.73" style="stroke:#181818;stroke-width:1;"/><text fill="#000000" font-family="sans-serif" font-size="13" lengthAdjust="spacing" textLength="180.3052" x="207.13" y="180.0669">Seleccionar una comunidad</text></g><!--link ViendoDetalles to ViendoLista--><g class="link" data-entity-1="ViendoDetalles" data-entity-2="ViendoLista" data-source-line="4" data-uid="lnk7" id="link_ViendoDetalles_ViendoLista"><path d="M333.38,219.09 C353.83,210.74 375.49,199.27 392.13,184 C406.01,171.26 413.6897,157.9205 420.1097,142.8405" fill="none" id="ViendoDetalles-to-ViendoLista" style="stroke:#181818;stroke-width:1;"/><polygon fill="#181818" points="422.46,137.32,415.2543,144.034,420.5015,141.9204,422.615,147.1676,422.46,137.32" style="stroke:#181818;stroke-width:1;"/><text fill="#000000" font-family="sans-serif" font-size="13" lengthAdjust="spacing" textLength="135.313" x="408.13" y="180.0669">Volveiendo al listado</text></g><!--link ViendoDetalles to Miembro--><g class="link" data-entity-1="ViendoDetalles" data-entity-2="Miembro" data-source-line="6" data-uid="lnk9" id="link_ViendoDetalles_Miembro"><path d="M270.13,264.34 C270.13,294.03 270.13,337.93 270.13,367.63" fill="none" id="ViendoDetalles-to-Miembro" style="stroke:#181818;stroke-width:1;"/><polygon fill="#181818" points="270.13,373.63,274.13,364.63,270.13,368.63,266.13,364.63,270.13,373.63" style="stroke:#181818;stroke-width:1;"/><text fill="#000000" font-family="sans-serif" font-size="13" lengthAdjust="spacing" textLength="130.0381" x="271.13" y="323.5669">Unirse a comunidad</text></g><!--link Miembro to ComunidadAbandonada--><g class="link" data-entity-1="Miembro" data-entity-2="ComunidadAbandonada" data-source-line="7" data-uid="lnk11" id="link_Miembro_ComunidadAbandonada"><path d="M228.97,400.01 C188.29,402.5 127.95,413.38 98.13,454 C88.42,467.23 88.2664,480.0201 91.6564,494.8901" fill="none" id="Miembro-to-ComunidadAbandonada" style="stroke:#181818;stroke-width:1;"/><polygon fill="#181818" points="92.99,500.74,94.8895,491.076,91.8786,495.8651,87.0896,492.8542,92.99,500.74" style="stroke:#181818;stroke-width:1;"/><text fill="#000000" font-family="sans-serif" font-size="13" lengthAdjust="spacing" textLength="127.0991" x="99.13" y="467.0669">Dejar la comunidad</text></g><!--link ViendoLista to Creando--><g class="link" data-entity-1="ViendoLista" data-entity-2="Creando" data-source-line="10" data-uid="lnk13" id="link_ViendoLista_Creando"><path d="M482.2,124.68 C506.6,132.74 534.3,145.92 552.13,167 C582.89,203.39 589.5486,255.1149 590.8586,287.6449" fill="none" id="ViendoLista-to-Creando" style="stroke:#181818;stroke-width:1;"/><polygon fill="#181818" points="591.1,293.64,594.7346,284.4863,590.8988,288.644,586.7411,284.8082,591.1,293.64" style="stroke:#181818;stroke-width:1;"/></g><!--link Creando to MiembroLider--><g class="link" data-entity-1="Creando" data-entity-2="MiembroLider" data-source-line="11" data-uid="lnk15" id="link_Creando_MiembroLider"><path d="M590.96,344.24 C589.49,376.64 582.42,434.21 552.13,471 C538.1,488.04 522.9652,497.7344 503.1252,506.0344" fill="none" id="Creando-to-MiembroLider" style="stroke:#181818;stroke-width:1;"/><polygon fill="#181818" points="497.59,508.35,507.4365,508.5667,502.2026,506.4203,504.349,501.1865,497.59,508.35" style="stroke:#181818;stroke-width:1;"/></g><!--link MiembroLider to Gestionando--><g class="link" data-entity-1="MiembroLider" data-entity-2="Gestionando" data-source-line="13" data-uid="lnk17" id="link_MiembroLider_Gestionando"><path d="M419.6,551.46 C405.27,569.41 389.6427,589.0005 375.3327,606.9305" fill="none" id="MiembroLider-to-Gestionando" style="stroke:#181818;stroke-width:1;"/><polygon fill="#181818" points="371.59,611.62,380.3305,607.0808,374.709,607.712,374.0778,602.0905,371.59,611.62" style="stroke:#181818;stroke-width:1;"/></g><!--link MiembroLider to ComunidadEliminada--><g class="link" data-entity-1="MiembroLider" data-entity-2="ComunidadEliminada" data-source-line="14" data-uid="lnk19" id="link_MiembroLider_ComunidadEliminada"><path d="M458.65,551.46 C472.98,569.41 488.6057,589.0017 502.9257,606.9317" fill="none" id="MiembroLider-to-ComunidadEliminada" style="stroke:#181818;stroke-width:1;"/><polygon fill="#181818" points="506.67,611.62,504.179,602.0914,503.5497,607.7131,497.928,607.0838,506.67,611.62" style="stroke:#181818;stroke-width:1;"/></g><!--link Miembro to MiembroLider--><g class="link" data-entity-1="Miembro" data-entity-2="MiembroLider" data-source-line="17" data-uid="lnk20" id="link_Miembro_MiembroLider"><path d="M261.99,424.26 C258.6,439.13 257.42,457.77 267.13,471 C292.97,506.19 335.7581,518.3947 374.7781,522.8147" fill="none" id="Miembro-to-MiembroLider" style="stroke:#181818;stroke-width:1;"/><polygon fill="#181818" points="380.74,523.49,372.2474,518.5024,375.7718,522.9272,371.347,526.4516,380.74,523.49" style="stroke:#181818;stroke-width:1;"/><text fill="#000000" font-family="sans-serif" font-size="13" lengthAdjust="spacing" textLength="127.3657" x="268.13" y="467.0669">Miembro ascendido</text></g><!--link MiembroLider to Miembro--><g class="link" data-entity-1="MiembroLider" data-entity-2="Miembro" data-source-line="18" data-uid="lnk21" id="link_MiembroLider_Miembro"><path d="M430.56,500.57 C424.18,485.45 414.16,466.58 400.13,454 C374.93,431.4 344.702,419.1233 316.982,411.0733" fill="none" id="MiembroLider-to-Miembro" style="stroke:#181818;stroke-width:1;"/><polygon fill="#181818" points="311.22,409.4,318.7474,415.7512,316.0216,410.7944,320.9785,408.0686,311.22,409.4" style="stroke:#181818;stroke-width:1;"/><text fill="#000000" font-family="sans-serif" font-size="13" lengthAdjust="spacing" textLength="127.8862" x="416.13" y="467.0669">Liderazgo revocado</text></g><!--SRC=[RL2z2W8n3Dxx5Da4mHTm44J5HLtyMSGXja4YlHRQEq6VtkJGitfEfVdo_UKuFC5eD843Kt1nnRb6OufF0SwfHkyfmnYsvCbQZW4JD071nge9xD2PdzKVQQ4UehzHEm7qu7Ngeld7MpDLvnI5im-SCa7fymPrSVQUJiye8W6T6itfAkbyIJ83s3HqYncejSrmXpfXoAnTAFUApnAfedczPQmLEqh6bByMNegq7aRN-sWNTU6vOasgeNP51g1G9-hAtx_zojfVukEEWTbA2PRKFVVFHTiPFYuHajp3oYsU]--></g></svg>