<svg xmlns="http://www.w3.org/2000/svg" xmlns:xlink="http://www.w3.org/1999/xlink" contentStyleType="text/css" data-diagram-type="STATE" height="385px" preserveAspectRatio="none" style="width:418px;height:385px;background:#FFFFFF;" version="1.1" viewBox="0 0 418 385" width="418px" zoomAndPan="magnify"><defs/><g><ellipse cx="198" cy="16" fill="#222222" rx="10" ry="10" style="stroke:#222222;stroke-width:1;"/><g id="Post"><rect fill="#F1F1F1" height="50" rx="12.5" ry="12.5" style="stroke:#181818;stroke-width:0.5;" width="50" x="7" y="103"/><line style="stroke:#181818;stroke-width:0.5;" x1="7" x2="57" y1="129.2969" y2="129.2969"/><text fill="#000000" font-family="sans-serif" font-size="14" lengthAdjust="spacing" textLength="29.791" x="17.1045" y="120.9951">Post</text></g><g id="Registro_o_Inicio_de_Sesi&#243;n"><rect fill="#F1F1F1" height="50" rx="12.5" ry="12.5" style="stroke:#181818;stroke-width:0.5;" width="215.4531" x="35.5" y="230"/><line style="stroke:#181818;stroke-width:0.5;" x1="35.5" x2="250.9531" y1="256.2969" y2="256.2969"/><text fill="#000000" font-family="sans-serif" font-size="14" lengthAdjust="spacing" textLength="195.4531" x="45.5" y="247.9951">Registro_o_Inicio_de_Sesi&#243;n</text></g><ellipse cx="143" cy="368" fill="none" rx="11" ry="11" style="stroke:#222222;stroke-width:1;"/><ellipse cx="143" cy="368" fill="#222222" rx="6" ry="6" style="stroke:#222222;stroke-width:1;"/><!--link *start* to Post--><g class="link" data-entity-1="*start*" data-entity-2="Post" data-source-line="1" data-uid="lnk4" id="link_*start*_Post"><path d="M189.99,22.31 C166.23,38.06 100.3517,81.706 62.1217,107.036" fill="none" id="*start*-to-Post" style="stroke:#181818;stroke-width:1;"/><polygon fill="#181818" points="57.12,110.35,66.8319,108.7135,61.2881,107.5883,62.4133,102.0445,57.12,110.35" style="stroke:#181818;stroke-width:1;"/><text fill="#000000" font-family="sans-serif" font-size="13" lengthAdjust="spacing" textLength="54.0313" x="136" y="69.0669">Ver Post</text></g><!--link *start* to Registro_o_Inicio_de_Sesi?n--><g class="link" data-entity-1="*start*" data-entity-2="Registro_o_Inicio_de_Sesi&#243;n" data-source-line="2" data-uid="lnk6" id="link_*start*_Registro_o_Inicio_de_Sesi&#243;n"><path d="M202.96,24.92 C218.94,51.53 266.08,139.46 232,200 C225.08,212.28 219.1574,218.8405 207.2574,226.5405" fill="none" id="*start*-to-Registro_o_Inicio_de_Sesi&#243;n" style="stroke:#181818;stroke-width:1;"/><polygon fill="#181818" points="202.22,229.8,211.9491,228.269,206.4179,227.0837,207.6031,221.5525,202.22,229.8" style="stroke:#181818;stroke-width:1;"/><text fill="#000000" font-family="sans-serif" font-size="13" lengthAdjust="spacing" textLength="165.2866" x="245" y="132.5669">Registrarse/Iniciar Sesi&#243;n</text></g><!--link Post to Post--><g class="link" data-entity-1="Post" data-entity-2="Post" data-source-line="3" data-uid="lnk7" id="link_Post_Post"><path d="M57.28,117.51 C74.77,114.33 92,117.83 92,128 C92,138.17 80.6732,142.7433 63.1832,139.5633" fill="none" id="Post-to-Post" style="stroke:#181818;stroke-width:1;"/><polygon fill="#181818" points="57.28,138.49,65.4193,144.0354,62.1993,139.3844,66.8504,136.1645,57.28,138.49" style="stroke:#181818;stroke-width:1;"/><text fill="#000000" font-family="sans-serif" font-size="13" lengthAdjust="spacing" textLength="97.1064" x="98" y="132.5669">Compartir Post</text></g><!--link Post to Registro_o_Inicio_de_Sesi?n--><g class="link" data-entity-1="Post" data-entity-2="Registro_o_Inicio_de_Sesi&#243;n" data-source-line="4" data-uid="lnk8" id="link_Post_Registro_o_Inicio_de_Sesi&#243;n"><path d="M37.96,153.28 C42.48,167.97 49.84,186.42 61,200 C70.53,211.59 78.1597,218.3195 90.6797,226.4595" fill="none" id="Post-to-Registro_o_Inicio_de_Sesi&#243;n" style="stroke:#181818;stroke-width:1;"/><polygon fill="#181818" points="95.71,229.73,90.3449,221.4707,91.5181,227.0046,85.9842,228.1778,95.71,229.73" style="stroke:#181818;stroke-width:1;"/><text fill="#000000" font-family="sans-serif" font-size="13" lengthAdjust="spacing" textLength="165.2866" x="62" y="196.0669">Registrarse/Iniciar Sesi&#243;n</text></g><!--link Registro_o_Inicio_de_Sesi?n to *end*--><g class="link" data-entity-1="Registro_o_Inicio_de_Sesi&#243;n" data-entity-2="*end*" data-source-line="5" data-uid="lnk10" id="link_Registro_o_Inicio_de_Sesi&#243;n_*end*"><path d="M143,280.09 C143,304.06 143,333.7 143,350.94" fill="none" id="Registro_o_Inicio_de_Sesi&#243;n-to-*end*" style="stroke:#181818;stroke-width:1;"/><polygon fill="#181818" points="143,356.94,147,347.94,143,351.94,139,347.94,143,356.94" style="stroke:#181818;stroke-width:1;"/><text fill="#000000" font-family="sans-serif" font-size="13" lengthAdjust="spacing" textLength="165.2866" x="144" y="323.0669">Registrarse/Iniciar Sesi&#243;n</text></g><!--SRC=[YzQALT3LjLC8o2ykiL88Ioq2ixYYeS91gUcPnIL5-V7vyPvvcScP-V4fgV71gSMPXpVdALZ1f1EBYbFrmVA9HGfGMIwGEKX6E-Vd5YGMbMH2BO3BKc03NgqWiq6-m6i40000]--></g></svg>