<svg xmlns="http://www.w3.org/2000/svg" xmlns:xlink="http://www.w3.org/1999/xlink" contentStyleType="text/css" data-diagram-type="STATE" height="746px" preserveAspectRatio="none" style="width:627px;height:746px;background:#FFFFFF;" version="1.1" viewBox="0 0 627 746" width="627px" zoomAndPan="magnify"><defs/><g><ellipse cx="428.13" cy="16" fill="#222222" rx="10" ry="10" style="stroke:#222222;stroke-width:1;"/><g id="ViendoLista"><rect fill="#F1F1F1" height="50" rx="12.5" ry="12.5" style="stroke:#181818;stroke-width:0.5;" width="101.457" x="377.4" y="87"/><line style="stroke:#181818;stroke-width:0.5;" x1="377.4" x2="478.857" y1="113.2969" y2="113.2969"/><text fill="#000000" font-family="sans-serif" font-size="14" lengthAdjust="spacing" textLength="81.457" x="387.4" y="104.9951">ViendoLista</text></g><g id="ViendoDetalles"><rect fill="#F1F1F1" height="50" rx="12.5" ry="12.5" style="stroke:#181818;stroke-width:0.5;" width="125.5537" x="333.35" y="214"/><line style="stroke:#181818;stroke-width:0.5;" x1="333.35" x2="458.9037" y1="240.2969" y2="240.2969"/><text fill="#000000" font-family="sans-serif" font-size="14" lengthAdjust="spacing" textLength="105.5537" x="343.35" y="231.9951">ViendoDetalles</text></g><g id="Unido"><rect fill="#F1F1F1" height="50" rx="12.5" ry="12.5" style="stroke:#181818;stroke-width:0.5;" width="60.4619" x="442.9" y="341"/><line style="stroke:#181818;stroke-width:0.5;" x1="442.9" x2="503.3619" y1="367.2969" y2="367.2969"/><text fill="#000000" font-family="sans-serif" font-size="14" lengthAdjust="spacing" textLength="40.4619" x="452.9" y="358.9951">Unido</text></g><g id="Creando"><rect fill="#F1F1F1" height="50" rx="12.5" ry="12.5" style="stroke:#181818;stroke-width:0.5;" width="79.0488" x="511.6" y="214"/><line style="stroke:#181818;stroke-width:0.5;" x1="511.6" x2="590.6488" y1="240.2969" y2="240.2969"/><text fill="#000000" font-family="sans-serif" font-size="14" lengthAdjust="spacing" textLength="59.0488" x="521.6" y="231.9951">Creando</text></g><g id="Miembro"><rect fill="#F1F1F1" height="50" rx="12.5" ry="12.5" style="stroke:#181818;stroke-width:0.5;" width="81.4277" x="314.41" y="452"/><line style="stroke:#181818;stroke-width:0.5;" x1="314.41" x2="395.8377" y1="478.2969" y2="478.2969"/><text fill="#000000" font-family="sans-serif" font-size="14" lengthAdjust="spacing" textLength="61.4277" x="324.41" y="469.9951">Miembro</text></g><g id="MiembroLider"><rect fill="#F1F1F1" height="50" rx="12.5" ry="12.5" style="stroke:#181818;stroke-width:0.5;" width="116.373" x="380.94" y="579"/><line style="stroke:#181818;stroke-width:0.5;" x1="380.94" x2="497.313" y1="605.2969" y2="605.2969"/><text fill="#000000" font-family="sans-serif" font-size="14" lengthAdjust="spacing" textLength="96.373" x="390.94" y="596.9951">MiembroLider</text></g><g id="ComunidadAbandonada"><rect fill="#F1F1F1" height="50" rx="12.5" ry="12.5" style="stroke:#181818;stroke-width:0.5;" width="188.2529" x="7" y="579"/><line style="stroke:#181818;stroke-width:0.5;" x1="7" x2="195.2529" y1="605.2969" y2="605.2969"/><text fill="#000000" font-family="sans-serif" font-size="14" lengthAdjust="spacing" textLength="168.2529" x="17" y="596.9951">ComunidadAbandonada</text></g><g id="CambiandoAjustes"><rect fill="#F1F1F1" height="50" rx="12.5" ry="12.5" style="stroke:#181818;stroke-width:0.5;" width="150.7031" x="265.77" y="690"/><line style="stroke:#181818;stroke-width:0.5;" x1="265.77" x2="416.4731" y1="716.2969" y2="716.2969"/><text fill="#000000" font-family="sans-serif" font-size="14" lengthAdjust="spacing" textLength="130.7031" x="275.77" y="707.9951">CambiandoAjustes</text></g><g id="ComunidadEliminada"><rect fill="#F1F1F1" height="50" rx="12.5" ry="12.5" style="stroke:#181818;stroke-width:0.5;" width="169.0371" x="451.61" y="690"/><line style="stroke:#181818;stroke-width:0.5;" x1="451.61" x2="620.6471" y1="716.2969" y2="716.2969"/><text fill="#000000" font-family="sans-serif" font-size="14" lengthAdjust="spacing" textLength="149.0371" x="461.61" y="707.9951">ComunidadEliminada</text></g><!--link *start* to ViendoLista--><g class="link" data-entity-1=".start." data-entity-2="ViendoLista" data-source-line="1" data-uid="lnk4" id="link_.start._ViendoLista"><path d="M428.13,26.36 C428.13,40.29 428.13,60.95 428.13,80.65" fill="none" id="*start*-to-ViendoLista" style="stroke:#181818;stroke-width:1;"/><polygon fill="#181818" points="428.13,86.65,432.13,77.65,428.13,81.65,424.13,77.65,428.13,86.65" style="stroke:#181818;stroke-width:1;"/></g><!--link ViendoLista to ViendoDetalles--><g class="link" data-entity-1="ViendoLista" data-entity-2="ViendoDetalles" data-source-line="3" data-uid="lnk6" id="link_ViendoLista_ViendoDetalles"><path d="M377.18,119.99 C325.17,128.29 249.66,143.98 232.13,167 C201.81,206.8 268.8026,223.8374 326.9526,231.5874" fill="none" id="ViendoLista-to-ViendoDetalles" style="stroke:#181818;stroke-width:1;"/><polygon fill="#181818" points="332.9,232.38,324.5073,227.2261,327.9438,231.7195,323.4505,235.156,332.9,232.38" style="stroke:#181818;stroke-width:1;"/><text fill="#000000" font-family="sans-serif" font-size="13" lengthAdjust="spacing" textLength="151.728" x="233.13" y="180.0669">Seleccionar comunidad</text></g><!--link ViendoDetalles to ViendoLista--><g class="link" data-entity-1="ViendoDetalles" data-entity-2="ViendoLista" data-source-line="4" data-uid="lnk7" id="link_ViendoDetalles_ViendoLista"><path d="M402.36,213.66 C407.99,191.66 414.7513,165.2324 420.3913,143.2124" fill="none" id="ViendoDetalles-to-ViendoLista" style="stroke:#181818;stroke-width:1;"/><polygon fill="#181818" points="421.88,137.4,415.772,145.1261,420.6394,142.2436,423.5218,147.111,421.88,137.4" style="stroke:#181818;stroke-width:1;"/><text fill="#000000" font-family="sans-serif" font-size="13" lengthAdjust="spacing" textLength="98.4775" x="415.13" y="180.0669">Volver al menu</text></g><!--link ViendoDetalles to Unido--><g class="link" data-entity-1="ViendoDetalles" data-entity-2="Unido" data-source-line="7" data-uid="lnk9" id="link_ViendoDetalles_Unido"><path d="M389.19,264.38 C386.49,278.75 385.6,296.84 393.13,311 C403.59,330.68 419.3737,341.867 437.3137,350.587" fill="none" id="ViendoDetalles-to-Unido" style="stroke:#181818;stroke-width:1;"/><polygon fill="#181818" points="442.71,353.21,436.3642,345.678,438.2131,351.0242,432.8669,352.8731,442.71,353.21" style="stroke:#181818;stroke-width:1;"/><text fill="#000000" font-family="sans-serif" font-size="13" lengthAdjust="spacing" textLength="130.0381" x="394.13" y="307.0669">Unirse a comunidad</text></g><!--link Creando to Unido--><g class="link" data-entity-1="Creando" data-entity-2="Unido" data-source-line="8" data-uid="lnk11" id="link_Creando_Unido"><path d="M546.78,264.29 C543.46,278.63 537.92,296.72 529.13,311 C522.4,321.92 517.3447,328.0951 508.1247,336.6651" fill="none" id="Creando-to-Unido" style="stroke:#181818;stroke-width:1;"/><polygon fill="#181818" points="503.73,340.75,513.0454,337.5525,507.3923,337.3459,507.5988,331.6928,503.73,340.75" style="stroke:#181818;stroke-width:1;"/></g><!--link Unido to Miembro--><g class="link" data-entity-1="Unido" data-entity-2="Miembro" data-source-line="10" data-uid="lnk13" id="link_Unido_Miembro"><path d="M446.64,391.46 C427.21,409.41 405.3373,429.6187 385.9273,447.5487" fill="none" id="Unido-to-Miembro" style="stroke:#181818;stroke-width:1;"/><polygon fill="#181818" points="381.52,451.62,390.8452,448.4513,385.1928,448.2273,385.4168,442.5748,381.52,451.62" style="stroke:#181818;stroke-width:1;"/></g><!--link Unido to MiembroLider--><g class="link" data-entity-1="Unido" data-entity-2="MiembroLider" data-source-line="11" data-uid="lnk15" id="link_Unido_MiembroLider"><path d="M497.34,391.48 C530.03,427.61 580.65,496.59 548.13,549 C536.77,567.3 522.6935,577.2704 503.2035,585.4404" fill="none" id="Unido-to-MiembroLider" style="stroke:#181818;stroke-width:1;"/><polygon fill="#181818" points="497.67,587.76,507.5166,587.9696,502.2812,585.827,504.4239,580.5916,497.67,587.76" style="stroke:#181818;stroke-width:1;"/></g><!--link Miembro to ComunidadAbandonada--><g class="link" data-entity-1="Miembro" data-entity-2="ComunidadAbandonada" data-source-line="13" data-uid="lnk17" id="link_Miembro_ComunidadAbandonada"><path d="M314.38,482.49 C255.21,489.82 149.56,506.16 122.13,532 C109.4,543.99 105.0483,557.3307 103.0283,572.7707" fill="none" id="Miembro-to-ComunidadAbandonada" style="stroke:#181818;stroke-width:1;"/><polygon fill="#181818" points="102.25,578.72,107.3837,570.3149,102.8986,573.7622,99.4513,569.2772,102.25,578.72" style="stroke:#181818;stroke-width:1;"/><text fill="#000000" font-family="sans-serif" font-size="13" lengthAdjust="spacing" textLength="127.0991" x="123.13" y="545.0669">Dejar la comunidad</text></g><!--link ViendoLista to Creando--><g class="link" data-entity-1="ViendoLista" data-entity-2="Creando" data-source-line="16" data-uid="lnk18" id="link_ViendoLista_Creando"><path d="M478.93,134.24 C494.38,142.64 510.36,153.54 522.13,167 C533.78,180.33 539.458,193.2165 543.848,208.0565" fill="none" id="ViendoLista-to-Creando" style="stroke:#181818;stroke-width:1;"/><polygon fill="#181818" points="545.55,213.81,546.8327,204.045,544.1316,209.0154,539.1613,206.3144,545.55,213.81" style="stroke:#181818;stroke-width:1;"/></g><!--link MiembroLider to CambiandoAjustes--><g class="link" data-entity-1="MiembroLider" data-entity-2="CambiandoAjustes" data-source-line="18" data-uid="lnk20" id="link_MiembroLider_CambiandoAjustes"><path d="M417.13,629.46 C400.99,647.41 383.1815,667.2281 367.0615,685.1581" fill="none" id="MiembroLider-to-CambiandoAjustes" style="stroke:#181818;stroke-width:1;"/><polygon fill="#181818" points="363.05,689.62,372.0418,685.6015,366.3929,685.9018,366.0926,680.2529,363.05,689.62" style="stroke:#181818;stroke-width:1;"/></g><!--link MiembroLider to ComunidadEliminada--><g class="link" data-entity-1="MiembroLider" data-entity-2="ComunidadEliminada" data-source-line="19" data-uid="lnk22" id="link_MiembroLider_ComunidadEliminada"><path d="M460.9,629.46 C476.87,647.41 494.4807,667.2083 510.4407,685.1383" fill="none" id="MiembroLider-to-ComunidadEliminada" style="stroke:#181818;stroke-width:1;"/><polygon fill="#181818" points="514.43,689.62,511.4339,680.2379,511.1056,685.8853,505.4583,685.557,514.43,689.62" style="stroke:#181818;stroke-width:1;"/></g><!--link Miembro to MiembroLider--><g class="link" data-entity-1="Miembro" data-entity-2="MiembroLider" data-source-line="22" data-uid="lnk23" id="link_Miembro_MiembroLider"><path d="M377.23,502.49 C384.88,511.47 393.25,521.92 400.13,532 C410.27,546.87 417.2775,559.2834 424.4875,573.3134" fill="none" id="Miembro-to-MiembroLider" style="stroke:#181818;stroke-width:1;"/><polygon fill="#181818" points="427.23,578.65,426.674,568.8168,424.9446,574.2029,419.5586,572.4735,427.23,578.65" style="stroke:#181818;stroke-width:1;"/><text fill="#000000" font-family="sans-serif" font-size="13" lengthAdjust="spacing" textLength="127.3657" x="412.13" y="545.0669">Miembro ascendido</text></g><!--link MiembroLider to Miembro--><g class="link" data-entity-1="MiembroLider" data-entity-2="Miembro" data-source-line="23" data-uid="lnk24" id="link_MiembroLider_Miembro"><path d="M380.7,602.04 C340.59,597.94 289.91,585.24 263.13,549 C244.66,524.01 276.0993,505.5523 308.5493,493.0823" fill="none" id="MiembroLider-to-Miembro" style="stroke:#181818;stroke-width:1;"/><polygon fill="#181818" points="314.15,490.93,304.3141,490.4246,309.4828,492.7235,307.1838,497.8922,314.15,490.93" style="stroke:#181818;stroke-width:1;"/><text fill="#000000" font-family="sans-serif" font-size="13" lengthAdjust="spacing" textLength="127.8862" x="264.13" y="545.0669">Liderazgo revocado</text></g><!--SRC=[RL0xRW8n4ErzYkcGaBZ05aW8qX4Q20rACMkFq21_9DkBHAx54RXOni1k39lAyhmtxpE7wJVCPdFOCtaJrfmoAbLzAd156Qsb10rioPBM73n6qC5rdWqQzKPxavMrVR1dYe0M7FbEgGbiEZeZsDlro1h148ZKxUh_a_eIao0YyiP4W9NnCX8A_O-cr8DT1fzCheq1ngCr6ufAzOI2B7lDHLiKFPgIUqKdAMfhosVsa82acv7t0ZcYJrpEGcbqmsV6mUvk_a3GjLomnQbBMLR7ZDxsmxBZ4ghuxoex89yZ3LqlhnNhXY_YpR21IKlUShgHUqzfu3x3dsE0ADMrrFu5]--></g></svg>