<svg xmlns="http://www.w3.org/2000/svg" xmlns:xlink="http://www.w3.org/1999/xlink" contentStyleType="text/css" data-diagram-type="CLASS" height="494px" preserveAspectRatio="none" style="width:525px;height:494px;background:#FFFFFF;" version="1.1" viewBox="0 0 525 494" width="525px" zoomAndPan="magnify"><defs/><g><!--class UsuarioInvitado--><g class="entity" data-entity="UsuarioInvitado" data-source-line="1" data-uid="ent0002" id="entity_UsuarioInvitado"><rect fill="#F1F1F1" height="48" rx="2.5" ry="2.5" style="stroke:#181818;stroke-width:0.5;" width="141.9014" x="29.59" y="7"/><ellipse cx="44.59" cy="23" fill="#A9DCDF" rx="11" ry="11" style="stroke:#181818;stroke-width:1;"/><path d="M44.6994,18.3438 L43.5431,23.4219 L45.8713,23.4219 L44.6994,18.3438 Z M43.215,16.1094 L46.1994,16.1094 L49.5588,28.5 L47.1056,28.5 L46.34,25.4375 L43.0588,25.4375 L42.3088,28.5 L39.8713,28.5 L43.215,16.1094 Z " fill="#000000"/><text fill="#000000" font-family="sans-serif" font-size="14" font-style="italic" lengthAdjust="spacing" textLength="109.9014" x="58.59" y="27.8467">UsuarioInvitado</text><line style="stroke:#181818;stroke-width:0.5;" x1="30.59" x2="170.4914" y1="39" y2="39"/><line style="stroke:#181818;stroke-width:0.5;" x1="30.59" x2="170.4914" y1="47" y2="47"/></g><!--class UsuarioRegistrado--><g class="entity" data-entity="UsuarioRegistrado" data-source-line="3" data-uid="ent0003" id="entity_UsuarioRegistrado"><rect fill="#F1F1F1" height="48" rx="2.5" ry="2.5" style="stroke:#181818;stroke-width:0.5;" width="160.8916" x="34.09" y="115"/><ellipse cx="49.09" cy="131" fill="#ADD1B2" rx="11" ry="11" style="stroke:#181818;stroke-width:1;"/><path d="M52.0588,136.6406 Q51.4806,136.9375 50.84,137.0781 Q50.1994,137.2344 49.4963,137.2344 Q46.9963,137.2344 45.6681,135.5938 Q44.3556,133.9375 44.3556,130.8125 Q44.3556,127.6875 45.6681,126.0313 Q46.9963,124.375 49.4963,124.375 Q50.1994,124.375 50.84,124.5313 Q51.4963,124.6875 52.0588,124.9844 L52.0588,127.7031 Q51.4338,127.125 50.84,126.8594 Q50.2463,126.5781 49.6213,126.5781 Q48.2775,126.5781 47.59,127.6563 Q46.9025,128.7188 46.9025,130.8125 Q46.9025,132.9063 47.59,133.9844 Q48.2775,135.0469 49.6213,135.0469 Q50.2463,135.0469 50.84,134.7813 Q51.4338,134.5 52.0588,133.9219 L52.0588,136.6406 Z " fill="#000000"/><text fill="#000000" font-family="sans-serif" font-size="14" lengthAdjust="spacing" textLength="128.8916" x="63.09" y="135.8467">UsuarioRegistrado</text><line style="stroke:#181818;stroke-width:0.5;" x1="35.09" x2="193.9816" y1="147" y2="147"/><line style="stroke:#181818;stroke-width:0.5;" x1="35.09" x2="193.9816" y1="155" y2="155"/></g><!--class Moderador--><g class="entity" data-entity="Moderador" data-source-line="5" data-uid="ent0004" id="entity_Moderador"><rect fill="#F1F1F1" height="48" rx="2.5" ry="2.5" style="stroke:#181818;stroke-width:0.5;" width="107.6875" x="32.7" y="223"/><ellipse cx="47.7" cy="239" fill="#ADD1B2" rx="11" ry="11" style="stroke:#181818;stroke-width:1;"/><path d="M50.6688,244.6406 Q50.0906,244.9375 49.45,245.0781 Q48.8094,245.2344 48.1063,245.2344 Q45.6063,245.2344 44.2781,243.5938 Q42.9656,241.9375 42.9656,238.8125 Q42.9656,235.6875 44.2781,234.0313 Q45.6063,232.375 48.1063,232.375 Q48.8094,232.375 49.45,232.5313 Q50.1063,232.6875 50.6688,232.9844 L50.6688,235.7031 Q50.0438,235.125 49.45,234.8594 Q48.8563,234.5781 48.2313,234.5781 Q46.8875,234.5781 46.2,235.6563 Q45.5125,236.7188 45.5125,238.8125 Q45.5125,240.9063 46.2,241.9844 Q46.8875,243.0469 48.2313,243.0469 Q48.8563,243.0469 49.45,242.7813 Q50.0438,242.5 50.6688,241.9219 L50.6688,244.6406 Z " fill="#000000"/><text fill="#000000" font-family="sans-serif" font-size="14" lengthAdjust="spacing" textLength="75.6875" x="61.7" y="243.8467">Moderador</text><line style="stroke:#181818;stroke-width:0.5;" x1="33.7" x2="139.3875" y1="255" y2="255"/><line style="stroke:#181818;stroke-width:0.5;" x1="33.7" x2="139.3875" y1="263" y2="263"/></g><!--class Administrador--><g class="entity" data-entity="Administrador" data-source-line="7" data-uid="ent0005" id="entity_Administrador"><rect fill="#F1F1F1" height="48" rx="2.5" ry="2.5" style="stroke:#181818;stroke-width:0.5;" width="131.0801" x="7" y="331"/><ellipse cx="22" cy="347" fill="#ADD1B2" rx="11" ry="11" style="stroke:#181818;stroke-width:1;"/><path d="M24.9688,352.6406 Q24.3906,352.9375 23.75,353.0781 Q23.1094,353.2344 22.4063,353.2344 Q19.9063,353.2344 18.5781,351.5938 Q17.2656,349.9375 17.2656,346.8125 Q17.2656,343.6875 18.5781,342.0313 Q19.9063,340.375 22.4063,340.375 Q23.1094,340.375 23.75,340.5313 Q24.4063,340.6875 24.9688,340.9844 L24.9688,343.7031 Q24.3438,343.125 23.75,342.8594 Q23.1563,342.5781 22.5313,342.5781 Q21.1875,342.5781 20.5,343.6563 Q19.8125,344.7188 19.8125,346.8125 Q19.8125,348.9063 20.5,349.9844 Q21.1875,351.0469 22.5313,351.0469 Q23.1563,351.0469 23.75,350.7813 Q24.3438,350.5 24.9688,349.9219 L24.9688,352.6406 Z " fill="#000000"/><text fill="#000000" font-family="sans-serif" font-size="14" lengthAdjust="spacing" textLength="99.0801" x="36" y="351.8467">Administrador</text><line style="stroke:#181818;stroke-width:0.5;" x1="8" x2="137.0801" y1="363" y2="363"/><line style="stroke:#181818;stroke-width:0.5;" x1="8" x2="137.0801" y1="371" y2="371"/></g><!--class Post--><g class="entity" data-entity="Post" data-source-line="9" data-uid="ent0006" id="entity_Post"><rect fill="#F1F1F1" height="48" rx="2.5" ry="2.5" style="stroke:#181818;stroke-width:0.5;" width="61.791" x="231.64" y="223"/><ellipse cx="246.64" cy="239" fill="#ADD1B2" rx="11" ry="11" style="stroke:#181818;stroke-width:1;"/><path d="M249.6088,244.6406 Q249.0306,244.9375 248.39,245.0781 Q247.7494,245.2344 247.0463,245.2344 Q244.5463,245.2344 243.2181,243.5938 Q241.9056,241.9375 241.9056,238.8125 Q241.9056,235.6875 243.2181,234.0313 Q244.5463,232.375 247.0463,232.375 Q247.7494,232.375 248.39,232.5313 Q249.0463,232.6875 249.6088,232.9844 L249.6088,235.7031 Q248.9838,235.125 248.39,234.8594 Q247.7963,234.5781 247.1713,234.5781 Q245.8275,234.5781 245.14,235.6563 Q244.4525,236.7188 244.4525,238.8125 Q244.4525,240.9063 245.14,241.9844 Q245.8275,243.0469 247.1713,243.0469 Q247.7963,243.0469 248.39,242.7813 Q248.9838,242.5 249.6088,241.9219 L249.6088,244.6406 Z " fill="#000000"/><text fill="#000000" font-family="sans-serif" font-size="14" lengthAdjust="spacing" textLength="29.791" x="260.64" y="243.8467">Post</text><line style="stroke:#181818;stroke-width:0.5;" x1="232.64" x2="292.431" y1="255" y2="255"/><line style="stroke:#181818;stroke-width:0.5;" x1="232.64" x2="292.431" y1="263" y2="263"/></g><!--class Etiqueta--><g class="entity" data-entity="Etiqueta" data-source-line="11" data-uid="ent0007" id="entity_Etiqueta"><rect fill="#F1F1F1" height="48" rx="2.5" ry="2.5" style="stroke:#181818;stroke-width:0.5;" width="90.666" x="184.21" y="439"/><ellipse cx="199.21" cy="455" fill="#ADD1B2" rx="11" ry="11" style="stroke:#181818;stroke-width:1;"/><path d="M202.1788,460.6406 Q201.6006,460.9375 200.96,461.0781 Q200.3194,461.2344 199.6163,461.2344 Q197.1163,461.2344 195.7881,459.5938 Q194.4756,457.9375 194.4756,454.8125 Q194.4756,451.6875 195.7881,450.0313 Q197.1163,448.375 199.6163,448.375 Q200.3194,448.375 200.96,448.5313 Q201.6163,448.6875 202.1788,448.9844 L202.1788,451.7031 Q201.5538,451.125 200.96,450.8594 Q200.3663,450.5781 199.7413,450.5781 Q198.3975,450.5781 197.71,451.6563 Q197.0225,452.7188 197.0225,454.8125 Q197.0225,456.9063 197.71,457.9844 Q198.3975,459.0469 199.7413,459.0469 Q200.3663,459.0469 200.96,458.7813 Q201.5538,458.5 202.1788,457.9219 L202.1788,460.6406 Z " fill="#000000"/><text fill="#000000" font-family="sans-serif" font-size="14" lengthAdjust="spacing" textLength="58.666" x="213.21" y="459.8467">Etiqueta</text><line style="stroke:#181818;stroke-width:0.5;" x1="185.21" x2="273.876" y1="471" y2="471"/><line style="stroke:#181818;stroke-width:0.5;" x1="185.21" x2="273.876" y1="479" y2="479"/></g><!--class Comunidad--><g class="entity" data-entity="Comunidad" data-source-line="13" data-uid="ent0008" id="entity_Comunidad"><rect fill="#F1F1F1" height="48" rx="2.5" ry="2.5" style="stroke:#181818;stroke-width:0.5;" width="111.9668" x="206.56" y="7"/><ellipse cx="221.56" cy="23" fill="#ADD1B2" rx="11" ry="11" style="stroke:#181818;stroke-width:1;"/><path d="M224.5288,28.6406 Q223.9506,28.9375 223.31,29.0781 Q222.6694,29.2344 221.9663,29.2344 Q219.4663,29.2344 218.1381,27.5938 Q216.8256,25.9375 216.8256,22.8125 Q216.8256,19.6875 218.1381,18.0313 Q219.4663,16.375 221.9663,16.375 Q222.6694,16.375 223.31,16.5313 Q223.9663,16.6875 224.5288,16.9844 L224.5288,19.7031 Q223.9038,19.125 223.31,18.8594 Q222.7163,18.5781 222.0913,18.5781 Q220.7475,18.5781 220.06,19.6563 Q219.3725,20.7188 219.3725,22.8125 Q219.3725,24.9063 220.06,25.9844 Q220.7475,27.0469 222.0913,27.0469 Q222.7163,27.0469 223.31,26.7813 Q223.9038,26.5 224.5288,25.9219 L224.5288,28.6406 Z " fill="#000000"/><text fill="#000000" font-family="sans-serif" font-size="14" lengthAdjust="spacing" textLength="79.9668" x="235.56" y="27.8467">Comunidad</text><line style="stroke:#181818;stroke-width:0.5;" x1="207.56" x2="317.5268" y1="39" y2="39"/><line style="stroke:#181818;stroke-width:0.5;" x1="207.56" x2="317.5268" y1="47" y2="47"/></g><!--class Filtro--><g class="entity" data-entity="Filtro" data-source-line="15" data-uid="ent0009" id="entity_Filtro"><rect fill="#F1F1F1" height="48" rx="2.5" ry="2.5" style="stroke:#181818;stroke-width:0.5;" width="67.6426" x="81.72" y="439"/><ellipse cx="96.72" cy="455" fill="#ADD1B2" rx="11" ry="11" style="stroke:#181818;stroke-width:1;"/><path d="M99.6888,460.6406 Q99.1106,460.9375 98.47,461.0781 Q97.8294,461.2344 97.1263,461.2344 Q94.6263,461.2344 93.2981,459.5938 Q91.9856,457.9375 91.9856,454.8125 Q91.9856,451.6875 93.2981,450.0313 Q94.6263,448.375 97.1263,448.375 Q97.8294,448.375 98.47,448.5313 Q99.1263,448.6875 99.6888,448.9844 L99.6888,451.7031 Q99.0638,451.125 98.47,450.8594 Q97.8763,450.5781 97.2513,450.5781 Q95.9075,450.5781 95.22,451.6563 Q94.5325,452.7188 94.5325,454.8125 Q94.5325,456.9063 95.22,457.9844 Q95.9075,459.0469 97.2513,459.0469 Q97.8763,459.0469 98.47,458.7813 Q99.0638,458.5 99.6888,457.9219 L99.6888,460.6406 Z " fill="#000000"/><text fill="#000000" font-family="sans-serif" font-size="14" lengthAdjust="spacing" textLength="35.6426" x="110.72" y="459.8467">Filtro</text><line style="stroke:#181818;stroke-width:0.5;" x1="82.72" x2="148.3626" y1="471" y2="471"/><line style="stroke:#181818;stroke-width:0.5;" x1="82.72" x2="148.3626" y1="479" y2="479"/></g><!--class Comentario--><g class="entity" data-entity="Comentario" data-source-line="17" data-uid="ent0010" id="entity_Comentario"><rect fill="#F1F1F1" height="48" rx="2.5" ry="2.5" style="stroke:#181818;stroke-width:0.5;" width="113.7441" x="309.67" y="439"/><ellipse cx="324.67" cy="455" fill="#ADD1B2" rx="11" ry="11" style="stroke:#181818;stroke-width:1;"/><path d="M327.6388,460.6406 Q327.0606,460.9375 326.42,461.0781 Q325.7794,461.2344 325.0763,461.2344 Q322.5763,461.2344 321.2481,459.5938 Q319.9356,457.9375 319.9356,454.8125 Q319.9356,451.6875 321.2481,450.0313 Q322.5763,448.375 325.0763,448.375 Q325.7794,448.375 326.42,448.5313 Q327.0763,448.6875 327.6388,448.9844 L327.6388,451.7031 Q327.0138,451.125 326.42,450.8594 Q325.8263,450.5781 325.2013,450.5781 Q323.8575,450.5781 323.17,451.6563 Q322.4825,452.7188 322.4825,454.8125 Q322.4825,456.9063 323.17,457.9844 Q323.8575,459.0469 325.2013,459.0469 Q325.8263,459.0469 326.42,458.7813 Q327.0138,458.5 327.6388,457.9219 L327.6388,460.6406 Z " fill="#000000"/><text fill="#000000" font-family="sans-serif" font-size="14" lengthAdjust="spacing" textLength="81.7441" x="338.67" y="459.8467">Comentario</text><line style="stroke:#181818;stroke-width:0.5;" x1="310.67" x2="422.4141" y1="471" y2="471"/><line style="stroke:#181818;stroke-width:0.5;" x1="310.67" x2="422.4141" y1="479" y2="479"/></g><!--class Like--><g class="entity" data-entity="Like" data-source-line="19" data-uid="ent0011" id="entity_Like"><rect fill="#F1F1F1" height="48" rx="2.5" ry="2.5" style="stroke:#181818;stroke-width:0.5;" width="60.4102" x="458.33" y="439"/><ellipse cx="473.33" cy="455" fill="#ADD1B2" rx="11" ry="11" style="stroke:#181818;stroke-width:1;"/><path d="M476.2988,460.6406 Q475.7206,460.9375 475.08,461.0781 Q474.4394,461.2344 473.7363,461.2344 Q471.2363,461.2344 469.9081,459.5938 Q468.5956,457.9375 468.5956,454.8125 Q468.5956,451.6875 469.9081,450.0313 Q471.2363,448.375 473.7363,448.375 Q474.4394,448.375 475.08,448.5313 Q475.7363,448.6875 476.2988,448.9844 L476.2988,451.7031 Q475.6738,451.125 475.08,450.8594 Q474.4863,450.5781 473.8613,450.5781 Q472.5175,450.5781 471.83,451.6563 Q471.1425,452.7188 471.1425,454.8125 Q471.1425,456.9063 471.83,457.9844 Q472.5175,459.0469 473.8613,459.0469 Q474.4863,459.0469 475.08,458.7813 Q475.6738,458.5 476.2988,457.9219 L476.2988,460.6406 Z " fill="#000000"/><text fill="#000000" font-family="sans-serif" font-size="14" lengthAdjust="spacing" textLength="28.4102" x="487.33" y="459.8467">Like</text><line style="stroke:#181818;stroke-width:0.5;" x1="459.33" x2="517.7402" y1="471" y2="471"/><line style="stroke:#181818;stroke-width:0.5;" x1="459.33" x2="517.7402" y1="479" y2="479"/></g><!--reverse link Comunidad to UsuarioRegistrado--><g class="link" data-entity-1="Comunidad" data-entity-2="UsuarioRegistrado" data-source-line="21" data-uid="lnk12" id="link_Comunidad_UsuarioRegistrado"><path codeLine="21" d="M220.3038,62.2469 C195.7138,79.8569 171.83,96.97 147.2,114.61" fill="none" id="Comunidad-backto-UsuarioRegistrado" style="stroke:#181818;stroke-width:1;"/><polygon fill="none" points="230.06,55.26,222.8529,55.5014,220.3038,62.2469,227.5108,62.0055,230.06,55.26" style="stroke:#181818;stroke-width:1;"/></g><!--reverse link Comunidad to Post--><g class="link" data-entity-1="Comunidad" data-entity-2="Post" data-source-line="22" data-uid="lnk13" id="link_Comunidad_Post"><path codeLine="22" d="M262.54,67.31 C262.54,108.47 262.54,181.58 262.54,222.72" fill="none" id="Comunidad-backto-Post" style="stroke:#181818;stroke-width:1;"/><polygon fill="none" points="262.54,55.31,258.54,61.31,262.54,67.31,266.54,61.31,262.54,55.31" style="stroke:#181818;stroke-width:1;"/></g><!--link UsuarioRegistrado to Post--><g class="link" data-entity-1="UsuarioRegistrado" data-entity-2="Post" data-source-line="23" data-uid="lnk14" id="link_UsuarioRegistrado_Post"><path codeLine="23" d="M151.8979,166.7537 C176.9179,184.6737 201.5321,202.3062 226.2721,220.0262" fill="none" id="UsuarioRegistrado-Post" style="stroke:#181818;stroke-width:1;"/><polygon fill="#181818" points="147.02,163.26,152.0077,171.7525,151.0849,166.1714,156.666,165.2486,147.02,163.26" style="stroke:#181818;stroke-width:1;"/><polygon fill="#181818" points="231.15,223.52,226.1624,215.0274,227.0851,220.6085,221.504,221.5313,231.15,223.52" style="stroke:#181818;stroke-width:1;"/></g><!--reverse link UsuarioInvitado to UsuarioRegistrado--><g class="link" data-entity-1="UsuarioInvitado" data-entity-2="UsuarioRegistrado" data-source-line="24" data-uid="lnk15" id="link_UsuarioInvitado_UsuarioRegistrado"><path codeLine="24" d="M105.9718,73.1044 C108.3118,90.7844 109.14,97.13 111.47,114.79" fill="none" id="UsuarioInvitado-backto-UsuarioRegistrado" style="stroke:#181818;stroke-width:1;"/><polygon fill="none" points="103.61,55.26,100.0236,73.8916,111.9199,72.3171,103.61,55.26" style="stroke:#181818;stroke-width:1;"/></g><!--reverse link UsuarioRegistrado to Moderador--><g class="link" data-entity-1="UsuarioRegistrado" data-entity-2="Moderador" data-source-line="25" data-uid="lnk16" id="link_UsuarioRegistrado_Moderador"><path codeLine="25" d="M103.8031,180.6631 C99.1331,198.3431 97.34,205.13 92.67,222.79" fill="none" id="UsuarioRegistrado-backto-Moderador" style="stroke:#181818;stroke-width:1;"/><polygon fill="none" points="108.4,163.26,98.0021,179.1308,109.6042,182.1954,108.4,163.26" style="stroke:#181818;stroke-width:1;"/></g><!--reverse link Moderador to Administrador--><g class="link" data-entity-1="Moderador" data-entity-2="Administrador" data-source-line="26" data-uid="lnk17" id="link_Moderador_Administrador"><path codeLine="26" d="M81.1082,289.1044 C78.7682,306.7844 77.94,313.13 75.61,330.79" fill="none" id="Moderador-backto-Administrador" style="stroke:#181818;stroke-width:1;"/><polygon fill="none" points="83.47,271.26,75.1601,288.3171,87.0564,289.8916,83.47,271.26" style="stroke:#181818;stroke-width:1;"/></g><!--reverse link Post to Etiqueta--><g class="link" data-entity-1="Post" data-entity-2="Etiqueta" data-source-line="27" data-uid="lnk18" id="link_Post_Etiqueta"><path codeLine="27" d="M257.1203,283.1697 C250.7703,324.3297 239.47,397.58 233.13,438.72" fill="none" id="Post-backto-Etiqueta" style="stroke:#181818;stroke-width:1;"/><polygon fill="#181818" points="258.95,271.31,254.0819,276.63,257.1203,283.1697,261.9884,277.8497,258.95,271.31" style="stroke:#181818;stroke-width:1;"/></g><!--reverse link Post to Like--><g class="link" data-entity-1="Post" data-entity-2="Like" data-source-line="28" data-uid="lnk19" id="link_Post_Like"><path codeLine="28" d="M295.8736,279.5606 C339.3436,320.7206 420.5,397.58 463.95,438.72" fill="none" id="Post-backto-Like" style="stroke:#181818;stroke-width:1;"/><polygon fill="#181818" points="287.16,271.31,288.7666,278.3398,295.8736,279.5606,294.267,272.5308,287.16,271.31" style="stroke:#181818;stroke-width:1;"/></g><!--reverse link Post to Comentario--><g class="link" data-entity-1="Post" data-entity-2="Comentario" data-source-line="29" data-uid="lnk20" id="link_Post_Comentario"><path codeLine="29" d="M279.1145,282.1033 C299.1145,323.2633 335.23,397.58 355.23,438.72" fill="none" id="Post-backto-Comentario" style="stroke:#181818;stroke-width:1;"/><polygon fill="#181818" points="273.87,271.31,272.8945,278.4548,279.1145,282.1033,280.09,274.9585,273.87,271.31" style="stroke:#181818;stroke-width:1;"/></g><!--link Post to Filtro--><g class="link" data-entity-1="Post" data-entity-2="Filtro" data-source-line="30" data-uid="lnk21" id="link_Post_Filtro"><path codeLine="30" d="M246.53,271.31 C218.25,312.47 163.1872,392.6344 134.9272,433.7744" fill="none" id="Post-to-Filtro" style="stroke:#181818;stroke-width:1;stroke-dasharray:7.0,7.0;"/><polygon fill="#181818" points="131.53,438.72,139.9229,433.5664,134.361,434.5987,133.3288,429.0368,131.53,438.72" style="stroke:#181818;stroke-width:1;"/></g><!--link Filtro to Etiqueta--><g class="link" data-entity-1="Filtro" data-entity-2="Etiqueta" data-source-line="31" data-uid="lnk22" id="link_Filtro_Etiqueta"><path codeLine="31" d="M149.83,463 C161.14,463 166.46,463 177.77,463" fill="none" id="Filtro-to-Etiqueta" style="stroke:#181818;stroke-width:1;stroke-dasharray:7.0,7.0;"/><polygon fill="#181818" points="183.77,463,174.77,459,178.77,463,174.77,467,183.77,463" style="stroke:#181818;stroke-width:1;"/></g><!--SRC=[RP1D2i8m44RtEKNMGdg2KX1H41Iau0769iXWcs0oTQFUtQP_IMnNOTut6MOUt1nPg8XNDJZ7hwu5Y-QeNqWW3Nz_6KkIKjtH_qYoiv7A8nknhMnGZwqnlnX7KRadVBQA848xqxGQ9SY03bYJDKcBqkJt2Uo43-Mh-JitGYpN_ilzEcnvMov4aMIpaVopEdLbX6-SpR3Wg0yIFQoNiX4Tdtn4o1yMbU7s0MPPLeo2sF3m3anpVW00]--></g></svg>