<svg xmlns="http://www.w3.org/2000/svg" xmlns:xlink="http://www.w3.org/1999/xlink" contentStyleType="text/css" data-diagram-type="CLASS" height="934px" preserveAspectRatio="none" style="width:601px;height:934px;background:#FFFFFF;" version="1.1" viewBox="0 0 601 934" width="601px" zoomAndPan="magnify"><defs/><g><!--class UsuarioInvitado--><g class="entity" data-entity="UsuarioInvitado" data-source-line="1" data-uid="ent0002" id="entity_UsuarioInvitado"><rect fill="#F1F1F1" height="145.7813" rx="2.5" ry="2.5" style="stroke:#181818;stroke-width:0.5;" width="141.9014" x="29.32" y="7"/><ellipse cx="44.32" cy="23" fill="#A9DCDF" rx="11" ry="11" style="stroke:#181818;stroke-width:1;"/><path d="M44.4294,18.3438 L43.2731,23.4219 L45.6013,23.4219 L44.4294,18.3438 Z M42.945,16.1094 L45.9294,16.1094 L49.2888,28.5 L46.8356,28.5 L46.07,25.4375 L42.7888,25.4375 L42.0388,28.5 L39.6013,28.5 L42.945,16.1094 Z " fill="#000000"/><text fill="#000000" font-family="sans-serif" font-size="14" font-style="italic" lengthAdjust="spacing" textLength="109.9014" x="58.32" y="27.8467">UsuarioInvitado</text><line style="stroke:#181818;stroke-width:0.5;" x1="30.32" x2="170.2214" y1="39" y2="39"/><ellipse cx="40.32" cy="52.6484" fill="none" rx="3" ry="3" style="stroke:#038048;stroke-width:1;"/><text fill="#000000" font-family="sans-serif" font-size="14" lengthAdjust="spacing" textLength="12.7764" x="49.32" y="55.9951">id</text><ellipse cx="40.32" cy="68.9453" fill="none" rx="3" ry="3" style="stroke:#038048;stroke-width:1;"/><text fill="#000000" font-family="sans-serif" font-size="14" lengthAdjust="spacing" textLength="54.332" x="49.32" y="72.292">nombre</text><ellipse cx="40.32" cy="85.2422" fill="none" rx="3" ry="3" style="stroke:#038048;stroke-width:1;"/><text fill="#000000" font-family="sans-serif" font-size="14" lengthAdjust="spacing" textLength="27.5488" x="49.32" y="88.5889">foto</text><ellipse cx="40.32" cy="101.5391" fill="none" rx="3" ry="3" style="stroke:#038048;stroke-width:1;"/><text fill="#000000" font-family="sans-serif" font-size="14" lengthAdjust="spacing" textLength="93.7002" x="49.32" y="104.8857">fechaEntrada</text><line style="stroke:#181818;stroke-width:0.5;" x1="30.32" x2="170.2214" y1="112.1875" y2="112.1875"/><ellipse cx="40.32" cy="125.8359" fill="#84BE84" rx="3" ry="3" style="stroke:#038048;stroke-width:1;"/><text fill="#000000" font-family="sans-serif" font-size="14" lengthAdjust="spacing" textLength="63.3691" x="49.32" y="129.1826">verPost()</text><ellipse cx="40.32" cy="142.1328" fill="#84BE84" rx="3" ry="3" style="stroke:#038048;stroke-width:1;"/><text fill="#000000" font-family="sans-serif" font-size="14" lengthAdjust="spacing" textLength="108.9717" x="49.32" y="145.4795">compartirPost()</text></g><!--class UsuarioRegistrado--><g class="entity" data-entity="UsuarioRegistrado" data-source-line="10" data-uid="ent0003" id="entity_UsuarioRegistrado"><rect fill="#F1F1F1" height="145.7813" rx="2.5" ry="2.5" style="stroke:#181818;stroke-width:0.5;" width="160.8916" x="46.82" y="212.79"/><ellipse cx="61.82" cy="228.79" fill="#ADD1B2" rx="11" ry="11" style="stroke:#181818;stroke-width:1;"/><path d="M64.7888,234.4306 Q64.2106,234.7275 63.57,234.8681 Q62.9294,235.0244 62.2263,235.0244 Q59.7263,235.0244 58.3981,233.3837 Q57.0856,231.7275 57.0856,228.6025 Q57.0856,225.4775 58.3981,223.8212 Q59.7263,222.165 62.2263,222.165 Q62.9294,222.165 63.57,222.3212 Q64.2263,222.4775 64.7888,222.7744 L64.7888,225.4931 Q64.1638,224.915 63.57,224.6494 Q62.9763,224.3681 62.3513,224.3681 Q61.0075,224.3681 60.32,225.4462 Q59.6325,226.5087 59.6325,228.6025 Q59.6325,230.6962 60.32,231.7744 Q61.0075,232.8369 62.3513,232.8369 Q62.9763,232.8369 63.57,232.5712 Q64.1638,232.29 64.7888,231.7119 L64.7888,234.4306 Z " fill="#000000"/><text fill="#000000" font-family="sans-serif" font-size="14" lengthAdjust="spacing" textLength="128.8916" x="75.82" y="233.6367">UsuarioRegistrado</text><line style="stroke:#181818;stroke-width:0.5;" x1="47.82" x2="206.7116" y1="244.79" y2="244.79"/><ellipse cx="57.82" cy="258.4384" fill="none" rx="3" ry="3" style="stroke:#038048;stroke-width:1;"/><text fill="#000000" font-family="sans-serif" font-size="14" lengthAdjust="spacing" textLength="130.4844" x="66.82" y="261.7851">correoInstitucional</text><ellipse cx="57.82" cy="274.7353" fill="none" rx="3" ry="3" style="stroke:#038048;stroke-width:1;"/><text fill="#000000" font-family="sans-serif" font-size="14" lengthAdjust="spacing" textLength="37.5293" x="66.82" y="278.082">posts</text><ellipse cx="57.82" cy="291.0322" fill="none" rx="3" ry="3" style="stroke:#038048;stroke-width:1;"/><text fill="#000000" font-family="sans-serif" font-size="14" lengthAdjust="spacing" textLength="93.7959" x="66.82" y="294.3789">comunidades</text><line style="stroke:#181818;stroke-width:0.5;" x1="47.82" x2="206.7116" y1="301.6806" y2="301.6806"/><ellipse cx="57.82" cy="315.3291" fill="#84BE84" rx="3" ry="3" style="stroke:#038048;stroke-width:1;"/><text fill="#000000" font-family="sans-serif" font-size="14" lengthAdjust="spacing" textLength="97.1729" x="66.82" y="318.6757">publicarPost()</text><ellipse cx="57.82" cy="331.6259" fill="#84BE84" rx="3" ry="3" style="stroke:#038048;stroke-width:1;"/><text fill="#000000" font-family="sans-serif" font-size="14" lengthAdjust="spacing" textLength="107.9258" x="66.82" y="334.9726">comentarPost()</text><ellipse cx="57.82" cy="347.9228" fill="#84BE84" rx="3" ry="3" style="stroke:#038048;stroke-width:1;"/><text fill="#000000" font-family="sans-serif" font-size="14" lengthAdjust="spacing" textLength="69.125" x="66.82" y="351.2695">LikePost()</text></g><!--class Moderador--><g class="entity" data-entity="Moderador" data-source-line="19" data-uid="ent0004" id="entity_Moderador"><rect fill="#F1F1F1" height="80.5938" rx="2.5" ry="2.5" style="stroke:#181818;stroke-width:0.5;" width="139.415" x="28.56" y="483.75"/><ellipse cx="57.8374" cy="499.75" fill="#ADD1B2" rx="11" ry="11" style="stroke:#181818;stroke-width:1;"/><path d="M60.8061,505.3906 Q60.228,505.6875 59.5874,505.8281 Q58.9468,505.9844 58.2436,505.9844 Q55.7436,505.9844 54.4155,504.3438 Q53.103,502.6875 53.103,499.5625 Q53.103,496.4375 54.4155,494.7813 Q55.7436,493.125 58.2436,493.125 Q58.9468,493.125 59.5874,493.2813 Q60.2436,493.4375 60.8061,493.7344 L60.8061,496.4531 Q60.1811,495.875 59.5874,495.6094 Q58.9936,495.3281 58.3686,495.3281 Q57.0249,495.3281 56.3374,496.4063 Q55.6499,497.4688 55.6499,499.5625 Q55.6499,501.6563 56.3374,502.7344 Q57.0249,503.7969 58.3686,503.7969 Q58.9936,503.7969 59.5874,503.5313 Q60.1811,503.25 60.8061,502.6719 L60.8061,505.3906 Z " fill="#000000"/><text fill="#000000" font-family="sans-serif" font-size="14" lengthAdjust="spacing" textLength="75.6875" x="75.0101" y="504.5967">Moderador</text><line style="stroke:#181818;stroke-width:0.5;" x1="29.56" x2="166.975" y1="515.75" y2="515.75"/><line style="stroke:#181818;stroke-width:0.5;" x1="29.56" x2="166.975" y1="523.75" y2="523.75"/><ellipse cx="39.56" cy="537.3984" fill="#84BE84" rx="3" ry="3" style="stroke:#038048;stroke-width:1;"/><text fill="#000000" font-family="sans-serif" font-size="14" lengthAdjust="spacing" textLength="97.8428" x="48.56" y="540.7451">eliminarPost()</text><ellipse cx="39.56" cy="553.6953" fill="#84BE84" rx="3" ry="3" style="stroke:#038048;stroke-width:1;"/><text fill="#000000" font-family="sans-serif" font-size="14" lengthAdjust="spacing" textLength="113.415" x="48.56" y="557.042">banearUsuario()</text></g><!--class Post--><g class="entity" data-entity="Post" data-source-line="24" data-uid="ent0005" id="entity_Post"><rect fill="#F1F1F1" height="210.9688" rx="2.5" ry="2.5" style="stroke:#181818;stroke-width:0.5;" width="126.4404" x="224.05" y="418.57"/><ellipse cx="268.1422" cy="434.57" fill="#ADD1B2" rx="11" ry="11" style="stroke:#181818;stroke-width:1;"/><path d="M271.111,440.2106 Q270.5329,440.5075 269.8922,440.6481 Q269.2516,440.8044 268.5485,440.8044 Q266.0485,440.8044 264.7204,439.1638 Q263.4079,437.5075 263.4079,434.3825 Q263.4079,431.2575 264.7204,429.6013 Q266.0485,427.945 268.5485,427.945 Q269.2516,427.945 269.8922,428.1013 Q270.5485,428.2575 271.111,428.5544 L271.111,431.2731 Q270.486,430.695 269.8922,430.4294 Q269.2985,430.1481 268.6735,430.1481 Q267.3297,430.1481 266.6422,431.2263 Q265.9547,432.2888 265.9547,434.3825 Q265.9547,436.4763 266.6422,437.5544 Q267.3297,438.6169 268.6735,438.6169 Q269.2985,438.6169 269.8922,438.3513 Q270.486,438.07 271.111,437.4919 L271.111,440.2106 Z " fill="#000000"/><text fill="#000000" font-family="sans-serif" font-size="14" lengthAdjust="spacing" textLength="29.791" x="288.6072" y="439.4167">Post</text><line style="stroke:#181818;stroke-width:0.5;" x1="225.05" x2="349.4904" y1="450.57" y2="450.57"/><ellipse cx="235.05" cy="464.2184" fill="none" rx="3" ry="3" style="stroke:#038048;stroke-width:1;"/><text fill="#000000" font-family="sans-serif" font-size="14" lengthAdjust="spacing" textLength="12.7764" x="244.05" y="467.5651">id</text><ellipse cx="235.05" cy="480.5153" fill="none" rx="3" ry="3" style="stroke:#038048;stroke-width:1;"/><text fill="#000000" font-family="sans-serif" font-size="14" lengthAdjust="spacing" textLength="100.4404" x="244.05" y="483.862">fechaCreacion</text><ellipse cx="235.05" cy="496.8122" fill="none" rx="3" ry="3" style="stroke:#038048;stroke-width:1;"/><text fill="#000000" font-family="sans-serif" font-size="14" lengthAdjust="spacing" textLength="99.7568" x="244.05" y="500.1589">fechaResuelto</text><ellipse cx="235.05" cy="513.1091" fill="none" rx="3" ry="3" style="stroke:#038048;stroke-width:1;"/><text fill="#000000" font-family="sans-serif" font-size="14" lengthAdjust="spacing" textLength="61.1201" x="244.05" y="516.4557">duracion</text><ellipse cx="235.05" cy="529.4059" fill="none" rx="3" ry="3" style="stroke:#038048;stroke-width:1;"/><text fill="#000000" font-family="sans-serif" font-size="14" lengthAdjust="spacing" textLength="69.4531" x="244.05" y="532.7526">contenido</text><ellipse cx="235.05" cy="545.7028" fill="none" rx="3" ry="3" style="stroke:#038048;stroke-width:1;"/><text fill="#000000" font-family="sans-serif" font-size="14" lengthAdjust="spacing" textLength="57.0938" x="244.05" y="549.0495">resuelto</text><ellipse cx="235.05" cy="561.9997" fill="none" rx="3" ry="3" style="stroke:#038048;stroke-width:1;"/><text fill="#000000" font-family="sans-serif" font-size="14" lengthAdjust="spacing" textLength="53.8535" x="244.05" y="565.3464">creador</text><ellipse cx="235.05" cy="578.2966" fill="none" rx="3" ry="3" style="stroke:#038048;stroke-width:1;"/><text fill="#000000" font-family="sans-serif" font-size="14" lengthAdjust="spacing" textLength="65.7275" x="244.05" y="581.6432">etiquetas</text><ellipse cx="235.05" cy="594.5934" fill="none" rx="3" ry="3" style="stroke:#038048;stroke-width:1;"/><text fill="#000000" font-family="sans-serif" font-size="14" lengthAdjust="spacing" textLength="86.96" x="244.05" y="597.9401">comentarios</text><ellipse cx="235.05" cy="610.8903" fill="none" rx="3" ry="3" style="stroke:#038048;stroke-width:1;"/><text fill="#000000" font-family="sans-serif" font-size="14" lengthAdjust="spacing" textLength="31.7939" x="244.05" y="614.237">likes</text><line style="stroke:#181818;stroke-width:0.5;" x1="225.05" x2="349.4904" y1="621.5387" y2="621.5387"/></g><!--class Etiqueta--><g class="entity" data-entity="Etiqueta" data-source-line="36" data-uid="ent0006" id="entity_Etiqueta"><rect fill="#F1F1F1" height="80.5938" rx="2.5" ry="2.5" style="stroke:#181818;stroke-width:0.5;" width="119.7959" x="184.37" y="821.98"/><ellipse cx="212.4784" cy="837.98" fill="#ADD1B2" rx="11" ry="11" style="stroke:#181818;stroke-width:1;"/><path d="M215.4472,843.6206 Q214.8691,843.9175 214.2284,844.0581 Q213.5878,844.2144 212.8847,844.2144 Q210.3847,844.2144 209.0566,842.5738 Q207.7441,840.9175 207.7441,837.7925 Q207.7441,834.6675 209.0566,833.0113 Q210.3847,831.355 212.8847,831.355 Q213.5878,831.355 214.2284,831.5113 Q214.8847,831.6675 215.4472,831.9644 L215.4472,834.6831 Q214.8222,834.105 214.2284,833.8394 Q213.6347,833.5581 213.0097,833.5581 Q211.6659,833.5581 210.9784,834.6363 Q210.2909,835.6988 210.2909,837.7925 Q210.2909,839.8863 210.9784,840.9644 Q211.6659,842.0269 213.0097,842.0269 Q213.6347,842.0269 214.2284,841.7613 Q214.8222,841.48 215.4472,840.9019 L215.4472,843.6206 Z " fill="#000000"/><text fill="#000000" font-family="sans-serif" font-size="14" lengthAdjust="spacing" textLength="58.666" x="229.3914" y="842.8267">Etiqueta</text><line style="stroke:#181818;stroke-width:0.5;" x1="185.37" x2="303.1659" y1="853.98" y2="853.98"/><ellipse cx="195.37" cy="867.6284" fill="none" rx="3" ry="3" style="stroke:#038048;stroke-width:1;"/><text fill="#000000" font-family="sans-serif" font-size="14" lengthAdjust="spacing" textLength="37.5293" x="204.37" y="870.9751">posts</text><ellipse cx="195.37" cy="883.9253" fill="none" rx="3" ry="3" style="stroke:#038048;stroke-width:1;"/><text fill="#000000" font-family="sans-serif" font-size="14" lengthAdjust="spacing" textLength="93.7959" x="204.37" y="887.272">comunidades</text><line style="stroke:#181818;stroke-width:0.5;" x1="185.37" x2="303.1659" y1="894.5738" y2="894.5738"/></g><!--class Comunidad--><g class="entity" data-entity="Comunidad" data-source-line="41" data-uid="ent0007" id="entity_Comunidad"><rect fill="#F1F1F1" height="129.4844" rx="2.5" ry="2.5" style="stroke:#181818;stroke-width:0.5;" width="162.0898" x="206.22" y="15.15"/><ellipse cx="243.7754" cy="31.15" fill="#ADD1B2" rx="11" ry="11" style="stroke:#181818;stroke-width:1;"/><path d="M246.7441,36.7906 Q246.166,37.0875 245.5254,37.2281 Q244.8847,37.3844 244.1816,37.3844 Q241.6816,37.3844 240.3535,35.7437 Q239.041,34.0875 239.041,30.9625 Q239.041,27.8375 240.3535,26.1812 Q241.6816,24.525 244.1816,24.525 Q244.8847,24.525 245.5254,24.6812 Q246.1816,24.8375 246.7441,25.1344 L246.7441,27.8531 Q246.1191,27.275 245.5254,27.0094 Q244.9316,26.7281 244.3066,26.7281 Q242.9629,26.7281 242.2754,27.8062 Q241.5879,28.8687 241.5879,30.9625 Q241.5879,33.0562 242.2754,34.1344 Q242.9629,35.1969 244.3066,35.1969 Q244.9316,35.1969 245.5254,34.9312 Q246.1191,34.65 246.7441,34.0719 L246.7441,36.7906 Z " fill="#000000"/><text fill="#000000" font-family="sans-serif" font-size="14" lengthAdjust="spacing" textLength="79.9668" x="262.7877" y="35.9967">Comunidad</text><line style="stroke:#181818;stroke-width:0.5;" x1="207.22" x2="367.3098" y1="47.15" y2="47.15"/><ellipse cx="217.22" cy="60.7984" fill="none" rx="3" ry="3" style="stroke:#038048;stroke-width:1;"/><text fill="#000000" font-family="sans-serif" font-size="14" lengthAdjust="spacing" textLength="54.332" x="226.22" y="64.1451">nombre</text><ellipse cx="217.22" cy="77.0953" fill="none" rx="3" ry="3" style="stroke:#038048;stroke-width:1;"/><text fill="#000000" font-family="sans-serif" font-size="14" lengthAdjust="spacing" textLength="27.5488" x="226.22" y="80.442">foto</text><ellipse cx="217.22" cy="93.3922" fill="none" rx="3" ry="3" style="stroke:#038048;stroke-width:1;"/><text fill="#000000" font-family="sans-serif" font-size="14" lengthAdjust="spacing" textLength="136.0898" x="226.22" y="96.7389">etiquetasAsociadas</text><ellipse cx="217.22" cy="109.6891" fill="none" rx="3" ry="3" style="stroke:#038048;stroke-width:1;"/><text fill="#000000" font-family="sans-serif" font-size="14" lengthAdjust="spacing" textLength="70.2803" x="226.22" y="113.0357">miembros</text><ellipse cx="217.22" cy="125.9859" fill="none" rx="3" ry="3" style="stroke:#038048;stroke-width:1;"/><text fill="#000000" font-family="sans-serif" font-size="14" lengthAdjust="spacing" textLength="37.5293" x="226.22" y="129.3326">posts</text><line style="stroke:#181818;stroke-width:0.5;" x1="207.22" x2="367.3098" y1="136.6344" y2="136.6344"/></g><!--class Filtro--><g class="entity" data-entity="Filtro" data-source-line="49" data-uid="ent0008" id="entity_Filtro"><rect fill="#F1F1F1" height="96.8906" rx="2.5" ry="2.5" style="stroke:#181818;stroke-width:0.5;" width="142.5322" x="7" y="813.83"/><ellipse cx="56.1948" cy="829.83" fill="#ADD1B2" rx="11" ry="11" style="stroke:#181818;stroke-width:1;"/><path d="M59.1636,835.4706 Q58.5854,835.7675 57.9448,835.9081 Q57.3042,836.0644 56.6011,836.0644 Q54.1011,836.0644 52.7729,834.4237 Q51.4604,832.7675 51.4604,829.6425 Q51.4604,826.5175 52.7729,824.8612 Q54.1011,823.205 56.6011,823.205 Q57.3042,823.205 57.9448,823.3612 Q58.6011,823.5175 59.1636,823.8144 L59.1636,826.5331 Q58.5386,825.955 57.9448,825.6894 Q57.3511,825.4081 56.7261,825.4081 Q55.3823,825.4081 54.6948,826.4862 Q54.0073,827.5487 54.0073,829.6425 Q54.0073,831.7362 54.6948,832.8144 Q55.3823,833.8769 56.7261,833.8769 Q57.3511,833.8769 57.9448,833.6112 Q58.5386,833.33 59.1636,832.7519 L59.1636,835.4706 Z " fill="#000000"/><text fill="#000000" font-family="sans-serif" font-size="14" lengthAdjust="spacing" textLength="35.6426" x="76.6948" y="834.6767">Filtro</text><line style="stroke:#181818;stroke-width:0.5;" x1="8" x2="148.5322" y1="845.83" y2="845.83"/><ellipse cx="18" cy="859.4784" fill="none" rx="3" ry="3" style="stroke:#038048;stroke-width:1;"/><text fill="#000000" font-family="sans-serif" font-size="14" lengthAdjust="spacing" textLength="41.4121" x="27" y="862.8251">Filtrar</text><ellipse cx="18" cy="875.7753" fill="none" rx="3" ry="3" style="stroke:#038048;stroke-width:1;"/><text fill="#000000" font-family="sans-serif" font-size="14" lengthAdjust="spacing" textLength="87.9854" x="27" y="879.122">localizarPost</text><line style="stroke:#181818;stroke-width:0.5;" x1="8" x2="148.5322" y1="886.4237" y2="886.4237"/><ellipse cx="18" cy="900.0722" fill="#84BE84" rx="3" ry="3" style="stroke:#038048;stroke-width:1;"/><text fill="#000000" font-family="sans-serif" font-size="14" lengthAdjust="spacing" textLength="116.5322" x="27" y="903.4189">elegirEtiquetas()</text></g><!--class Comentario--><g class="entity" data-entity="Comentario" data-source-line="55" data-uid="ent0009" id="entity_Comentario"><rect fill="#F1F1F1" height="129.4844" rx="2.5" ry="2.5" style="stroke:#181818;stroke-width:0.5;" width="126.4404" x="339.05" y="797.54"/><ellipse cx="359.7633" cy="813.54" fill="#ADD1B2" rx="11" ry="11" style="stroke:#181818;stroke-width:1;"/><path d="M362.7321,819.1806 Q362.154,819.4775 361.5133,819.6181 Q360.8727,819.7744 360.1696,819.7744 Q357.6696,819.7744 356.3415,818.1338 Q355.029,816.4775 355.029,813.3525 Q355.029,810.2275 356.3415,808.5713 Q357.6696,806.915 360.1696,806.915 Q360.8727,806.915 361.5133,807.0713 Q362.1696,807.2275 362.7321,807.5244 L362.7321,810.2431 Q362.1071,809.665 361.5133,809.3994 Q360.9196,809.1181 360.2946,809.1181 Q358.9508,809.1181 358.2633,810.1963 Q357.5758,811.2588 357.5758,813.3525 Q357.5758,815.4463 358.2633,816.5244 Q358.9508,817.5869 360.2946,817.5869 Q360.9196,817.5869 361.5133,817.3213 Q362.1071,817.04 362.7321,816.4619 L362.7321,819.1806 Z " fill="#000000"/><text fill="#000000" font-family="sans-serif" font-size="14" lengthAdjust="spacing" textLength="81.7441" x="375.033" y="818.3867">Comentario</text><line style="stroke:#181818;stroke-width:0.5;" x1="340.05" x2="464.4904" y1="829.54" y2="829.54"/><ellipse cx="350.05" cy="843.1884" fill="none" rx="3" ry="3" style="stroke:#038048;stroke-width:1;"/><text fill="#000000" font-family="sans-serif" font-size="14" lengthAdjust="spacing" textLength="14.9092" x="359.05" y="846.5351">ID</text><ellipse cx="350.05" cy="859.4853" fill="none" rx="3" ry="3" style="stroke:#038048;stroke-width:1;"/><text fill="#000000" font-family="sans-serif" font-size="14" lengthAdjust="spacing" textLength="30.2354" x="359.05" y="862.832">post</text><ellipse cx="350.05" cy="875.7822" fill="none" rx="3" ry="3" style="stroke:#038048;stroke-width:1;"/><text fill="#000000" font-family="sans-serif" font-size="14" lengthAdjust="spacing" textLength="53.8535" x="359.05" y="879.1289">creador</text><ellipse cx="350.05" cy="892.0791" fill="none" rx="3" ry="3" style="stroke:#038048;stroke-width:1;"/><text fill="#000000" font-family="sans-serif" font-size="14" lengthAdjust="spacing" textLength="69.4531" x="359.05" y="895.4257">contenido</text><ellipse cx="350.05" cy="908.3759" fill="none" rx="3" ry="3" style="stroke:#038048;stroke-width:1;"/><text fill="#000000" font-family="sans-serif" font-size="14" lengthAdjust="spacing" textLength="100.4404" x="359.05" y="911.7226">fechaCreacion</text><line style="stroke:#181818;stroke-width:0.5;" x1="340.05" x2="464.4904" y1="919.0244" y2="919.0244"/></g><!--class Like--><g class="entity" data-entity="Like" data-source-line="63" data-uid="ent0010" id="entity_Like"><rect fill="#F1F1F1" height="113.1875" rx="2.5" ry="2.5" style="stroke:#181818;stroke-width:0.5;" width="94.1543" x="500.19" y="805.68"/><ellipse cx="530.3749" cy="821.68" fill="#ADD1B2" rx="11" ry="11" style="stroke:#181818;stroke-width:1;"/><path d="M533.3436,827.3206 Q532.7655,827.6175 532.1249,827.7581 Q531.4842,827.9144 530.7811,827.9144 Q528.2811,827.9144 526.953,826.2738 Q525.6405,824.6175 525.6405,821.4925 Q525.6405,818.3675 526.953,816.7113 Q528.2811,815.055 530.7811,815.055 Q531.4842,815.055 532.1249,815.2113 Q532.7811,815.3675 533.3436,815.6644 L533.3436,818.3831 Q532.7186,817.805 532.1249,817.5394 Q531.5311,817.2581 530.9061,817.2581 Q529.5624,817.2581 528.8749,818.3363 Q528.1874,819.3988 528.1874,821.4925 Q528.1874,823.5863 528.8749,824.6644 Q529.5624,825.7269 530.9061,825.7269 Q531.5311,825.7269 532.1249,825.4613 Q532.7186,825.18 533.3436,824.6019 L533.3436,827.3206 Z " fill="#000000"/><text fill="#000000" font-family="sans-serif" font-size="14" lengthAdjust="spacing" textLength="28.4102" x="547.7493" y="826.5267">Like</text><line style="stroke:#181818;stroke-width:0.5;" x1="501.19" x2="593.3443" y1="837.68" y2="837.68"/><ellipse cx="511.19" cy="851.3284" fill="none" rx="3" ry="3" style="stroke:#038048;stroke-width:1;"/><text fill="#000000" font-family="sans-serif" font-size="14" lengthAdjust="spacing" textLength="14.9092" x="520.19" y="854.6751">ID</text><ellipse cx="511.19" cy="867.6253" fill="none" rx="3" ry="3" style="stroke:#038048;stroke-width:1;"/><text fill="#000000" font-family="sans-serif" font-size="14" lengthAdjust="spacing" textLength="30.2354" x="520.19" y="870.972">post</text><ellipse cx="511.19" cy="883.9222" fill="none" rx="3" ry="3" style="stroke:#038048;stroke-width:1;"/><text fill="#000000" font-family="sans-serif" font-size="14" lengthAdjust="spacing" textLength="51.8301" x="520.19" y="887.2689">usuario</text><ellipse cx="511.19" cy="900.2191" fill="none" rx="3" ry="3" style="stroke:#038048;stroke-width:1;"/><text fill="#000000" font-family="sans-serif" font-size="14" lengthAdjust="spacing" textLength="68.1543" x="520.19" y="903.5657">DateTime</text><line style="stroke:#181818;stroke-width:0.5;" x1="501.19" x2="593.3443" y1="910.8675" y2="910.8675"/></g><!--class Administrador--><g class="entity" data-entity="Administrador" data-source-line="75" data-uid="ent0016" id="entity_Administrador"><rect fill="#F1F1F1" height="48" rx="2.5" ry="2.5" style="stroke:#181818;stroke-width:0.5;" width="131.0801" x="31.73" y="689.54"/><ellipse cx="46.73" cy="705.54" fill="#ADD1B2" rx="11" ry="11" style="stroke:#181818;stroke-width:1;"/><path d="M49.6988,711.1806 Q49.1206,711.4775 48.48,711.6181 Q47.8394,711.7744 47.1363,711.7744 Q44.6363,711.7744 43.3081,710.1338 Q41.9956,708.4775 41.9956,705.3525 Q41.9956,702.2275 43.3081,700.5713 Q44.6363,698.915 47.1363,698.915 Q47.8394,698.915 48.48,699.0713 Q49.1363,699.2275 49.6988,699.5244 L49.6988,702.2431 Q49.0738,701.665 48.48,701.3994 Q47.8863,701.1181 47.2613,701.1181 Q45.9175,701.1181 45.23,702.1963 Q44.5425,703.2588 44.5425,705.3525 Q44.5425,707.4463 45.23,708.5244 Q45.9175,709.5869 47.2613,709.5869 Q47.8863,709.5869 48.48,709.3213 Q49.0738,709.04 49.6988,708.4619 L49.6988,711.1806 Z " fill="#000000"/><text fill="#000000" font-family="sans-serif" font-size="14" lengthAdjust="spacing" textLength="99.0801" x="60.73" y="710.3867">Administrador</text><line style="stroke:#181818;stroke-width:0.5;" x1="32.73" x2="161.8101" y1="721.54" y2="721.54"/><line style="stroke:#181818;stroke-width:0.5;" x1="32.73" x2="161.8101" y1="729.54" y2="729.54"/></g><!--reverse link Comunidad to UsuarioRegistrado--><g class="link" data-entity-1="Comunidad" data-entity-2="UsuarioRegistrado" data-source-line="70" data-uid="lnk11" id="link_Comunidad_UsuarioRegistrado"><path codeLine="70" d="M229.4502,154.529 C212.6902,175.879 201.32,190.36 184.1,212.29" fill="none" id="Comunidad-backto-UsuarioRegistrado" style="stroke:#181818;stroke-width:1;"/><polygon fill="none" points="236.86,145.09,230.0088,147.3396,229.4502,154.529,236.3015,152.2794,236.86,145.09" style="stroke:#181818;stroke-width:1;"/></g><!--reverse link Comunidad to Post--><g class="link" data-entity-1="Comunidad" data-entity-2="Post" data-source-line="71" data-uid="lnk12" id="link_Comunidad_Post"><path codeLine="71" d="M287.27,156.72 C287.27,228.22 287.27,333.24 287.27,418.22" fill="none" id="Comunidad-backto-Post" style="stroke:#181818;stroke-width:1;"/><polygon fill="none" points="287.27,144.72,283.27,150.72,287.27,156.72,291.27,150.72,287.27,144.72" style="stroke:#181818;stroke-width:1;"/></g><!--link UsuarioRegistrado to Post--><g class="link" data-entity-1="UsuarioRegistrado" data-entity-2="Post" data-source-line="72" data-uid="lnk13" id="link_UsuarioRegistrado_Post"><path codeLine="72" d="M179.5034,363.8487 C194.4834,385.9787 204.467,400.7211 220.277,424.0811" fill="none" id="UsuarioRegistrado-Post" style="stroke:#181818;stroke-width:1;"/><polygon fill="#181818" points="176.14,358.88,177.8726,368.5753,178.9428,363.0206,184.4975,364.0908,176.14,358.88" style="stroke:#181818;stroke-width:1;"/><polygon fill="#181818" points="223.64,429.05,221.9082,419.3546,220.8375,424.9092,215.2829,423.8386,223.64,429.05" style="stroke:#181818;stroke-width:1;"/></g><!--reverse link UsuarioInvitado to UsuarioRegistrado--><g class="link" data-entity-1="UsuarioInvitado" data-entity-2="UsuarioRegistrado" data-source-line="73" data-uid="lnk14" id="link_UsuarioInvitado_UsuarioRegistrado"><path codeLine="73" d="M112.1862,170.8738 C114.7362,190.1038 115.13,193.05 117.68,212.3" fill="none" id="UsuarioInvitado-backto-UsuarioRegistrado" style="stroke:#181818;stroke-width:1;"/><polygon fill="none" points="109.82,153.03,106.2382,171.6625,118.1341,170.0851,109.82,153.03" style="stroke:#181818;stroke-width:1;"/></g><!--reverse link UsuarioRegistrado to Moderador--><g class="link" data-entity-1="UsuarioRegistrado" data-entity-2="Moderador" data-source-line="74" data-uid="lnk15" id="link_UsuarioRegistrado_Moderador"><path codeLine="74" d="M116.2181,376.7461 C111.1881,417.7461 107.27,449.63 103.11,483.55" fill="none" id="UsuarioRegistrado-backto-Moderador" style="stroke:#181818;stroke-width:1;"/><polygon fill="none" points="118.41,358.88,110.2628,376.0154,122.1735,377.4767,118.41,358.88" style="stroke:#181818;stroke-width:1;"/></g><!--reverse link Moderador to Administrador--><g class="link" data-entity-1="Moderador" data-entity-2="Administrador" data-source-line="75" data-uid="lnk17" id="link_Moderador_Administrador"><path codeLine="75" d="M97.9546,582.8097 C97.7546,620.5397 97.56,657.97 97.39,689.09" fill="none" id="Moderador-backto-Administrador" style="stroke:#181818;stroke-width:1;"/><polygon fill="none" points="98.05,564.81,91.9547,582.7779,103.9545,582.8416,98.05,564.81" style="stroke:#181818;stroke-width:1;"/></g><!--reverse link Post to Etiqueta--><g class="link" data-entity-1="Post" data-entity-2="Etiqueta" data-source-line="76" data-uid="lnk18" id="link_Post_Etiqueta"><path codeLine="76" d="M272.3765,641.4929 C264.0365,706.6529 255.32,774.85 249.32,821.77" fill="none" id="Post-backto-Etiqueta" style="stroke:#181818;stroke-width:1;"/><polygon fill="#181818" points="273.9,629.59,269.1706,635.0336,272.3765,641.4929,277.1059,636.0493,273.9,629.59" style="stroke:#181818;stroke-width:1;"/></g><!--reverse link Post to Like--><g class="link" data-entity-1="Post" data-entity-2="Like" data-source-line="77" data-uid="lnk19" id="link_Post_Like"><path codeLine="77" d="M358.2107,616.7929 C405.7907,678.3229 462.25,751.34 504.04,805.38" fill="none" id="Post-backto-Like" style="stroke:#181818;stroke-width:1;"/><polygon fill="#181818" points="350.87,607.3,351.376,614.4933,358.2107,616.7929,357.7046,609.5995,350.87,607.3" style="stroke:#181818;stroke-width:1;"/></g><!--reverse link Post to Comentario--><g class="link" data-entity-1="Post" data-entity-2="Comentario" data-source-line="78" data-uid="lnk20" id="link_Post_Comentario"><path codeLine="78" d="M326.9033,640.9443 C345.6933,695.8843 364.24,750.1 380.43,797.43" fill="none" id="Post-backto-Comentario" style="stroke:#181818;stroke-width:1;"/><polygon fill="#181818" points="323.02,629.59,321.1769,636.5616,326.9033,640.9443,328.7464,633.9727,323.02,629.59" style="stroke:#181818;stroke-width:1;"/></g><!--link Post to Filtro--><g class="link" data-entity-1="Post" data-entity-2="Filtro" data-source-line="79" data-uid="lnk21" id="link_Post_Filtro"><path codeLine="79" d="M240.17,630.03 C222.92,665.15 202.21,703.89 180.27,737.54 C163,764 144.917,786.775 125.767,808.995" fill="none" id="Post-to-Filtro" style="stroke:#181818;stroke-width:1;stroke-dasharray:7.0,7.0;"/><polygon fill="#181818" points="121.85,813.54,130.7555,809.3339,125.1142,809.7525,124.6956,804.1112,121.85,813.54" style="stroke:#181818;stroke-width:1;"/></g><!--link Filtro to Etiqueta--><g class="link" data-entity-1="Filtro" data-entity-2="Etiqueta" data-source-line="80" data-uid="lnk22" id="link_Filtro_Etiqueta"><path codeLine="80" d="M149.92,862.28 C161.34,862.28 166.77,862.28 178.19,862.28" fill="none" id="Filtro-to-Etiqueta" style="stroke:#181818;stroke-width:1;stroke-dasharray:7.0,7.0;"/><polygon fill="#181818" points="184.19,862.28,175.19,858.28,179.19,862.28,175.19,866.28,184.19,862.28" style="stroke:#181818;stroke-width:1;"/></g><!--SRC=[VLFRJiCm37tlL_IHYxelc2PDsv0cWOGc-00tCM2H9YENFJ3uTv8cQPiow4kRO-Vu-DY5rbWDpDPCW37rit6WIUtbYInmLP-hsZ-tnEDRggxL6BzVb5Nf2zaRxAJduH2H4-f7PUpLTJmorHr1MyhWTrKLvGxuIa76M90fhT7BC9QiOwGaY1WuUWOpi3f973WcuEXQGGpcfL7Q4hkdTvmhUL0SWm2T5Q2WZcHviGM9e9FewUsGDFUgTsMZ4OBy2NH0ur1axxZJamIcf4NVKmhg8fLvBYymoRFquT22ATiabG3XUpHUODItIzb9uzJ6qiUXeqq6p_zDVb2nDegH7t-gtX7wzAmb5XkexqXOhH9lVu3SbF2BeBDOasqNYe6WppYBGcBgEN7jjsEz2vRDp2tdCx26vVYJpyNHnyCMB3vHX-7kO5UjckRtMi_YVH-_Tt_PDAiYDlo6ow-Bh1SeGkAmozMurNrWpVrAfrHTzKjxqtWyEpw1WWsJu-Xr11UBnIeDieglsWEPvmS0]--></g></svg>