<svg xmlns="http://www.w3.org/2000/svg" xmlns:xlink="http://www.w3.org/1999/xlink" contentStyleType="text/css" data-diagram-type="CLASS" height="795px" preserveAspectRatio="none" style="width:430px;height:795px;background:#FFFFFF;" version="1.1" viewBox="0 0 430 795" width="430px" zoomAndPan="magnify"><defs/><g><!--class Usuario--><g id="elem_Usuario"><rect codeLine="1" fill="#F1F1F1" height="145.7813" id="Usuario" rx="2.5" ry="2.5" style="stroke:#181818;stroke-width:0.5;" width="252.1465" x="7" y="213.48"/><ellipse cx="102.2212" cy="229.48" fill="#ADD1B2" rx="11" ry="11" style="stroke:#181818;stroke-width:1;"/><path d="M105.1899,235.1206 Q104.6118,235.4175 103.9712,235.5581 Q103.3306,235.7144 102.6274,235.7144 Q100.1274,235.7144 98.7993,234.0738 Q97.4868,232.4175 97.4868,229.2925 Q97.4868,226.1675 98.7993,224.5113 Q100.1274,222.855 102.6274,222.855 Q103.3306,222.855 103.9712,223.0113 Q104.6274,223.1675 105.1899,223.4644 L105.1899,226.1831 Q104.5649,225.605 103.9712,225.3394 Q103.3774,225.0581 102.7524,225.0581 Q101.4087,225.0581 100.7212,226.1363 Q100.0337,227.1988 100.0337,229.2925 Q100.0337,231.3863 100.7212,232.4644 Q101.4087,233.5269 102.7524,233.5269 Q103.3774,233.5269 103.9712,233.2613 Q104.5649,232.98 105.1899,232.4019 L105.1899,235.1206 Z " fill="#000000"/><text fill="#000000" font-family="sans-serif" font-size="14" lengthAdjust="spacing" textLength="53.2041" x="122.7212" y="234.3267">Usuario</text><line style="stroke:#181818;stroke-width:0.5;" x1="8" x2="258.1465" y1="245.48" y2="245.48"/><ellipse cx="18" cy="259.1284" fill="#FFFFFF" fill-opacity="0.00000" rx="3" ry="3" style="stroke:#038048;stroke-width:1;"/><text fill="#000000" font-family="sans-serif" font-size="14" lengthAdjust="spacing" textLength="59.0078" x="27" y="262.4751">String id</text><ellipse cx="18" cy="275.4253" fill="#FFFFFF" fill-opacity="0.00000" rx="3" ry="3" style="stroke:#038048;stroke-width:1;"/><text fill="#000000" font-family="sans-serif" font-size="14" lengthAdjust="spacing" textLength="153.7676" x="27" y="278.772">String nombreUsuario</text><ellipse cx="18" cy="291.7222" fill="#FFFFFF" fill-opacity="0.00000" rx="3" ry="3" style="stroke:#038048;stroke-width:1;"/><text fill="#000000" font-family="sans-serif" font-size="14" lengthAdjust="spacing" textLength="91.9639" x="27" y="295.0689">File fotoPerfil</text><ellipse cx="18" cy="308.0191" fill="#FFFFFF" fill-opacity="0.00000" rx="3" ry="3" style="stroke:#038048;stroke-width:1;"/><text fill="#000000" font-family="sans-serif" font-size="14" lengthAdjust="spacing" textLength="176.7158" x="27" y="311.3657">String correoInstitucional</text><ellipse cx="18" cy="324.3159" fill="#FFFFFF" fill-opacity="0.00000" rx="3" ry="3" style="stroke:#038048;stroke-width:1;"/><text fill="#000000" font-family="sans-serif" font-size="14" lengthAdjust="spacing" textLength="226.1465" x="27" y="327.6626">List&lt;Comunidad&gt; comunidades</text><ellipse cx="18" cy="340.6128" fill="#FFFFFF" fill-opacity="0.00000" rx="3" ry="3" style="stroke:#038048;stroke-width:1;"/><text fill="#000000" font-family="sans-serif" font-size="14" lengthAdjust="spacing" textLength="131.6123" x="27" y="343.9595">Date fechaEntrada</text><line style="stroke:#181818;stroke-width:0.5;" x1="8" x2="258.1465" y1="351.2613" y2="351.2613"/></g><!--class Post--><g id="elem_Post"><rect codeLine="9" fill="#F1F1F1" height="178.375" id="Post" rx="2.5" ry="2.5" style="stroke:#181818;stroke-width:0.5;" width="202.7773" x="129.68" y="436.26"/><ellipse cx="211.9232" cy="452.26" fill="#ADD1B2" rx="11" ry="11" style="stroke:#181818;stroke-width:1;"/><path d="M214.8919,457.9006 Q214.3138,458.1975 213.6732,458.3381 Q213.0325,458.4944 212.3294,458.4944 Q209.8294,458.4944 208.5013,456.8538 Q207.1888,455.1975 207.1888,452.0725 Q207.1888,448.9475 208.5013,447.2913 Q209.8294,445.635 212.3294,445.635 Q213.0325,445.635 213.6732,445.7913 Q214.3294,445.9475 214.8919,446.2444 L214.8919,448.9631 Q214.2669,448.385 213.6732,448.1194 Q213.0794,447.8381 212.4544,447.8381 Q211.1107,447.8381 210.4232,448.9163 Q209.7357,449.9788 209.7357,452.0725 Q209.7357,454.1663 210.4232,455.2444 Q211.1107,456.3069 212.4544,456.3069 Q213.0794,456.3069 213.6732,456.0413 Q214.2669,455.76 214.8919,455.1819 L214.8919,457.9006 Z " fill="#000000"/><text fill="#000000" font-family="sans-serif" font-size="14" lengthAdjust="spacing" textLength="29.791" x="232.4232" y="457.1067">Post</text><line style="stroke:#181818;stroke-width:0.5;" x1="130.68" x2="331.4573" y1="468.26" y2="468.26"/><ellipse cx="140.68" cy="481.9084" fill="#FFFFFF" fill-opacity="0.00000" rx="3" ry="3" style="stroke:#038048;stroke-width:1;"/><text fill="#000000" font-family="sans-serif" font-size="14" lengthAdjust="spacing" textLength="59.0078" x="149.68" y="485.2551">String id</text><ellipse cx="140.68" cy="498.2053" fill="#FFFFFF" fill-opacity="0.00000" rx="3" ry="3" style="stroke:#038048;stroke-width:1;"/><text fill="#000000" font-family="sans-serif" font-size="14" lengthAdjust="spacing" textLength="138.3525" x="149.68" y="501.552">Date fechaCreacion</text><ellipse cx="140.68" cy="514.5022" fill="#FFFFFF" fill-opacity="0.00000" rx="3" ry="3" style="stroke:#038048;stroke-width:1;"/><text fill="#000000" font-family="sans-serif" font-size="14" lengthAdjust="spacing" textLength="137.6689" x="149.68" y="517.8489">Date fechaResuelto</text><ellipse cx="140.68" cy="530.7991" fill="#FFFFFF" fill-opacity="0.00000" rx="3" ry="3" style="stroke:#038048;stroke-width:1;"/><text fill="#000000" font-family="sans-serif" font-size="14" lengthAdjust="spacing" textLength="83.8223" x="149.68" y="534.1457">int duracion</text><ellipse cx="140.68" cy="547.0959" fill="#FFFFFF" fill-opacity="0.00000" rx="3" ry="3" style="stroke:#038048;stroke-width:1;"/><text fill="#000000" font-family="sans-serif" font-size="14" lengthAdjust="spacing" textLength="115.6846" x="149.68" y="550.4426">String contenido</text><ellipse cx="140.68" cy="563.3928" fill="#FFFFFF" fill-opacity="0.00000" rx="3" ry="3" style="stroke:#038048;stroke-width:1;"/><text fill="#000000" font-family="sans-serif" font-size="14" lengthAdjust="spacing" textLength="117.5166" x="149.68" y="566.7395">boolean resuelto</text><ellipse cx="140.68" cy="579.6897" fill="#FFFFFF" fill-opacity="0.00000" rx="3" ry="3" style="stroke:#038048;stroke-width:1;"/><text fill="#000000" font-family="sans-serif" font-size="14" lengthAdjust="spacing" textLength="128.9463" x="149.68" y="583.0364">Usuario usuarioOP</text><ellipse cx="140.68" cy="595.9866" fill="#FFFFFF" fill-opacity="0.00000" rx="3" ry="3" style="stroke:#038048;stroke-width:1;"/><text fill="#000000" font-family="sans-serif" font-size="14" lengthAdjust="spacing" textLength="176.7773" x="149.68" y="599.3332">List&lt;Etiqueta&gt; etiquetas</text><line style="stroke:#181818;stroke-width:0.5;" x1="130.68" x2="331.4573" y1="606.635" y2="606.635"/></g><!--class Etiqueta--><g id="elem_Etiqueta"><rect codeLine="19" fill="#F1F1F1" height="96.8906" id="Etiqueta" rx="2.5" ry="2.5" style="stroke:#181818;stroke-width:0.5;" width="164.2705" x="45.94" y="691.64"/><ellipse cx="94.4922" cy="707.64" fill="#ADD1B2" rx="11" ry="11" style="stroke:#181818;stroke-width:1;"/><path d="M97.461,713.2806 Q96.8829,713.5775 96.2422,713.7181 Q95.6016,713.8744 94.8985,713.8744 Q92.3985,713.8744 91.0704,712.2338 Q89.7579,710.5775 89.7579,707.4525 Q89.7579,704.3275 91.0704,702.6713 Q92.3985,701.015 94.8985,701.015 Q95.6016,701.015 96.2422,701.1713 Q96.8985,701.3275 97.461,701.6244 L97.461,704.3431 Q96.836,703.765 96.2422,703.4994 Q95.6485,703.2181 95.0235,703.2181 Q93.6797,703.2181 92.9922,704.2963 Q92.3047,705.3588 92.3047,707.4525 Q92.3047,709.5463 92.9922,710.6244 Q93.6797,711.6869 95.0235,711.6869 Q95.6485,711.6869 96.2422,711.4213 Q96.836,711.14 97.461,710.5619 L97.461,713.2806 Z " fill="#000000"/><text fill="#000000" font-family="sans-serif" font-size="14" lengthAdjust="spacing" textLength="58.666" x="114.9922" y="712.4867">Etiqueta</text><line style="stroke:#181818;stroke-width:0.5;" x1="46.94" x2="209.2105" y1="723.64" y2="723.64"/><line style="stroke:#181818;stroke-width:0.5;" x1="46.94" x2="209.2105" y1="731.64" y2="731.64"/><ellipse cx="56.94" cy="745.2884" fill="#84BE84" rx="3" ry="3" style="stroke:#038048;stroke-width:1;"/><text fill="#000000" font-family="sans-serif" font-size="14" lengthAdjust="spacing" textLength="105.9912" x="65.94" y="748.6351">crearEtiqueta()</text><ellipse cx="56.94" cy="761.5853" fill="#84BE84" rx="3" ry="3" style="stroke:#038048;stroke-width:1;"/><text fill="#000000" font-family="sans-serif" font-size="14" lengthAdjust="spacing" textLength="138.2705" x="65.94" y="764.932">actualizarEtiqueta()</text><ellipse cx="56.94" cy="777.8822" fill="#84BE84" rx="3" ry="3" style="stroke:#038048;stroke-width:1;"/><text fill="#000000" font-family="sans-serif" font-size="14" lengthAdjust="spacing" textLength="102.8057" x="65.94" y="781.2289">obtenerPosts()</text></g><!--class Comunidad--><g id="elem_Comunidad"><rect codeLine="25" fill="#F1F1F1" height="129.4844" id="Comunidad" rx="2.5" ry="2.5" style="stroke:#181818;stroke-width:0.5;" width="273.1396" x="94.5" y="7"/><ellipse cx="186.8364" cy="23" fill="#ADD1B2" rx="11" ry="11" style="stroke:#181818;stroke-width:1;"/><path d="M189.8052,28.6406 Q189.2271,28.9375 188.5864,29.0781 Q187.9458,29.2344 187.2427,29.2344 Q184.7427,29.2344 183.4146,27.5938 Q182.1021,25.9375 182.1021,22.8125 Q182.1021,19.6875 183.4146,18.0313 Q184.7427,16.375 187.2427,16.375 Q187.9458,16.375 188.5864,16.5313 Q189.2427,16.6875 189.8052,16.9844 L189.8052,19.7031 Q189.1802,19.125 188.5864,18.8594 Q187.9927,18.5781 187.3677,18.5781 Q186.0239,18.5781 185.3364,19.6563 Q184.6489,20.7188 184.6489,22.8125 Q184.6489,24.9063 185.3364,25.9844 Q186.0239,27.0469 187.3677,27.0469 Q187.9927,27.0469 188.5864,26.7813 Q189.1802,26.5 189.8052,25.9219 L189.8052,28.6406 Z " fill="#000000"/><text fill="#000000" font-family="sans-serif" font-size="14" lengthAdjust="spacing" textLength="79.9668" x="207.3364" y="27.8467">Comunidad</text><line style="stroke:#181818;stroke-width:0.5;" x1="95.5" x2="366.6396" y1="39" y2="39"/><ellipse cx="105.5" cy="52.6484" fill="#FFFFFF" fill-opacity="0.00000" rx="3" ry="3" style="stroke:#038048;stroke-width:1;"/><text fill="#000000" font-family="sans-serif" font-size="14" lengthAdjust="spacing" textLength="180.5303" x="114.5" y="55.9951">String nombreComunidad</text><ellipse cx="105.5" cy="68.9453" fill="#FFFFFF" fill-opacity="0.00000" rx="3" ry="3" style="stroke:#038048;stroke-width:1;"/><text fill="#000000" font-family="sans-serif" font-size="14" lengthAdjust="spacing" textLength="136.4111" x="114.5" y="72.292">File fotoComunidad</text><ellipse cx="105.5" cy="85.2422" fill="#FFFFFF" fill-opacity="0.00000" rx="3" ry="3" style="stroke:#038048;stroke-width:1;"/><text fill="#000000" font-family="sans-serif" font-size="14" lengthAdjust="spacing" textLength="247.1396" x="114.5" y="88.5889">List&lt;Etiqueta&gt; etiquetasAsociadas</text><ellipse cx="105.5" cy="101.5391" fill="#FFFFFF" fill-opacity="0.00000" rx="3" ry="3" style="stroke:#038048;stroke-width:1;"/><text fill="#000000" font-family="sans-serif" font-size="14" lengthAdjust="spacing" textLength="175.8682" x="114.5" y="104.8857">List&lt;Usuario&gt; miembros</text><ellipse cx="105.5" cy="117.8359" fill="#FFFFFF" fill-opacity="0.00000" rx="3" ry="3" style="stroke:#038048;stroke-width:1;"/><text fill="#000000" font-family="sans-serif" font-size="14" lengthAdjust="spacing" textLength="199.6709" x="114.5" y="121.1826">List&lt;Post&gt; postsComunidad</text><line style="stroke:#181818;stroke-width:0.5;" x1="95.5" x2="366.6396" y1="128.4844" y2="128.4844"/></g><!--class Filtro--><g id="elem_Filtro"><rect codeLine="33" fill="#F1F1F1" height="96.8906" id="Filtro" rx="2.5" ry="2.5" style="stroke:#181818;stroke-width:0.5;" width="178.4619" x="244.84" y="691.64"/><ellipse cx="311.9997" cy="707.64" fill="#ADD1B2" rx="11" ry="11" style="stroke:#181818;stroke-width:1;"/><path d="M314.9684,713.2806 Q314.3903,713.5775 313.7497,713.7181 Q313.109,713.8744 312.4059,713.8744 Q309.9059,713.8744 308.5778,712.2338 Q307.2653,710.5775 307.2653,707.4525 Q307.2653,704.3275 308.5778,702.6713 Q309.9059,701.015 312.4059,701.015 Q313.109,701.015 313.7497,701.1713 Q314.4059,701.3275 314.9684,701.6244 L314.9684,704.3431 Q314.3434,703.765 313.7497,703.4994 Q313.1559,703.2181 312.5309,703.2181 Q311.1872,703.2181 310.4997,704.2963 Q309.8122,705.3588 309.8122,707.4525 Q309.8122,709.5463 310.4997,710.6244 Q311.1872,711.6869 312.5309,711.6869 Q313.1559,711.6869 313.7497,711.4213 Q314.3434,711.14 314.9684,710.5619 L314.9684,713.2806 Z " fill="#000000"/><text fill="#000000" font-family="sans-serif" font-size="14" lengthAdjust="spacing" textLength="35.6426" x="332.4997" y="712.4867">Filtro</text><line style="stroke:#181818;stroke-width:0.5;" x1="245.84" x2="422.3019" y1="723.64" y2="723.64"/><ellipse cx="255.84" cy="737.2884" fill="#FFFFFF" fill-opacity="0.00000" rx="3" ry="3" style="stroke:#038048;stroke-width:1;"/><text fill="#000000" font-family="sans-serif" font-size="14" lengthAdjust="spacing" textLength="152.4619" x="264.84" y="740.6351">List&lt;Etiqueta&gt; Filtrar</text><ellipse cx="255.84" cy="753.5853" fill="#FFFFFF" fill-opacity="0.00000" rx="3" ry="3" style="stroke:#038048;stroke-width:1;"/><text fill="#000000" font-family="sans-serif" font-size="14" lengthAdjust="spacing" textLength="87.9854" x="264.84" y="756.932">localizarPost</text><line style="stroke:#181818;stroke-width:0.5;" x1="245.84" x2="422.3019" y1="764.2338" y2="764.2338"/><ellipse cx="255.84" cy="777.8822" fill="#84BE84" rx="3" ry="3" style="stroke:#038048;stroke-width:1;"/><text fill="#000000" font-family="sans-serif" font-size="14" lengthAdjust="spacing" textLength="116.5322" x="264.84" y="781.2289">elegirEtiquetas()</text></g><!--link Usuario to Post--><g id="link_Usuario_Post"><path codeLine="39" d="M133.47,359.52 C135.27,375.3 138.51,391.64 144.07,406.26 C147.92,416.39 149.8791,421.2101 155.4891,430.8801 " fill="#FFFFFF" fill-opacity="0.00000" id="Usuario-to-Post" style="stroke:#181818;stroke-width:1;"/><polygon fill="#181818" points="158.5,436.07,157.4436,426.278,155.9909,431.7451,150.5238,430.2925,158.5,436.07" style="stroke:#181818;stroke-width:1;"/><text fill="#000000" font-family="sans-serif" font-size="13" lengthAdjust="spacing" textLength="157.5234" x="145.07" y="402.3269">publica e interactua con</text><text fill="#000000" font-family="sans-serif" font-size="13" lengthAdjust="spacing" textLength="8.271" x="125.1395" y="379.2801">1</text><text fill="#000000" font-family="sans-serif" font-size="13" lengthAdjust="spacing" textLength="8.2393" x="144.1691" y="425.1197">n</text></g><!--link Post to Etiqueta--><g id="link_Post_Etiqueta"><path codeLine="40" d="M188.14,615.09 C175.5,641.18 164.7668,663.3407 153.8668,685.8307 " fill="#FFFFFF" fill-opacity="0.00000" id="Post-to-Etiqueta" style="stroke:#181818;stroke-width:1;"/><polygon fill="#181818" points="151.25,691.23,158.7747,684.8756,153.4307,686.7306,151.5757,681.3865,151.25,691.23" style="stroke:#181818;stroke-width:1;"/><text fill="#000000" font-family="sans-serif" font-size="13" lengthAdjust="spacing" textLength="32.9443" x="174.07" y="657.7069">tiene</text><text fill="#000000" font-family="sans-serif" font-size="13" lengthAdjust="spacing" textLength="8.2393" x="176.5562" y="634.5995">n</text><text fill="#000000" font-family="sans-serif" font-size="13" lengthAdjust="spacing" textLength="8.2393" x="145.8427" y="680.7331">n</text></g><!--link Post to Filtro--><g id="link_Post_Filtro"><path codeLine="41" d="M274.01,615.09 C286.65,641.18 297.3851,663.3398 308.2751,685.8298 " fill="#FFFFFF" fill-opacity="0.00000" id="Post-to-Filtro" style="stroke:#181818;stroke-width:1;"/><polygon fill="#181818" points="310.89,691.23,310.5678,681.3864,308.7109,686.7298,303.3675,684.8729,310.89,691.23" style="stroke:#181818;stroke-width:1;"/><text fill="#000000" font-family="sans-serif" font-size="13" lengthAdjust="spacing" textLength="116.4541" x="295.07" y="657.7069">localizado usando</text></g><!--link Comunidad to Usuario--><g id="link_Comunidad_Usuario"><path codeLine="42" d="M201.54,136.83 C190.43,160.92 180.2521,183.0112 168.8321,207.7812 " fill="#FFFFFF" fill-opacity="0.00000" id="Comunidad-to-Usuario" style="stroke:#181818;stroke-width:1;"/><polygon fill="#181818" points="166.32,213.23,173.7207,206.7316,168.4134,208.6893,166.4557,203.3821,166.32,213.23" style="stroke:#181818;stroke-width:1;"/><text fill="#000000" font-family="sans-serif" font-size="13" lengthAdjust="spacing" textLength="105.6758" x="185.07" y="179.5469">Conformada por</text></g><!--link Comunidad to Post--><g id="link_Comunidad_Post"><path codeLine="43" d="M284.83,136.82 C290.56,146.3 295.57,156.31 299.07,166.48 C333.8,267.3 337.13,303.96 307.07,406.26 C304.12,416.33 302.6666,420.9702 297.8766,430.6702 " fill="#FFFFFF" fill-opacity="0.00000" id="Comunidad-to-Post" style="stroke:#181818;stroke-width:1;"/><polygon fill="#181818" points="295.22,436.05,302.7915,429.7514,297.4339,431.5668,295.6184,426.2092,295.22,436.05" style="stroke:#181818;stroke-width:1;"/><text fill="#000000" font-family="sans-serif" font-size="13" lengthAdjust="spacing" textLength="58.2144" x="328.07" y="290.9369">Contiene</text></g><!--SRC=[TLB1QiCm3BtdAqnE6wM7NSS8ZAw3mM1bOn_WE6edSAnEjYyh_VV9YPsseSqbZjwJtzDJZDNUgsyVDIEfGwNaMNm5HhTJs5ryEkfRXamTaLUqeBOKQ0EyHNj1DyGCzEPym10DajCPVqSVdbRKHuUTxXeXvYFuaV2YWzmAvaUlNM3TwUfOcS7dXdouOVBKj6BGIMzU_mGVmOPi7LrGNUGpvkJR1H0_cTSIMT1EyKLt2IoExu_DsMZhWByHWcuKv9EV1YXO7a8jZ9ZbKhsxprLjGjGM_wv0r8exu9I4b-AnoZTFWHwkB6q2PskRrM_PV_PaKFRWpsWvWKRr2291vrWorwXzidXIc9oAUc0wN9KSCCqZ1XPsE2NWSmGBIsRC9icaQyioweTQBPUDgbqz_YcFgjx7rgBH2fGi77W8DgsuhWP6efQMQJVI5b12pfo4ZvuJKjIxj7pjEgghQSQ1Mjm8TqLkIznBSX86pud5eh16kNy0]--></g></svg>