<svg xmlns="http://www.w3.org/2000/svg" xmlns:xlink="http://www.w3.org/1999/xlink" contentStyleType="text/css" data-diagram-type="STATE" height="524px" preserveAspectRatio="none" style="width:325px;height:524px;background:#FFFFFF;" version="1.1" viewBox="0 0 325 524" width="325px" zoomAndPan="magnify"><defs/><g><ellipse cx="123.71" cy="16" fill="#222222" rx="10" ry="10" style="stroke:#222222;stroke-width:1;"/><g id="ListaComunidades"><rect fill="#F1F1F1" height="50" rx="12.5" ry="12.5" style="stroke:#181818;stroke-width:0.5;" width="148.9258" x="49.25" y="87"/><line style="stroke:#181818;stroke-width:0.5;" x1="49.25" x2="198.1758" y1="113.2969" y2="113.2969"/><text fill="#000000" font-family="sans-serif" font-size="14" lengthAdjust="spacing" textLength="128.9258" x="59.25" y="104.9951">ListaComunidades</text></g><g id="DetallesComunidad"><rect fill="#F1F1F1" height="50" rx="12.5" ry="12.5" style="stroke:#181818;stroke-width:0.5;" width="157.1152" x="45.16" y="214"/><line style="stroke:#181818;stroke-width:0.5;" x1="45.16" x2="202.2752" y1="240.2969" y2="240.2969"/><text fill="#000000" font-family="sans-serif" font-size="14" lengthAdjust="spacing" textLength="137.1152" x="55.16" y="231.9951">DetallesComunidad</text></g><g id="Miembro"><rect fill="#F1F1F1" height="50" rx="12.5" ry="12.5" style="stroke:#181818;stroke-width:0.5;" width="81.4277" x="7" y="341"/><line style="stroke:#181818;stroke-width:0.5;" x1="7" x2="88.4277" y1="367.2969" y2="367.2969"/><text fill="#000000" font-family="sans-serif" font-size="14" lengthAdjust="spacing" textLength="61.4277" x="17" y="358.9951">Miembro</text></g><g id="ComunidadAbandanoda"><rect fill="#F1F1F1" height="50" rx="12.5" ry="12.5" style="stroke:#181818;stroke-width:0.5;" width="188.2529" x="30.59" y="468"/><line style="stroke:#181818;stroke-width:0.5;" x1="30.59" x2="218.8429" y1="494.2969" y2="494.2969"/><text fill="#000000" font-family="sans-serif" font-size="14" lengthAdjust="spacing" textLength="168.2529" x="40.59" y="485.9951">ComunidadAbandanoda</text></g><!--link *start* to ListaComunidades--><g class="link" data-entity-1="*start*" data-entity-2="ListaComunidades" data-source-line="1" data-uid="lnk4" id="link_*start*_ListaComunidades"><path d="M123.71,26.36 C123.71,40.29 123.71,60.95 123.71,80.65" fill="none" id="*start*-to-ListaComunidades" style="stroke:#181818;stroke-width:1;"/><polygon fill="#181818" points="123.71,86.65,127.71,77.65,123.71,81.65,119.71,77.65,123.71,86.65" style="stroke:#181818;stroke-width:1;"/></g><!--link ListaComunidades to DetallesComunidad--><g class="link" data-entity-1="ListaComunidades" data-entity-2="DetallesComunidad" data-source-line="3" data-uid="lnk6" id="link_ListaComunidades_DetallesComunidad"><path d="M50.4,137.38 C28.56,148.94 13.16,164.54 24.71,184 C32.01,196.29 38.0799,202.8156 50.3499,210.3656" fill="none" id="ListaComunidades-to-DetallesComunidad" style="stroke:#181818;stroke-width:1;"/><polygon fill="#181818" points="55.46,213.51,49.8911,205.3867,51.2016,210.8897,45.6986,212.2002,55.46,213.51" style="stroke:#181818;stroke-width:1;"/><text fill="#000000" font-family="sans-serif" font-size="13" lengthAdjust="spacing" textLength="151.728" x="25.71" y="180.0669">Seleccionar comunidad</text></g><!--link DetallesComunidad to ListaComunidades--><g class="link" data-entity-1="DetallesComunidad" data-entity-2="ListaComunidades" data-source-line="5" data-uid="lnk9" id="link_DetallesComunidad_ListaComunidades"><path d="M159.01,213.65 C168.14,205.4 176.77,195.35 181.71,184 C189.27,166.63 181.8429,153.9544 166.8329,141.2044" fill="none" id="DetallesComunidad-to-ListaComunidades" style="stroke:#181818;stroke-width:1;"/><polygon fill="#181818" points="162.26,137.32,166.5298,146.1952,166.0708,140.557,171.709,140.098,162.26,137.32" style="stroke:#181818;stroke-width:1;"/><text fill="#000000" font-family="sans-serif" font-size="13" lengthAdjust="spacing" textLength="104.603" x="185.71" y="180.0669">Volver al listado</text></g><!--link DetallesComunidad to Miembro--><g class="link" data-entity-1="DetallesComunidad" data-entity-2="Miembro" data-source-line="4" data-uid="lnk8" id="link_DetallesComunidad_Miembro"><path d="M71.6,264.4 C60.43,272.21 50.08,282.01 43.71,294 C36.18,308.17 36.1195,320.3834 39.0795,334.7534" fill="none" id="DetallesComunidad-to-Miembro" style="stroke:#181818;stroke-width:1;"/><polygon fill="#181818" points="40.29,340.63,42.392,331.0081,39.2813,335.7328,34.5565,332.6221,40.29,340.63" style="stroke:#181818;stroke-width:1;"/><text fill="#000000" font-family="sans-serif" font-size="13" lengthAdjust="spacing" textLength="130.0381" x="44.71" y="307.0669">Unirse a comunidad</text></g><!--link Miembro to ComunidadAbandanoda--><g class="link" data-entity-1="Miembro" data-entity-2="ComunidadAbandanoda" data-source-line="6" data-uid="lnk11" id="link_Miembro_ComunidadAbandanoda"><path d="M41.82,391.35 C39.65,405.72 39.28,423.8 46.71,438 C52.98,449.96 58.3501,456.3231 69.3901,464.1731" fill="none" id="Miembro-to-ComunidadAbandanoda" style="stroke:#181818;stroke-width:1;"/><polygon fill="#181818" points="74.28,467.65,69.2632,459.1747,70.2051,464.7525,64.6272,465.6945,74.28,467.65" style="stroke:#181818;stroke-width:1;"/><text fill="#000000" font-family="sans-serif" font-size="13" lengthAdjust="spacing" textLength="127.0991" x="47.71" y="434.0669">Dejar la comunidad</text></g><!--link ComunidadAbandanoda to DetallesComunidad--><g class="link" data-entity-1="ComunidadAbandanoda" data-entity-2="DetallesComunidad" data-source-line="7" data-uid="lnk12" id="link_ComunidadAbandanoda_DetallesComunidad"><path d="M157.93,467.61 C166.69,459.3 175,449.23 179.71,438 C204.48,378.98 204.74,352.9 179.71,294 C174.91,282.69 170.8253,276.695 161.9153,268.375" fill="none" id="ComunidadAbandanoda-to-DetallesComunidad" style="stroke:#181818;stroke-width:1;"/><polygon fill="#181818" points="157.53,264.28,161.378,273.346,161.1845,267.6925,166.838,267.4989,157.53,264.28" style="stroke:#181818;stroke-width:1;"/><text fill="#000000" font-family="sans-serif" font-size="13" lengthAdjust="spacing" textLength="117.5142" x="199.71" y="370.5669">Salida confirmada</text></g><!--SRC=[XO-_2i9038VtUuhCGb-WWo1sr4bq4OVq4Y6I9d1NVNxlX1QnYbluvVlovxowGDEiOITvnAqFTnD2uXp2P_B2EXvHbVESGmi7LevHt311dFAm9Ak_5nxwvCKwcgJCW7-LnHqjd5mVd00Lj3R9mpIt2ZExwT48pGcBq_6jtAVl-xw1Fvz4BLMHxIffGC8d]--></g></svg>