<svg xmlns="http://www.w3.org/2000/svg" xmlns:xlink="http://www.w3.org/1999/xlink" contentStyleType="text/css" data-diagram-type="STATE" height="416px" preserveAspectRatio="none" style="width:546px;height:416px;background:#FFFFFF;" version="1.1" viewBox="0 0 546 416" width="546px" zoomAndPan="magnify"><title>Funciones dentro de "Publicaciones"</title><defs/><g><g class="title" data-source-line="1"><text fill="#000000" font-family="sans-serif" font-size="14" font-weight="bold" lengthAdjust="spacing" textLength="289.5361" x="121.4669" y="22.9951">Funciones dentro de "Publicaciones"</text></g><path d="M125.68,44.2969 L447.26,44.2969 A12.5,12.5 0 0 1 459.76,56.7969 L459.76,70.5938 L113.18,70.5938 L113.18,56.7969 A12.5,12.5 0 0 1 125.68,44.2969" fill="#F1F1F1"/><rect fill="none" height="239.2969" rx="12.5" ry="12.5" style="stroke:#181818;stroke-width:0.5;" width="346.58" x="113.18" y="44.2969"/><line style="stroke:#181818;stroke-width:0.5;" x1="113.18" x2="459.76" y1="70.5938" y2="70.5938"/><text fill="#000000" font-family="sans-serif" font-size="14" lengthAdjust="spacing" textLength="95.1904" x="238.8748" y="62.292">Publicaciones</text><ellipse cx="330.76" cy="91.5938" fill="#222222" rx="10" ry="10" style="stroke:#222222;stroke-width:1;"/><g id="Publicaciones.Selecci.n"><rect fill="#F1F1F1" height="50" rx="12.5" ry="12.5" style="stroke:#181818;stroke-width:0.5;" width="86.7256" x="287.39" y="137.5938"/><line style="stroke:#181818;stroke-width:0.5;" x1="287.39" x2="374.1156" y1="163.8906" y2="163.8906"/><text fill="#000000" font-family="sans-serif" font-size="14" lengthAdjust="spacing" textLength="66.7256" x="297.39" y="155.5889">Selecci&#243;n</text></g><g id="Publicaciones.EliminarPost"><rect fill="#F1F1F1" height="50" rx="12.5" ry="12.5" style="stroke:#181818;stroke-width:0.5;" width="107.1514" x="125.18" y="223.5938"/><line style="stroke:#181818;stroke-width:0.5;" x1="125.18" x2="232.3314" y1="249.8906" y2="249.8906"/><text fill="#000000" font-family="sans-serif" font-size="14" lengthAdjust="spacing" textLength="87.1514" x="135.18" y="241.5889">EliminarPost</text></g><g id="Publicaciones.RevisarComentarios"><rect fill="#F1F1F1" height="50" rx="12.5" ry="12.5" style="stroke:#181818;stroke-width:0.5;" width="161.1826" x="250.16" y="223.5938"/><line style="stroke:#181818;stroke-width:0.5;" x1="250.16" x2="411.3426" y1="249.8906" y2="249.8906"/><text fill="#000000" font-family="sans-serif" font-size="14" lengthAdjust="spacing" textLength="141.1826" x="260.16" y="241.5889">RevisarComentarios</text></g><ellipse cx="440.76" cy="248.5938" fill="none" rx="11" ry="11" style="stroke:#222222;stroke-width:1;"/><ellipse cx="440.76" cy="248.5938" fill="#222222" rx="6" ry="6" style="stroke:#222222;stroke-width:1;"/><!--link *start*Publicaciones to Selecci?n--><g class="link" data-entity-1=".start.Publicaciones" data-entity-2="Selecci.n" data-source-line="4" data-uid="lnk4" id="link_.start.Publicaciones_Selecci.n"><path d="M330.76,101.9038 C330.76,110.9438 330.76,119.0838 330.76,131.3238" fill="none" id="*start*Publicaciones-to-Selecci&#243;n" style="stroke:#181818;stroke-width:1;"/><polygon fill="#181818" points="330.76,137.3238,334.76,128.3238,330.76,132.3238,326.76,128.3238,330.76,137.3238" style="stroke:#181818;stroke-width:1;"/></g><!--link Selecci?n to EliminarPost--><g class="link" data-entity-1="Selecci.n" data-entity-2="EliminarPost" data-source-line="5" data-uid="lnk6" id="link_Selecci.n_EliminarPost"><path d="M287.27,184.3538 C264.98,196.1137 243.3633,207.8962 221.9233,220.2062" fill="none" id="Selecci&#243;n-to-EliminarPost" style="stroke:#181818;stroke-width:1;"/><polygon fill="#181818" points="216.72,223.1938,226.5167,222.1813,221.0561,220.7041,222.5333,215.2436,216.72,223.1938" style="stroke:#181818;stroke-width:1;"/></g><!--link Selecci?n to RevisarComentarios--><g class="link" data-entity-1="Selecci.n" data-entity-2="RevisarComentarios" data-source-line="6" data-uid="lnk8" id="link_Selecci.n_RevisarComentarios"><path d="M324.57,187.8938 C323.82,199.0338 323.417,206.2273 324.167,217.3673" fill="none" id="Selecci&#243;n-to-RevisarComentarios" style="stroke:#181818;stroke-width:1;"/><polygon fill="#181818" points="324.57,223.3538,327.9564,214.1054,324.2341,218.365,319.9745,214.6428,324.57,223.3538" style="stroke:#181818;stroke-width:1;"/></g><!--link EliminarPost to Selecci?n--><g class="link" data-entity-1="EliminarPost" data-entity-2="Selecci.n" data-source-line="7" data-uid="lnk9" id="link_EliminarPost_Selecci.n"><path d="M229.08,223.2038 C249.92,212.1038 268.4457,201.9696 287.7757,190.8796" fill="none" id="EliminarPost-to-Selecci&#243;n" style="stroke:#181818;stroke-width:1;"/><polygon fill="#181818" points="292.98,187.8938,283.183,188.9029,288.6431,190.3819,287.1641,195.842,292.98,187.8938" style="stroke:#181818;stroke-width:1;"/></g><!--link RevisarComentarios to Selecci?n--><g class="link" data-entity-1="RevisarComentarios" data-entity-2="Selecci.n" data-source-line="8" data-uid="lnk10" id="link_RevisarComentarios_Selecci.n"><path d="M336.94,223.3538 C337.69,212.2138 338.093,205.0202 337.343,193.8802" fill="none" id="RevisarComentarios-to-Selecci&#243;n" style="stroke:#181818;stroke-width:1;"/><polygon fill="#181818" points="336.94,187.8938,333.5536,197.1421,337.2759,192.8825,341.5355,196.6047,336.94,187.8938" style="stroke:#181818;stroke-width:1;"/></g><!--link Selecci?n to *end*Publicaciones--><g class="link" data-entity-1="Selecci.n" data-entity-2=".end.Publicaciones" data-source-line="9" data-uid="lnk12" id="link_Selecci.n_.end.Publicaciones"><path d="M372.45,187.8338 C388.31,197.9538 406.09,210.4138 420.76,223.5938 C425.92,228.2338 427.2698,229.4718 430.9798,234.3118" fill="none" id="Selecci&#243;n-to-*end*Publicaciones" style="stroke:#181818;stroke-width:1;"/><polygon fill="#181818" points="434.63,239.0738,432.3294,229.4974,431.5882,235.1055,425.9801,234.3643,434.63,239.0738" style="stroke:#181818;stroke-width:1;"/></g><g id="Reportes"><rect fill="#F1F1F1" height="50" rx="12.5" ry="12.5" style="stroke:#181818;stroke-width:0.5;" width="82.9453" x="7" y="360.5969"/><line style="stroke:#181818;stroke-width:0.5;" x1="7" x2="89.9453" y1="386.8938" y2="386.8938"/><text fill="#000000" font-family="sans-serif" font-size="14" lengthAdjust="spacing" textLength="62.9453" x="17" y="378.592">Reportes</text></g><g id="Usuarios"><rect fill="#F1F1F1" height="50" rx="12.5" ry="12.5" style="stroke:#181818;stroke-width:0.5;" width="80.498" x="125.22" y="360.5969"/><line style="stroke:#181818;stroke-width:0.5;" x1="125.22" x2="205.718" y1="386.8938" y2="386.8938"/><text fill="#000000" font-family="sans-serif" font-size="14" lengthAdjust="spacing" textLength="60.498" x="135.22" y="378.592">Usuarios</text></g><g id="Aplicacion"><rect fill="#F1F1F1" height="50" rx="12.5" ry="12.5" style="stroke:#181818;stroke-width:0.5;" width="91.5449" x="240.7" y="360.5969"/><line style="stroke:#181818;stroke-width:0.5;" x1="240.7" x2="332.2449" y1="386.8938" y2="386.8938"/><text fill="#000000" font-family="sans-serif" font-size="14" lengthAdjust="spacing" textLength="71.5449" x="250.7" y="378.592">Aplicacion</text></g><g id="Comunidades"><rect fill="#F1F1F1" height="50" rx="12.5" ry="12.5" style="stroke:#181818;stroke-width:0.5;" width="115.874" x="367.54" y="360.5969"/><line style="stroke:#181818;stroke-width:0.5;" x1="367.54" x2="483.414" y1="386.8938" y2="386.8938"/><text fill="#000000" font-family="sans-serif" font-size="14" lengthAdjust="spacing" textLength="95.874" x="377.54" y="378.592">Comunidades</text></g><ellipse cx="529.47" cy="385.5969" fill="none" rx="11" ry="11" style="stroke:#222222;stroke-width:1;"/><ellipse cx="529.47" cy="385.5969" fill="#222222" rx="6" ry="6" style="stroke:#222222;stroke-width:1;"/><!--link Publicaciones to Reportes--><g class="link" data-entity-1="Publicaciones" data-entity-2="Reportes" data-source-line="12" data-uid="lnk14" id="link_Publicaciones_Reportes"><path d="M157.37,284.0969 C125.9,313.1369 99.7897,337.2382 79.0997,356.3282" fill="none" id="Publicaciones-to-Reportes" style="stroke:#181818;stroke-width:1;"/><polygon fill="#181818" points="74.69,360.3969,84.0171,357.2336,78.3648,357.0063,78.5921,351.354,74.69,360.3969" style="stroke:#181818;stroke-width:1;"/></g><!--link Publicaciones to Usuarios--><g class="link" data-entity-1="Publicaciones" data-entity-2="Usuarios" data-source-line="13" data-uid="lnk16" id="link_Publicaciones_Usuarios"><path d="M220.84,284.0969 C204.84,313.1369 192.2158,336.052 181.6958,355.142" fill="none" id="Publicaciones-to-Usuarios" style="stroke:#181818;stroke-width:1;"/><polygon fill="#181818" points="178.8,360.3969,186.647,354.4451,181.2132,356.0178,179.6405,350.5839,178.8,360.3969" style="stroke:#181818;stroke-width:1;"/></g><!--link Publicaciones to Aplicacion--><g class="link" data-entity-1="Publicaciones" data-entity-2="Aplicacion" data-source-line="14" data-uid="lnk18" id="link_Publicaciones_Aplicacion"><path d="M286.47,284.0969 C286.47,313.1369 286.47,335.3069 286.47,354.3969" fill="none" id="Publicaciones-to-Aplicacion" style="stroke:#181818;stroke-width:1;"/><polygon fill="#181818" points="286.47,360.3969,290.47,351.3969,286.47,355.3969,282.47,351.3969,286.47,360.3969" style="stroke:#181818;stroke-width:1;"/></g><!--link Publicaciones to Comunidades--><g class="link" data-entity-1="Publicaciones" data-entity-2="Comunidades" data-source-line="15" data-uid="lnk20" id="link_Publicaciones_Comunidades"><path d="M361.87,284.0969 C380.25,313.1369 394.8716,336.2367 406.9516,355.3267" fill="none" id="Publicaciones-to-Comunidades" style="stroke:#181818;stroke-width:1;"/><polygon fill="#181818" points="410.16,360.3969,408.7276,350.6527,407.4864,356.1717,401.9674,354.9305,410.16,360.3969" style="stroke:#181818;stroke-width:1;"/></g><!--link Publicaciones to *end*--><g class="link" data-entity-1="Publicaciones" data-entity-2=".end." data-source-line="16" data-uid="lnk22" id="link_Publicaciones_.end."><path d="M418.28,284.0969 C462.24,323.8269 499.9392,357.9032 517.0292,373.3532" fill="none" id="Publicaciones-to-*end*" style="stroke:#181818;stroke-width:1;"/><polygon fill="#181818" points="521.48,377.3769,517.4862,368.3741,517.771,374.0238,512.1213,374.3085,521.48,377.3769" style="stroke:#181818;stroke-width:1;"/><text fill="#000000" font-family="sans-serif" font-size="13" lengthAdjust="spacing" textLength="48.8706" x="465.47" y="326.6638">Log out</text></g><!--SRC=[XP0z2W9138NxEKMm5FO25eA8LXQBOYKMusoGmEnacMHin5Dv12_cw2Awp89LoFloyn8bzGZh51nnG846WqRE0IPrEdbojWSJOqIj8WnKk1g0m_G8LJM77NfqZXxtaCLlycOhJoq56siMBUaMBoGsBhdDssqabbppsrBEBrl-UiW-pSsOuG7z-ewZeeoWlQJUJuaMtKSOWTbN2jJOPdJgwsCpsF0PEEaJ]--></g></svg>