<svg xmlns="http://www.w3.org/2000/svg" xmlns:xlink="http://www.w3.org/1999/xlink" contentStyleType="text/css" data-diagram-type="STATE" height="399px" preserveAspectRatio="none" style="width:578px;height:399px;background:#FFFFFF;" version="1.1" viewBox="0 0 578 399" width="578px" zoomAndPan="magnify"><title>Funciones dentro de "Reportes"</title><defs/><g><g class="title" data-source-line="1"><text fill="#000000" font-family="sans-serif" font-size="14" font-weight="bold" lengthAdjust="spacing" textLength="252.7725" x="155.9138" y="22.9951">Funciones dentro de "Reportes"</text></g><path d="M229.18,44.2969 L408.02,44.2969 A12.5,12.5 0 0 1 420.52,56.7969 L420.52,70.5938 L216.68,70.5938 L216.68,56.7969 A12.5,12.5 0 0 1 229.18,44.2969" fill="#F1F1F1"/><rect fill="none" height="239.2969" rx="12.5" ry="12.5" style="stroke:#181818;stroke-width:0.5;" width="203.84" x="216.68" y="44.2969"/><line style="stroke:#181818;stroke-width:0.5;" x1="216.68" x2="420.52" y1="70.5938" y2="70.5938"/><text fill="#000000" font-family="sans-serif" font-size="14" lengthAdjust="spacing" textLength="62.9453" x="287.1273" y="62.292">Reportes</text><ellipse cx="300.52" cy="91.5938" fill="#222222" rx="10" ry="10" style="stroke:#222222;stroke-width:1;"/><g id="Reportes.Selecci.n"><rect fill="#F1F1F1" height="50" rx="12.5" ry="12.5" style="stroke:#181818;stroke-width:0.5;" width="86.7256" x="257.16" y="137.5938"/><line style="stroke:#181818;stroke-width:0.5;" x1="257.16" x2="343.8856" y1="163.8906" y2="163.8906"/><text fill="#000000" font-family="sans-serif" font-size="14" lengthAdjust="spacing" textLength="66.7256" x="267.16" y="155.5889">Selecci&#243;n</text></g><g id="Reportes.RevisarContenido"><rect fill="#F1F1F1" height="50" rx="12.5" ry="12.5" style="stroke:#181818;stroke-width:0.5;" width="143.6758" x="228.68" y="223.5938"/><line style="stroke:#181818;stroke-width:0.5;" x1="228.68" x2="372.3558" y1="249.8906" y2="249.8906"/><text fill="#000000" font-family="sans-serif" font-size="14" lengthAdjust="spacing" textLength="123.6758" x="238.68" y="241.5889">RevisarContenido</text></g><ellipse cx="401.52" cy="248.5938" fill="none" rx="11" ry="11" style="stroke:#222222;stroke-width:1;"/><ellipse cx="401.52" cy="248.5938" fill="#222222" rx="6" ry="6" style="stroke:#222222;stroke-width:1;"/><!--link *start*Reportes to Selecci?n--><g class="link" data-entity-1=".start.Reportes" data-entity-2="Selecci.n" data-source-line="4" data-uid="lnk4" id="link_.start.Reportes_Selecci.n"><path d="M300.52,101.9038 C300.52,110.9438 300.52,119.0838 300.52,131.3238" fill="none" id="*start*Reportes-to-Selecci&#243;n" style="stroke:#181818;stroke-width:1;"/><polygon fill="#181818" points="300.52,137.3238,304.52,128.3238,300.52,132.3238,296.52,128.3238,300.52,137.3238" style="stroke:#181818;stroke-width:1;"/></g><!--link Selecci?n to RevisarContenido--><g class="link" data-entity-1="Selecci.n" data-entity-2="RevisarContenido" data-source-line="5" data-uid="lnk6" id="link_Selecci.n_RevisarContenido"><path d="M294.33,187.8938 C293.58,199.0338 293.1716,206.2277 293.9316,217.3677" fill="none" id="Selecci&#243;n-to-RevisarContenido" style="stroke:#181818;stroke-width:1;"/><polygon fill="#181818" points="294.34,223.3538,297.7181,214.1024,293.9997,218.3653,289.7367,214.6469,294.34,223.3538" style="stroke:#181818;stroke-width:1;"/></g><!--link RevisarContenido to Selecci?n--><g class="link" data-entity-1="RevisarContenido" data-entity-2="Selecci.n" data-source-line="6" data-uid="lnk7" id="link_RevisarContenido_Selecci.n"><path d="M306.7,223.3538 C307.46,212.2138 307.8684,205.0198 307.1084,193.8798" fill="none" id="RevisarContenido-to-Selecci&#243;n" style="stroke:#181818;stroke-width:1;"/><polygon fill="#181818" points="306.7,187.8938,303.3219,197.1451,307.0403,192.8822,311.3033,196.6006,306.7,187.8938" style="stroke:#181818;stroke-width:1;"/></g><!--link Selecci?n to *end*Reportes--><g class="link" data-entity-1="Selecci.n" data-entity-2=".end.Reportes" data-source-line="7" data-uid="lnk9" id="link_Selecci.n_.end.Reportes"><path d="M337.06,187.8438 C351.52,198.1438 367.9,210.7338 381.52,223.5938 C386.57,228.3638 387.8932,229.6223 391.6232,234.4323" fill="none" id="Selecci&#243;n-to-*end*Reportes" style="stroke:#181818;stroke-width:1;"/><polygon fill="#181818" points="395.3,239.1737,392.9457,229.6104,392.236,235.2226,386.6238,234.5128,395.3,239.1737" style="stroke:#181818;stroke-width:1;"/></g><g id="Publicaciones"><rect fill="#F1F1F1" height="50" rx="12.5" ry="12.5" style="stroke:#181818;stroke-width:0.5;" width="115.1904" x="7" y="343.5969"/><line style="stroke:#181818;stroke-width:0.5;" x1="7" x2="122.1904" y1="369.8938" y2="369.8938"/><text fill="#000000" font-family="sans-serif" font-size="14" lengthAdjust="spacing" textLength="95.1904" x="17" y="361.592">Publicaciones</text></g><g id="Usuarios"><rect fill="#F1F1F1" height="50" rx="12.5" ry="12.5" style="stroke:#181818;stroke-width:0.5;" width="80.498" x="157.35" y="343.5969"/><line style="stroke:#181818;stroke-width:0.5;" x1="157.35" x2="237.848" y1="369.8938" y2="369.8938"/><text fill="#000000" font-family="sans-serif" font-size="14" lengthAdjust="spacing" textLength="60.498" x="167.35" y="361.592">Usuarios</text></g><g id="Aplicacion"><rect fill="#F1F1F1" height="50" rx="12.5" ry="12.5" style="stroke:#181818;stroke-width:0.5;" width="91.5449" x="272.82" y="343.5969"/><line style="stroke:#181818;stroke-width:0.5;" x1="272.82" x2="364.3649" y1="369.8938" y2="369.8938"/><text fill="#000000" font-family="sans-serif" font-size="14" lengthAdjust="spacing" textLength="71.5449" x="282.82" y="361.592">Aplicacion</text></g><g id="Comunidades"><rect fill="#F1F1F1" height="50" rx="12.5" ry="12.5" style="stroke:#181818;stroke-width:0.5;" width="115.874" x="399.66" y="343.5969"/><line style="stroke:#181818;stroke-width:0.5;" x1="399.66" x2="515.534" y1="369.8938" y2="369.8938"/><text fill="#000000" font-family="sans-serif" font-size="14" lengthAdjust="spacing" textLength="95.874" x="409.66" y="361.592">Comunidades</text></g><ellipse cx="561.6" cy="368.5969" fill="none" rx="11" ry="11" style="stroke:#222222;stroke-width:1;"/><ellipse cx="561.6" cy="368.5969" fill="#222222" rx="6" ry="6" style="stroke:#222222;stroke-width:1;"/><!--link Reportes to Publicaciones--><g class="link" data-entity-1="Reportes" data-entity-2="Publicaciones" data-source-line="10" data-uid="lnk11" id="link_Reportes_Publicaciones"><path d="M216.38,246.4969 C172.82,281.2469 129.9002,315.495 99.8302,339.485" fill="none" id="Reportes-to-Publicaciones" style="stroke:#181818;stroke-width:1;"/><polygon fill="#181818" points="95.14,343.2269,104.6699,340.7409,99.0485,340.1086,99.6808,334.4872,95.14,343.2269" style="stroke:#181818;stroke-width:1;"/></g><!--link Reportes to Usuarios--><g class="link" data-entity-1="Reportes" data-entity-2="Usuarios" data-source-line="11" data-uid="lnk13" id="link_Reportes_Usuarios"><path d="M247.51,284.0069 C234.03,306.5769 224.3577,322.7863 215.1077,338.2663" fill="none" id="Reportes-to-Usuarios" style="stroke:#181818;stroke-width:1;"/><polygon fill="#181818" points="212.03,343.4169,220.0802,337.7429,214.5947,339.1248,213.2128,333.6393,212.03,343.4169" style="stroke:#181818;stroke-width:1;"/></g><!--link Reportes to Aplicacion--><g class="link" data-entity-1="Reportes" data-entity-2="Aplicacion" data-source-line="12" data-uid="lnk15" id="link_Reportes_Aplicacion"><path d="M318.6,284.0069 C318.6,306.5769 318.6,321.9369 318.6,337.4169" fill="none" id="Reportes-to-Aplicacion" style="stroke:#181818;stroke-width:1;"/><polygon fill="#181818" points="318.6,343.4169,322.6,334.4169,318.6,338.4169,314.6,334.4169,318.6,343.4169" style="stroke:#181818;stroke-width:1;"/></g><!--link Reportes to Comunidades--><g class="link" data-entity-1="Reportes" data-entity-2="Comunidades" data-source-line="13" data-uid="lnk17" id="link_Reportes_Comunidades"><path d="M400.26,284.0069 C415.74,306.5769 426.9957,322.9893 437.6157,338.4693" fill="none" id="Reportes-to-Comunidades" style="stroke:#181818;stroke-width:1;"/><polygon fill="#181818" points="441.01,343.4169,439.217,333.7326,438.1814,339.2939,432.6202,338.2583,441.01,343.4169" style="stroke:#181818;stroke-width:1;"/></g><!--link Reportes to *end*--><g class="link" data-entity-1="Reportes" data-entity-2=".end." data-source-line="14" data-uid="lnk19" id="link_Reportes_.end."><path d="M420.94,250.3069 C474.12,294.6469 527.723,339.343 548.793,356.923" fill="none" id="Reportes-to-*end*" style="stroke:#181818;stroke-width:1;"/><polygon fill="#181818" points="553.4,360.7669,549.0521,351.9297,549.5608,357.5636,543.9269,358.0724,553.4,360.7669" style="stroke:#181818;stroke-width:1;"/></g><!--SRC=[XOun2W9134NxEKNOKjWh2B9WBIjMOZ7Ef0YioJAJiLaybKVmOaPbbPt6AkJzp_zVIGU4RU50mfWX8ciIEz3qE4fIp8rpMRqYp00c1t1SdQ1jrx370KEWnvqD_fwtrkELia-Ti29J57FKw6-6zRYRSz_k5zkLyq31VoOlfKCkFf5KT3FE_YNlv59iXOzrZBK-0G00]--></g></svg>