<svg xmlns="http://www.w3.org/2000/svg" xmlns:xlink="http://www.w3.org/1999/xlink" contentStyleType="text/css" data-diagram-type="STATE" height="399px" preserveAspectRatio="none" style="width:569px;height:399px;background:#FFFFFF;" version="1.1" viewBox="0 0 569 399" width="569px" zoomAndPan="magnify"><title>Funciones dentro de "Aplicaci&#243;n"</title><defs/><g><g class="title" data-source-line="1"><text fill="#000000" font-family="sans-serif" font-size="14" font-weight="bold" lengthAdjust="spacing" textLength="262.3154" x="146.6423" y="22.9951">Funciones dentro de "Aplicaci&#243;n"</text></g><path d="M178.92,44.2969 L452.27,44.2969 A12.5,12.5 0 0 1 464.77,56.7969 L464.77,70.5938 L166.42,70.5938 L166.42,56.7969 A12.5,12.5 0 0 1 178.92,44.2969" fill="#F1F1F1"/><rect fill="none" height="239.2969" rx="12.5" ry="12.5" style="stroke:#181818;stroke-width:0.5;" width="298.35" x="166.42" y="44.2969"/><line style="stroke:#181818;stroke-width:0.5;" x1="166.42" x2="464.77" y1="70.5938" y2="70.5938"/><text fill="#000000" font-family="sans-serif" font-size="14" lengthAdjust="spacing" textLength="71.5449" x="279.8225" y="62.292">Aplicacion</text><ellipse cx="297.77" cy="91.5938" fill="#222222" rx="10" ry="10" style="stroke:#222222;stroke-width:1;"/><g id="Aplicacion.Selecci.n"><rect fill="#F1F1F1" height="50" rx="12.5" ry="12.5" style="stroke:#181818;stroke-width:0.5;" width="86.7256" x="254.41" y="137.5938"/><line style="stroke:#181818;stroke-width:0.5;" x1="254.41" x2="341.1356" y1="163.8906" y2="163.8906"/><text fill="#000000" font-family="sans-serif" font-size="14" lengthAdjust="spacing" textLength="66.7256" x="264.41" y="155.5889">Selecci&#243;n</text></g><g id="Aplicacion.BloquearPalabrasOExpresiones"><rect fill="#F1F1F1" height="50" rx="12.5" ry="12.5" style="stroke:#181818;stroke-width:0.5;" width="238.709" x="178.42" y="223.5938"/><line style="stroke:#181818;stroke-width:0.5;" x1="178.42" x2="417.129" y1="249.8906" y2="249.8906"/><text fill="#000000" font-family="sans-serif" font-size="14" lengthAdjust="spacing" textLength="218.709" x="188.42" y="241.5889">BloquearPalabrasOExpresiones</text></g><ellipse cx="445.77" cy="248.5938" fill="none" rx="11" ry="11" style="stroke:#222222;stroke-width:1;"/><ellipse cx="445.77" cy="248.5938" fill="#222222" rx="6" ry="6" style="stroke:#222222;stroke-width:1;"/><!--link *start*Aplicacion to Selecci?n--><g class="link" data-entity-1=".start.Aplicacion" data-entity-2="Selecci.n" data-source-line="4" data-uid="lnk4" id="link_.start.Aplicacion_Selecci.n"><path d="M297.77,101.9038 C297.77,110.9438 297.77,119.0838 297.77,131.3238" fill="none" id="*start*Aplicacion-to-Selecci&#243;n" style="stroke:#181818;stroke-width:1;"/><polygon fill="#181818" points="297.77,137.3238,301.77,128.3238,297.77,132.3238,293.77,128.3238,297.77,137.3238" style="stroke:#181818;stroke-width:1;"/></g><!--link Selecci?n to BloquearPalabrasOExpresiones--><g class="link" data-entity-1="Selecci.n" data-entity-2="BloquearPalabrasOExpresiones" data-source-line="5" data-uid="lnk6" id="link_Selecci.n_BloquearPalabrasOExpresiones"><path d="M291.59,187.8938 C290.84,199.0338 290.437,206.2273 291.187,217.3673" fill="none" id="Selecci&#243;n-to-BloquearPalabrasOExpresiones" style="stroke:#181818;stroke-width:1;"/><polygon fill="#181818" points="291.59,223.3538,294.9764,214.1054,291.2541,218.365,286.9945,214.6428,291.59,223.3538" style="stroke:#181818;stroke-width:1;"/></g><!--link BloquearPalabrasOExpresiones to Selecci?n--><g class="link" data-entity-1="BloquearPalabrasOExpresiones" data-entity-2="Selecci.n" data-source-line="6" data-uid="lnk7" id="link_BloquearPalabrasOExpresiones_Selecci.n"><path d="M303.96,223.3538 C304.71,212.2138 305.113,205.0202 304.363,193.8802" fill="none" id="BloquearPalabrasOExpresiones-to-Selecci&#243;n" style="stroke:#181818;stroke-width:1;"/><polygon fill="#181818" points="303.96,187.8938,300.5736,197.1421,304.2959,192.8825,308.5555,196.6047,303.96,187.8938" style="stroke:#181818;stroke-width:1;"/></g><!--link Selecci?n to *end*Aplicacion--><g class="link" data-entity-1="Selecci.n" data-entity-2=".end.Aplicacion" data-source-line="8" data-uid="lnk9" id="link_Selecci.n_.end.Aplicacion"><path d="M341.62,178.6038 C367.65,188.8138 400.42,204.0238 425.77,223.5938 C431.27,227.8338 432.7172,228.9987 436.3472,233.9387" fill="none" id="Selecci&#243;n-to-*end*Aplicacion" style="stroke:#181818;stroke-width:1;"/><polygon fill="#181818" points="439.9,238.7738,437.7941,229.1527,436.9393,234.7446,431.3474,233.8898,439.9,238.7738" style="stroke:#181818;stroke-width:1;"/></g><g id="Publicaciones"><rect fill="#F1F1F1" height="50" rx="12.5" ry="12.5" style="stroke:#181818;stroke-width:0.5;" width="115.1904" x="7" y="343.5969"/><line style="stroke:#181818;stroke-width:0.5;" x1="7" x2="122.1904" y1="369.8938" y2="369.8938"/><text fill="#000000" font-family="sans-serif" font-size="14" lengthAdjust="spacing" textLength="95.1904" x="17" y="361.592">Publicaciones</text></g><g id="Reportes"><rect fill="#F1F1F1" height="50" rx="12.5" ry="12.5" style="stroke:#181818;stroke-width:0.5;" width="82.9453" x="157.12" y="343.5969"/><line style="stroke:#181818;stroke-width:0.5;" x1="157.12" x2="240.0653" y1="369.8938" y2="369.8938"/><text fill="#000000" font-family="sans-serif" font-size="14" lengthAdjust="spacing" textLength="62.9453" x="167.12" y="361.592">Reportes</text></g><g id="Usuarios"><rect fill="#F1F1F1" height="50" rx="12.5" ry="12.5" style="stroke:#181818;stroke-width:0.5;" width="80.498" x="275.35" y="343.5969"/><line style="stroke:#181818;stroke-width:0.5;" x1="275.35" x2="355.848" y1="369.8938" y2="369.8938"/><text fill="#000000" font-family="sans-serif" font-size="14" lengthAdjust="spacing" textLength="60.498" x="285.35" y="361.592">Usuarios</text></g><g id="Comunidades"><rect fill="#F1F1F1" height="50" rx="12.5" ry="12.5" style="stroke:#181818;stroke-width:0.5;" width="115.874" x="390.66" y="343.5969"/><line style="stroke:#181818;stroke-width:0.5;" x1="390.66" x2="506.534" y1="369.8938" y2="369.8938"/><text fill="#000000" font-family="sans-serif" font-size="14" lengthAdjust="spacing" textLength="95.874" x="400.66" y="361.592">Comunidades</text></g><ellipse cx="552.6" cy="368.5969" fill="none" rx="11" ry="11" style="stroke:#222222;stroke-width:1;"/><ellipse cx="552.6" cy="368.5969" fill="#222222" rx="6" ry="6" style="stroke:#222222;stroke-width:1;"/><!--link Aplicacion to Publicaciones--><g class="link" data-entity-1="Aplicacion" data-entity-2="Publicaciones" data-source-line="11" data-uid="lnk11" id="link_Aplicacion_Publicaciones"><path d="M168.14,284.0069 C140.18,306.5769 118.3881,324.1674 99.2181,339.6474" fill="none" id="Aplicacion-to-Publicaciones" style="stroke:#181818;stroke-width:1;"/><polygon fill="#181818" points="94.55,343.4169,104.0651,340.8746,98.44,340.2756,99.0391,334.6506,94.55,343.4169" style="stroke:#181818;stroke-width:1;"/></g><!--link Aplicacion to Reportes--><g class="link" data-entity-1="Aplicacion" data-entity-2="Reportes" data-source-line="12" data-uid="lnk13" id="link_Aplicacion_Reportes"><path d="M246.86,284.0069 C233.83,306.5769 224.4881,322.7396 215.5581,338.2196" fill="none" id="Aplicacion-to-Reportes" style="stroke:#181818;stroke-width:1;"/><polygon fill="#181818" points="212.56,343.4169,220.522,337.6198,215.0585,339.0859,213.5924,333.6223,212.56,343.4169" style="stroke:#181818;stroke-width:1;"/></g><!--link Aplicacion to Usuarios--><g class="link" data-entity-1="Aplicacion" data-entity-2="Usuarios" data-source-line="13" data-uid="lnk15" id="link_Aplicacion_Usuarios"><path d="M315.6,284.0069 C315.6,306.5769 315.6,321.9369 315.6,337.4169" fill="none" id="Aplicacion-to-Usuarios" style="stroke:#181818;stroke-width:1;"/><polygon fill="#181818" points="315.6,343.4169,319.6,334.4169,315.6,338.4169,311.6,334.4169,315.6,343.4169" style="stroke:#181818;stroke-width:1;"/></g><!--link Aplicacion to Comunidades--><g class="link" data-entity-1="Aplicacion" data-entity-2="Comunidades" data-source-line="14" data-uid="lnk17" id="link_Aplicacion_Comunidades"><path d="M393.73,284.0069 C408.55,306.5769 419.2678,322.9208 429.4278,338.4008" fill="none" id="Aplicacion-to-Comunidades" style="stroke:#181818;stroke-width:1;"/><polygon fill="#181818" points="432.72,343.4169,431.1257,333.6979,429.9765,339.2368,424.4376,338.0875,432.72,343.4169" style="stroke:#181818;stroke-width:1;"/></g><!--link Aplicacion to *end*--><g class="link" data-entity-1="Aplicacion" data-entity-2=".end." data-source-line="15" data-uid="lnk19" id="link_Aplicacion_.end."><path d="M454.83,284.0069 C493.52,317.0869 524.6101,343.6672 540.0101,356.8372" fill="none" id="Aplicacion-to-*end*" style="stroke:#181818;stroke-width:1;"/><polygon fill="#181818" points="544.57,360.7369,540.3299,351.8475,540.7701,357.4872,535.1304,357.9274,544.57,360.7369" style="stroke:#181818;stroke-width:1;"/></g><!--SRC=[VOvD2W8n38NtEKMOfJ1N45Hqww3CIbnasYmAjHdx0u9uAe_WnQo5GPc2g_2-bxoNQA9bt2MdZ3WEgDb5BtbWingjKQJCw-aQW10fCavC7Du1yRGuOzikySYMLTdCy2kAjxPoJKo-8qk3fx3VtaRFeTJbxN_sFBiEpm_00-3dhG_jqZ3ft34p3poAZpNlGo9lfE8RkIHdDEdw9BU_0G00]--></g></svg>