<svg xmlns="http://www.w3.org/2000/svg" xmlns:xlink="http://www.w3.org/1999/xlink" contentStyleType="text/css" data-diagram-type="STATE" height="464px" preserveAspectRatio="none" style="width:230px;height:464px;background:#FFFFFF;" version="1.1" viewBox="0 0 230 464" width="230px" zoomAndPan="magnify"><defs/><g><ellipse cx="144.45" cy="16" fill="#222222" rx="10" ry="10" style="stroke:#222222;stroke-width:1;"/><g id="Inicio"><rect fill="#F1F1F1" height="50" rx="12.5" ry="12.5" style="stroke:#181818;stroke-width:0.5;" width="57.0439" x="115.92" y="87"/><line style="stroke:#181818;stroke-width:0.5;" x1="115.92" x2="172.9639" y1="113.2969" y2="113.2969"/><text fill="#000000" font-family="sans-serif" font-size="14" lengthAdjust="spacing" textLength="37.0439" x="125.92" y="104.9951">Inicio</text></g><g id="UsuarioRegistrado"><rect fill="#F1F1F1" height="50" rx="12.5" ry="12.5" style="stroke:#181818;stroke-width:0.5;" width="148.8916" x="7" y="198"/><line style="stroke:#181818;stroke-width:0.5;" x1="7" x2="155.8916" y1="224.2969" y2="224.2969"/><text fill="#000000" font-family="sans-serif" font-size="14" lengthAdjust="spacing" textLength="128.8916" x="17" y="215.9951">UsuarioRegistrado</text></g><g id="Moderador"><rect fill="#F1F1F1" height="50" rx="12.5" ry="12.5" style="stroke:#181818;stroke-width:0.5;" width="95.6875" x="127.6" y="309"/><line style="stroke:#181818;stroke-width:0.5;" x1="127.6" x2="223.2875" y1="335.2969" y2="335.2969"/><text fill="#000000" font-family="sans-serif" font-size="14" lengthAdjust="spacing" textLength="75.6875" x="137.6" y="326.9951">Moderador</text></g><ellipse cx="71.45" cy="447" fill="none" rx="11" ry="11" style="stroke:#222222;stroke-width:1;"/><ellipse cx="71.45" cy="447" fill="#222222" rx="6" ry="6" style="stroke:#222222;stroke-width:1;"/><!--link *start* to Inicio--><g class="link" data-entity-1=".start." data-entity-2="Inicio" data-source-line="1" data-uid="lnk4" id="link_.start._Inicio"><path d="M144.45,26.36 C144.45,40.29 144.45,60.95 144.45,80.65" fill="none" id="*start*-to-Inicio" style="stroke:#181818;stroke-width:1;"/><polygon fill="#181818" points="144.45,86.65,148.45,77.65,144.45,81.65,140.45,77.65,144.45,86.65" style="stroke:#181818;stroke-width:1;"/></g><!--link Inicio to UsuarioRegistrado--><g class="link" data-entity-1="Inicio" data-entity-2="UsuarioRegistrado" data-source-line="2" data-uid="lnk6" id="link_Inicio_UsuarioRegistrado"><path d="M130.31,137.46 C119.93,155.41 108.9018,174.4949 98.5418,192.4249" fill="none" id="Inicio-to-UsuarioRegistrado" style="stroke:#181818;stroke-width:1;"/><polygon fill="#181818" points="95.54,197.62,103.5061,191.8285,98.0415,193.2907,96.5792,187.8261,95.54,197.62" style="stroke:#181818;stroke-width:1;"/></g><!--link Inicio to Moderador--><g class="link" data-entity-1="Inicio" data-entity-2="Moderador" data-source-line="3" data-uid="lnk8" id="link_Inicio_Moderador"><path d="M155.05,137.38 C161.75,154.09 169.79,176.95 173.45,198 C180.1,236.34 179.3171,275.7306 177.6971,302.9006" fill="none" id="Inicio-to-Moderador" style="stroke:#181818;stroke-width:1;"/><polygon fill="#181818" points="177.34,308.89,181.8686,300.144,177.6376,303.8989,173.8828,299.6679,177.34,308.89" style="stroke:#181818;stroke-width:1;"/></g><!--link UsuarioRegistrado to Moderador--><g class="link" data-entity-1="UsuarioRegistrado" data-entity-2="Moderador" data-source-line="5" data-uid="lnk9" id="link_UsuarioRegistrado_Moderador"><path d="M91.7,248.46 C104.63,266.41 121.3168,286.458 139.3368,304.388" fill="none" id="UsuarioRegistrado-to-Moderador" style="stroke:#181818;stroke-width:1;"/><polygon fill="#181818" points="143.59,308.62,140.0315,299.4365,140.0456,305.0933,134.3888,305.1075,143.59,308.62" style="stroke:#181818;stroke-width:1;"/></g><!--link Moderador to UsuarioRegistrado--><g class="link" data-entity-1="Moderador" data-entity-2="UsuarioRegistrado" data-source-line="6" data-uid="lnk10" id="link_Moderador_UsuarioRegistrado"><path d="M165.89,308.62 C153.13,290.69 136.4696,270.6255 118.2896,252.6755" fill="none" id="Moderador-to-UsuarioRegistrado" style="stroke:#181818;stroke-width:1;"/><polygon fill="#181818" points="114.02,248.46,117.614,257.6297,117.578,251.973,123.2347,251.9369,114.02,248.46" style="stroke:#181818;stroke-width:1;"/></g><!--link UsuarioRegistrado to *end*--><g class="link" data-entity-1="UsuarioRegistrado" data-entity-2=".end." data-source-line="8" data-uid="lnk12" id="link_UsuarioRegistrado_.end."><path d="M73.79,248.26 C68.88,265.1 62.98,288.18 60.45,309 C54.68,356.37 63.4389,407.4615 68.0689,430.1215" fill="none" id="UsuarioRegistrado-to-*end*" style="stroke:#181818;stroke-width:1;"/><polygon fill="#181818" points="69.27,436,71.3873,426.3814,68.2691,431.1012,63.5493,427.9829,69.27,436" style="stroke:#181818;stroke-width:1;"/><text fill="#000000" font-family="sans-serif" font-size="13" lengthAdjust="spacing" textLength="48.8706" x="61.45" y="338.5669">Log out</text></g><!--link Moderador to *end*--><g class="link" data-entity-1="Moderador" data-entity-2=".end." data-source-line="9" data-uid="lnk13" id="link_Moderador_.end."><path d="M152.62,359.36 C128.94,384.63 97.4329,418.2621 82.5129,434.1821" fill="none" id="Moderador-to-*end*" style="stroke:#181818;stroke-width:1;"/><polygon fill="#181818" points="78.41,438.56,87.483,434.7284,81.8291,434.9117,81.6458,429.2579,78.41,438.56" style="stroke:#181818;stroke-width:1;"/><text fill="#000000" font-family="sans-serif" font-size="13" lengthAdjust="spacing" textLength="48.8706" x="124.45" y="402.0669">Log out</text></g><!--SRC=[YzQALT3LjLFmpCjCpipdWb1WaT3YqiIYpFoWrFJCufAYn1GKIT_yb5IGM14N5uOwD0Lm5WvJSHWG3NIObO9FVhf2Vca9cY4eSW00]--></g></svg>