<svg xmlns="http://www.w3.org/2000/svg" xmlns:xlink="http://www.w3.org/1999/xlink" contentStyleType="text/css" data-diagram-type="STATE" height="399px" preserveAspectRatio="none" style="width:545px;height:399px;background:#FFFFFF;" version="1.1" viewBox="0 0 545 399" width="545px" zoomAndPan="magnify"><title>Funciones dentro de "Comunidades"</title><defs/><g><g class="title" data-source-line="1"><text fill="#000000" font-family="sans-serif" font-size="14" font-weight="bold" lengthAdjust="spacing" textLength="287.9639" x="121.8181" y="22.9951">Funciones dentro de "Comunidades"</text></g><path d="M256.92,44.2969 L374.28,44.2969 A12.5,12.5 0 0 1 386.78,56.7969 L386.78,70.5938 L244.42,70.5938 L244.42,56.7969 A12.5,12.5 0 0 1 256.92,44.2969" fill="#F1F1F1"/><rect fill="none" height="239.2969" rx="12.5" ry="12.5" style="stroke:#181818;stroke-width:0.5;" width="142.36" x="244.42" y="44.2969"/><line style="stroke:#181818;stroke-width:0.5;" x1="244.42" x2="386.78" y1="70.5938" y2="70.5938"/><text fill="#000000" font-family="sans-serif" font-size="14" lengthAdjust="spacing" textLength="95.874" x="267.663" y="62.292">Comunidades</text><ellipse cx="299.78" cy="91.5938" fill="#222222" rx="10" ry="10" style="stroke:#222222;stroke-width:1;"/><g id="Comunidades.Selecci.n"><rect fill="#F1F1F1" height="50" rx="12.5" ry="12.5" style="stroke:#181818;stroke-width:0.5;" width="86.7256" x="256.42" y="137.5938"/><line style="stroke:#181818;stroke-width:0.5;" x1="256.42" x2="343.1456" y1="163.8906" y2="163.8906"/><text fill="#000000" font-family="sans-serif" font-size="14" lengthAdjust="spacing" textLength="66.7256" x="266.42" y="155.5889">Selecci&#243;n</text></g><g id="Comunidades.Eliminar"><rect fill="#F1F1F1" height="50" rx="12.5" ry="12.5" style="stroke:#181818;stroke-width:0.5;" width="77.3604" x="261.1" y="223.5938"/><line style="stroke:#181818;stroke-width:0.5;" x1="261.1" x2="338.4604" y1="249.8906" y2="249.8906"/><text fill="#000000" font-family="sans-serif" font-size="14" lengthAdjust="spacing" textLength="57.3604" x="271.1" y="241.5889">Eliminar</text></g><ellipse cx="367.78" cy="248.5938" fill="none" rx="11" ry="11" style="stroke:#222222;stroke-width:1;"/><ellipse cx="367.78" cy="248.5938" fill="#222222" rx="6" ry="6" style="stroke:#222222;stroke-width:1;"/><!--link *start*Comunidades to Selecci?n--><g class="link" data-entity-1=".start.Comunidades" data-entity-2="Selecci.n" data-source-line="4" data-uid="lnk4" id="link_.start.Comunidades_Selecci.n"><path d="M299.78,101.9038 C299.78,110.9438 299.78,119.0838 299.78,131.3238" fill="none" id="*start*Comunidades-to-Selecci&#243;n" style="stroke:#181818;stroke-width:1;"/><polygon fill="#181818" points="299.78,137.3238,303.78,128.3238,299.78,132.3238,295.78,128.3238,299.78,137.3238" style="stroke:#181818;stroke-width:1;"/></g><!--link Selecci?n to Eliminar--><g class="link" data-entity-1="Selecci.n" data-entity-2="Eliminar" data-source-line="5" data-uid="lnk6" id="link_Selecci.n_Eliminar"><path d="M293.6,187.8938 C292.84,199.0338 292.4316,206.2277 293.1916,217.3677" fill="none" id="Selecci&#243;n-to-Eliminar" style="stroke:#181818;stroke-width:1;"/><polygon fill="#181818" points="293.6,223.3538,296.9781,214.1024,293.2597,218.3653,288.9967,214.6469,293.6,223.3538" style="stroke:#181818;stroke-width:1;"/></g><!--link Eliminar to Selecci?n--><g class="link" data-entity-1="Eliminar" data-entity-2="Selecci.n" data-source-line="6" data-uid="lnk7" id="link_Eliminar_Selecci.n"><path d="M305.97,223.3538 C306.72,212.2138 307.123,205.0202 306.373,193.8802" fill="none" id="Eliminar-to-Selecci&#243;n" style="stroke:#181818;stroke-width:1;"/><polygon fill="#181818" points="305.97,187.8938,302.5836,197.1421,306.3059,192.8825,310.5655,196.6047,305.97,187.8938" style="stroke:#181818;stroke-width:1;"/></g><!--link Selecci?n to *end*Comunidades--><g class="link" data-entity-1="Selecci.n" data-entity-2=".end.Comunidades" data-source-line="7" data-uid="lnk9" id="link_Selecci.n_.end.Comunidades"><path d="M319.45,187.8938 C333.57,205.3338 347.9539,223.101 357.4939,234.881" fill="none" id="Selecci&#243;n-to-*end*Comunidades" style="stroke:#181818;stroke-width:1;"/><polygon fill="#181818" points="361.27,239.5438,358.7143,230.0323,358.1232,235.6581,352.4974,235.0671,361.27,239.5438" style="stroke:#181818;stroke-width:1;"/></g><g id="Publicaciones"><rect fill="#F1F1F1" height="50" rx="12.5" ry="12.5" style="stroke:#181818;stroke-width:0.5;" width="115.1904" x="7" y="343.5969"/><line style="stroke:#181818;stroke-width:0.5;" x1="7" x2="122.1904" y1="369.8938" y2="369.8938"/><text fill="#000000" font-family="sans-serif" font-size="14" lengthAdjust="spacing" textLength="95.1904" x="17" y="361.592">Publicaciones</text></g><g id="Reportes"><rect fill="#F1F1F1" height="50" rx="12.5" ry="12.5" style="stroke:#181818;stroke-width:0.5;" width="82.9453" x="157.12" y="343.5969"/><line style="stroke:#181818;stroke-width:0.5;" x1="157.12" x2="240.0653" y1="369.8938" y2="369.8938"/><text fill="#000000" font-family="sans-serif" font-size="14" lengthAdjust="spacing" textLength="62.9453" x="167.12" y="361.592">Reportes</text></g><g id="Usuarios"><rect fill="#F1F1F1" height="50" rx="12.5" ry="12.5" style="stroke:#181818;stroke-width:0.5;" width="80.498" x="275.35" y="343.5969"/><line style="stroke:#181818;stroke-width:0.5;" x1="275.35" x2="355.848" y1="369.8938" y2="369.8938"/><text fill="#000000" font-family="sans-serif" font-size="14" lengthAdjust="spacing" textLength="60.498" x="285.35" y="361.592">Usuarios</text></g><g id="Aplicacion"><rect fill="#F1F1F1" height="50" rx="12.5" ry="12.5" style="stroke:#181818;stroke-width:0.5;" width="91.5449" x="390.82" y="343.5969"/><line style="stroke:#181818;stroke-width:0.5;" x1="390.82" x2="482.3649" y1="369.8938" y2="369.8938"/><text fill="#000000" font-family="sans-serif" font-size="14" lengthAdjust="spacing" textLength="71.5449" x="400.82" y="361.592">Aplicacion</text></g><ellipse cx="528.6" cy="368.5969" fill="none" rx="11" ry="11" style="stroke:#222222;stroke-width:1;"/><ellipse cx="528.6" cy="368.5969" fill="#222222" rx="6" ry="6" style="stroke:#222222;stroke-width:1;"/><!--link Comunidades to Publicaciones--><g class="link" data-entity-1="Comunidades" data-entity-2="Publicaciones" data-source-line="10" data-uid="lnk11" id="link_Comunidades_Publicaciones"><path d="M244,222.7469 C194.59,262.6369 136.0885,309.8779 99.3985,339.4979" fill="none" id="Comunidades-to-Publicaciones" style="stroke:#181818;stroke-width:1;"/><polygon fill="#181818" points="94.73,343.2669,104.2454,340.7258,98.6204,340.1261,99.2202,334.5011,94.73,343.2669" style="stroke:#181818;stroke-width:1;"/></g><!--link Comunidades to Reportes--><g class="link" data-entity-1="Comunidades" data-entity-2="Reportes" data-source-line="11" data-uid="lnk13" id="link_Comunidades_Reportes"><path d="M246.86,284.0069 C233.83,306.5769 224.4881,322.7396 215.5581,338.2196" fill="none" id="Comunidades-to-Reportes" style="stroke:#181818;stroke-width:1;"/><polygon fill="#181818" points="212.56,343.4169,220.522,337.6198,215.0585,339.0859,213.5924,333.6223,212.56,343.4169" style="stroke:#181818;stroke-width:1;"/></g><!--link Comunidades to Usuarios--><g class="link" data-entity-1="Comunidades" data-entity-2="Usuarios" data-source-line="12" data-uid="lnk15" id="link_Comunidades_Usuarios"><path d="M315.6,284.0069 C315.6,306.5769 315.6,321.9369 315.6,337.4169" fill="none" id="Comunidades-to-Usuarios" style="stroke:#181818;stroke-width:1;"/><polygon fill="#181818" points="315.6,343.4169,319.6,334.4169,315.6,338.4169,311.6,334.4169,315.6,343.4169" style="stroke:#181818;stroke-width:1;"/></g><!--link Comunidades to Aplicacion--><g class="link" data-entity-1="Comunidades" data-entity-2="Aplicacion" data-source-line="13" data-uid="lnk17" id="link_Comunidades_Aplicacion"><path d="M386.68,284.0069 C400.16,306.5769 409.8323,322.7863 419.0823,338.2663" fill="none" id="Comunidades-to-Aplicacion" style="stroke:#181818;stroke-width:1;"/><polygon fill="#181818" points="422.16,343.4169,420.9772,333.6393,419.5953,339.1248,414.1098,337.7429,422.16,343.4169" style="stroke:#181818;stroke-width:1;"/></g><!--link Comunidades to *end*--><g class="link" data-entity-1="Comunidades" data-entity-2=".end." data-source-line="14" data-uid="lnk19" id="link_Comunidades_.end."><path d="M387.11,232.9869 C437.39,280.8269 495.0234,335.6508 516.4934,356.0808" fill="none" id="Comunidades-to-*end*" style="stroke:#181818;stroke-width:1;"/><polygon fill="#181818" points="520.84,360.2169,517.0775,351.115,517.2178,356.7702,511.5627,356.9105,520.84,360.2169" style="stroke:#181818;stroke-width:1;"/></g><!--SRC=[XOv12W8n34NtEKMOfJ1N44HqBOehSL7RB0ATT6ZIbNWgZ-35hChWG0LNIVuZ_tzZYuJR8fwJa68WiPpgm6wTXY8SN23j0DIS4Suql0BYQN76lb_YWI9vpu-xLF5xlDacyi3YSYNJ-lUd-i8DO1xtadVb4jcxJzU6xcbCsNw0enQNEIasP3LEVWsg5Pu0]--></g></svg>