<svg xmlns="http://www.w3.org/2000/svg" xmlns:xlink="http://www.w3.org/1999/xlink" contentStyleType="text/css" data-diagram-type="STATE" height="399px" preserveAspectRatio="none" style="width:580px;height:399px;background:#FFFFFF;" version="1.1" viewBox="0 0 580 399" width="580px" zoomAndPan="magnify"><title>Funciones dentro de "Usuarios"</title><defs/><g><g class="title" data-source-line="1"><text fill="#000000" font-family="sans-serif" font-size="14" font-weight="bold" lengthAdjust="spacing" textLength="250.2021" x="158.1989" y="22.9951">Funciones dentro de "Usuarios"</text></g><path d="M145.93,44.2969 L495.27,44.2969 A12.5,12.5 0 0 1 507.77,56.7969 L507.77,70.5938 L133.43,70.5938 L133.43,56.7969 A12.5,12.5 0 0 1 145.93,44.2969" fill="#F1F1F1"/><rect fill="none" height="239.2969" rx="12.5" ry="12.5" style="stroke:#181818;stroke-width:0.5;" width="374.34" x="133.43" y="44.2969"/><line style="stroke:#181818;stroke-width:0.5;" x1="133.43" x2="507.77" y1="70.5938" y2="70.5938"/><text fill="#000000" font-family="sans-serif" font-size="14" lengthAdjust="spacing" textLength="60.498" x="290.351" y="62.292">Usuarios</text><ellipse cx="295.77" cy="91.5938" fill="#222222" rx="10" ry="10" style="stroke:#222222;stroke-width:1;"/><g id="Usuarios.Selecci.n"><rect fill="#F1F1F1" height="50" rx="12.5" ry="12.5" style="stroke:#181818;stroke-width:0.5;" width="86.7256" x="252.41" y="137.5938"/><line style="stroke:#181818;stroke-width:0.5;" x1="252.41" x2="339.1356" y1="163.8906" y2="163.8906"/><text fill="#000000" font-family="sans-serif" font-size="14" lengthAdjust="spacing" textLength="66.7256" x="262.41" y="155.5889">Selecci&#243;n</text></g><g id="Usuarios.Suspender"><rect fill="#F1F1F1" height="50" rx="12.5" ry="12.5" style="stroke:#181818;stroke-width:0.5;" width="94.6826" x="145.43" y="223.5938"/><line style="stroke:#181818;stroke-width:0.5;" x1="145.43" x2="240.1126" y1="249.8906" y2="249.8906"/><text fill="#000000" font-family="sans-serif" font-size="14" lengthAdjust="spacing" textLength="74.6826" x="155.43" y="241.5889">Suspender</text></g><g id="Usuarios.Advertir"><rect fill="#F1F1F1" height="50" rx="12.5" ry="12.5" style="stroke:#181818;stroke-width:0.5;" width="76.2529" x="257.64" y="223.5938"/><line style="stroke:#181818;stroke-width:0.5;" x1="257.64" x2="333.8929" y1="249.8906" y2="249.8906"/><text fill="#000000" font-family="sans-serif" font-size="14" lengthAdjust="spacing" textLength="56.2529" x="267.64" y="241.5889">Advertir</text></g><g id="Usuarios.Desbloquear"><rect fill="#F1F1F1" height="50" rx="12.5" ry="12.5" style="stroke:#181818;stroke-width:0.5;" width="108.7373" x="351.4" y="223.5938"/><line style="stroke:#181818;stroke-width:0.5;" x1="351.4" x2="460.1373" y1="249.8906" y2="249.8906"/><text fill="#000000" font-family="sans-serif" font-size="14" lengthAdjust="spacing" textLength="88.7373" x="361.4" y="241.5889">Desbloquear</text></g><ellipse cx="488.77" cy="248.5938" fill="none" rx="11" ry="11" style="stroke:#222222;stroke-width:1;"/><ellipse cx="488.77" cy="248.5938" fill="#222222" rx="6" ry="6" style="stroke:#222222;stroke-width:1;"/><!--link *start*Usuarios to Selecci?n--><g class="link" data-entity-1=".start.Usuarios" data-entity-2="Selecci.n" data-source-line="4" data-uid="lnk4" id="link_.start.Usuarios_Selecci.n"><path d="M295.77,101.9038 C295.77,110.9438 295.77,119.0838 295.77,131.3238" fill="none" id="*start*Usuarios-to-Selecci&#243;n" style="stroke:#181818;stroke-width:1;"/><polygon fill="#181818" points="295.77,137.3238,299.77,128.3238,295.77,132.3238,291.77,128.3238,295.77,137.3238" style="stroke:#181818;stroke-width:1;"/></g><!--link Selecci?n to Suspender--><g class="link" data-entity-1="Selecci.n" data-entity-2="Suspender" data-source-line="5" data-uid="lnk6" id="link_Selecci.n_Suspender"><path d="M259.79,187.8938 C245.38,199.0338 233.7626,208.294 220.8526,219.434" fill="none" id="Selecci&#243;n-to-Suspender" style="stroke:#181818;stroke-width:1;"/><polygon fill="#181818" points="216.31,223.3538,225.7371,220.5025,220.0955,220.0873,220.5107,214.4457,216.31,223.3538" style="stroke:#181818;stroke-width:1;"/></g><!--link Selecci?n to Advertir--><g class="link" data-entity-1="Selecci.n" data-entity-2="Advertir" data-source-line="6" data-uid="lnk8" id="link_Selecci.n_Advertir"><path d="M289.59,187.8938 C288.83,199.0338 288.4216,206.2277 289.1816,217.3677" fill="none" id="Selecci&#243;n-to-Advertir" style="stroke:#181818;stroke-width:1;"/><polygon fill="#181818" points="289.59,223.3538,292.9681,214.1024,289.2497,218.3653,284.9867,214.6469,289.59,223.3538" style="stroke:#181818;stroke-width:1;"/></g><!--link Selecci?n to Desbloquear--><g class="link" data-entity-1="Selecci.n" data-entity-2="Desbloquear" data-source-line="7" data-uid="lnk10" id="link_Selecci.n_Desbloquear"><path d="M321.4,187.8938 C335.24,199.0338 347.6451,208.6881 362.9851,219.8281" fill="none" id="Selecci&#243;n-to-Desbloquear" style="stroke:#181818;stroke-width:1;"/><polygon fill="#181818" points="367.84,223.3538,362.9081,214.8287,363.7943,220.4157,358.2073,221.3019,367.84,223.3538" style="stroke:#181818;stroke-width:1;"/></g><!--link Suspender to Selecci?n--><g class="link" data-entity-1="Suspender" data-entity-2="Selecci.n" data-source-line="8" data-uid="lnk11" id="link_Suspender_Selecci.n"><path d="M228.68,223.3538 C243.09,212.2138 254.7059,202.9518 267.6259,191.8118" fill="none" id="Suspender-to-Selecci&#243;n" style="stroke:#181818;stroke-width:1;"/><polygon fill="#181818" points="272.17,187.8938,262.7418,190.7414,268.3833,191.1588,267.9659,196.8002,272.17,187.8938" style="stroke:#181818;stroke-width:1;"/></g><!--link Advertir to Selecci?n--><g class="link" data-entity-1="Advertir" data-entity-2="Selecci.n" data-source-line="9" data-uid="lnk12" id="link_Advertir_Selecci.n"><path d="M301.95,223.3538 C302.71,212.2138 303.113,205.0202 302.363,193.8802" fill="none" id="Advertir-to-Selecci&#243;n" style="stroke:#181818;stroke-width:1;"/><polygon fill="#181818" points="301.96,187.8938,298.5736,197.1421,302.2959,192.8825,306.5555,196.6047,301.96,187.8938" style="stroke:#181818;stroke-width:1;"/></g><!--link Desbloquear to Selecci?n--><g class="link" data-entity-1="Desbloquear" data-entity-2="Selecci.n" data-source-line="10" data-uid="lnk13" id="link_Desbloquear_Selecci.n"><path d="M380.21,223.3538 C366.38,212.2138 353.976,202.5579 338.626,191.4179" fill="none" id="Desbloquear-to-Selecci&#243;n" style="stroke:#181818;stroke-width:1;"/><polygon fill="#181818" points="333.77,187.8938,338.7045,196.4173,337.8166,190.8305,343.4034,189.9426,333.77,187.8938" style="stroke:#181818;stroke-width:1;"/></g><!--link Selecci?n to *end*Usuarios--><g class="link" data-entity-1="Selecci.n" data-entity-2=".end.Usuarios" data-source-line="11" data-uid="lnk15" id="link_Selecci.n_.end.Usuarios"><path d="M339.28,171.8138 C376.19,180.3238 429.29,196.2938 468.77,223.5938 C474.66,227.6638 476.3363,229.0174 479.9263,234.1174" fill="none" id="Selecci&#243;n-to-*end*Usuarios" style="stroke:#181818;stroke-width:1;"/><polygon fill="#181818" points="483.38,239.0238,481.4704,229.3618,480.5019,234.9351,474.9286,233.9667,483.38,239.0238" style="stroke:#181818;stroke-width:1;"/></g><g id="Publicaciones"><rect fill="#F1F1F1" height="50" rx="12.5" ry="12.5" style="stroke:#181818;stroke-width:0.5;" width="115.1904" x="7" y="343.5969"/><line style="stroke:#181818;stroke-width:0.5;" x1="7" x2="122.1904" y1="369.8938" y2="369.8938"/><text fill="#000000" font-family="sans-serif" font-size="14" lengthAdjust="spacing" textLength="95.1904" x="17" y="361.592">Publicaciones</text></g><g id="Reportes"><rect fill="#F1F1F1" height="50" rx="12.5" ry="12.5" style="stroke:#181818;stroke-width:0.5;" width="82.9453" x="157.12" y="343.5969"/><line style="stroke:#181818;stroke-width:0.5;" x1="157.12" x2="240.0653" y1="369.8938" y2="369.8938"/><text fill="#000000" font-family="sans-serif" font-size="14" lengthAdjust="spacing" textLength="62.9453" x="167.12" y="361.592">Reportes</text></g><g id="Aplicacion"><rect fill="#F1F1F1" height="50" rx="12.5" ry="12.5" style="stroke:#181818;stroke-width:0.5;" width="91.5449" x="274.82" y="343.5969"/><line style="stroke:#181818;stroke-width:0.5;" x1="274.82" x2="366.3649" y1="369.8938" y2="369.8938"/><text fill="#000000" font-family="sans-serif" font-size="14" lengthAdjust="spacing" textLength="71.5449" x="284.82" y="361.592">Aplicacion</text></g><g id="Comunidades"><rect fill="#F1F1F1" height="50" rx="12.5" ry="12.5" style="stroke:#181818;stroke-width:0.5;" width="115.874" x="401.66" y="343.5969"/><line style="stroke:#181818;stroke-width:0.5;" x1="401.66" x2="517.534" y1="369.8938" y2="369.8938"/><text fill="#000000" font-family="sans-serif" font-size="14" lengthAdjust="spacing" textLength="95.874" x="411.66" y="361.592">Comunidades</text></g><ellipse cx="563.6" cy="368.5969" fill="none" rx="11" ry="11" style="stroke:#222222;stroke-width:1;"/><ellipse cx="563.6" cy="368.5969" fill="#222222" rx="6" ry="6" style="stroke:#222222;stroke-width:1;"/><!--link Usuarios to Publicaciones--><g class="link" data-entity-1="Usuarios" data-entity-2="Publicaciones" data-source-line="14" data-uid="lnk17" id="link_Usuarios_Publicaciones"><path d="M170.2,284.0069 C141.68,306.5769 119.4039,324.2122 99.8539,339.6922" fill="none" id="Usuarios-to-Publicaciones" style="stroke:#181818;stroke-width:1;"/><polygon fill="#181818" points="95.15,343.4169,104.689,340.9659,99.0699,340.313,99.7228,334.6939,95.15,343.4169" style="stroke:#181818;stroke-width:1;"/></g><!--link Usuarios to Reportes--><g class="link" data-entity-1="Usuarios" data-entity-2="Reportes" data-source-line="15" data-uid="lnk19" id="link_Usuarios_Reportes"><path d="M248.92,284.0069 C235.33,306.5769 225.5648,322.7966 216.2448,338.2766" fill="none" id="Usuarios-to-Reportes" style="stroke:#181818;stroke-width:1;"/><polygon fill="#181818" points="213.15,343.4169,221.219,337.7697,215.729,339.1333,214.3653,333.6433,213.15,343.4169" style="stroke:#181818;stroke-width:1;"/></g><!--link Usuarios to Aplicacion--><g class="link" data-entity-1="Usuarios" data-entity-2="Aplicacion" data-source-line="16" data-uid="lnk21" id="link_Usuarios_Aplicacion"><path d="M320.6,284.0069 C320.6,306.5769 320.6,321.9369 320.6,337.4169" fill="none" id="Usuarios-to-Aplicacion" style="stroke:#181818;stroke-width:1;"/><polygon fill="#181818" points="320.6,343.4169,324.6,334.4169,320.6,338.4169,316.6,334.4169,320.6,343.4169" style="stroke:#181818;stroke-width:1;"/></g><!--link Usuarios to Comunidades--><g class="link" data-entity-1="Usuarios" data-entity-2="Comunidades" data-source-line="17" data-uid="lnk23" id="link_Usuarios_Comunidades"><path d="M402.26,284.0069 C417.74,306.5769 428.9957,322.9893 439.6157,338.4693" fill="none" id="Usuarios-to-Comunidades" style="stroke:#181818;stroke-width:1;"/><polygon fill="#181818" points="443.01,343.4169,441.217,333.7326,440.1814,339.2939,434.6202,338.2583,443.01,343.4169" style="stroke:#181818;stroke-width:1;"/></g><!--link Usuarios to *end*--><g class="link" data-entity-1="Usuarios" data-entity-2=".end." data-source-line="18" data-uid="lnk25" id="link_Usuarios_.end."><path d="M463.35,284.0069 C503.03,317.0869 534.9723,343.7238 550.7623,356.8938" fill="none" id="Usuarios-to-*end*" style="stroke:#181818;stroke-width:1;"/><polygon fill="#181818" points="555.37,360.7369,551.0206,351.9004,551.5303,357.5343,545.8964,358.044,555.37,360.7369" style="stroke:#181818;stroke-width:1;"/></g><!--SRC=[XP312W8X48RlFiMmns1V8LYApb5qYWwkpc70r7Ji4ZrLZz2BPIrMkmQTnEyR_vcHYGt2Abb5pc84ZPQ3omSqkvXa81SR8I9BHYW0BW9WFpj0syvXYmQLellDPlYv32v5ZrPZg5MdpnYOVfWbnjwuKqBvaYMYRbOYQlCLyNV6l8Uu2l7UxSdMgJUavF0bOxL1xm9FQUTB_PWlt35Pqb9F7-Ik3m00]--></g></svg>