<svg xmlns="http://www.w3.org/2000/svg" xmlns:xlink="http://www.w3.org/1999/xlink" contentStyleType="text/css" data-diagram-type="CLASS" height="826px" preserveAspectRatio="none" style="width:848px;height:826px;background:#FFFFFF;" version="1.1" viewBox="0 0 848 826" width="848px" zoomAndPan="magnify"><defs/><g><!--class UsuarioInvitado--><g class="entity" data-entity="UsuarioInvitado" data-source-line="1" data-uid="ent0002" id="entity_UsuarioInvitado"><rect fill="#F1F1F1" height="145.7813" rx="2.5" ry="2.5" style="stroke:#181818;stroke-width:0.5;" width="157.6123" x="138.42" y="7"/><ellipse cx="160.4899" cy="23" fill="#A9DCDF" rx="11" ry="11" style="stroke:#181818;stroke-width:1;"/><path d="M160.5993,18.3438 L159.443,23.4219 L161.7712,23.4219 L160.5993,18.3438 Z M159.1149,16.1094 L162.0993,16.1094 L165.4587,28.5 L163.0055,28.5 L162.2399,25.4375 L158.9587,25.4375 L158.2087,28.5 L155.7712,28.5 L159.1149,16.1094 Z " fill="#000000"/><text fill="#000000" font-family="sans-serif" font-size="14" font-style="italic" lengthAdjust="spacing" textLength="109.9014" x="176.061" y="27.8467">UsuarioInvitado</text><line style="stroke:#181818;stroke-width:0.5;" x1="139.42" x2="295.0323" y1="39" y2="39"/><ellipse cx="149.42" cy="52.6484" fill="none" rx="3" ry="3" style="stroke:#038048;stroke-width:1;"/><text fill="#000000" font-family="sans-serif" font-size="14" lengthAdjust="spacing" textLength="59.0078" x="158.42" y="55.9951">String id</text><ellipse cx="149.42" cy="68.9453" fill="none" rx="3" ry="3" style="stroke:#038048;stroke-width:1;"/><text fill="#000000" font-family="sans-serif" font-size="14" lengthAdjust="spacing" textLength="100.5635" x="158.42" y="72.292">String nombre</text><ellipse cx="149.42" cy="85.2422" fill="none" rx="3" ry="3" style="stroke:#038048;stroke-width:1;"/><text fill="#000000" font-family="sans-serif" font-size="14" lengthAdjust="spacing" textLength="56.4443" x="158.42" y="88.5889">File foto</text><ellipse cx="149.42" cy="101.5391" fill="none" rx="3" ry="3" style="stroke:#038048;stroke-width:1;"/><text fill="#000000" font-family="sans-serif" font-size="14" lengthAdjust="spacing" textLength="131.6123" x="158.42" y="104.8857">Date fechaEntrada</text><line style="stroke:#181818;stroke-width:0.5;" x1="139.42" x2="295.0323" y1="112.1875" y2="112.1875"/><ellipse cx="149.42" cy="125.8359" fill="#84BE84" rx="3" ry="3" style="stroke:#038048;stroke-width:1;"/><text fill="#000000" font-family="sans-serif" font-size="14" lengthAdjust="spacing" textLength="63.3691" x="158.42" y="129.1826">verPost()</text><ellipse cx="149.42" cy="142.1328" fill="#84BE84" rx="3" ry="3" style="stroke:#038048;stroke-width:1;"/><text fill="#000000" font-family="sans-serif" font-size="14" lengthAdjust="spacing" textLength="108.9717" x="158.42" y="145.4795">compartirPost()</text></g><!--class UsuarioRegistrado--><g class="entity" data-entity="UsuarioRegistrado" data-source-line="10" data-uid="ent0003" id="entity_UsuarioRegistrado"><rect fill="#F1F1F1" height="145.7813" rx="2.5" ry="2.5" style="stroke:#181818;stroke-width:0.5;" width="252.1465" x="137.16" y="212.79"/><ellipse cx="194.5374" cy="228.79" fill="#ADD1B2" rx="11" ry="11" style="stroke:#181818;stroke-width:1;"/><path d="M197.5062,234.4306 Q196.9281,234.7275 196.2874,234.8681 Q195.6468,235.0244 194.9437,235.0244 Q192.4437,235.0244 191.1156,233.3837 Q189.8031,231.7275 189.8031,228.6025 Q189.8031,225.4775 191.1156,223.8212 Q192.4437,222.165 194.9437,222.165 Q195.6468,222.165 196.2874,222.3212 Q196.9437,222.4775 197.5062,222.7744 L197.5062,225.4931 Q196.8812,224.915 196.2874,224.6494 Q195.6937,224.3681 195.0687,224.3681 Q193.7249,224.3681 193.0374,225.4462 Q192.3499,226.5087 192.3499,228.6025 Q192.3499,230.6962 193.0374,231.7744 Q193.7249,232.8369 195.0687,232.8369 Q195.6937,232.8369 196.2874,232.5712 Q196.8812,232.29 197.5062,231.7119 L197.5062,234.4306 Z " fill="#000000"/><text fill="#000000" font-family="sans-serif" font-size="14" lengthAdjust="spacing" textLength="128.8916" x="215.0374" y="233.6367">UsuarioRegistrado</text><line style="stroke:#181818;stroke-width:0.5;" x1="138.16" x2="388.3065" y1="244.79" y2="244.79"/><ellipse cx="148.16" cy="258.4384" fill="none" rx="3" ry="3" style="stroke:#038048;stroke-width:1;"/><text fill="#000000" font-family="sans-serif" font-size="14" lengthAdjust="spacing" textLength="176.7158" x="157.16" y="261.7851">String correoInstitucional</text><ellipse cx="148.16" cy="274.7353" fill="none" rx="3" ry="3" style="stroke:#038048;stroke-width:1;"/><text fill="#000000" font-family="sans-serif" font-size="14" lengthAdjust="spacing" textLength="119.7041" x="157.16" y="278.082">List&lt;Post&gt; posts</text><ellipse cx="148.16" cy="291.0322" fill="none" rx="3" ry="3" style="stroke:#038048;stroke-width:1;"/><text fill="#000000" font-family="sans-serif" font-size="14" lengthAdjust="spacing" textLength="226.1465" x="157.16" y="294.3789">List&lt;Comunidad&gt; comunidades</text><line style="stroke:#181818;stroke-width:0.5;" x1="138.16" x2="388.3065" y1="301.6806" y2="301.6806"/><ellipse cx="148.16" cy="315.3291" fill="#84BE84" rx="3" ry="3" style="stroke:#038048;stroke-width:1;"/><text fill="#000000" font-family="sans-serif" font-size="14" lengthAdjust="spacing" textLength="97.1729" x="157.16" y="318.6757">publicarPost()</text><ellipse cx="148.16" cy="331.6259" fill="#84BE84" rx="3" ry="3" style="stroke:#038048;stroke-width:1;"/><text fill="#000000" font-family="sans-serif" font-size="14" lengthAdjust="spacing" textLength="107.9258" x="157.16" y="334.9726">comentarPost()</text><ellipse cx="148.16" cy="347.9228" fill="#84BE84" rx="3" ry="3" style="stroke:#038048;stroke-width:1;"/><text fill="#000000" font-family="sans-serif" font-size="14" lengthAdjust="spacing" textLength="69.125" x="157.16" y="351.2695">LikePost()</text></g><!--class Moderador--><g class="entity" data-entity="Moderador" data-source-line="19" data-uid="ent0004" id="entity_Moderador"><rect fill="#F1F1F1" height="80.5938" rx="2.5" ry="2.5" style="stroke:#181818;stroke-width:0.5;" width="139.415" x="169.52" y="483.75"/><ellipse cx="198.7974" cy="499.75" fill="#ADD1B2" rx="11" ry="11" style="stroke:#181818;stroke-width:1;"/><path d="M201.7661,505.3906 Q201.188,505.6875 200.5474,505.8281 Q199.9068,505.9844 199.2036,505.9844 Q196.7036,505.9844 195.3755,504.3438 Q194.063,502.6875 194.063,499.5625 Q194.063,496.4375 195.3755,494.7813 Q196.7036,493.125 199.2036,493.125 Q199.9068,493.125 200.5474,493.2813 Q201.2036,493.4375 201.7661,493.7344 L201.7661,496.4531 Q201.1411,495.875 200.5474,495.6094 Q199.9536,495.3281 199.3286,495.3281 Q197.9849,495.3281 197.2974,496.4063 Q196.6099,497.4688 196.6099,499.5625 Q196.6099,501.6563 197.2974,502.7344 Q197.9849,503.7969 199.3286,503.7969 Q199.9536,503.7969 200.5474,503.5313 Q201.1411,503.25 201.7661,502.6719 L201.7661,505.3906 Z " fill="#000000"/><text fill="#000000" font-family="sans-serif" font-size="14" lengthAdjust="spacing" textLength="75.6875" x="215.9701" y="504.5967">Moderador</text><line style="stroke:#181818;stroke-width:0.5;" x1="170.52" x2="307.935" y1="515.75" y2="515.75"/><line style="stroke:#181818;stroke-width:0.5;" x1="170.52" x2="307.935" y1="523.75" y2="523.75"/><ellipse cx="180.52" cy="537.3984" fill="#84BE84" rx="3" ry="3" style="stroke:#038048;stroke-width:1;"/><text fill="#000000" font-family="sans-serif" font-size="14" lengthAdjust="spacing" textLength="97.8428" x="189.52" y="540.7451">eliminarPost()</text><ellipse cx="180.52" cy="553.6953" fill="#84BE84" rx="3" ry="3" style="stroke:#038048;stroke-width:1;"/><text fill="#000000" font-family="sans-serif" font-size="14" lengthAdjust="spacing" textLength="113.415" x="189.52" y="557.042">banearUsuario()</text></g><!--class Post--><g class="entity" data-entity="Post" data-source-line="24" data-uid="ent0005" id="entity_Post"><rect fill="#F1F1F1" height="210.9688" rx="2.5" ry="2.5" style="stroke:#181818;stroke-width:0.5;" width="247.0879" x="343.69" y="418.57"/><ellipse cx="448.0884" cy="434.57" fill="#ADD1B2" rx="11" ry="11" style="stroke:#181818;stroke-width:1;"/><path d="M451.0572,440.2106 Q450.4791,440.5075 449.8384,440.6481 Q449.1978,440.8044 448.4947,440.8044 Q445.9947,440.8044 444.6666,439.1638 Q443.3541,437.5075 443.3541,434.3825 Q443.3541,431.2575 444.6666,429.6013 Q445.9947,427.945 448.4947,427.945 Q449.1978,427.945 449.8384,428.1013 Q450.4947,428.2575 451.0572,428.5544 L451.0572,431.2731 Q450.4322,430.695 449.8384,430.4294 Q449.2447,430.1481 448.6197,430.1481 Q447.2759,430.1481 446.5884,431.2263 Q445.9009,432.2888 445.9009,434.3825 Q445.9009,436.4763 446.5884,437.5544 Q447.2759,438.6169 448.6197,438.6169 Q449.2447,438.6169 449.8384,438.3513 Q450.4322,438.07 451.0572,437.4919 L451.0572,440.2106 Z " fill="#000000"/><text fill="#000000" font-family="sans-serif" font-size="14" lengthAdjust="spacing" textLength="29.791" x="468.5884" y="439.4167">Post</text><line style="stroke:#181818;stroke-width:0.5;" x1="344.69" x2="589.7779" y1="450.57" y2="450.57"/><ellipse cx="354.69" cy="464.2184" fill="none" rx="3" ry="3" style="stroke:#038048;stroke-width:1;"/><text fill="#000000" font-family="sans-serif" font-size="14" lengthAdjust="spacing" textLength="59.0078" x="363.69" y="467.5651">String id</text><ellipse cx="354.69" cy="480.5153" fill="none" rx="3" ry="3" style="stroke:#038048;stroke-width:1;"/><text fill="#000000" font-family="sans-serif" font-size="14" lengthAdjust="spacing" textLength="138.3525" x="363.69" y="483.862">Date fechaCreacion</text><ellipse cx="354.69" cy="496.8122" fill="none" rx="3" ry="3" style="stroke:#038048;stroke-width:1;"/><text fill="#000000" font-family="sans-serif" font-size="14" lengthAdjust="spacing" textLength="137.6689" x="363.69" y="500.1589">Date fechaResuelto</text><ellipse cx="354.69" cy="513.1091" fill="none" rx="3" ry="3" style="stroke:#038048;stroke-width:1;"/><text fill="#000000" font-family="sans-serif" font-size="14" lengthAdjust="spacing" textLength="83.8223" x="363.69" y="516.4557">int duracion</text><ellipse cx="354.69" cy="529.4059" fill="none" rx="3" ry="3" style="stroke:#038048;stroke-width:1;"/><text fill="#000000" font-family="sans-serif" font-size="14" lengthAdjust="spacing" textLength="115.6846" x="363.69" y="532.7526">String contenido</text><ellipse cx="354.69" cy="545.7028" fill="none" rx="3" ry="3" style="stroke:#038048;stroke-width:1;"/><text fill="#000000" font-family="sans-serif" font-size="14" lengthAdjust="spacing" textLength="117.5166" x="363.69" y="549.0495">boolean resuelto</text><ellipse cx="354.69" cy="561.9997" fill="none" rx="3" ry="3" style="stroke:#038048;stroke-width:1;"/><text fill="#000000" font-family="sans-serif" font-size="14" lengthAdjust="spacing" textLength="111.5078" x="363.69" y="565.3464">Usuario creador</text><ellipse cx="354.69" cy="578.2966" fill="none" rx="3" ry="3" style="stroke:#038048;stroke-width:1;"/><text fill="#000000" font-family="sans-serif" font-size="14" lengthAdjust="spacing" textLength="176.7773" x="363.69" y="581.6432">List&lt;Etiqueta&gt; etiquetas</text><ellipse cx="354.69" cy="594.5934" fill="none" rx="3" ry="3" style="stroke:#038048;stroke-width:1;"/><text fill="#000000" font-family="sans-serif" font-size="14" lengthAdjust="spacing" textLength="221.0879" x="363.69" y="597.9401">List&lt;Comentarios&gt; comentario</text><ellipse cx="354.69" cy="610.8903" fill="none" rx="3" ry="3" style="stroke:#038048;stroke-width:1;"/><text fill="#000000" font-family="sans-serif" font-size="14" lengthAdjust="spacing" textLength="119.8818" x="363.69" y="614.237">List&lt;Likes&gt; likes</text><line style="stroke:#181818;stroke-width:0.5;" x1="344.69" x2="589.7779" y1="621.5387" y2="621.5387"/></g><!--class Etiqueta--><g class="entity" data-entity="Etiqueta" data-source-line="36" data-uid="ent0006" id="entity_Etiqueta"><rect fill="#F1F1F1" height="80.5938" rx="2.5" ry="2.5" style="stroke:#181818;stroke-width:0.5;" width="252.1465" x="220.16" y="713.98"/><ellipse cx="312.6502" cy="729.98" fill="#ADD1B2" rx="11" ry="11" style="stroke:#181818;stroke-width:1;"/><path d="M315.619,735.6206 Q315.0409,735.9175 314.4002,736.0581 Q313.7596,736.2144 313.0565,736.2144 Q310.5565,736.2144 309.2284,734.5738 Q307.9159,732.9175 307.9159,729.7925 Q307.9159,726.6675 309.2284,725.0113 Q310.5565,723.355 313.0565,723.355 Q313.7596,723.355 314.4002,723.5113 Q315.0565,723.6675 315.619,723.9644 L315.619,726.6831 Q314.994,726.105 314.4002,725.8394 Q313.8065,725.5581 313.1815,725.5581 Q311.8377,725.5581 311.1502,726.6363 Q310.4627,727.6988 310.4627,729.7925 Q310.4627,731.8863 311.1502,732.9644 Q311.8377,734.0269 313.1815,734.0269 Q313.8065,734.0269 314.4002,733.7613 Q314.994,733.48 315.619,732.9019 L315.619,735.6206 Z " fill="#000000"/><text fill="#000000" font-family="sans-serif" font-size="14" lengthAdjust="spacing" textLength="58.666" x="333.1502" y="734.8267">Etiqueta</text><line style="stroke:#181818;stroke-width:0.5;" x1="221.16" x2="471.3065" y1="745.98" y2="745.98"/><ellipse cx="231.16" cy="759.6284" fill="none" rx="3" ry="3" style="stroke:#038048;stroke-width:1;"/><text fill="#000000" font-family="sans-serif" font-size="14" lengthAdjust="spacing" textLength="119.7041" x="240.16" y="762.9751">List&lt;Post&gt; posts</text><ellipse cx="231.16" cy="775.9253" fill="none" rx="3" ry="3" style="stroke:#038048;stroke-width:1;"/><text fill="#000000" font-family="sans-serif" font-size="14" lengthAdjust="spacing" textLength="226.1465" x="240.16" y="779.272">List&lt;Comunidad&gt; comunidades</text><line style="stroke:#181818;stroke-width:0.5;" x1="221.16" x2="471.3065" y1="786.5738" y2="786.5738"/></g><!--class Comunidad--><g class="entity" data-entity="Comunidad" data-source-line="41" data-uid="ent0007" id="entity_Comunidad"><rect fill="#F1F1F1" height="129.4844" rx="2.5" ry="2.5" style="stroke:#181818;stroke-width:0.5;" width="273.1396" x="330.66" y="15.15"/><ellipse cx="422.9964" cy="31.15" fill="#ADD1B2" rx="11" ry="11" style="stroke:#181818;stroke-width:1;"/><path d="M425.9652,36.7906 Q425.3871,37.0875 424.7464,37.2281 Q424.1058,37.3844 423.4027,37.3844 Q420.9027,37.3844 419.5746,35.7437 Q418.2621,34.0875 418.2621,30.9625 Q418.2621,27.8375 419.5746,26.1812 Q420.9027,24.525 423.4027,24.525 Q424.1058,24.525 424.7464,24.6812 Q425.4027,24.8375 425.9652,25.1344 L425.9652,27.8531 Q425.3402,27.275 424.7464,27.0094 Q424.1527,26.7281 423.5277,26.7281 Q422.1839,26.7281 421.4964,27.8062 Q420.8089,28.8687 420.8089,30.9625 Q420.8089,33.0562 421.4964,34.1344 Q422.1839,35.1969 423.5277,35.1969 Q424.1527,35.1969 424.7464,34.9312 Q425.3402,34.65 425.9652,34.0719 L425.9652,36.7906 Z " fill="#000000"/><text fill="#000000" font-family="sans-serif" font-size="14" lengthAdjust="spacing" textLength="79.9668" x="443.4964" y="35.9967">Comunidad</text><line style="stroke:#181818;stroke-width:0.5;" x1="331.66" x2="602.7996" y1="47.15" y2="47.15"/><ellipse cx="341.66" cy="60.7984" fill="none" rx="3" ry="3" style="stroke:#038048;stroke-width:1;"/><text fill="#000000" font-family="sans-serif" font-size="14" lengthAdjust="spacing" textLength="100.5635" x="350.66" y="64.1451">String nombre</text><ellipse cx="341.66" cy="77.0953" fill="none" rx="3" ry="3" style="stroke:#038048;stroke-width:1;"/><text fill="#000000" font-family="sans-serif" font-size="14" lengthAdjust="spacing" textLength="56.4443" x="350.66" y="80.442">File foto</text><ellipse cx="341.66" cy="93.3922" fill="none" rx="3" ry="3" style="stroke:#038048;stroke-width:1;"/><text fill="#000000" font-family="sans-serif" font-size="14" lengthAdjust="spacing" textLength="247.1396" x="350.66" y="96.7389">List&lt;Etiqueta&gt; etiquetasAsociadas</text><ellipse cx="341.66" cy="109.6891" fill="none" rx="3" ry="3" style="stroke:#038048;stroke-width:1;"/><text fill="#000000" font-family="sans-serif" font-size="14" lengthAdjust="spacing" textLength="175.8682" x="350.66" y="113.0357">List&lt;Usuario&gt; miembros</text><ellipse cx="341.66" cy="125.9859" fill="none" rx="3" ry="3" style="stroke:#038048;stroke-width:1;"/><text fill="#000000" font-family="sans-serif" font-size="14" lengthAdjust="spacing" textLength="119.7041" x="350.66" y="129.3326">List&lt;Post&gt; posts</text><line style="stroke:#181818;stroke-width:0.5;" x1="331.66" x2="602.7996" y1="136.6344" y2="136.6344"/></g><!--class Filtro--><g class="entity" data-entity="Filtro" data-source-line="49" data-uid="ent0008" id="entity_Filtro"><rect fill="#F1F1F1" height="96.8906" rx="2.5" ry="2.5" style="stroke:#181818;stroke-width:0.5;" width="178.4619" x="7" y="705.83"/><ellipse cx="74.1597" cy="721.83" fill="#ADD1B2" rx="11" ry="11" style="stroke:#181818;stroke-width:1;"/><path d="M77.1284,727.4706 Q76.5503,727.7675 75.9097,727.9081 Q75.269,728.0644 74.5659,728.0644 Q72.0659,728.0644 70.7378,726.4237 Q69.4253,724.7675 69.4253,721.6425 Q69.4253,718.5175 70.7378,716.8612 Q72.0659,715.205 74.5659,715.205 Q75.269,715.205 75.9097,715.3612 Q76.5659,715.5175 77.1284,715.8144 L77.1284,718.5331 Q76.5034,717.955 75.9097,717.6894 Q75.3159,717.4081 74.6909,717.4081 Q73.3472,717.4081 72.6597,718.4862 Q71.9722,719.5487 71.9722,721.6425 Q71.9722,723.7362 72.6597,724.8144 Q73.3472,725.8769 74.6909,725.8769 Q75.3159,725.8769 75.9097,725.6112 Q76.5034,725.33 77.1284,724.7519 L77.1284,727.4706 Z " fill="#000000"/><text fill="#000000" font-family="sans-serif" font-size="14" lengthAdjust="spacing" textLength="35.6426" x="94.6597" y="726.6767">Filtro</text><line style="stroke:#181818;stroke-width:0.5;" x1="8" x2="184.4619" y1="737.83" y2="737.83"/><ellipse cx="18" cy="751.4784" fill="none" rx="3" ry="3" style="stroke:#038048;stroke-width:1;"/><text fill="#000000" font-family="sans-serif" font-size="14" lengthAdjust="spacing" textLength="152.4619" x="27" y="754.8251">List&lt;Etiqueta&gt; Filtrar</text><ellipse cx="18" cy="767.7753" fill="none" rx="3" ry="3" style="stroke:#038048;stroke-width:1;"/><text fill="#000000" font-family="sans-serif" font-size="14" lengthAdjust="spacing" textLength="87.9854" x="27" y="771.122">localizarPost</text><line style="stroke:#181818;stroke-width:0.5;" x1="8" x2="184.4619" y1="778.4237" y2="778.4237"/><ellipse cx="18" cy="792.0722" fill="#84BE84" rx="3" ry="3" style="stroke:#038048;stroke-width:1;"/><text fill="#000000" font-family="sans-serif" font-size="14" lengthAdjust="spacing" textLength="116.5322" x="27" y="795.4189">elegirEtiquetas()</text></g><!--class Comentario--><g class="entity" data-entity="Comentario" data-source-line="55" data-uid="ent0009" id="entity_Comentario"><rect fill="#F1F1F1" height="129.4844" rx="2.5" ry="2.5" style="stroke:#181818;stroke-width:0.5;" width="164.3525" x="507.05" y="689.54"/><ellipse cx="544.8238" cy="705.54" fill="#ADD1B2" rx="11" ry="11" style="stroke:#181818;stroke-width:1;"/><path d="M547.7925,711.1806 Q547.2144,711.4775 546.5738,711.6181 Q545.9332,711.7744 545.23,711.7744 Q542.73,711.7744 541.4019,710.1338 Q540.0894,708.4775 540.0894,705.3525 Q540.0894,702.2275 541.4019,700.5713 Q542.73,698.915 545.23,698.915 Q545.9332,698.915 546.5738,699.0713 Q547.23,699.2275 547.7925,699.5244 L547.7925,702.2431 Q547.1675,701.665 546.5738,701.3994 Q545.98,701.1181 545.355,701.1181 Q544.0113,701.1181 543.3238,702.1963 Q542.6363,703.2588 542.6363,705.3525 Q542.6363,707.4463 543.3238,708.5244 Q544.0113,709.5869 545.355,709.5869 Q545.98,709.5869 546.5738,709.3213 Q547.1675,709.04 547.7925,708.4619 L547.7925,711.1806 Z " fill="#000000"/><text fill="#000000" font-family="sans-serif" font-size="14" lengthAdjust="spacing" textLength="81.7441" x="563.8846" y="710.3867">Comentario</text><line style="stroke:#181818;stroke-width:0.5;" x1="508.05" x2="670.4025" y1="721.54" y2="721.54"/><ellipse cx="518.05" cy="735.1884" fill="none" rx="3" ry="3" style="stroke:#038048;stroke-width:1;"/><text fill="#000000" font-family="sans-serif" font-size="14" lengthAdjust="spacing" textLength="61.1406" x="527.05" y="738.5351">String ID</text><ellipse cx="518.05" cy="751.4853" fill="none" rx="3" ry="3" style="stroke:#038048;stroke-width:1;"/><text fill="#000000" font-family="sans-serif" font-size="14" lengthAdjust="spacing" textLength="64.4766" x="527.05" y="754.832">Post post</text><ellipse cx="518.05" cy="767.7822" fill="none" rx="3" ry="3" style="stroke:#038048;stroke-width:1;"/><text fill="#000000" font-family="sans-serif" font-size="14" lengthAdjust="spacing" textLength="111.5078" x="527.05" y="771.1289">Usuario creador</text><ellipse cx="518.05" cy="784.0791" fill="none" rx="3" ry="3" style="stroke:#038048;stroke-width:1;"/><text fill="#000000" font-family="sans-serif" font-size="14" lengthAdjust="spacing" textLength="115.6846" x="527.05" y="787.4257">String contenido</text><ellipse cx="518.05" cy="800.3759" fill="none" rx="3" ry="3" style="stroke:#038048;stroke-width:1;"/><text fill="#000000" font-family="sans-serif" font-size="14" lengthAdjust="spacing" textLength="138.3525" x="527.05" y="803.7226">Date fechaCreacion</text><line style="stroke:#181818;stroke-width:0.5;" x1="508.05" x2="670.4025" y1="811.0244" y2="811.0244"/></g><!--class Like--><g class="entity" data-entity="Like" data-source-line="63" data-uid="ent0010" id="entity_Like"><rect fill="#F1F1F1" height="113.1875" rx="2.5" ry="2.5" style="stroke:#181818;stroke-width:0.5;" width="135.4844" x="706.49" y="697.68"/><ellipse cx="755.7771" cy="713.68" fill="#ADD1B2" rx="11" ry="11" style="stroke:#181818;stroke-width:1;"/><path d="M758.7459,719.3206 Q758.1677,719.6175 757.5271,719.7581 Q756.8865,719.9144 756.1834,719.9144 Q753.6834,719.9144 752.3552,718.2738 Q751.0427,716.6175 751.0427,713.4925 Q751.0427,710.3675 752.3552,708.7113 Q753.6834,707.055 756.1834,707.055 Q756.8865,707.055 757.5271,707.2113 Q758.1834,707.3675 758.7459,707.6644 L758.7459,710.3831 Q758.1209,709.805 757.5271,709.5394 Q756.9334,709.2581 756.3084,709.2581 Q754.9646,709.2581 754.2771,710.3363 Q753.5896,711.3988 753.5896,713.4925 Q753.5896,715.5863 754.2771,716.6644 Q754.9646,717.7269 756.3084,717.7269 Q756.9334,717.7269 757.5271,717.4613 Q758.1209,717.18 758.7459,716.6019 L758.7459,719.3206 Z " fill="#000000"/><text fill="#000000" font-family="sans-serif" font-size="14" lengthAdjust="spacing" textLength="28.4102" x="776.2771" y="718.5267">Like</text><line style="stroke:#181818;stroke-width:0.5;" x1="707.49" x2="840.9744" y1="729.68" y2="729.68"/><ellipse cx="717.49" cy="743.3284" fill="none" rx="3" ry="3" style="stroke:#038048;stroke-width:1;"/><text fill="#000000" font-family="sans-serif" font-size="14" lengthAdjust="spacing" textLength="61.1406" x="726.49" y="746.6751">String ID</text><ellipse cx="717.49" cy="759.6253" fill="none" rx="3" ry="3" style="stroke:#038048;stroke-width:1;"/><text fill="#000000" font-family="sans-serif" font-size="14" lengthAdjust="spacing" textLength="64.4766" x="726.49" y="762.972">Post post</text><ellipse cx="717.49" cy="775.9222" fill="none" rx="3" ry="3" style="stroke:#038048;stroke-width:1;"/><text fill="#000000" font-family="sans-serif" font-size="14" lengthAdjust="spacing" textLength="109.4844" x="726.49" y="779.2689">Usuario usuario</text><ellipse cx="717.49" cy="792.2191" fill="none" rx="3" ry="3" style="stroke:#038048;stroke-width:1;"/><text fill="#000000" font-family="sans-serif" font-size="14" lengthAdjust="spacing" textLength="106.0664" x="726.49" y="795.5657">Date DateTime</text><line style="stroke:#181818;stroke-width:0.5;" x1="707.49" x2="840.9744" y1="802.8675" y2="802.8675"/></g><!--reverse link Comunidad to UsuarioRegistrado--><g class="link" data-entity-1="Comunidad" data-entity-2="UsuarioRegistrado" data-source-line="70" data-uid="lnk11" id="link_Comunidad_UsuarioRegistrado"><path codeLine="70" d="M394.4707,153.5713 C373.1007,174.9213 357.65,190.36 335.7,212.29" fill="none" id="Comunidad-backto-UsuarioRegistrado" style="stroke:#181818;stroke-width:1;"/><polygon fill="none" points="402.96,145.09,395.8883,146.5009,394.4707,153.5713,401.5425,152.1604,402.96,145.09" style="stroke:#181818;stroke-width:1;"/></g><!--reverse link Comunidad to Post--><g class="link" data-entity-1="Comunidad" data-entity-2="Post" data-source-line="71" data-uid="lnk12" id="link_Comunidad_Post"><path codeLine="71" d="M467.23,156.72 C467.23,228.22 467.23,333.24 467.23,418.22" fill="none" id="Comunidad-backto-Post" style="stroke:#181818;stroke-width:1;"/><polygon fill="none" points="467.23,144.72,463.23,150.72,467.23,156.72,471.23,150.72,467.23,144.72" style="stroke:#181818;stroke-width:1;"/></g><!--link UsuarioRegistrado to Post--><g class="link" data-entity-1="UsuarioRegistrado" data-entity-2="Post" data-source-line="72" data-uid="lnk13" id="link_UsuarioRegistrado_Post"><path codeLine="72" d="M329.4697,363.4227 C345.6397,382.1627 355.5392,393.6382 372.8392,413.6782" fill="none" id="UsuarioRegistrado-Post" style="stroke:#181818;stroke-width:1;"/><polygon fill="#181818" points="325.55,358.88,328.4011,368.3072,328.8164,362.6656,334.458,363.0809,325.55,358.88" style="stroke:#181818;stroke-width:1;"/><polygon fill="#181818" points="376.76,418.22,373.9067,408.7935,373.4927,414.4352,367.851,414.0212,376.76,418.22" style="stroke:#181818;stroke-width:1;"/></g><!--reverse link UsuarioInvitado to UsuarioRegistrado--><g class="link" data-entity-1="UsuarioInvitado" data-entity-2="UsuarioRegistrado" data-source-line="73" data-uid="lnk14" id="link_UsuarioInvitado_UsuarioRegistrado"><path codeLine="73" d="M237.4814,170.5864 C241.8314,189.8164 242.55,193.05 246.89,212.3" fill="none" id="UsuarioInvitado-backto-UsuarioRegistrado" style="stroke:#181818;stroke-width:1;"/><polygon fill="none" points="233.51,153.03,231.6293,171.9102,243.3336,169.2626,233.51,153.03" style="stroke:#181818;stroke-width:1;"/></g><!--reverse link UsuarioRegistrado to Moderador--><g class="link" data-entity-1="UsuarioRegistrado" data-entity-2="Moderador" data-source-line="74" data-uid="lnk15" id="link_UsuarioRegistrado_Moderador"><path codeLine="74" d="M254.083,376.7881 C249.923,417.7881 246.69,449.63 243.24,483.55" fill="none" id="UsuarioRegistrado-backto-Moderador" style="stroke:#181818;stroke-width:1;"/><polygon fill="none" points="255.9,358.88,248.1136,376.1824,260.0523,377.3937,255.9,358.88" style="stroke:#181818;stroke-width:1;"/></g><!--link Post to Etiqueta--><g class="link" data-entity-1="Post" data-entity-2="Etiqueta" data-source-line="75" data-uid="lnk16" id="link_Post_Etiqueta"><path codeLine="75" d="M406.0699,640.4126 C390.2899,670.1826 385.3034,679.5992 372.9434,702.8992" fill="none" id="Post-Etiqueta" style="stroke:#181818;stroke-width:1;"/><polygon fill="none" points="411.69,629.81,405.3458,633.2379,406.0699,640.4126,412.4142,636.9846,411.69,629.81" style="stroke:#181818;stroke-width:1;"/><polygon fill="none" points="367.32,713.5,373.6653,710.0741,372.9434,702.8992,366.5981,706.3251,367.32,713.5" style="stroke:#181818;stroke-width:1;"/></g><!--reverse link Post to Like--><g class="link" data-entity-1="Post" data-entity-2="Like" data-source-line="76" data-uid="lnk17" id="link_Post_Like"><path codeLine="76" d="M600.8415,623.8544 C632.8115,647.5444 657.5,665.88 689.23,689.54 C694.7,693.61 700.37,697.85 706.06,702.1" fill="none" id="Post-backto-Like" style="stroke:#181818;stroke-width:1;"/><polygon fill="#181818" points="591.2,616.71,593.6393,623.496,600.8415,623.8544,598.4022,617.0684,591.2,616.71" style="stroke:#181818;stroke-width:1;"/></g><!--reverse link Post to Comentario--><g class="link" data-entity-1="Post" data-entity-2="Comentario" data-source-line="77" data-uid="lnk18" id="link_Post_Comentario"><path codeLine="77" d="M528.8868,640.393 C539.7268,660.673 545.12,670.75 555,689.24" fill="none" id="Post-backto-Comentario" style="stroke:#181818;stroke-width:1;"/><polygon fill="#181818" points="523.23,629.81,522.5307,636.9871,528.8868,640.393,529.5861,633.2159,523.23,629.81" style="stroke:#181818;stroke-width:1;"/></g><!--link Post to Filtro--><g class="link" data-entity-1="Post" data-entity-2="Filtro" data-source-line="78" data-uid="lnk19" id="link_Post_Filtro"><path codeLine="78" d="M343.55,618.65 C337.76,622.42 331.97,626.07 326.23,629.54 C273.85,661.23 256.08,660.4 202.23,689.54 C192.98,694.54 188.567,696.9543 179.107,702.4543" fill="none" id="Post-to-Filtro" style="stroke:#181818;stroke-width:1;stroke-dasharray:7.0,7.0;"/><polygon fill="#181818" points="173.92,705.47,183.711,704.4044,178.2425,702.9569,179.6901,697.4884,173.92,705.47" style="stroke:#181818;stroke-width:1;"/></g><!--link Filtro to Etiqueta--><g class="link" data-entity-1="Filtro" data-entity-2="Etiqueta" data-source-line="79" data-uid="lnk20" id="link_Filtro_Etiqueta"><path codeLine="79" d="M185.59,754.28 C196.99,754.28 202.39,754.28 213.79,754.28" fill="none" id="Filtro-to-Etiqueta" style="stroke:#181818;stroke-width:1;stroke-dasharray:7.0,7.0;"/><polygon fill="#181818" points="219.79,754.28,210.79,750.28,214.79,754.28,210.79,758.28,219.79,754.28" style="stroke:#181818;stroke-width:1;"/></g><!--SRC=[bLHBRjmm3Dtx55ecBMPEC30Gv0C4I84WJGv0osnAL1Qdafn59xrxAKlMs1vFa7fXcn-HV8_FXiO71peeRS1xzU9xSCJtzeq2jAmEbPBhw_VWoBugQcUcvQvnc5ntP53zuC39l84W9kgVS6kbVWl9_ORkaNsuk4ocvcuFBj3e_5jLip6Uy9NYU2U3Q7OEPKeVAFIQs899yGV9tyLgjThBtK-yrzprbbfeQpcUNp4dxFl6a8RbS6Z3tFT0lt0vwpTkCOxenXdHK4TsVh01Y-0ohEdfc7I6vIE7rmuXebpwdz3tQ4REoGRLzcwIMTYo0GLlpckO3O9LRdOwpwQqz18m4-9k0_tkCK2jCByjQ1re8lO3iTcOP4JI96RYGu0dt6FHZFtCvZvUNI6nn0-VrUSvO5UUDObSfmWpCxNg2AKW-pDIA-D8h-3uiDffY84RbI82TsFGZs8nhC7GdwIW6SfCxXpc_Kqo1od5KJvOwBeYLfHMkiRj_LU_FZqdbUFjcJgCHSkg56ysfz_v8ZuGSFeps6qszInM_bUxzzMgAoLYOlbqgm6BTEGYpEJw8bcHWQDrt4BoRRTvgLobXnB7MEGV]--></g></svg>