<svg xmlns="http://www.w3.org/2000/svg" xmlns:xlink="http://www.w3.org/1999/xlink" contentStyleType="text/css" data-diagram-type="STATE" height="422px" preserveAspectRatio="none" style="width:1169px;height:422px;background:#FFFFFF;" version="1.1" viewBox="0 0 1169 422" width="1169px" zoomAndPan="magnify"><title>Funciones dentro de "Moderador"</title><defs/><g><g class="title" data-source-line="1"><text fill="#000000" font-family="sans-serif" font-size="14" font-weight="bold" lengthAdjust="spacing" textLength="267.3945" x="443.9631" y="22.9951">Funciones dentro de "Moderador"</text></g><path d="M453.1,44.2969 L694.0971,44.2969 A12.5,12.5 0 0 1 706.5971,56.7969 L706.5971,70.5938 L440.6,70.5938 L440.6,56.7969 A12.5,12.5 0 0 1 453.1,44.2969" fill="#F1F1F1"/><rect fill="none" height="245.2969" rx="12.5" ry="12.5" style="stroke:#181818;stroke-width:0.5;" width="265.9971" x="440.6" y="44.2969"/><line style="stroke:#181818;stroke-width:0.5;" x1="440.6" x2="706.5971" y1="70.5938" y2="70.5938"/><text fill="#000000" font-family="sans-serif" font-size="14" lengthAdjust="spacing" textLength="75.6875" x="535.7548" y="62.292">Moderador</text><g id="Moderador.Seleccion"><rect fill="#F1F1F1" height="50" rx="12.5" ry="12.5" style="stroke:#181818;stroke-width:0.5;" width="86.7256" x="452.6" y="154.5938"/><line style="stroke:#181818;stroke-width:0.5;" x1="452.6" x2="539.3256" y1="180.8906" y2="180.8906"/><text fill="#000000" font-family="sans-serif" font-size="14" lengthAdjust="spacing" textLength="66.7256" x="462.6" y="172.5889">Seleccion</text></g><ellipse cx="495.96" cy="91.5938" fill="#222222" rx="10" ry="10" style="stroke:#222222;stroke-width:1;"/><ellipse cx="495.96" cy="268.5938" fill="none" rx="11" ry="11" style="stroke:#222222;stroke-width:1;"/><ellipse cx="495.96" cy="268.5938" fill="#222222" rx="6" ry="6" style="stroke:#222222;stroke-width:1;"/><!--link *start*Moderador to Seleccion--><g class="link" data-entity-1=".start.Moderador" data-entity-2="Seleccion" data-source-line="5" data-uid="lnk3" id="link_.start.Moderador_Seleccion"><path d="M495.96,101.7937 C495.96,114.1938 495.96,130.7038 495.96,148.1538" fill="none" id="*start*Moderador-to-Seleccion" style="stroke:#181818;stroke-width:1;"/><polygon fill="#181818" points="495.96,154.1538,499.96,145.1538,495.96,149.1538,491.96,145.1538,495.96,154.1538" style="stroke:#181818;stroke-width:1;"/><text fill="#000000" font-family="sans-serif" font-size="13" lengthAdjust="spacing" textLength="39.9902" x="496.96" y="132.6606">entrar</text></g><!--link Seleccion to *end*Moderador--><g class="link" data-entity-1="Seleccion" data-entity-2=".end.Moderador" data-source-line="7" data-uid="lnk5" id="link_Seleccion_.end.Moderador"><path d="M495.96,204.8238 C495.96,222.1238 495.96,238.5138 495.96,251.3438" fill="none" id="Seleccion-to-*end*Moderador" style="stroke:#181818;stroke-width:1;"/><polygon fill="#181818" points="495.96,257.3438,499.96,248.3438,495.96,252.3438,491.96,248.3438,495.96,257.3438" style="stroke:#181818;stroke-width:1;"/><text fill="#000000" font-family="sans-serif" font-size="13" lengthAdjust="spacing" textLength="111.687" x="496.96" y="235.6606">Guardar cambios</text></g><!--link Seleccion to Seleccion--><g class="link" data-entity-1="Seleccion" data-entity-2="Seleccion" data-source-line="8" data-uid="lnk6" id="link_Seleccion_Seleccion"><path d="M539.81,170.1538 C549.91,170.9638 557.33,174.1137 557.33,179.5938 C557.33,185.0738 555.8908,187.7441 545.7908,188.5541" fill="none" id="Seleccion-to-Seleccion" style="stroke:#181818;stroke-width:1;"/><polygon fill="#181818" points="539.81,189.0338,549.101,192.3015,544.794,188.634,548.4614,184.3271,539.81,189.0338" style="stroke:#181818;stroke-width:1;"/><text fill="#000000" font-family="sans-serif" font-size="13" lengthAdjust="spacing" textLength="128.2671" x="563.33" y="184.1606">Hacer mas cambios</text></g><g id="Publicaciones"><rect fill="#F1F1F1" height="50" rx="12.5" ry="12.5" style="stroke:#181818;stroke-width:0.5;" width="115.1904" x="7" y="366.5969"/><line style="stroke:#181818;stroke-width:0.5;" x1="7" x2="122.1904" y1="392.8938" y2="392.8938"/><text fill="#000000" font-family="sans-serif" font-size="14" lengthAdjust="spacing" textLength="95.1904" x="17" y="384.592">Publicaciones</text></g><g id="Reportes"><rect fill="#F1F1F1" height="50" rx="12.5" ry="12.5" style="stroke:#181818;stroke-width:0.5;" width="82.9453" x="294.12" y="366.5969"/><line style="stroke:#181818;stroke-width:0.5;" x1="294.12" x2="377.0653" y1="392.8938" y2="392.8938"/><text fill="#000000" font-family="sans-serif" font-size="14" lengthAdjust="spacing" textLength="62.9453" x="304.12" y="384.592">Reportes</text></g><g id="Usuarios"><rect fill="#F1F1F1" height="50" rx="12.5" ry="12.5" style="stroke:#181818;stroke-width:0.5;" width="80.498" x="533.35" y="366.5969"/><line style="stroke:#181818;stroke-width:0.5;" x1="533.35" x2="613.848" y1="392.8938" y2="392.8938"/><text fill="#000000" font-family="sans-serif" font-size="14" lengthAdjust="spacing" textLength="60.498" x="543.35" y="384.592">Usuarios</text></g><g id="Aplicacion"><rect fill="#F1F1F1" height="50" rx="12.5" ry="12.5" style="stroke:#181818;stroke-width:0.5;" width="91.5449" x="781.82" y="366.5969"/><line style="stroke:#181818;stroke-width:0.5;" x1="781.82" x2="873.3649" y1="392.8938" y2="392.8938"/><text fill="#000000" font-family="sans-serif" font-size="14" lengthAdjust="spacing" textLength="71.5449" x="791.82" y="384.592">Aplicacion</text></g><g id="Comunidades"><rect fill="#F1F1F1" height="50" rx="12.5" ry="12.5" style="stroke:#181818;stroke-width:0.5;" width="115.874" x="1012.66" y="366.5969"/><line style="stroke:#181818;stroke-width:0.5;" x1="1012.66" x2="1128.534" y1="392.8938" y2="392.8938"/><text fill="#000000" font-family="sans-serif" font-size="14" lengthAdjust="spacing" textLength="95.874" x="1022.66" y="384.592">Comunidades</text></g><!--link Moderador to Publicaciones--><g class="link" data-entity-1="Moderador" data-entity-2="Publicaciones" data-source-line="12" data-uid="lnk7" id="link_Moderador_Publicaciones"><path d="M440.31,189.2069 C343.02,209.8569 211.85,248.8469 115.6,319.5969 C99.09,331.7269 88.8149,345.6135 79.9449,360.9435" fill="none" id="Moderador-to-Publicaciones" style="stroke:#181818;stroke-width:1;"/><polygon fill="#181818" points="76.94,366.1369,84.9095,360.3501,79.4441,361.8091,77.9851,356.3436,76.94,366.1369" style="stroke:#181818;stroke-width:1;"/><text fill="#000000" font-family="sans-serif" font-size="13" lengthAdjust="spacing" textLength="229.9248" x="116.6" y="332.6638">Eliminar posts\Revisar comentarios</text></g><!--link Moderador to Reportes--><g class="link" data-entity-1="Moderador" data-entity-2="Reportes" data-source-line="13" data-uid="lnk8" id="link_Moderador_Reportes"><path d="M440.12,247.6869 C412.6,268.5369 385.63,292.7969 364.6,319.5969 C353.83,333.3169 348.2864,345.8653 343.6864,360.4353" fill="none" id="Moderador-to-Reportes" style="stroke:#181818;stroke-width:1;"/><polygon fill="#181818" points="341.88,366.1569,348.404,358.7787,343.3853,361.3889,340.7752,356.3702,341.88,366.1569" style="stroke:#181818;stroke-width:1;"/><text fill="#000000" font-family="sans-serif" font-size="13" lengthAdjust="spacing" textLength="196.5679" x="365.6" y="332.6638">Revisar reportes\de contenido</text></g><!--link Moderador to Usuarios--><g class="link" data-entity-1="Moderador" data-entity-2="Usuarios" data-source-line="14" data-uid="lnk9" id="link_Moderador_Usuarios"><path d="M570.11,290.0069 C570.05,305.6869 570.18,321.5169 570.6,336.5969 C570.86,346.2669 571.0439,350.9075 571.5939,360.1575" fill="none" id="Moderador-to-Usuarios" style="stroke:#181818;stroke-width:1;"/><polygon fill="#181818" points="571.95,366.1469,575.4088,356.9253,571.6532,361.1557,567.4229,357.4002,571.95,366.1469" style="stroke:#181818;stroke-width:1;"/><text fill="#000000" font-family="sans-serif" font-size="13" lengthAdjust="spacing" textLength="212.7417" x="571.6" y="332.6638">Suspender\Advertir\Desbloquear</text></g><!--link Moderador to Aplicacion--><g class="link" data-entity-1="Moderador" data-entity-2="Aplicacion" data-source-line="15" data-uid="lnk10" id="link_Moderador_Aplicacion"><path d="M707,247.8169 C735.99,268.8969 765,293.2069 788.6,319.5969 C800.87,333.3369 808.2733,346.1648 815.0333,360.7248" fill="none" id="Moderador-to-Aplicacion" style="stroke:#181818;stroke-width:1;"/><polygon fill="#181818" points="817.56,366.1669,817.398,356.3193,815.4544,361.6318,810.142,359.6882,817.56,366.1669" style="stroke:#181818;stroke-width:1;"/><text fill="#000000" font-family="sans-serif" font-size="13" lengthAdjust="spacing" textLength="201.5635" x="802.6" y="332.6638">Bloquear palabras\expresiones</text></g><!--link Moderador to Comunidades--><g class="link" data-entity-1="Moderador" data-entity-2="Comunidades" data-source-line="16" data-uid="lnk11" id="link_Moderador_Comunidades"><path d="M706.78,193.7069 C798.72,216.1269 920.51,255.3469 1012.6,319.5969 C1030.22,331.8969 1042.004,346.0068 1052.404,361.2868" fill="none" id="Moderador-to-Comunidades" style="stroke:#181818;stroke-width:1;"/><polygon fill="#181818" points="1055.78,366.2469,1054.0228,356.5561,1052.9667,362.1135,1047.4093,361.0574,1055.78,366.2469" style="stroke:#181818;stroke-width:1;"/><text fill="#000000" font-family="sans-serif" font-size="13" lengthAdjust="spacing" textLength="129.7207" x="1031.6" y="332.6638">Eliminar comunidad</text></g><!--SRC=[RLBBJiCm4BpdArQz592gtdEeLA301GcruaGuECvAM7AyneyA2V7lR5mxJGgv99wTsPrP9wYW4HwYaOeCUkZG14VyWiKpTUX4HsvHLUibh5OhsFd004ZgRKGV24PEAY_N5HF2J0l2JrZV5V3pTlFE_0qSKACS1aCDmrpXKldKOomcx4mTX4E36XwZS9rm84NVAlB_yAO3deH41ptRAVoVCTTMvlYV4S4BZOOteF-ccm8RU8cjLb9aQGqxhNfbs90b7tpJxF6e_E2FUaudt31ptc6FbbnWSNfgA0gNyQRXYv1a0XhLqONurSVKiuWFqLiqp6YQRNT45nH_tQDlDN4itkrSlhN5_4b-csbWXHQj4pmSlwn3d-9TYE-eZsn9TCdx9BeiXN6tx20empQlhEOh-23DZVpr_8UPhJ9ZPJdvMEBcuzb-1YQMVW40]--></g></svg>