<svg xmlns="http://www.w3.org/2000/svg" xmlns:xlink="http://www.w3.org/1999/xlink" contentStyleType="text/css" data-diagram-type="STATE" height="496px" preserveAspectRatio="none" style="width:425px;height:496px;background:#FFFFFF;" version="1.1" viewBox="0 0 425 496" width="425px" zoomAndPan="magnify"><defs/><g><ellipse cx="230.43" cy="16" fill="#222222" rx="10" ry="10" style="stroke:#222222;stroke-width:1;"/><g id="Inicio"><rect fill="#F1F1F1" height="50" rx="12.5" ry="12.5" style="stroke:#181818;stroke-width:0.5;" width="57.0439" x="201.91" y="87"/><line style="stroke:#181818;stroke-width:0.5;" x1="201.91" x2="258.9539" y1="113.2969" y2="113.2969"/><text fill="#000000" font-family="sans-serif" font-size="14" lengthAdjust="spacing" textLength="37.0439" x="211.91" y="104.9951">Inicio</text></g><g id="UsuarioRegistrado"><rect fill="#F1F1F1" height="50" rx="12.5" ry="12.5" style="stroke:#181818;stroke-width:0.5;" width="148.8916" x="32.98" y="214"/><line style="stroke:#181818;stroke-width:0.5;" x1="32.98" x2="181.8716" y1="240.2969" y2="240.2969"/><text fill="#000000" font-family="sans-serif" font-size="14" lengthAdjust="spacing" textLength="128.8916" x="42.98" y="231.9951">UsuarioRegistrado</text></g><g id="Moderador"><rect fill="#F1F1F1" height="50" rx="12.5" ry="12.5" style="stroke:#181818;stroke-width:0.5;" width="95.6875" x="110.59" y="341"/><line style="stroke:#181818;stroke-width:0.5;" x1="110.59" x2="206.2775" y1="367.2969" y2="367.2969"/><text fill="#000000" font-family="sans-serif" font-size="14" lengthAdjust="spacing" textLength="75.6875" x="120.59" y="358.9951">Moderador</text></g><ellipse cx="26.43" cy="479" fill="none" rx="11" ry="11" style="stroke:#222222;stroke-width:1;"/><ellipse cx="26.43" cy="479" fill="#222222" rx="6" ry="6" style="stroke:#222222;stroke-width:1;"/><!--link *start* to Inicio--><g class="link" data-entity-1=".start." data-entity-2="Inicio" data-source-line="1" data-uid="lnk4" id="link_.start._Inicio"><path d="M230.43,26.36 C230.43,40.29 230.43,60.95 230.43,80.65" fill="none" id="*start*-to-Inicio" style="stroke:#181818;stroke-width:1;"/><polygon fill="#181818" points="230.43,86.65,234.43,77.65,230.43,81.65,226.43,77.65,230.43,86.65" style="stroke:#181818;stroke-width:1;"/></g><!--link Inicio to UsuarioRegistrado--><g class="link" data-entity-1="Inicio" data-entity-2="UsuarioRegistrado" data-source-line="2" data-uid="lnk6" id="link_Inicio_UsuarioRegistrado"><path d="M201.52,134 C189.24,143.49 175.09,155.21 163.43,167 C149.19,181.4 138.6424,194.4821 128.1424,208.7121" fill="none" id="Inicio-to-UsuarioRegistrado" style="stroke:#181818;stroke-width:1;"/><polygon fill="#181818" points="124.58,213.54,133.1423,208.673,127.5487,209.5167,126.705,203.9231,124.58,213.54" style="stroke:#181818;stroke-width:1;"/><text fill="#000000" font-family="sans-serif" font-size="13" lengthAdjust="spacing" textLength="111.3188" x="164.43" y="180.0669">seleccionar perfil</text></g><!--link Inicio to Moderador--><g class="link" data-entity-1="Inicio" data-entity-2="Moderador" data-source-line="3" data-uid="lnk8" id="link_Inicio_Moderador"><path d="M259.37,136.53 C267.8,145.13 275.95,155.58 280.43,167 C296.75,208.65 340.52,191.98 253.43,311 C241.67,327.08 228.9484,336.3904 211.6984,344.9204" fill="none" id="Inicio-to-Moderador" style="stroke:#181818;stroke-width:1;"/><polygon fill="#181818" points="206.32,347.58,216.1606,347.1762,210.802,345.3637,212.6145,340.0051,206.32,347.58" style="stroke:#181818;stroke-width:1;"/><text fill="#000000" font-family="sans-serif" font-size="13" lengthAdjust="spacing" textLength="111.3188" x="306.43" y="243.5669">seleccionar perfil</text></g><!--link UsuarioRegistrado to Moderador--><g class="link" data-entity-1="UsuarioRegistrado" data-entity-2="Moderador" data-source-line="5" data-uid="lnk9" id="link_UsuarioRegistrado_Moderador"><path d="M130.15,264.42 C137.09,273.15 144.04,283.46 148.43,294 C154.56,308.71 156.6516,320.4739 157.6116,334.5439" fill="none" id="UsuarioRegistrado-to-Moderador" style="stroke:#181818;stroke-width:1;"/><polygon fill="#181818" points="158.02,340.53,161.3981,331.2786,157.6796,335.5416,153.4166,331.8232,158.02,340.53" style="stroke:#181818;stroke-width:1;"/><text fill="#000000" font-family="sans-serif" font-size="13" lengthAdjust="spacing" textLength="90.4795" x="154.43" y="307.0669">cambiar perfil</text></g><!--link Moderador to UsuarioRegistrado--><g class="link" data-entity-1="Moderador" data-entity-2="UsuarioRegistrado" data-source-line="6" data-uid="lnk10" id="link_Moderador_UsuarioRegistrado"><path d="M110.28,354.01 C87.36,346.11 62.04,332.85 48.43,311 C38.09,294.41 46.3234,281.259 62.6834,268.109" fill="none" id="Moderador-to-UsuarioRegistrado" style="stroke:#181818;stroke-width:1;"/><polygon fill="#181818" points="67.36,264.35,57.8392,266.8707,63.4629,267.4825,62.8511,273.1062,67.36,264.35" style="stroke:#181818;stroke-width:1;"/><text fill="#000000" font-family="sans-serif" font-size="13" lengthAdjust="spacing" textLength="90.4795" x="49.43" y="307.0669">cambiar perfil</text></g><!--link UsuarioRegistrado to *end*--><g class="link" data-entity-1="UsuarioRegistrado" data-entity-2=".end." data-source-line="8" data-uid="lnk12" id="link_UsuarioRegistrado_.end."><path d="M63.99,264.38 C53.53,272.41 43.6,282.33 37.43,294 C6,353.4 17.5909,433.2691 23.1809,462.1791" fill="none" id="UsuarioRegistrado-to-*end*" style="stroke:#181818;stroke-width:1;"/><polygon fill="#181818" points="24.32,468.07,26.5387,458.4743,23.3708,463.1609,18.6842,459.993,24.32,468.07" style="stroke:#181818;stroke-width:1;"/><text fill="#000000" font-family="sans-serif" font-size="13" lengthAdjust="spacing" textLength="48.8706" x="22.43" y="370.5669">Log out</text></g><!--link Moderador to *end*--><g class="link" data-entity-1="Moderador" data-entity-2=".end." data-source-line="9" data-uid="lnk13" id="link_Moderador_.end."><path d="M129.46,391.36 C99.11,416.89 57.8925,451.5488 39.3025,467.1788" fill="none" id="Moderador-to-*end*" style="stroke:#181818;stroke-width:1;"/><polygon fill="#181818" points="34.71,471.04,44.1729,468.3098,38.5371,467.8223,39.0246,462.1865,34.71,471.04" style="stroke:#181818;stroke-width:1;"/><text fill="#000000" font-family="sans-serif" font-size="13" lengthAdjust="spacing" textLength="48.8706" x="93.43" y="434.0669">Log out</text></g><!--SRC=[YzQALT3LjLFmpCjCpipdWb1WaT3YqiIYpFoWrFJCufAYn9HyAuNYr9pKPA1yNcAHGa5gKLfc3h86t_oKL92w8gmAkJ3CGzUKd9YRb8dG09V1vHeqzJWiY0Pwq4h19pzT8R-q1CrG53a0]--></g></svg>