<svg xmlns="http://www.w3.org/2000/svg" xmlns:xlink="http://www.w3.org/1999/xlink" contentStyleType="text/css" data-diagram-type="STATE" height="416px" preserveAspectRatio="none" style="width:620px;height:416px;background:#FFFFFF;" version="1.1" viewBox="0 0 620 416" width="620px" zoomAndPan="magnify"><title>Funciones dentro de "Usuarios"</title><defs/><g><g class="title" data-source-line="1"><text fill="#000000" font-family="sans-serif" font-size="14" font-weight="bold" lengthAdjust="spacing" textLength="250.2021" x="178.1989" y="22.9951">Funciones dentro de "Usuarios"</text></g><path d="M169.93,44.2969 L519.27,44.2969 A12.5,12.5 0 0 1 531.77,56.7969 L531.77,70.5938 L157.43,70.5938 L157.43,56.7969 A12.5,12.5 0 0 1 169.93,44.2969" fill="#F1F1F1"/><rect fill="none" height="239.2969" rx="12.5" ry="12.5" style="stroke:#181818;stroke-width:0.5;" width="374.34" x="157.43" y="44.2969"/><line style="stroke:#181818;stroke-width:0.5;" x1="157.43" x2="531.77" y1="70.5938" y2="70.5938"/><text fill="#000000" font-family="sans-serif" font-size="14" lengthAdjust="spacing" textLength="60.498" x="314.351" y="62.292">Usuarios</text><ellipse cx="319.77" cy="91.5938" fill="#222222" rx="10" ry="10" style="stroke:#222222;stroke-width:1;"/><g id="Usuarios.Selecci.n"><rect fill="#F1F1F1" height="50" rx="12.5" ry="12.5" style="stroke:#181818;stroke-width:0.5;" width="86.7256" x="276.41" y="137.5938"/><line style="stroke:#181818;stroke-width:0.5;" x1="276.41" x2="363.1356" y1="163.8906" y2="163.8906"/><text fill="#000000" font-family="sans-serif" font-size="14" lengthAdjust="spacing" textLength="66.7256" x="286.41" y="155.5889">Selecci&#243;n</text></g><g id="Usuarios.Suspender"><rect fill="#F1F1F1" height="50" rx="12.5" ry="12.5" style="stroke:#181818;stroke-width:0.5;" width="94.6826" x="169.43" y="223.5938"/><line style="stroke:#181818;stroke-width:0.5;" x1="169.43" x2="264.1126" y1="249.8906" y2="249.8906"/><text fill="#000000" font-family="sans-serif" font-size="14" lengthAdjust="spacing" textLength="74.6826" x="179.43" y="241.5889">Suspender</text></g><g id="Usuarios.Advertir"><rect fill="#F1F1F1" height="50" rx="12.5" ry="12.5" style="stroke:#181818;stroke-width:0.5;" width="76.2529" x="281.64" y="223.5938"/><line style="stroke:#181818;stroke-width:0.5;" x1="281.64" x2="357.8929" y1="249.8906" y2="249.8906"/><text fill="#000000" font-family="sans-serif" font-size="14" lengthAdjust="spacing" textLength="56.2529" x="291.64" y="241.5889">Advertir</text></g><g id="Usuarios.Desbloquear"><rect fill="#F1F1F1" height="50" rx="12.5" ry="12.5" style="stroke:#181818;stroke-width:0.5;" width="108.7373" x="375.4" y="223.5938"/><line style="stroke:#181818;stroke-width:0.5;" x1="375.4" x2="484.1373" y1="249.8906" y2="249.8906"/><text fill="#000000" font-family="sans-serif" font-size="14" lengthAdjust="spacing" textLength="88.7373" x="385.4" y="241.5889">Desbloquear</text></g><ellipse cx="512.77" cy="248.5938" fill="none" rx="11" ry="11" style="stroke:#222222;stroke-width:1;"/><ellipse cx="512.77" cy="248.5938" fill="#222222" rx="6" ry="6" style="stroke:#222222;stroke-width:1;"/><!--link *start*Usuarios to Selecci?n--><g class="link" data-entity-1=".start.Usuarios" data-entity-2="Selecci.n" data-source-line="4" data-uid="lnk4" id="link_.start.Usuarios_Selecci.n"><path d="M319.77,101.9038 C319.77,110.9438 319.77,119.0838 319.77,131.3238" fill="none" id="*start*Usuarios-to-Selecci&#243;n" style="stroke:#181818;stroke-width:1;"/><polygon fill="#181818" points="319.77,137.3238,323.77,128.3238,319.77,132.3238,315.77,128.3238,319.77,137.3238" style="stroke:#181818;stroke-width:1;"/></g><!--link Selecci?n to Suspender--><g class="link" data-entity-1="Selecci.n" data-entity-2="Suspender" data-source-line="5" data-uid="lnk6" id="link_Selecci.n_Suspender"><path d="M283.79,187.8938 C269.38,199.0338 257.7626,208.294 244.8526,219.434" fill="none" id="Selecci&#243;n-to-Suspender" style="stroke:#181818;stroke-width:1;"/><polygon fill="#181818" points="240.31,223.3538,249.7371,220.5025,244.0955,220.0873,244.5107,214.4457,240.31,223.3538" style="stroke:#181818;stroke-width:1;"/></g><!--link Selecci?n to Advertir--><g class="link" data-entity-1="Selecci.n" data-entity-2="Advertir" data-source-line="6" data-uid="lnk8" id="link_Selecci.n_Advertir"><path d="M313.59,187.8938 C312.83,199.0338 312.4216,206.2277 313.1816,217.3677" fill="none" id="Selecci&#243;n-to-Advertir" style="stroke:#181818;stroke-width:1;"/><polygon fill="#181818" points="313.59,223.3538,316.9681,214.1024,313.2497,218.3653,308.9867,214.6469,313.59,223.3538" style="stroke:#181818;stroke-width:1;"/></g><!--link Selecci?n to Desbloquear--><g class="link" data-entity-1="Selecci.n" data-entity-2="Desbloquear" data-source-line="7" data-uid="lnk10" id="link_Selecci.n_Desbloquear"><path d="M345.4,187.8938 C359.24,199.0338 371.6451,208.6881 386.9851,219.8281" fill="none" id="Selecci&#243;n-to-Desbloquear" style="stroke:#181818;stroke-width:1;"/><polygon fill="#181818" points="391.84,223.3538,386.9081,214.8287,387.7943,220.4157,382.2073,221.3019,391.84,223.3538" style="stroke:#181818;stroke-width:1;"/></g><!--link Suspender to Selecci?n--><g class="link" data-entity-1="Suspender" data-entity-2="Selecci.n" data-source-line="8" data-uid="lnk11" id="link_Suspender_Selecci.n"><path d="M252.68,223.3538 C267.09,212.2138 278.7059,202.9518 291.6259,191.8118" fill="none" id="Suspender-to-Selecci&#243;n" style="stroke:#181818;stroke-width:1;"/><polygon fill="#181818" points="296.17,187.8938,286.7418,190.7414,292.3833,191.1588,291.9659,196.8002,296.17,187.8938" style="stroke:#181818;stroke-width:1;"/></g><!--link Advertir to Selecci?n--><g class="link" data-entity-1="Advertir" data-entity-2="Selecci.n" data-source-line="9" data-uid="lnk12" id="link_Advertir_Selecci.n"><path d="M325.95,223.3538 C326.71,212.2138 327.113,205.0202 326.363,193.8802" fill="none" id="Advertir-to-Selecci&#243;n" style="stroke:#181818;stroke-width:1;"/><polygon fill="#181818" points="325.96,187.8938,322.5736,197.1421,326.2959,192.8825,330.5555,196.6047,325.96,187.8938" style="stroke:#181818;stroke-width:1;"/></g><!--link Desbloquear to Selecci?n--><g class="link" data-entity-1="Desbloquear" data-entity-2="Selecci.n" data-source-line="10" data-uid="lnk13" id="link_Desbloquear_Selecci.n"><path d="M404.21,223.3538 C390.38,212.2138 377.976,202.5579 362.626,191.4179" fill="none" id="Desbloquear-to-Selecci&#243;n" style="stroke:#181818;stroke-width:1;"/><polygon fill="#181818" points="357.77,187.8938,362.7045,196.4173,361.8166,190.8305,367.4034,189.9426,357.77,187.8938" style="stroke:#181818;stroke-width:1;"/></g><!--link Selecci?n to *end*Usuarios--><g class="link" data-entity-1="Selecci.n" data-entity-2=".end.Usuarios" data-source-line="11" data-uid="lnk15" id="link_Selecci.n_.end.Usuarios"><path d="M363.28,171.8138 C400.19,180.3238 453.29,196.2938 492.77,223.5938 C498.66,227.6638 500.3363,229.0174 503.9263,234.1174" fill="none" id="Selecci&#243;n-to-*end*Usuarios" style="stroke:#181818;stroke-width:1;"/><polygon fill="#181818" points="507.38,239.0238,505.4704,229.3618,504.5019,234.9351,498.9286,233.9667,507.38,239.0238" style="stroke:#181818;stroke-width:1;"/></g><g id="Publicaciones"><rect fill="#F1F1F1" height="50" rx="12.5" ry="12.5" style="stroke:#181818;stroke-width:0.5;" width="115.1904" x="7" y="360.5969"/><line style="stroke:#181818;stroke-width:0.5;" x1="7" x2="122.1904" y1="386.8938" y2="386.8938"/><text fill="#000000" font-family="sans-serif" font-size="14" lengthAdjust="spacing" textLength="95.1904" x="17" y="378.592">Publicaciones</text></g><g id="Reportes"><rect fill="#F1F1F1" height="50" rx="12.5" ry="12.5" style="stroke:#181818;stroke-width:0.5;" width="82.9453" x="180.12" y="360.5969"/><line style="stroke:#181818;stroke-width:0.5;" x1="180.12" x2="263.0653" y1="386.8938" y2="386.8938"/><text fill="#000000" font-family="sans-serif" font-size="14" lengthAdjust="spacing" textLength="62.9453" x="190.12" y="378.592">Reportes</text></g><g id="Aplicacion"><rect fill="#F1F1F1" height="50" rx="12.5" ry="12.5" style="stroke:#181818;stroke-width:0.5;" width="91.5449" x="298.82" y="360.5969"/><line style="stroke:#181818;stroke-width:0.5;" x1="298.82" x2="390.3649" y1="386.8938" y2="386.8938"/><text fill="#000000" font-family="sans-serif" font-size="14" lengthAdjust="spacing" textLength="71.5449" x="308.82" y="378.592">Aplicacion</text></g><g id="Comunidades"><rect fill="#F1F1F1" height="50" rx="12.5" ry="12.5" style="stroke:#181818;stroke-width:0.5;" width="115.874" x="425.66" y="360.5969"/><line style="stroke:#181818;stroke-width:0.5;" x1="425.66" x2="541.534" y1="386.8938" y2="386.8938"/><text fill="#000000" font-family="sans-serif" font-size="14" lengthAdjust="spacing" textLength="95.874" x="435.66" y="378.592">Comunidades</text></g><ellipse cx="603.6" cy="385.5969" fill="none" rx="11" ry="11" style="stroke:#222222;stroke-width:1;"/><ellipse cx="603.6" cy="385.5969" fill="#222222" rx="6" ry="6" style="stroke:#222222;stroke-width:1;"/><!--link Usuarios to Publicaciones--><g class="link" data-entity-1="Usuarios" data-entity-2="Publicaciones" data-source-line="14" data-uid="lnk17" id="link_Usuarios_Publicaciones"><path d="M156.97,283.6769 C144.67,293.3769 132.75,303.3869 121.6,313.5969 C106.32,327.5769 95.285,340.9888 84.705,355.4988" fill="none" id="Usuarios-to-Publicaciones" style="stroke:#181818;stroke-width:1;"/><polygon fill="#181818" points="81.17,360.3469,89.7045,355.4314,84.1158,356.3068,83.2404,350.7181,81.17,360.3469" style="stroke:#181818;stroke-width:1;"/><text fill="#000000" font-family="sans-serif" font-size="13" lengthAdjust="spacing" textLength="115.1719" x="122.6" y="326.6638">Ver publicaciones</text></g><!--link Usuarios to Reportes--><g class="link" data-entity-1="Usuarios" data-entity-2="Reportes" data-source-line="15" data-uid="lnk19" id="link_Usuarios_Reportes"><path d="M270,283.8569 C264.3,293.8369 258.76,303.8369 253.6,313.5969 C245.57,328.7769 239.9974,340.8536 234.0374,354.7336" fill="none" id="Usuarios-to-Reportes" style="stroke:#181818;stroke-width:1;"/><polygon fill="#181818" points="231.67,360.2469,238.8965,353.5553,233.6428,355.6525,231.5455,350.3988,231.67,360.2469" style="stroke:#181818;stroke-width:1;"/><text fill="#000000" font-family="sans-serif" font-size="13" lengthAdjust="spacing" textLength="81.1294" x="254.6" y="326.6638">Ver reportes</text></g><!--link Usuarios to Aplicacion--><g class="link" data-entity-1="Usuarios" data-entity-2="Aplicacion" data-source-line="16" data-uid="lnk21" id="link_Usuarios_Aplicacion"><path d="M344.6,284.0969 C344.6,313.1369 344.6,335.3069 344.6,354.3969" fill="none" id="Usuarios-to-Aplicacion" style="stroke:#181818;stroke-width:1;"/><polygon fill="#181818" points="344.6,360.3969,348.6,351.3969,344.6,355.3969,340.6,351.3969,344.6,360.3969" style="stroke:#181818;stroke-width:1;"/><text fill="#000000" font-family="sans-serif" font-size="13" lengthAdjust="spacing" textLength="91.876" x="345.6" y="326.6638">Ver aplicacion</text></g><!--link Usuarios to Comunidades--><g class="link" data-entity-1="Usuarios" data-entity-2="Comunidades" data-source-line="17" data-uid="lnk23" id="link_Usuarios_Comunidades"><path d="M422.89,283.9169 C429.27,293.9269 435.58,303.9169 441.6,313.5969 C451.12,328.9269 458.4286,341.1731 466.4486,354.9331" fill="none" id="Usuarios-to-Comunidades" style="stroke:#181818;stroke-width:1;"/><polygon fill="#181818" points="469.47,360.1169,468.3938,350.327,466.9522,355.7971,461.4821,354.3555,469.47,360.1169" style="stroke:#181818;stroke-width:1;"/><text fill="#000000" font-family="sans-serif" font-size="13" lengthAdjust="spacing" textLength="98.6934" x="452.6" y="326.6638">Ver comunidad</text></g><!--link Usuarios to *end*--><g class="link" data-entity-1="Usuarios" data-entity-2=".end." data-source-line="18" data-uid="lnk25" id="link_Usuarios_.end."><path d="M528.43,283.9669 C539.4,293.4969 549.9,303.4069 559.6,313.5969 C577.78,332.7169 589.7704,355.1197 596.6704,369.6097" fill="none" id="Usuarios-to-*end*" style="stroke:#181818;stroke-width:1;"/><polygon fill="#181818" points="599.25,375.0269,598.992,365.1814,597.1003,370.5126,591.7692,368.6209,599.25,375.0269" style="stroke:#181818;stroke-width:1;"/></g><!--SRC=[XP1D2i8m48NtESNGfT0Bk12AubeKkn4NQJABWPZ4_BWHJ-KHl9ZHcjfGmLMOzxwy-GaK5C8wQa56emU9EZYJ7gZsFd97nbUC-S03GXRWoW0EioFKzG9sg508Ujnr4hz5xqLlKKjqKwkH5tI1VZWhz9qovuZyRUQ8QRCSCNL64NzdJ7km6sF3RYzj4pj5WlSdcKERkjknLD9RjCQ53BfFLJADpRzxYWzroItDAMgINEOuaOMIIrC_0G00]--></g></svg>