<svg xmlns="http://www.w3.org/2000/svg" xmlns:xlink="http://www.w3.org/1999/xlink" contentStyleType="text/css" data-diagram-type="STATE" height="416px" preserveAspectRatio="none" style="width:627px;height:416px;background:#FFFFFF;" version="1.1" viewBox="0 0 627 416" width="627px" zoomAndPan="magnify"><title>Funciones dentro de "Aplicaci&#243;n"</title><defs/><g><g class="title" data-source-line="1"><text fill="#000000" font-family="sans-serif" font-size="14" font-weight="bold" lengthAdjust="spacing" textLength="262.3154" x="175.6423" y="22.9951">Funciones dentro de "Aplicaci&#243;n"</text></g><path d="M207.92,44.2969 L481.27,44.2969 A12.5,12.5 0 0 1 493.77,56.7969 L493.77,70.5938 L195.42,70.5938 L195.42,56.7969 A12.5,12.5 0 0 1 207.92,44.2969" fill="#F1F1F1"/><rect fill="none" height="239.2969" rx="12.5" ry="12.5" style="stroke:#181818;stroke-width:0.5;" width="298.35" x="195.42" y="44.2969"/><line style="stroke:#181818;stroke-width:0.5;" x1="195.42" x2="493.77" y1="70.5938" y2="70.5938"/><text fill="#000000" font-family="sans-serif" font-size="14" lengthAdjust="spacing" textLength="71.5449" x="308.8225" y="62.292">Aplicacion</text><ellipse cx="326.77" cy="91.5938" fill="#222222" rx="10" ry="10" style="stroke:#222222;stroke-width:1;"/><g id="Aplicacion.Selecci.n"><rect fill="#F1F1F1" height="50" rx="12.5" ry="12.5" style="stroke:#181818;stroke-width:0.5;" width="86.7256" x="283.41" y="137.5938"/><line style="stroke:#181818;stroke-width:0.5;" x1="283.41" x2="370.1356" y1="163.8906" y2="163.8906"/><text fill="#000000" font-family="sans-serif" font-size="14" lengthAdjust="spacing" textLength="66.7256" x="293.41" y="155.5889">Selecci&#243;n</text></g><g id="Aplicacion.BloquearPalabrasOExpresiones"><rect fill="#F1F1F1" height="50" rx="12.5" ry="12.5" style="stroke:#181818;stroke-width:0.5;" width="238.709" x="207.42" y="223.5938"/><line style="stroke:#181818;stroke-width:0.5;" x1="207.42" x2="446.129" y1="249.8906" y2="249.8906"/><text fill="#000000" font-family="sans-serif" font-size="14" lengthAdjust="spacing" textLength="218.709" x="217.42" y="241.5889">BloquearPalabrasOExpresiones</text></g><ellipse cx="474.77" cy="248.5938" fill="none" rx="11" ry="11" style="stroke:#222222;stroke-width:1;"/><ellipse cx="474.77" cy="248.5938" fill="#222222" rx="6" ry="6" style="stroke:#222222;stroke-width:1;"/><!--link *start*Aplicacion to Selecci?n--><g class="link" data-entity-1=".start.Aplicacion" data-entity-2="Selecci.n" data-source-line="4" data-uid="lnk4" id="link_.start.Aplicacion_Selecci.n"><path d="M326.77,101.9038 C326.77,110.9438 326.77,119.0838 326.77,131.3238" fill="none" id="*start*Aplicacion-to-Selecci&#243;n" style="stroke:#181818;stroke-width:1;"/><polygon fill="#181818" points="326.77,137.3238,330.77,128.3238,326.77,132.3238,322.77,128.3238,326.77,137.3238" style="stroke:#181818;stroke-width:1;"/></g><!--link Selecci?n to BloquearPalabrasOExpresiones--><g class="link" data-entity-1="Selecci.n" data-entity-2="BloquearPalabrasOExpresiones" data-source-line="5" data-uid="lnk6" id="link_Selecci.n_BloquearPalabrasOExpresiones"><path d="M320.59,187.8938 C319.84,199.0338 319.437,206.2273 320.187,217.3673" fill="none" id="Selecci&#243;n-to-BloquearPalabrasOExpresiones" style="stroke:#181818;stroke-width:1;"/><polygon fill="#181818" points="320.59,223.3538,323.9764,214.1054,320.2541,218.365,315.9945,214.6428,320.59,223.3538" style="stroke:#181818;stroke-width:1;"/></g><!--link BloquearPalabrasOExpresiones to Selecci?n--><g class="link" data-entity-1="BloquearPalabrasOExpresiones" data-entity-2="Selecci.n" data-source-line="6" data-uid="lnk7" id="link_BloquearPalabrasOExpresiones_Selecci.n"><path d="M332.96,223.3538 C333.71,212.2138 334.113,205.0202 333.363,193.8802" fill="none" id="BloquearPalabrasOExpresiones-to-Selecci&#243;n" style="stroke:#181818;stroke-width:1;"/><polygon fill="#181818" points="332.96,187.8938,329.5736,197.1421,333.2959,192.8825,337.5555,196.6047,332.96,187.8938" style="stroke:#181818;stroke-width:1;"/></g><!--link Selecci?n to *end*Aplicacion--><g class="link" data-entity-1="Selecci.n" data-entity-2=".end.Aplicacion" data-source-line="8" data-uid="lnk9" id="link_Selecci.n_.end.Aplicacion"><path d="M370.62,178.6038 C396.65,188.8138 429.42,204.0238 454.77,223.5938 C460.27,227.8338 461.7172,228.9987 465.3472,233.9387" fill="none" id="Selecci&#243;n-to-*end*Aplicacion" style="stroke:#181818;stroke-width:1;"/><polygon fill="#181818" points="468.9,238.7738,466.7941,229.1527,465.9393,234.7446,460.3474,233.8898,468.9,238.7738" style="stroke:#181818;stroke-width:1;"/></g><g id="Publicaciones"><rect fill="#F1F1F1" height="50" rx="12.5" ry="12.5" style="stroke:#181818;stroke-width:0.5;" width="115.1904" x="7" y="360.5969"/><line style="stroke:#181818;stroke-width:0.5;" x1="7" x2="122.1904" y1="386.8938" y2="386.8938"/><text fill="#000000" font-family="sans-serif" font-size="14" lengthAdjust="spacing" textLength="95.1904" x="17" y="378.592">Publicaciones</text></g><g id="Reportes"><rect fill="#F1F1F1" height="50" rx="12.5" ry="12.5" style="stroke:#181818;stroke-width:0.5;" width="82.9453" x="180.12" y="360.5969"/><line style="stroke:#181818;stroke-width:0.5;" x1="180.12" x2="263.0653" y1="386.8938" y2="386.8938"/><text fill="#000000" font-family="sans-serif" font-size="14" lengthAdjust="spacing" textLength="62.9453" x="190.12" y="378.592">Reportes</text></g><g id="Usuarios"><rect fill="#F1F1F1" height="50" rx="12.5" ry="12.5" style="stroke:#181818;stroke-width:0.5;" width="80.498" x="302.35" y="360.5969"/><line style="stroke:#181818;stroke-width:0.5;" x1="302.35" x2="382.848" y1="386.8938" y2="386.8938"/><text fill="#000000" font-family="sans-serif" font-size="14" lengthAdjust="spacing" textLength="60.498" x="312.35" y="378.592">Usuarios</text></g><g id="Comunidades"><rect fill="#F1F1F1" height="50" rx="12.5" ry="12.5" style="stroke:#181818;stroke-width:0.5;" width="115.874" x="417.66" y="360.5969"/><line style="stroke:#181818;stroke-width:0.5;" x1="417.66" x2="533.534" y1="386.8938" y2="386.8938"/><text fill="#000000" font-family="sans-serif" font-size="14" lengthAdjust="spacing" textLength="95.874" x="427.66" y="378.592">Comunidades</text></g><ellipse cx="610.6" cy="385.5969" fill="none" rx="11" ry="11" style="stroke:#222222;stroke-width:1;"/><ellipse cx="610.6" cy="385.5969" fill="#222222" rx="6" ry="6" style="stroke:#222222;stroke-width:1;"/><!--link Aplicacion to Publicaciones--><g class="link" data-entity-1="Aplicacion" data-entity-2="Publicaciones" data-source-line="11" data-uid="lnk11" id="link_Aplicacion_Publicaciones"><path d="M195.02,254.5569 C169.11,272.7369 143.25,292.7269 120.6,313.5969 C105.47,327.5269 94.6487,340.9154 84.2787,355.4254" fill="none" id="Aplicacion-to-Publicaciones" style="stroke:#181818;stroke-width:1;"/><polygon fill="#181818" points="80.79,360.3069,89.2774,355.3104,83.6973,356.239,82.7687,350.6588,80.79,360.3069" style="stroke:#181818;stroke-width:1;"/><text fill="#000000" font-family="sans-serif" font-size="13" lengthAdjust="spacing" textLength="115.1719" x="121.6" y="326.6638">Ver publicaciones</text></g><!--link Aplicacion to Reportes--><g class="link" data-entity-1="Aplicacion" data-entity-2="Reportes" data-source-line="12" data-uid="lnk13" id="link_Aplicacion_Reportes"><path d="M269.02,283.7569 C263.29,293.7469 257.74,303.7869 252.6,313.5969 C244.66,328.7269 239.2615,340.7717 233.5215,354.6617" fill="none" id="Aplicacion-to-Reportes" style="stroke:#181818;stroke-width:1;"/><polygon fill="#181818" points="231.23,360.2069,238.3641,353.4168,233.1396,355.5859,230.9705,350.3614,231.23,360.2069" style="stroke:#181818;stroke-width:1;"/><text fill="#000000" font-family="sans-serif" font-size="13" lengthAdjust="spacing" textLength="81.1294" x="253.6" y="326.6638">Ver reportes</text></g><!--link Aplicacion to Usuarios--><g class="link" data-entity-1="Aplicacion" data-entity-2="Usuarios" data-source-line="13" data-uid="lnk15" id="link_Aplicacion_Usuarios"><path d="M343.51,284.0969 C343.25,313.1369 343.0434,335.3071 342.8734,354.3971" fill="none" id="Aplicacion-to-Usuarios" style="stroke:#181818;stroke-width:1;"/><polygon fill="#181818" points="342.82,360.3969,346.9,351.4329,342.8645,355.3971,338.9003,351.3616,342.82,360.3969" style="stroke:#181818;stroke-width:1;"/><text fill="#000000" font-family="sans-serif" font-size="13" lengthAdjust="spacing" textLength="81.269" x="344.6" y="326.6638">Ver usuarios</text></g><!--link Aplicacion to Comunidades--><g class="link" data-entity-1="Aplicacion" data-entity-2="Comunidades" data-source-line="14" data-uid="lnk17" id="link_Aplicacion_Comunidades"><path d="M415.82,283.7769 C421.84,293.8569 427.83,303.9069 433.6,313.5969 C442.82,329.1069 450.088,341.3811 458.188,355.0911" fill="none" id="Aplicacion-to-Comunidades" style="stroke:#181818;stroke-width:1;"/><polygon fill="#181818" points="461.24,360.2569,460.1059,350.4735,458.6967,355.9521,453.2182,354.5429,461.24,360.2569" style="stroke:#181818;stroke-width:1;"/><text fill="#000000" font-family="sans-serif" font-size="13" lengthAdjust="spacing" textLength="113.4644" x="444.6" y="326.6638">Ver comunidades</text></g><!--link Aplicacion to *end*--><g class="link" data-entity-1="Aplicacion" data-entity-2=".end." data-source-line="15" data-uid="lnk19" id="link_Aplicacion_.end."><path d="M494.22,252.2369 C519.9,270.7169 545.17,291.4069 566.6,313.5969 C584.93,332.5869 596.8684,355.0312 603.7284,369.5612" fill="none" id="Aplicacion-to-*end*" style="stroke:#181818;stroke-width:1;"/><polygon fill="#181818" points="606.29,374.9869,606.0647,365.1406,604.1553,370.4655,598.8305,368.5561,606.29,374.9869" style="stroke:#181818;stroke-width:1;"/></g><!--SRC=[VOv12i8m44NtESNGfT0Bk11KT6jHT2Ckfkai0Z599ma8ugayWXSpBIqj4Lo5_-RnyuCAcc0VZLJMa8U6J62R7YZMJYk9KdtUfX321mm48xC6dWBWkhX1MQxWH9faRoOuXVwsqRQDX5oXnfhH7tOFn-JxxvBzxvnt_vQd0U8bn6nMHwjOZvdyya8CRavo_KZESaWcT2eFARVEFY8hErXnIBcrjVTeL8FDM2SdaBjf_1S0]--></g></svg>