<svg xmlns="http://www.w3.org/2000/svg" xmlns:xlink="http://www.w3.org/1999/xlink" contentStyleType="text/css" data-diagram-type="STATE" height="416px" preserveAspectRatio="none" style="width:635px;height:416px;background:#FFFFFF;" version="1.1" viewBox="0 0 635 416" width="635px" zoomAndPan="magnify"><title>Funciones dentro de "Reportes"</title><defs/><g><g class="title" data-source-line="1"><text fill="#000000" font-family="sans-serif" font-size="14" font-weight="bold" lengthAdjust="spacing" textLength="252.7725" x="184.4138" y="22.9951">Funciones dentro de "Reportes"</text></g><path d="M255.18,44.2969 L434.02,44.2969 A12.5,12.5 0 0 1 446.52,56.7969 L446.52,70.5938 L242.68,70.5938 L242.68,56.7969 A12.5,12.5 0 0 1 255.18,44.2969" fill="#F1F1F1"/><rect fill="none" height="239.2969" rx="12.5" ry="12.5" style="stroke:#181818;stroke-width:0.5;" width="203.84" x="242.68" y="44.2969"/><line style="stroke:#181818;stroke-width:0.5;" x1="242.68" x2="446.52" y1="70.5938" y2="70.5938"/><text fill="#000000" font-family="sans-serif" font-size="14" lengthAdjust="spacing" textLength="62.9453" x="313.1273" y="62.292">Reportes</text><ellipse cx="326.52" cy="91.5938" fill="#222222" rx="10" ry="10" style="stroke:#222222;stroke-width:1;"/><g id="Reportes.Selecci.n"><rect fill="#F1F1F1" height="50" rx="12.5" ry="12.5" style="stroke:#181818;stroke-width:0.5;" width="86.7256" x="283.16" y="137.5938"/><line style="stroke:#181818;stroke-width:0.5;" x1="283.16" x2="369.8856" y1="163.8906" y2="163.8906"/><text fill="#000000" font-family="sans-serif" font-size="14" lengthAdjust="spacing" textLength="66.7256" x="293.16" y="155.5889">Selecci&#243;n</text></g><g id="Reportes.RevisarContenido"><rect fill="#F1F1F1" height="50" rx="12.5" ry="12.5" style="stroke:#181818;stroke-width:0.5;" width="143.6758" x="254.68" y="223.5938"/><line style="stroke:#181818;stroke-width:0.5;" x1="254.68" x2="398.3558" y1="249.8906" y2="249.8906"/><text fill="#000000" font-family="sans-serif" font-size="14" lengthAdjust="spacing" textLength="123.6758" x="264.68" y="241.5889">RevisarContenido</text></g><ellipse cx="427.52" cy="248.5938" fill="none" rx="11" ry="11" style="stroke:#222222;stroke-width:1;"/><ellipse cx="427.52" cy="248.5938" fill="#222222" rx="6" ry="6" style="stroke:#222222;stroke-width:1;"/><!--link *start*Reportes to Selecci?n--><g class="link" data-entity-1=".start.Reportes" data-entity-2="Selecci.n" data-source-line="4" data-uid="lnk4" id="link_.start.Reportes_Selecci.n"><path d="M326.52,101.9038 C326.52,110.9438 326.52,119.0838 326.52,131.3238" fill="none" id="*start*Reportes-to-Selecci&#243;n" style="stroke:#181818;stroke-width:1;"/><polygon fill="#181818" points="326.52,137.3238,330.52,128.3238,326.52,132.3238,322.52,128.3238,326.52,137.3238" style="stroke:#181818;stroke-width:1;"/></g><!--link Selecci?n to RevisarContenido--><g class="link" data-entity-1="Selecci.n" data-entity-2="RevisarContenido" data-source-line="5" data-uid="lnk6" id="link_Selecci.n_RevisarContenido"><path d="M320.33,187.8938 C319.58,199.0338 319.1716,206.2277 319.9316,217.3677" fill="none" id="Selecci&#243;n-to-RevisarContenido" style="stroke:#181818;stroke-width:1;"/><polygon fill="#181818" points="320.34,223.3538,323.7181,214.1024,319.9997,218.3653,315.7367,214.6469,320.34,223.3538" style="stroke:#181818;stroke-width:1;"/></g><!--link RevisarContenido to Selecci?n--><g class="link" data-entity-1="RevisarContenido" data-entity-2="Selecci.n" data-source-line="6" data-uid="lnk7" id="link_RevisarContenido_Selecci.n"><path d="M332.7,223.3538 C333.46,212.2138 333.8684,205.0198 333.1084,193.8798" fill="none" id="RevisarContenido-to-Selecci&#243;n" style="stroke:#181818;stroke-width:1;"/><polygon fill="#181818" points="332.7,187.8938,329.3219,197.1451,333.0403,192.8822,337.3033,196.6006,332.7,187.8938" style="stroke:#181818;stroke-width:1;"/></g><!--link Selecci?n to *end*Reportes--><g class="link" data-entity-1="Selecci.n" data-entity-2=".end.Reportes" data-source-line="7" data-uid="lnk9" id="link_Selecci.n_.end.Reportes"><path d="M363.06,187.8438 C377.52,198.1438 393.9,210.7338 407.52,223.5938 C412.57,228.3638 413.8932,229.6223 417.6232,234.4323" fill="none" id="Selecci&#243;n-to-*end*Reportes" style="stroke:#181818;stroke-width:1;"/><polygon fill="#181818" points="421.3,239.1737,418.9457,229.6104,418.236,235.2226,412.6238,234.5128,421.3,239.1737" style="stroke:#181818;stroke-width:1;"/></g><g id="Publicaciones"><rect fill="#F1F1F1" height="50" rx="12.5" ry="12.5" style="stroke:#181818;stroke-width:0.5;" width="115.1904" x="7" y="360.5969"/><line style="stroke:#181818;stroke-width:0.5;" x1="7" x2="122.1904" y1="386.8938" y2="386.8938"/><text fill="#000000" font-family="sans-serif" font-size="14" lengthAdjust="spacing" textLength="95.1904" x="17" y="378.592">Publicaciones</text></g><g id="Usuarios"><rect fill="#F1F1F1" height="50" rx="12.5" ry="12.5" style="stroke:#181818;stroke-width:0.5;" width="80.498" x="181.35" y="360.5969"/><line style="stroke:#181818;stroke-width:0.5;" x1="181.35" x2="261.848" y1="386.8938" y2="386.8938"/><text fill="#000000" font-family="sans-serif" font-size="14" lengthAdjust="spacing" textLength="60.498" x="191.35" y="378.592">Usuarios</text></g><g id="Aplicacion"><rect fill="#F1F1F1" height="50" rx="12.5" ry="12.5" style="stroke:#181818;stroke-width:0.5;" width="91.5449" x="297.82" y="360.5969"/><line style="stroke:#181818;stroke-width:0.5;" x1="297.82" x2="389.3649" y1="386.8938" y2="386.8938"/><text fill="#000000" font-family="sans-serif" font-size="14" lengthAdjust="spacing" textLength="71.5449" x="307.82" y="378.592">Aplicacion</text></g><g id="Comunidades"><rect fill="#F1F1F1" height="50" rx="12.5" ry="12.5" style="stroke:#181818;stroke-width:0.5;" width="115.874" x="424.66" y="360.5969"/><line style="stroke:#181818;stroke-width:0.5;" x1="424.66" x2="540.534" y1="386.8938" y2="386.8938"/><text fill="#000000" font-family="sans-serif" font-size="14" lengthAdjust="spacing" textLength="95.874" x="434.66" y="378.592">Comunidades</text></g><ellipse cx="618.6" cy="385.5969" fill="none" rx="11" ry="11" style="stroke:#222222;stroke-width:1;"/><ellipse cx="618.6" cy="385.5969" fill="#222222" rx="6" ry="6" style="stroke:#222222;stroke-width:1;"/><!--link Reportes to Publicaciones--><g class="link" data-entity-1="Reportes" data-entity-2="Publicaciones" data-source-line="10" data-uid="lnk11" id="link_Reportes_Publicaciones"><path d="M242.39,223.7769 C202.67,248.9469 158.06,280.2169 121.6,313.5969 C106.32,327.5769 95.285,340.9888 84.705,355.4988" fill="none" id="Reportes-to-Publicaciones" style="stroke:#181818;stroke-width:1;"/><polygon fill="#181818" points="81.17,360.3469,89.7045,355.4314,84.1158,356.3068,83.2404,350.7181,81.17,360.3469" style="stroke:#181818;stroke-width:1;"/><text fill="#000000" font-family="sans-serif" font-size="13" lengthAdjust="spacing" textLength="115.1719" x="122.6" y="326.6638">Ver publicaciones</text></g><!--link Reportes to Usuarios--><g class="link" data-entity-1="Reportes" data-entity-2="Usuarios" data-source-line="11" data-uid="lnk13" id="link_Reportes_Usuarios"><path d="M270,283.8569 C264.3,293.8369 258.76,303.8369 253.6,313.5969 C245.57,328.7769 239.9974,340.8536 234.0374,354.7336" fill="none" id="Reportes-to-Usuarios" style="stroke:#181818;stroke-width:1;"/><polygon fill="#181818" points="231.67,360.2469,238.8965,353.5553,233.6428,355.6525,231.5455,350.3988,231.67,360.2469" style="stroke:#181818;stroke-width:1;"/><text fill="#000000" font-family="sans-serif" font-size="13" lengthAdjust="spacing" textLength="81.269" x="254.6" y="326.6638">Ver usuarios</text></g><!--link Reportes to Aplicacion--><g class="link" data-entity-1="Reportes" data-entity-2="Aplicacion" data-source-line="12" data-uid="lnk15" id="link_Reportes_Aplicacion"><path d="M344.05,284.0969 C343.92,313.1369 343.8151,335.3069 343.7351,354.3969" fill="none" id="Reportes-to-Aplicacion" style="stroke:#181818;stroke-width:1;"/><polygon fill="#181818" points="343.71,360.3969,347.7477,351.4137,343.731,355.3969,339.7478,351.3802,343.71,360.3969" style="stroke:#181818;stroke-width:1;"/><text fill="#000000" font-family="sans-serif" font-size="13" lengthAdjust="spacing" textLength="91.876" x="345.6" y="326.6638">Ver aplicacion</text></g><!--link Reportes to Comunidades--><g class="link" data-entity-1="Reportes" data-entity-2="Comunidades" data-source-line="13" data-uid="lnk17" id="link_Reportes_Comunidades"><path d="M423,283.8469 C429.36,293.8669 435.63,303.8869 441.6,313.5969 C451.06,328.9969 458.2594,341.3781 466.0994,355.1981" fill="none" id="Reportes-to-Comunidades" style="stroke:#181818;stroke-width:1;"/><polygon fill="#181818" points="469.06,360.4169,468.0983,350.6151,466.5929,356.0679,461.14,354.5625,469.06,360.4169" style="stroke:#181818;stroke-width:1;"/><text fill="#000000" font-family="sans-serif" font-size="13" lengthAdjust="spacing" textLength="113.4644" x="452.6" y="326.6638">Ver comunidades</text></g><!--link Reportes to *end*--><g class="link" data-entity-1="Reportes" data-entity-2=".end." data-source-line="14" data-uid="lnk19" id="link_Reportes_.end."><path d="M446.8,217.7369 C489.48,242.9769 537.63,275.9269 574.6,313.5969 C593.08,332.4369 604.9825,354.9399 611.7825,369.5099" fill="none" id="Reportes-to-*end*" style="stroke:#181818;stroke-width:1;"/><polygon fill="#181818" points="614.32,374.9469,614.1384,365.0997,612.2054,370.416,606.8891,368.483,614.32,374.9469" style="stroke:#181818;stroke-width:1;"/></g><!--SRC=[XOuz2W8n48Nxd6BOKjWBM0YoO2qhseX5JAOOM3CXcTY8f_88Nipe_XaRg_2-VCbxGj8XR98pn0uZM7GIE1zGjUWv2CPAgIXQ44O0DmLmN9oWhbUmmmwDeUV3PJY7prsBLuewDEm47LdEnY_w-qVkKNUbfkutswPpHqRtavTmm03-6vNsFYOTY0Sn3QbqrdvytLjwogNNy2NbsTgElMO6fPbtlm00]--></g></svg>