<svg xmlns="http://www.w3.org/2000/svg" xmlns:xlink="http://www.w3.org/1999/xlink" contentStyleType="text/css" data-diagram-type="STATE" height="416px" preserveAspectRatio="none" style="width:576px;height:416px;background:#FFFFFF;" version="1.1" viewBox="0 0 576 416" width="576px" zoomAndPan="magnify"><title>Funciones dentro de "Comunidades"</title><defs/><g><g class="title" data-source-line="1"><text fill="#000000" font-family="sans-serif" font-size="14" font-weight="bold" lengthAdjust="spacing" textLength="287.9639" x="137.3181" y="22.9951">Funciones dentro de "Comunidades"</text></g><path d="M285.92,44.2969 L403.28,44.2969 A12.5,12.5 0 0 1 415.78,56.7969 L415.78,70.5938 L273.42,70.5938 L273.42,56.7969 A12.5,12.5 0 0 1 285.92,44.2969" fill="#F1F1F1"/><rect fill="none" height="239.2969" rx="12.5" ry="12.5" style="stroke:#181818;stroke-width:0.5;" width="142.36" x="273.42" y="44.2969"/><line style="stroke:#181818;stroke-width:0.5;" x1="273.42" x2="415.78" y1="70.5938" y2="70.5938"/><text fill="#000000" font-family="sans-serif" font-size="14" lengthAdjust="spacing" textLength="95.874" x="296.663" y="62.292">Comunidades</text><ellipse cx="328.78" cy="91.5938" fill="#222222" rx="10" ry="10" style="stroke:#222222;stroke-width:1;"/><g id="Comunidades.Selecci.n"><rect fill="#F1F1F1" height="50" rx="12.5" ry="12.5" style="stroke:#181818;stroke-width:0.5;" width="86.7256" x="285.42" y="137.5938"/><line style="stroke:#181818;stroke-width:0.5;" x1="285.42" x2="372.1456" y1="163.8906" y2="163.8906"/><text fill="#000000" font-family="sans-serif" font-size="14" lengthAdjust="spacing" textLength="66.7256" x="295.42" y="155.5889">Selecci&#243;n</text></g><g id="Comunidades.Eliminar"><rect fill="#F1F1F1" height="50" rx="12.5" ry="12.5" style="stroke:#181818;stroke-width:0.5;" width="77.3604" x="290.1" y="223.5938"/><line style="stroke:#181818;stroke-width:0.5;" x1="290.1" x2="367.4604" y1="249.8906" y2="249.8906"/><text fill="#000000" font-family="sans-serif" font-size="14" lengthAdjust="spacing" textLength="57.3604" x="300.1" y="241.5889">Eliminar</text></g><ellipse cx="396.78" cy="248.5938" fill="none" rx="11" ry="11" style="stroke:#222222;stroke-width:1;"/><ellipse cx="396.78" cy="248.5938" fill="#222222" rx="6" ry="6" style="stroke:#222222;stroke-width:1;"/><!--link *start*Comunidades to Selecci?n--><g class="link" data-entity-1=".start.Comunidades" data-entity-2="Selecci.n" data-source-line="4" data-uid="lnk4" id="link_.start.Comunidades_Selecci.n"><path d="M328.78,101.9038 C328.78,110.9438 328.78,119.0838 328.78,131.3238" fill="none" id="*start*Comunidades-to-Selecci&#243;n" style="stroke:#181818;stroke-width:1;"/><polygon fill="#181818" points="328.78,137.3238,332.78,128.3238,328.78,132.3238,324.78,128.3238,328.78,137.3238" style="stroke:#181818;stroke-width:1;"/></g><!--link Selecci?n to Eliminar--><g class="link" data-entity-1="Selecci.n" data-entity-2="Eliminar" data-source-line="5" data-uid="lnk6" id="link_Selecci.n_Eliminar"><path d="M322.6,187.8938 C321.84,199.0338 321.4316,206.2277 322.1916,217.3677" fill="none" id="Selecci&#243;n-to-Eliminar" style="stroke:#181818;stroke-width:1;"/><polygon fill="#181818" points="322.6,223.3538,325.9781,214.1024,322.2597,218.3653,317.9967,214.6469,322.6,223.3538" style="stroke:#181818;stroke-width:1;"/></g><!--link Eliminar to Selecci?n--><g class="link" data-entity-1="Eliminar" data-entity-2="Selecci.n" data-source-line="6" data-uid="lnk7" id="link_Eliminar_Selecci.n"><path d="M334.97,223.3538 C335.72,212.2138 336.123,205.0202 335.373,193.8802" fill="none" id="Eliminar-to-Selecci&#243;n" style="stroke:#181818;stroke-width:1;"/><polygon fill="#181818" points="334.97,187.8938,331.5836,197.1421,335.3059,192.8825,339.5655,196.6047,334.97,187.8938" style="stroke:#181818;stroke-width:1;"/></g><!--link Selecci?n to *end*Comunidades--><g class="link" data-entity-1="Selecci.n" data-entity-2=".end.Comunidades" data-source-line="7" data-uid="lnk9" id="link_Selecci.n_.end.Comunidades"><path d="M348.45,187.8938 C362.57,205.3338 376.9539,223.101 386.4939,234.881" fill="none" id="Selecci&#243;n-to-*end*Comunidades" style="stroke:#181818;stroke-width:1;"/><polygon fill="#181818" points="390.27,239.5438,387.7143,230.0323,387.1232,235.6581,381.4974,235.0671,390.27,239.5438" style="stroke:#181818;stroke-width:1;"/></g><g id="Publicaciones"><rect fill="#F1F1F1" height="50" rx="12.5" ry="12.5" style="stroke:#181818;stroke-width:0.5;" width="115.1904" x="7" y="360.5969"/><line style="stroke:#181818;stroke-width:0.5;" x1="7" x2="122.1904" y1="386.8938" y2="386.8938"/><text fill="#000000" font-family="sans-serif" font-size="14" lengthAdjust="spacing" textLength="95.1904" x="17" y="378.592">Publicaciones</text></g><g id="Reportes"><rect fill="#F1F1F1" height="50" rx="12.5" ry="12.5" style="stroke:#181818;stroke-width:0.5;" width="82.9453" x="180.12" y="360.5969"/><line style="stroke:#181818;stroke-width:0.5;" x1="180.12" x2="263.0653" y1="386.8938" y2="386.8938"/><text fill="#000000" font-family="sans-serif" font-size="14" lengthAdjust="spacing" textLength="62.9453" x="190.12" y="378.592">Reportes</text></g><g id="Usuarios"><rect fill="#F1F1F1" height="50" rx="12.5" ry="12.5" style="stroke:#181818;stroke-width:0.5;" width="80.498" x="304.35" y="360.5969"/><line style="stroke:#181818;stroke-width:0.5;" x1="304.35" x2="384.848" y1="386.8938" y2="386.8938"/><text fill="#000000" font-family="sans-serif" font-size="14" lengthAdjust="spacing" textLength="60.498" x="314.35" y="378.592">Usuarios</text></g><g id="Aplicacion"><rect fill="#F1F1F1" height="50" rx="12.5" ry="12.5" style="stroke:#181818;stroke-width:0.5;" width="91.5449" x="421.82" y="360.5969"/><line style="stroke:#181818;stroke-width:0.5;" x1="421.82" x2="513.3649" y1="386.8938" y2="386.8938"/><text fill="#000000" font-family="sans-serif" font-size="14" lengthAdjust="spacing" textLength="71.5449" x="431.82" y="378.592">Aplicacion</text></g><ellipse cx="559.6" cy="385.5969" fill="none" rx="11" ry="11" style="stroke:#222222;stroke-width:1;"/><ellipse cx="559.6" cy="385.5969" fill="#222222" rx="6" ry="6" style="stroke:#222222;stroke-width:1;"/><!--link Comunidades to Publicaciones--><g class="link" data-entity-1="Comunidades" data-entity-2="Publicaciones" data-source-line="10" data-uid="lnk11" id="link_Comunidades_Publicaciones"><path d="M272.95,203.5769 C226.14,230.7769 165.28,270.0069 118.6,313.5969 C103.77,327.4469 93.3538,340.7521 83.4238,355.2921" fill="none" id="Comunidades-to-Publicaciones" style="stroke:#181818;stroke-width:1;"/><polygon fill="#181818" points="80.04,360.2469,88.4189,355.0706,82.8599,356.1179,81.8126,350.5588,80.04,360.2469" style="stroke:#181818;stroke-width:1;"/><text fill="#000000" font-family="sans-serif" font-size="13" lengthAdjust="spacing" textLength="115.1719" x="119.6" y="326.6638">Ver publicaciones</text></g><!--link Comunidades to Reportes--><g class="link" data-entity-1="Comunidades" data-entity-2="Reportes" data-source-line="11" data-uid="lnk13" id="link_Comunidades_Reportes"><path d="M273.05,273.2569 C265.12,286.6469 257.45,300.2969 250.6,313.5969 C242.85,328.6269 237.7828,340.6087 232.4928,354.5187" fill="none" id="Comunidades-to-Reportes" style="stroke:#181818;stroke-width:1;"/><polygon fill="#181818" points="230.36,360.1269,237.2979,353.1365,232.1373,355.4534,229.8204,350.2928,230.36,360.1269" style="stroke:#181818;stroke-width:1;"/><text fill="#000000" font-family="sans-serif" font-size="13" lengthAdjust="spacing" textLength="81.1294" x="251.6" y="326.6638">Ver reportes</text></g><!--link Comunidades to Usuarios--><g class="link" data-entity-1="Comunidades" data-entity-2="Usuarios" data-source-line="12" data-uid="lnk15" id="link_Comunidades_Usuarios"><path d="M341.13,283.9369 C341.06,299.6269 341.18,315.5069 341.6,330.5969 C341.86,340.2669 342.0439,344.9075 342.5939,354.1575" fill="none" id="Comunidades-to-Usuarios" style="stroke:#181818;stroke-width:1;"/><polygon fill="#181818" points="342.95,360.1469,346.4088,350.9253,342.6532,355.1557,338.4229,351.4002,342.95,360.1469" style="stroke:#181818;stroke-width:1;"/><text fill="#000000" font-family="sans-serif" font-size="13" lengthAdjust="spacing" textLength="81.269" x="342.6" y="326.6638">Ver usuarios</text></g><!--link Comunidades to Aplicacion--><g class="link" data-entity-1="Comunidades" data-entity-2="Aplicacion" data-source-line="13" data-uid="lnk17" id="link_Comunidades_Aplicacion"><path d="M411.89,283.7369 C417.56,293.8269 423.18,303.8869 428.6,313.5969 C437.22,329.0769 443.9191,341.2538 451.4291,354.9738" fill="none" id="Comunidades-to-Aplicacion" style="stroke:#181818;stroke-width:1;"/><polygon fill="#181818" points="454.31,360.2369,453.4974,350.4216,451.9092,355.8509,446.4799,354.2628,454.31,360.2369" style="stroke:#181818;stroke-width:1;"/><text fill="#000000" font-family="sans-serif" font-size="13" lengthAdjust="spacing" textLength="63.5083" x="438.6" y="326.6638">Ver menu</text></g><!--link Comunidades to *end*--><g class="link" data-entity-1="Comunidades" data-entity-2=".end." data-source-line="14" data-uid="lnk19" id="link_Comunidades_.end."><path d="M415.89,222.2769 C446.6,248.5769 481.95,281.0869 510.6,313.5969 C528.81,334.2769 543.0828,356.756 551.3928,370.666" fill="none" id="Comunidades-to-*end*" style="stroke:#181818;stroke-width:1;"/><polygon fill="#181818" points="554.47,375.8169,553.2881,366.0392,551.9057,371.5245,546.4204,370.1421,554.47,375.8169" style="stroke:#181818;stroke-width:1;"/></g><!--SRC=[XOuz3i8m38NtdCBgYDGBC20X13C2qGKnXCI3fSIfyZCXJiKHk1WfJKMa34psU_xyx4ZH81mIAtAC0JHoz2uNw7RE9YOjDOPEY11bHAWyU0Y0w-e6VR-1CnfKYjulpkPFV6TxGvPO-ZnPshyxELSyXQZFJVOntGqfEV-wXW4zZBNLB9nmT3vcTa9z4Grr2KbwSYKn5TLWst6vD8CMEJLG_lm3]--></g></svg>