<svg xmlns="http://www.w3.org/2000/svg" xmlns:xlink="http://www.w3.org/1999/xlink" contentStyleType="text/css" data-diagram-type="STATE" height="525px" preserveAspectRatio="none" style="width:615px;height:525px;background:#FFFFFF;" version="1.1" viewBox="0 0 615 525" width="615px" zoomAndPan="magnify"><defs/><g><ellipse cx="277.05" cy="16" fill="#222222" rx="10" ry="10" style="stroke:#222222;stroke-width:1;"/><g id="SinEtiqueta"><rect fill="#F1F1F1" height="50.2656" rx="12.5" ry="12.5" style="stroke:#181818;stroke-width:0.5;" width="174.4648" x="189.82" y="87"/><line style="stroke:#181818;stroke-width:0.5;" x1="189.82" x2="364.2848" y1="113.2969" y2="113.2969"/><text fill="#000000" font-family="sans-serif" font-size="14" lengthAdjust="spacing" textLength="80.3154" x="236.8947" y="104.9951">SinEtiqueta</text><text fill="#000000" font-family="sans-serif" font-size="12" lengthAdjust="spacing" textLength="154.4648" x="194.82" y="129.4355">Estado inicial sin etiqueta</text></g><g id="EtiquetaSolicitada"><rect fill="#F1F1F1" height="50.2656" rx="12.5" ry="12.5" style="stroke:#181818;stroke-width:0.5;" width="203.5273" x="175.29" y="214.26"/><line style="stroke:#181818;stroke-width:0.5;" x1="175.29" x2="378.8173" y1="240.5569" y2="240.5569"/><text fill="#000000" font-family="sans-serif" font-size="14" lengthAdjust="spacing" textLength="127.0186" x="213.5444" y="232.2551">EtiquetaSolicitada</text><text fill="#000000" font-family="sans-serif" font-size="12" lengthAdjust="spacing" textLength="183.5273" x="180.29" y="256.6955">La etiqueta se est&#225; solicitando</text></g><g id="EtiquetaActiva"><rect fill="#F1F1F1" height="50.2656" rx="12.5" ry="12.5" style="stroke:#181818;stroke-width:0.5;" width="278.1055" x="7" y="341.53"/><line style="stroke:#181818;stroke-width:0.5;" x1="7" x2="285.1055" y1="367.8269" y2="367.8269"/><text fill="#000000" font-family="sans-serif" font-size="14" lengthAdjust="spacing" textLength="102.1836" x="94.9609" y="359.5251">EtiquetaActiva</text><text fill="#000000" font-family="sans-serif" font-size="12" lengthAdjust="spacing" textLength="258.1055" x="12" y="383.9655">La etiqueta est&#225; aprobada y entra en vigor</text></g><g id="EtiquetaDenegada"><rect fill="#F1F1F1" height="50.2656" rx="12.5" ry="12.5" style="stroke:#181818;stroke-width:0.5;" width="177.8281" x="320.14" y="341.53"/><line style="stroke:#181818;stroke-width:0.5;" x1="320.14" x2="497.9681" y1="367.8269" y2="367.8269"/><text fill="#000000" font-family="sans-serif" font-size="14" lengthAdjust="spacing" textLength="130.4775" x="343.8153" y="359.5251">EtiquetaDenegada</text><text fill="#000000" font-family="sans-serif" font-size="12" lengthAdjust="spacing" textLength="157.8281" x="325.14" y="383.9655">La etiqueta no se aprueba</text></g><g id="EtiquetaBorrada"><rect fill="#F1F1F1" height="50.2656" rx="12.5" ry="12.5" style="stroke:#181818;stroke-width:0.5;" width="177.1133" x="188.5" y="468.79"/><line style="stroke:#181818;stroke-width:0.5;" x1="188.5" x2="365.6133" y1="495.0869" y2="495.0869"/><text fill="#000000" font-family="sans-serif" font-size="14" lengthAdjust="spacing" textLength="114.3926" x="219.8604" y="486.7851">EtiquetaBorrada</text><text fill="#000000" font-family="sans-serif" font-size="12" lengthAdjust="spacing" textLength="157.1133" x="193.5" y="511.2255">La etiqueta deja de existir</text></g><!--link *start* to SinEtiqueta--><g class="link" data-entity-1=".start." data-entity-2="SinEtiqueta" data-source-line="1" data-uid="lnk4" id="link_.start._SinEtiqueta"><path d="M277.05,26.37 C277.05,40.32 277.05,61.02 277.05,80.74" fill="none" id="*start*-to-SinEtiqueta" style="stroke:#181818;stroke-width:1;"/><polygon fill="#181818" points="277.05,86.74,281.05,77.74,277.05,81.74,273.05,77.74,277.05,86.74" style="stroke:#181818;stroke-width:1;"/></g><!--link SinEtiqueta to EtiquetaSolicitada--><g class="link" data-entity-1="SinEtiqueta" data-entity-2="EtiquetaSolicitada" data-source-line="3" data-uid="lnk6" id="link_SinEtiqueta_EtiquetaSolicitada"><path d="M277.05,137.58 C277.05,159.65 277.05,185.95 277.05,208.01" fill="none" id="SinEtiqueta-to-EtiquetaSolicitada" style="stroke:#181818;stroke-width:1;"/><polygon fill="#181818" points="277.05,214.01,281.05,205.01,277.05,209.01,273.05,205.01,277.05,214.01" style="stroke:#181818;stroke-width:1;"/><text fill="#000000" font-family="sans-serif" font-size="13" lengthAdjust="spacing" textLength="198.8911" x="278.05" y="180.3269">Un usuario solicita una etiquta</text></g><!--link EtiquetaSolicitada to EtiquetaActiva--><g class="link" data-entity-1="EtiquetaSolicitada" data-entity-2="EtiquetaActiva" data-source-line="4" data-uid="lnk8" id="link_EtiquetaSolicitada_EtiquetaActiva"><path d="M188.59,264.87 C174.83,272.32 162.17,281.99 153.05,294.53 C143.42,307.78 141.5565,320.2877 142.3065,335.0977" fill="none" id="EtiquetaSolicitada-to-EtiquetaActiva" style="stroke:#181818;stroke-width:1;"/><polygon fill="#181818" points="142.61,341.09,146.1497,331.8992,142.3571,336.0964,138.1599,332.3038,142.61,341.09" style="stroke:#181818;stroke-width:1;"/><text fill="#000000" font-family="sans-serif" font-size="13" lengthAdjust="spacing" textLength="207.1113" x="154.05" y="307.5969">Un moderador revisa y aprueba</text></g><!--link EtiquetaSolicitada to EtiquetaDenegada--><g class="link" data-entity-1="EtiquetaSolicitada" data-entity-2="EtiquetaDenegada" data-source-line="5" data-uid="lnk10" id="link_EtiquetaSolicitada_EtiquetaDenegada"><path d="M326.75,264.9 C340.47,273.12 354.69,283.13 366.05,294.53 C379.5,308.02 387.7976,321.1632 395.3076,335.9132" fill="none" id="EtiquetaSolicitada-to-EtiquetaDenegada" style="stroke:#181818;stroke-width:1;"/><polygon fill="#181818" points="398.03,341.26,397.511,331.4248,395.7614,336.8043,390.3819,335.0546,398.03,341.26" style="stroke:#181818;stroke-width:1;"/><text fill="#000000" font-family="sans-serif" font-size="13" lengthAdjust="spacing" textLength="227.4365" x="380.05" y="307.5969">Un moderador revisa y no aprueba</text></g><!--link EtiquetaActiva to EtiquetaBorrada--><g class="link" data-entity-1="EtiquetaActiva" data-entity-2="EtiquetaBorrada" data-source-line="6" data-uid="lnk12" id="link_EtiquetaActiva_EtiquetaBorrada"><path d="M153.04,391.97 C158.28,406.87 166.71,425.55 179.05,438.79 C190.05,450.6 198.9845,457.4992 213.1145,465.4092" fill="none" id="EtiquetaActiva-to-EtiquetaBorrada" style="stroke:#181818;stroke-width:1;"/><polygon fill="#181818" points="218.35,468.34,212.4507,460.4534,213.9871,465.8976,208.5429,467.4341,218.35,468.34" style="stroke:#181818;stroke-width:1;"/><text fill="#000000" font-family="sans-serif" font-size="13" lengthAdjust="spacing" textLength="173.1704" x="180.05" y="434.8569">La etiqueta deja de usarse</text></g><!--link EtiquetaDenegada to EtiquetaBorrada--><g class="link" data-entity-1="EtiquetaDenegada" data-entity-2="EtiquetaBorrada" data-source-line="7" data-uid="lnk13" id="link_EtiquetaDenegada_EtiquetaBorrada"><path d="M394.68,392.08 C385.38,406.65 372.36,424.95 358.05,438.79 C346.75,449.73 337.9937,456.5893 325.0237,465.0593" fill="none" id="EtiquetaDenegada-to-EtiquetaBorrada" style="stroke:#181818;stroke-width:1;"/><polygon fill="#181818" points="320,468.34,329.7226,466.7681,324.1864,465.6061,325.3484,460.0699,320,468.34" style="stroke:#181818;stroke-width:1;"/><text fill="#000000" font-family="sans-serif" font-size="13" lengthAdjust="spacing" textLength="187.8335" x="373.05" y="434.8569">Directamente cesa de existir</text></g><!--SRC=[XP11JWCn34NtEONNIBr05qYWTiUkOeLOk1EhCcfZi9CHFGvduM9usZ0AJ0IRI4xYP__tTFCCgzKjx3XjCxyLoXX2KrmUlukT77dWZ15X3Oy9YXLK5h1w3oKXqFJPAPscbdKtP1uhvoIH5ACeA8ri26V0Losq_vUoeKI7UPyE9ya2LIUtc7jHlL8UQe0fUgINwV2Og4PXCRDFsB3IaF54AHCCP1S4lRDbrfzgrx0rJoJ0oRFX4OpJF3rqfRVhcMCjVtxC-bEKiD3RTbo_km_PJxWp-8xgrmb6FeY6ZjMstLtwpDyw_tPNWty1]--></g></svg>