<svg xmlns="http://www.w3.org/2000/svg" xmlns:xlink="http://www.w3.org/1999/xlink" contentStyleType="text/css" data-diagram-type="STATE" height="554px" preserveAspectRatio="none" style="width:942px;height:554px;background:#FFFFFF;" version="1.1" viewBox="0 0 942 554" width="942px" zoomAndPan="magnify"><defs/><g><ellipse cx="192" cy="16" fill="#222222" rx="10" ry="10" style="stroke:#222222;stroke-width:1;"/><g id="Inicio"><rect fill="#F1F1F1" height="50" rx="12.5" ry="12.5" style="stroke:#181818;stroke-width:0.5;" width="57.0439" x="163.48" y="87"/><line style="stroke:#181818;stroke-width:0.5;" x1="163.48" x2="220.5239" y1="113.2969" y2="113.2969"/><text fill="#000000" font-family="sans-serif" font-size="14" lengthAdjust="spacing" textLength="37.0439" x="173.48" y="104.9951">Inicio</text></g><g id="Usuario"><rect fill="#F1F1F1" height="50" rx="12.5" ry="12.5" style="stroke:#181818;stroke-width:0.5;" width="73.2041" x="73.4" y="214"/><line style="stroke:#181818;stroke-width:0.5;" x1="73.4" x2="146.6041" y1="240.2969" y2="240.2969"/><text fill="#000000" font-family="sans-serif" font-size="14" lengthAdjust="spacing" textLength="53.2041" x="83.4" y="231.9951">Usuario</text></g><g id="Moderador"><rect fill="#F1F1F1" height="50" rx="12.5" ry="12.5" style="stroke:#181818;stroke-width:0.5;" width="95.6875" x="227.16" y="341"/><line style="stroke:#181818;stroke-width:0.5;" x1="227.16" x2="322.8475" y1="367.2969" y2="367.2969"/><text fill="#000000" font-family="sans-serif" font-size="14" lengthAdjust="spacing" textLength="75.6875" x="237.16" y="358.9951">Moderador</text></g><g id="Publicaciones"><rect fill="#F1F1F1" height="50" rx="12.5" ry="12.5" style="stroke:#181818;stroke-width:0.5;" width="115.1904" x="744.4" y="498"/><line style="stroke:#181818;stroke-width:0.5;" x1="744.4" x2="859.5904" y1="524.2969" y2="524.2969"/><text fill="#000000" font-family="sans-serif" font-size="14" lengthAdjust="spacing" textLength="95.1904" x="754.4" y="515.9951">Publicaciones</text></g><g id="Reportes"><rect fill="#F1F1F1" height="50" rx="12.5" ry="12.5" style="stroke:#181818;stroke-width:0.5;" width="82.9453" x="80.53" y="498"/><line style="stroke:#181818;stroke-width:0.5;" x1="80.53" x2="163.4753" y1="524.2969" y2="524.2969"/><text fill="#000000" font-family="sans-serif" font-size="14" lengthAdjust="spacing" textLength="62.9453" x="90.53" y="515.9951">Reportes</text></g><g id="Usuarios"><rect fill="#F1F1F1" height="50" rx="12.5" ry="12.5" style="stroke:#181818;stroke-width:0.5;" width="80.498" x="234.75" y="498"/><line style="stroke:#181818;stroke-width:0.5;" x1="234.75" x2="315.248" y1="524.2969" y2="524.2969"/><text fill="#000000" font-family="sans-serif" font-size="14" lengthAdjust="spacing" textLength="60.498" x="244.75" y="515.9951">Usuarios</text></g><g id="Aplicacion"><rect fill="#F1F1F1" height="50" rx="12.5" ry="12.5" style="stroke:#181818;stroke-width:0.5;" width="91.5449" x="413.23" y="498"/><line style="stroke:#181818;stroke-width:0.5;" x1="413.23" x2="504.7749" y1="524.2969" y2="524.2969"/><text fill="#000000" font-family="sans-serif" font-size="14" lengthAdjust="spacing" textLength="71.5449" x="423.23" y="515.9951">Aplicacion</text></g><g id="Comunidades"><rect fill="#F1F1F1" height="50" rx="12.5" ry="12.5" style="stroke:#181818;stroke-width:0.5;" width="115.874" x="573.06" y="498"/><line style="stroke:#181818;stroke-width:0.5;" x1="573.06" x2="688.934" y1="524.2969" y2="524.2969"/><text fill="#000000" font-family="sans-serif" font-size="14" lengthAdjust="spacing" textLength="95.874" x="583.06" y="515.9951">Comunidades</text></g><ellipse cx="17" cy="523" fill="none" rx="11" ry="11" style="stroke:#222222;stroke-width:1;"/><ellipse cx="17" cy="523" fill="#222222" rx="6" ry="6" style="stroke:#222222;stroke-width:1;"/><!--link *start* to Inicio--><g class="link" data-entity-1="*start*" data-entity-2="Inicio" data-source-line="1" data-uid="lnk4" id="link_*start*_Inicio"><path d="M192,26.36 C192,40.29 192,60.95 192,80.65" fill="none" id="*start*-to-Inicio" style="stroke:#181818;stroke-width:1;"/><polygon fill="#181818" points="192,86.65,196,77.65,192,81.65,188,77.65,192,86.65" style="stroke:#181818;stroke-width:1;"/></g><!--link Inicio to Usuario--><g class="link" data-entity-1="Inicio" data-entity-2="Usuario" data-source-line="2" data-uid="lnk6" id="link_Inicio_Usuario"><path d="M163.14,122.82 C143.45,131.21 118.87,145.4 107,167 C99.28,181.06 99.0445,193.2565 101.7945,207.6565" fill="none" id="Inicio-to-Usuario" style="stroke:#181818;stroke-width:1;"/><polygon fill="#181818" points="102.92,213.55,105.1608,203.9594,101.9821,208.6388,97.3028,205.4601,102.92,213.55" style="stroke:#181818;stroke-width:1;"/><text fill="#000000" font-family="sans-serif" font-size="13" lengthAdjust="spacing" textLength="140.3784" x="108" y="180.0669">Elije perfi de ususario</text></g><!--link Inicio to Moderador--><g class="link" data-entity-1="Inicio" data-entity-2="Moderador" data-source-line="3" data-uid="lnk8" id="link_Inicio_Moderador"><path d="M220.95,131.44 C232.89,140.63 245.64,152.81 253,167 C282.38,223.65 281.3223,295.5094 278.1723,334.5694" fill="none" id="Inicio-to-Moderador" style="stroke:#181818;stroke-width:1;"/><polygon fill="#181818" points="277.69,340.55,282.4005,331.9007,278.0919,335.5662,274.4264,331.2576,277.69,340.55" style="stroke:#181818;stroke-width:1;"/><text fill="#000000" font-family="sans-serif" font-size="13" lengthAdjust="spacing" textLength="159.3706" x="278" y="243.5669">Elije perfil de Moderador</text></g><!--link Usuario to Moderador--><g class="link" data-entity-1="Usuario" data-entity-2="Moderador" data-source-line="4" data-uid="lnk9" id="link_Usuario_Moderador"><path d="M115.22,264.45 C119.58,279.58 127.2,298.44 140,311 C163.61,334.16 192.6127,346.1665 220.9727,353.9265" fill="none" id="Usuario-to-Moderador" style="stroke:#181818;stroke-width:1;"/><polygon fill="#181818" points="226.76,355.51,219.1348,349.2765,221.9373,354.1904,217.0234,356.9929,226.76,355.51" style="stroke:#181818;stroke-width:1;"/><text fill="#000000" font-family="sans-serif" font-size="13" lengthAdjust="spacing" textLength="107.4468" x="141" y="307.0669">Cambia de perfil</text></g><!--link Moderador to Publicaciones--><g class="link" data-entity-1="Moderador" data-entity-2="Publicaciones" data-source-line="5" data-uid="lnk11" id="link_Moderador_Publicaciones"><path d="M323,366.54 C430.75,366.41 687.73,371.47 756,421 C780.95,439.1 791.3703,468.1747 796.6603,491.8247" fill="none" id="Moderador-to-Publicaciones" style="stroke:#181818;stroke-width:1;"/><polygon fill="#181818" points="797.97,497.68,799.909,488.0239,796.8786,492.8006,792.1019,489.7702,797.97,497.68" style="stroke:#181818;stroke-width:1;"/><text fill="#000000" font-family="sans-serif" font-size="13" lengthAdjust="spacing" textLength="145.7866" x="789" y="434.0669">Eliminar Publicaciones</text><text fill="#000000" font-family="sans-serif" font-size="13" lengthAdjust="spacing" textLength="145.7866" x="789" y="449.1997">Eliminar Publicaciones</text><text fill="#000000" font-family="sans-serif" font-size="13" lengthAdjust="spacing" textLength="135.2305" x="794.2781" y="464.3325">Revisar Comentarios</text></g><!--link Moderador to Reportes--><g class="link" data-entity-1="Moderador" data-entity-2="Reportes" data-source-line="6" data-uid="lnk13" id="link_Moderador_Reportes"><path d="M226.94,377.33 C201.09,385.22 170.58,398.67 151,421 C132.24,442.4 126.1939,469.2525 123.8539,491.6325" fill="none" id="Moderador-to-Reportes" style="stroke:#181818;stroke-width:1;"/><polygon fill="#181818" points="123.23,497.6,128.1442,489.0648,123.75,492.6271,120.1876,488.2328,123.23,497.6" style="stroke:#181818;stroke-width:1;"/><text fill="#000000" font-family="sans-serif" font-size="13" lengthAdjust="spacing" textLength="111.0015" x="152" y="441.5669">Revisar Reportes</text><text fill="#000000" font-family="sans-serif" font-size="13" lengthAdjust="spacing" textLength="84.8745" x="165.0635" y="456.6997">de contenido</text></g><!--link Moderador to Usuarios--><g class="link" data-entity-1="Moderador" data-entity-2="Usuarios" data-source-line="7" data-uid="lnk15" id="link_Moderador_Usuarios"><path d="M273.35,391.45 C272.81,400.7 272.27,411.33 272,421 C271.42,441.88 271.42,447.12 272,468 C272.27,477.67 272.4603,482.3102 273.0003,491.5602" fill="none" id="Moderador-to-Usuarios" style="stroke:#181818;stroke-width:1;"/><polygon fill="#181818" points="273.35,497.55,276.8187,488.3322,273.0586,492.5585,268.8323,488.7984,273.35,497.55" style="stroke:#181818;stroke-width:1;"/><text fill="#000000" font-family="sans-serif" font-size="13" lengthAdjust="spacing" textLength="135.1543" x="276.7769" y="434.0669">Suspender ususarios</text><text fill="#000000" font-family="sans-serif" font-size="13" lengthAdjust="spacing" textLength="129.2891" x="279.7095" y="449.1997">Enviar advertencias</text><text fill="#000000" font-family="sans-serif" font-size="13" lengthAdjust="spacing" textLength="142.708" x="273" y="464.3325">Desbloquear Usuarios</text></g><!--link Moderador to Aplicacion--><g class="link" data-entity-1="Moderador" data-entity-2="Aplicacion" data-source-line="8" data-uid="lnk17" id="link_Moderador_Aplicacion"><path d="M323.24,374.47 C354.42,381.59 393.92,395.23 420,421 C440.99,441.74 449.7228,469.1466 454.2528,491.7866" fill="none" id="Moderador-to-Aplicacion" style="stroke:#181818;stroke-width:1;"/><polygon fill="#181818" points="455.43,497.67,457.5865,488.0601,454.449,492.7672,449.7419,489.6297,455.43,497.67" style="stroke:#181818;stroke-width:1;"/><text fill="#000000" font-family="sans-serif" font-size="13" lengthAdjust="spacing" textLength="130.6348" x="447" y="441.5669">Bloquear palabras o</text><text fill="#000000" font-family="sans-serif" font-size="13" lengthAdjust="spacing" textLength="78.8506" x="472.8921" y="456.6997">Expresiones</text></g><!--link Moderador to Comunidades--><g class="link" data-entity-1="Moderador" data-entity-2="Comunidades" data-source-line="9" data-uid="lnk19" id="link_Moderador_Comunidades"><path d="M323.33,369.9 C400.23,375.4 545.85,389.72 586,421 C610.08,439.76 620.2888,468.3273 625.5688,491.7173" fill="none" id="Moderador-to-Comunidades" style="stroke:#181818;stroke-width:1;"/><polygon fill="#181818" points="626.89,497.57,628.81,487.9101,625.789,492.6927,621.0064,489.6717,626.89,497.57" style="stroke:#181818;stroke-width:1;"/><text fill="#000000" font-family="sans-serif" font-size="13" lengthAdjust="spacing" textLength="129.7207" x="618" y="449.0669">Eliminar comunidad</text></g><!--link Usuario to *end*--><g class="link" data-entity-1="Usuario" data-entity-2="*end*" data-source-line="10" data-uid="lnk21" id="link_Usuario_*end*"><path d="M99.84,264.28 C85.67,298.72 59.72,363.94 42,421 C31.82,453.78 24.2232,487.6702 20.3432,505.9902" fill="none" id="Usuario-to-*end*" style="stroke:#181818;stroke-width:1;"/><polygon fill="#181818" points="19.1,511.86,24.8779,503.8841,20.136,506.9685,17.0516,502.2265,19.1,511.86" style="stroke:#181818;stroke-width:1;"/><text fill="#000000" font-family="sans-serif" font-size="13" lengthAdjust="spacing" textLength="48.8706" x="70" y="370.5669">Log out</text></g><!--link Moderador to *end*--><g class="link" data-entity-1="Moderador" data-entity-2="*end*" data-source-line="11" data-uid="lnk22" id="link_Moderador_*end*"><path d="M226.7,373.38 C188.56,380.25 135.38,394.06 96,421 C59.62,445.89 35.0629,487.3949 24.5329,507.3249" fill="none" id="Moderador-to-*end*" style="stroke:#181818;stroke-width:1;"/><polygon fill="#181818" points="21.73,512.63,29.4711,506.541,24.0658,508.2091,22.3977,502.8038,21.73,512.63" style="stroke:#181818;stroke-width:1;"/><text fill="#000000" font-family="sans-serif" font-size="13" lengthAdjust="spacing" textLength="23.4482" x="97" y="449.0669">Log</text></g><!--SRC=[TL7DIiGm4BxtAN8MzWNs8EZgGL2GNJpjUfWceuoaCp5fYe_lf3NL1ZmbV7_pJNA-UZMxtRLvOB8atNBCo4lA4FM-D_UUFj04Z6za79gSSYhCN_6JE8pW96xblkXNhgkHhUC0GqzGj8kh-oMBz3dtdYpeBCQq31Y88Mw92_-77t4YRMmECY2FfK5g9XmnI1pdy2gkq8MrbXKUaSb9u_jPgFXEEGLKRLpVfpJYYJGBt8IQnPP0mJjClPVFZChKW2Rt9jJ-cdnRnG4yz16I4Kt-2X7Jl63ZrIspLWMtVIjRuSqldFNxz-PHtetaiGbQkMy0]--></g></svg>