<svg xmlns="http://www.w3.org/2000/svg" xmlns:xlink="http://www.w3.org/1999/xlink" contentStyleType="text/css" data-diagram-type="STATE" height="406px" preserveAspectRatio="none" style="width:894px;height:406px;background:#FFFFFF;" version="1.1" viewBox="0 0 894 406" width="894px" zoomAndPan="magnify"><title>Funciones dentro de "Comunidades"</title><defs/><g><g class="title" data-source-line="1"><text fill="#000000" font-family="sans-serif" font-size="14" font-weight="bold" lengthAdjust="spacing" textLength="287.9639" x="296.2849" y="22.9951">Funciones dentro de "Comunidades"</text></g><path d="M297,44.2969 L391.7632,44.2969 A12.5,12.5 0 0 1 404.2632,56.7969 L404.2632,70.5938 L284.5,70.5938 L284.5,56.7969 A12.5,12.5 0 0 1 297,44.2969" fill="#F1F1F1"/><rect fill="none" height="229.2969" rx="12.5" ry="12.5" style="stroke:#181818;stroke-width:0.5;" width="119.7632" x="284.5" y="44.2969"/><line style="stroke:#181818;stroke-width:0.5;" x1="284.5" x2="404.2632" y1="70.5938" y2="70.5938"/><text fill="#000000" font-family="sans-serif" font-size="14" lengthAdjust="spacing" textLength="95.874" x="296.4446" y="62.292">Comunidades</text><ellipse cx="340" cy="91.5938" fill="#222222" rx="10" ry="10" style="stroke:#222222;stroke-width:1;"/><g id="Comunidades.Selecci&#243;n"><rect fill="#F1F1F1" height="50" rx="12.5" ry="12.5" style="stroke:#181818;stroke-width:0.5;" width="86.7256" x="296.5" y="138.5938"/><line style="stroke:#181818;stroke-width:0.5;" x1="296.5" x2="383.2256" y1="164.8906" y2="164.8906"/><text fill="#000000" font-family="sans-serif" font-size="14" lengthAdjust="spacing" textLength="66.7256" x="306.5" y="156.5889">Selecci&#243;n</text></g><ellipse cx="340" cy="252.5938" fill="none" rx="11" ry="11" style="stroke:#222222;stroke-width:1;"/><ellipse cx="340" cy="252.5938" fill="#222222" rx="6" ry="6" style="stroke:#222222;stroke-width:1;"/><!--link *start*Comunidades to Selecci?n--><g class="link" data-entity-1="*start*Comunidades" data-entity-2="Selecci&#243;n" data-source-line="4" data-uid="lnk4" id="link_*start*Comunidades_Selecci&#243;n"><path d="M340,101.7438 C340,111.0137 340,119.7337 340,132.3738" fill="none" id="*start*Comunidades-to-Selecci&#243;n" style="stroke:#181818;stroke-width:1;"/><polygon fill="#181818" points="340,138.3738,344,129.3738,340,133.3738,336,129.3738,340,138.3738" style="stroke:#181818;stroke-width:1;"/></g><!--link Selecci?n to *end*Comunidades--><g class="link" data-entity-1="Selecci&#243;n" data-entity-2="*end*Comunidades" data-source-line="5" data-uid="lnk6" id="link_Selecci&#243;n_*end*Comunidades"><path d="M340,188.8238 C340,206.1238 340,222.5138 340,235.3438" fill="none" id="Selecci&#243;n-to-*end*Comunidades" style="stroke:#181818;stroke-width:1;"/><polygon fill="#181818" points="340,241.3438,344,232.3438,340,236.3438,336,232.3438,340,241.3438" style="stroke:#181818;stroke-width:1;"/><text fill="#000000" font-family="sans-serif" font-size="13" lengthAdjust="spacing" textLength="53.2632" x="341" y="219.6606">Eliminar</text></g><g id="Publicaciones"><rect fill="#F1F1F1" height="50" rx="12.5" ry="12.5" style="stroke:#181818;stroke-width:0.5;" width="115.1904" x="7" y="350.2969"/><line style="stroke:#181818;stroke-width:0.5;" x1="7" x2="122.1904" y1="376.5938" y2="376.5938"/><text fill="#000000" font-family="sans-serif" font-size="14" lengthAdjust="spacing" textLength="95.1904" x="17" y="368.292">Publicaciones</text></g><g id="Reportes"><rect fill="#F1F1F1" height="50" rx="12.5" ry="12.5" style="stroke:#181818;stroke-width:0.5;" width="82.9453" x="180" y="350.2969"/><line style="stroke:#181818;stroke-width:0.5;" x1="180" x2="262.9453" y1="376.5938" y2="376.5938"/><text fill="#000000" font-family="sans-serif" font-size="14" lengthAdjust="spacing" textLength="62.9453" x="190" y="368.292">Reportes</text></g><g id="Usuarios"><rect fill="#F1F1F1" height="50" rx="12.5" ry="12.5" style="stroke:#181818;stroke-width:0.5;" width="80.498" x="304.5" y="350.2969"/><line style="stroke:#181818;stroke-width:0.5;" x1="304.5" x2="384.998" y1="376.5938" y2="376.5938"/><text fill="#000000" font-family="sans-serif" font-size="14" lengthAdjust="spacing" textLength="60.498" x="314.5" y="368.292">Usuarios</text></g><g id="Aplicacion"><rect fill="#F1F1F1" height="50" rx="12.5" ry="12.5" style="stroke:#181818;stroke-width:0.5;" width="91.5449" x="421.5" y="350.2969"/><line style="stroke:#181818;stroke-width:0.5;" x1="421.5" x2="513.0449" y1="376.5938" y2="376.5938"/><text fill="#000000" font-family="sans-serif" font-size="14" lengthAdjust="spacing" textLength="71.5449" x="431.5" y="368.292">Aplicacion</text></g><ellipse cx="601.5" cy="375.2969" fill="none" rx="11" ry="11" style="stroke:#222222;stroke-width:1;"/><ellipse cx="601.5" cy="375.2969" fill="#222222" rx="6" ry="6" style="stroke:#222222;stroke-width:1;"/><!--link Comunidades to Publicaciones--><g class="link" data-entity-1="Comunidades" data-entity-2="Publicaciones" data-source-line="8" data-uid="lnk8" id="link_Comunidades_Publicaciones"><path d="M284.33,190.2769 C236.32,216.3369 168.98,256.9169 118.5,303.2969 C103.45,317.1269 92.9288,330.6119 83.0088,345.2319" fill="none" id="Comunidades-to-Publicaciones" style="stroke:#181818;stroke-width:1;"/><polygon fill="#181818" points="79.64,350.1969,88.0032,344.9953,82.4474,346.0594,81.3833,340.5035,79.64,350.1969" style="stroke:#181818;stroke-width:1;"/><text fill="#000000" font-family="sans-serif" font-size="13" lengthAdjust="spacing" textLength="115.1719" x="119.5" y="316.3638">Ver publicaciones</text></g><!--link Comunidades to Reportes--><g class="link" data-entity-1="Comunidades" data-entity-2="Reportes" data-source-line="9" data-uid="lnk10" id="link_Comunidades_Reportes"><path d="M284.33,245.8269 C272.44,264.3869 260.54,284.1869 250.5,303.2969 C242.57,318.3869 237.4364,330.5225 232.1664,344.5025" fill="none" id="Comunidades-to-Reportes" style="stroke:#181818;stroke-width:1;"/><polygon fill="#181818" points="230.05,350.1169,236.9675,343.1063,231.8137,345.4383,229.4817,340.2844,230.05,350.1169" style="stroke:#181818;stroke-width:1;"/><text fill="#000000" font-family="sans-serif" font-size="13" lengthAdjust="spacing" textLength="81.1294" x="251.5" y="316.3638">Ver reportes</text></g><!--link Comunidades to Usuarios--><g class="link" data-entity-1="Comunidades" data-entity-2="Usuarios" data-source-line="10" data-uid="lnk12" id="link_Comunidades_Usuarios"><path d="M341.07,273.3569 C340.97,289.1169 341.08,305.1169 341.5,320.2969 C341.77,330.0569 341.9665,334.8073 342.5165,344.1273" fill="none" id="Comunidades-to-Usuarios" style="stroke:#181818;stroke-width:1;"/><polygon fill="#181818" points="342.87,350.1169,346.3329,340.8969,342.5754,345.1256,338.3468,341.3681,342.87,350.1169" style="stroke:#181818;stroke-width:1;"/><text fill="#000000" font-family="sans-serif" font-size="13" lengthAdjust="spacing" textLength="81.269" x="342.5" y="316.3638">Ver usuarios</text></g><!--link Comunidades to Aplicacion--><g class="link" data-entity-1="Comunidades" data-entity-2="Aplicacion" data-source-line="11" data-uid="lnk14" id="link_Comunidades_Aplicacion"><path d="M404.72,261.8969 C412.78,275.7769 420.88,289.8669 428.5,303.2969 C437.31,318.8369 444.1133,331.156 451.6133,344.946" fill="none" id="Comunidades-to-Aplicacion" style="stroke:#181818;stroke-width:1;"/><polygon fill="#181818" points="454.48,350.2169,453.6939,340.3994,452.0911,345.8245,446.6661,344.2217,454.48,350.2169" style="stroke:#181818;stroke-width:1;"/><text fill="#000000" font-family="sans-serif" font-size="13" lengthAdjust="spacing" textLength="92.8027" x="438.5" y="316.3638">Ver Aplicacion</text></g><!--link Comunidades to *end*--><g class="link" data-entity-1="Comunidades" data-entity-2="*end*" data-source-line="12" data-uid="lnk16" id="link_Comunidades_*end*"><path d="M404.7,199.0169 C444.64,226.2369 497.27,264.4569 539.5,303.2969 C561.9,323.9069 580.8183,347.2938 591.4883,361.1438" fill="none" id="Comunidades-to-*end*" style="stroke:#181818;stroke-width:1;"/><polygon fill="#181818" points="595.15,365.8969,592.8261,356.3261,592.0985,361.936,586.4887,361.2084,595.15,365.8969" style="stroke:#181818;stroke-width:1;"/><text fill="#000000" font-family="sans-serif" font-size="13" lengthAdjust="spacing" textLength="330.0337" x="556.5" y="316.3638">Cerrar Sesi&#243;n / Desactivar permisos de moderador</text></g><!--SRC=[PP2n2i8m48RtFCNHKIZk7GIfEekYYpZ4v8Q3D2cNn4LyAX_15pDfAora2l-VB__Tdq3181oYLUGiUj1e0xjqGDMwBbhIKgElXF111eI51oy1S5lTeQutS4Q3Ij7tOvCvY-4kCmti3NLa9Okt4CkKJ1pZmv2IumeDN96XNrh5WnFsZaDYCygJAAYBZvB9JObnKWMsxV-JHd3M1JfMQP5PSghfXuvhsA6NAj0pcJroHzxbZuJEQMIf7Vy0]--></g></svg>