<svg xmlns="http://www.w3.org/2000/svg" xmlns:xlink="http://www.w3.org/1999/xlink" contentStyleType="text/css" data-diagram-type="STATE" height="390px" preserveAspectRatio="none" style="width:883px;height:390px;background:#FFFFFF;" version="1.1" viewBox="0 0 883 390" width="883px" zoomAndPan="magnify"><title>Funciones dentro de "Publicaciones"</title><defs/><g><g class="title" data-source-line="1"><text fill="#000000" font-family="sans-serif" font-size="14" font-weight="bold" lengthAdjust="spacing" textLength="289.5361" x="290.0688" y="22.9951">Funciones dentro de "Publicaciones"</text></g><path d="M172.5,44.2969 L424.8628,44.2969 A12.5,12.5 0 0 1 437.3628,56.7969 L437.3628,70.5938 L160,70.5938 L160,56.7969 A12.5,12.5 0 0 1 172.5,44.2969" fill="#F1F1F1"/><rect fill="none" height="213.2969" rx="12.5" ry="12.5" style="stroke:#181818;stroke-width:0.5;" width="277.3628" x="160" y="44.2969"/><line style="stroke:#181818;stroke-width:0.5;" x1="160" x2="437.3628" y1="70.5938" y2="70.5938"/><text fill="#000000" font-family="sans-serif" font-size="14" lengthAdjust="spacing" textLength="95.1904" x="251.0862" y="62.292">Publicaciones</text><ellipse cx="215.5" cy="91.5938" fill="#222222" rx="10" ry="10" style="stroke:#222222;stroke-width:1;"/><g id="Publicaciones.Selecci&#243;n"><rect fill="#F1F1F1" height="50" rx="12.5" ry="12.5" style="stroke:#181818;stroke-width:0.5;" width="86.7256" x="172" y="138.5938"/><line style="stroke:#181818;stroke-width:0.5;" x1="172" x2="258.7256" y1="164.8906" y2="164.8906"/><text fill="#000000" font-family="sans-serif" font-size="14" lengthAdjust="spacing" textLength="66.7256" x="182" y="156.5889">Selecci&#243;n</text></g><ellipse cx="215.5" cy="236.5938" fill="none" rx="11" ry="11" style="stroke:#222222;stroke-width:1;"/><ellipse cx="215.5" cy="236.5938" fill="#222222" rx="6" ry="6" style="stroke:#222222;stroke-width:1;"/><!--link *start*Publicaciones to Selecci?n--><g class="link" data-entity-1="*start*Publicaciones" data-entity-2="Selecci&#243;n" data-source-line="4" data-uid="lnk4" id="link_*start*Publicaciones_Selecci&#243;n"><path d="M215.5,101.7438 C215.5,111.0137 215.5,119.7338 215.5,132.3738" fill="none" id="*start*Publicaciones-to-Selecci&#243;n" style="stroke:#181818;stroke-width:1;"/><polygon fill="#181818" points="215.5,138.3738,219.5,129.3738,215.5,133.3738,211.5,129.3738,215.5,138.3738" style="stroke:#181818;stroke-width:1;"/></g><!--link Selecci?n to Selecci?n--><g class="link" data-entity-1="Selecci&#243;n" data-entity-2="Selecci&#243;n" data-source-line="5" data-uid="lnk5" id="link_Selecci&#243;n_Selecci&#243;n"><path d="M259.17,155.8738 C269.43,156.5138 277,159.0838 277,163.5938 C277,168.1038 275.4184,170.3002 265.1584,170.9402" fill="none" id="Selecci&#243;n-to-Selecci&#243;n" style="stroke:#181818;stroke-width:1;"/><polygon fill="#181818" points="259.17,171.3138,268.4016,174.7457,264.1603,171.0025,267.9035,166.7612,259.17,171.3138" style="stroke:#181818;stroke-width:1;"/><text fill="#000000" font-family="sans-serif" font-size="13" lengthAdjust="spacing" textLength="80.9263" x="310.1521" y="160.6606">EliminarPost</text><text fill="#000000" font-family="sans-serif" font-size="13" lengthAdjust="spacing" textLength="135.2305" x="287.1323" y="175.7935">Revisar Comentarios</text></g><!--link Selecci?n to *end*Publicaciones--><g class="link" data-entity-1="Selecci&#243;n" data-entity-2="*end*Publicaciones" data-source-line="6" data-uid="lnk7" id="link_Selecci&#243;n_*end*Publicaciones"><path d="M215.5,188.6338 C215.5,201.1838 215.5,209.8738 215.5,219.4438" fill="none" id="Selecci&#243;n-to-*end*Publicaciones" style="stroke:#181818;stroke-width:1;"/><polygon fill="#181818" points="215.5,225.4438,219.5,216.4438,215.5,220.4438,211.5,216.4438,215.5,225.4438" style="stroke:#181818;stroke-width:1;"/></g><g id="Reportes"><rect fill="#F1F1F1" height="50" rx="12.5" ry="12.5" style="stroke:#181818;stroke-width:0.5;" width="82.9453" x="7" y="334.2969"/><line style="stroke:#181818;stroke-width:0.5;" x1="7" x2="89.9453" y1="360.5938" y2="360.5938"/><text fill="#000000" font-family="sans-serif" font-size="14" lengthAdjust="spacing" textLength="62.9453" x="17" y="352.292">Reportes</text></g><g id="Usuarios"><rect fill="#F1F1F1" height="50" rx="12.5" ry="12.5" style="stroke:#181818;stroke-width:0.5;" width="80.498" x="134.5" y="334.2969"/><line style="stroke:#181818;stroke-width:0.5;" x1="134.5" x2="214.998" y1="360.5938" y2="360.5938"/><text fill="#000000" font-family="sans-serif" font-size="14" lengthAdjust="spacing" textLength="60.498" x="144.5" y="352.292">Usuarios</text></g><g id="Aplicaci&#243;n"><rect fill="#F1F1F1" height="50" rx="12.5" ry="12.5" style="stroke:#181818;stroke-width:0.5;" width="91.5449" x="251.5" y="334.2969"/><line style="stroke:#181818;stroke-width:0.5;" x1="251.5" x2="343.0449" y1="360.5938" y2="360.5938"/><text fill="#000000" font-family="sans-serif" font-size="14" lengthAdjust="spacing" textLength="71.5449" x="261.5" y="352.292">Aplicaci&#243;n</text></g><g id="Comunidades"><rect fill="#F1F1F1" height="50" rx="12.5" ry="12.5" style="stroke:#181818;stroke-width:0.5;" width="115.874" x="378.5" y="334.2969"/><line style="stroke:#181818;stroke-width:0.5;" x1="378.5" x2="494.374" y1="360.5938" y2="360.5938"/><text fill="#000000" font-family="sans-serif" font-size="14" lengthAdjust="spacing" textLength="95.874" x="388.5" y="352.292">Comunidades</text></g><ellipse cx="591.5" cy="359.2969" fill="none" rx="11" ry="11" style="stroke:#222222;stroke-width:1;"/><ellipse cx="591.5" cy="359.2969" fill="#222222" rx="6" ry="6" style="stroke:#222222;stroke-width:1;"/><!--link Publicaciones to Reportes--><g class="link" data-entity-1="Publicaciones" data-entity-2="Reportes" data-source-line="9" data-uid="lnk9" id="link_Publicaciones_Reportes"><path d="M159.95,241.0069 C140.6,255.5969 121.53,271.2269 104.5,287.2969 C89.54,301.4069 78.734,314.7963 68.324,329.2663" fill="none" id="Publicaciones-to-Reportes" style="stroke:#181818;stroke-width:1;"/><polygon fill="#181818" points="64.82,334.1369,73.323,329.167,67.74,330.0781,66.8289,324.4951,64.82,334.1369" style="stroke:#181818;stroke-width:1;"/><text fill="#000000" font-family="sans-serif" font-size="13" lengthAdjust="spacing" textLength="84.8174" x="105.5" y="300.3638">Ver Reportes</text></g><!--link Publicaciones to Usuarios--><g class="link" data-entity-1="Publicaciones" data-entity-2="Usuarios" data-source-line="10" data-uid="lnk11" id="link_Publicaciones_Usuarios"><path d="M223.19,257.4669 C216.96,267.4069 210.97,277.4469 205.5,287.2969 C197.15,302.3469 191.6503,314.5348 185.9903,328.5248" fill="none" id="Publicaciones-to-Usuarios" style="stroke:#181818;stroke-width:1;"/><polygon fill="#181818" points="183.74,334.0869,190.8234,327.244,185.6152,329.4518,183.4074,324.2436,183.74,334.0869" style="stroke:#181818;stroke-width:1;"/><text fill="#000000" font-family="sans-serif" font-size="13" lengthAdjust="spacing" textLength="82.5449" x="206.5" y="300.3638">Ver Usuarios</text></g><!--link Publicaciones to Aplicaci?n--><g class="link" data-entity-1="Publicaciones" data-entity-2="Aplicaci&#243;n" data-source-line="11" data-uid="lnk13" id="link_Publicaciones_Aplicaci&#243;n"><path d="M297.64,257.5769 C297.59,267.6169 297.54,277.6469 297.5,287.2969 C297.44,302.8269 297.4312,314.2669 297.4512,327.9769" fill="none" id="Publicaciones-to-Aplicaci&#243;n" style="stroke:#181818;stroke-width:1;"/><polygon fill="#181818" points="297.46,333.9769,301.4469,324.971,297.4527,328.9769,293.4469,324.9827,297.46,333.9769" style="stroke:#181818;stroke-width:1;"/><text fill="#000000" font-family="sans-serif" font-size="13" lengthAdjust="spacing" textLength="92.8027" x="298.5" y="300.3638">Ver Aplicaci&#243;n</text></g><!--link Publicaciones to Comunidades--><g class="link" data-entity-1="Publicaciones" data-entity-2="Comunidades" data-source-line="12" data-uid="lnk15" id="link_Publicaciones_Comunidades"><path d="M375.75,257.6269 C382.55,267.5769 389.23,277.5669 395.5,287.2969 C405.37,302.6069 412.6943,315.1185 420.4743,329.0485" fill="none" id="Publicaciones-to-Comunidades" style="stroke:#181818;stroke-width:1;"/><polygon fill="#181818" points="423.4,334.2869,422.5037,324.4789,420.9619,329.9216,415.5193,328.3798,423.4,334.2869" style="stroke:#181818;stroke-width:1;"/><text fill="#000000" font-family="sans-serif" font-size="13" lengthAdjust="spacing" textLength="115.394" x="406.5" y="300.3638">Ver Comunidades</text></g><!--link Publicaciones to *end*--><g class="link" data-entity-1="Publicaciones" data-entity-2="*end*" data-source-line="13" data-uid="lnk17" id="link_Publicaciones_*end*"><path d="M437.26,222.7169 C469.26,241.7669 502.19,263.7069 530.5,287.2969 C553.72,306.6469 571.9275,330.4638 582.0475,344.7238" fill="none" id="Publicaciones-to-*end*" style="stroke:#181818;stroke-width:1;"/><polygon fill="#181818" points="585.52,349.6169,583.5733,339.9623,582.6263,345.5393,577.0492,344.5923,585.52,349.6169" style="stroke:#181818;stroke-width:1;"/><text fill="#000000" font-family="sans-serif" font-size="13" lengthAdjust="spacing" textLength="328.1738" x="547.5" y="300.3638">Cerrar Sesi&#243;n / Desactivar Permisos de Moderador</text></g><!--SRC=[RP6nRW8n44HxVyM84WdHNn49GT8XdK19ar0uzXOhtNbFkpwQYA_Y4_9ZyN49WUGgQzwETiPsvjmGdleKM18P8gMiKWxCwlwzuU37mSmvopuJxYW-7F0wFs2nUC2U6Wg1Fy-fm5_nPuOAZmstdBpMOXbl2Jiwidd5MjgIxfN5_cyeAUxat7tyCDXH9vgBgF12UfKJpcVhByk_dJzomhdgHZ3s7SmtPC9VclU9eu_N6ZTamZyyMOKrgPPhxyakGKjio7p8V2om9ctPPFWGR2MI-YZw1G00]--></g></svg>