<svg xmlns="http://www.w3.org/2000/svg" xmlns:xlink="http://www.w3.org/1999/xlink" contentStyleType="text/css" data-diagram-type="STATE" height="397px" preserveAspectRatio="none" style="width:912px;height:397px;background:#FFFFFF;" version="1.1" viewBox="0 0 912 397" width="912px" zoomAndPan="magnify"><title>Funciones dentro de "Usuarios"</title><defs/><g><g class="title" data-source-line="1"><text fill="#000000" font-family="sans-serif" font-size="14" font-weight="bold" lengthAdjust="spacing" textLength="250.2021" x="324.2358" y="22.9951">Funciones dentro de "Usuarios"</text></g><path d="M247,44.2969 L442.3989,44.2969 A12.5,12.5 0 0 1 454.8989,56.7969 L454.8989,70.5938 L234.5,70.5938 L234.5,56.7969 A12.5,12.5 0 0 1 247,44.2969" fill="#F1F1F1"/><rect fill="none" height="220.2969" rx="12.5" ry="12.5" style="stroke:#181818;stroke-width:0.5;" width="220.3989" x="234.5" y="44.2969"/><line style="stroke:#181818;stroke-width:0.5;" x1="234.5" x2="454.8989" y1="70.5938" y2="70.5938"/><text fill="#000000" font-family="sans-serif" font-size="14" lengthAdjust="spacing" textLength="60.498" x="314.4504" y="62.292">Usuarios</text><ellipse cx="290" cy="91.5938" fill="#222222" rx="10" ry="10" style="stroke:#222222;stroke-width:1;"/><g id="Usuarios.Selecci&#243;n"><rect fill="#F1F1F1" height="50" rx="12.5" ry="12.5" style="stroke:#181818;stroke-width:0.5;" width="86.7256" x="246.5" y="142.0938"/><line style="stroke:#181818;stroke-width:0.5;" x1="246.5" x2="333.2256" y1="168.3906" y2="168.3906"/><text fill="#000000" font-family="sans-serif" font-size="14" lengthAdjust="spacing" textLength="66.7256" x="256.5" y="160.0889">Selecci&#243;n</text></g><ellipse cx="290" cy="243.5938" fill="none" rx="11" ry="11" style="stroke:#222222;stroke-width:1;"/><ellipse cx="290" cy="243.5938" fill="#222222" rx="6" ry="6" style="stroke:#222222;stroke-width:1;"/><!--link *start*Usuarios to Selecci?n--><g class="link" data-entity-1="*start*Usuarios" data-entity-2="Selecci&#243;n" data-source-line="4" data-uid="lnk4" id="link_*start*Usuarios_Selecci&#243;n"><path d="M290,101.6037 C290,111.5737 290,122.0438 290,135.8538" fill="none" id="*start*Usuarios-to-Selecci&#243;n" style="stroke:#181818;stroke-width:1;"/><polygon fill="#181818" points="290,141.8538,294,132.8538,290,136.8538,286,132.8538,290,141.8538" style="stroke:#181818;stroke-width:1;"/></g><!--link Selecci?n to Selecci?n--><g class="link" data-entity-1="Selecci&#243;n" data-entity-2="Selecci&#243;n" data-source-line="5" data-uid="lnk5" id="link_Selecci&#243;n_Selecci&#243;n"><path d="M333.67,158.6438 C343.93,159.3338 351.5,162.1538 351.5,167.0938 C351.5,172.0338 349.9165,174.4512 339.6565,175.1412" fill="none" id="Selecci&#243;n-to-Selecci&#243;n" style="stroke:#181818;stroke-width:1;"/><polygon fill="#181818" points="333.67,175.5438,342.9181,178.9308,338.6587,175.2083,342.3813,170.9489,333.67,175.5438" style="stroke:#181818;stroke-width:1;"/><text fill="#000000" font-family="sans-serif" font-size="13" lengthAdjust="spacing" textLength="69.3481" x="364.0254" y="156.6606">Suspender</text><text fill="#000000" font-family="sans-serif" font-size="13" lengthAdjust="spacing" textLength="52.2349" x="372.582" y="171.7935">Advertir</text><text fill="#000000" font-family="sans-serif" font-size="13" lengthAdjust="spacing" textLength="82.3989" x="357.5" y="186.9263">Desbloquear</text></g><!--link Selecci?n to *end*Usuarios--><g class="link" data-entity-1="Selecci&#243;n" data-entity-2="*end*Usuarios" data-source-line="6" data-uid="lnk7" id="link_Selecci&#243;n_*end*Usuarios"><path d="M290,192.4838 C290,206.0638 290,216.2438 290,226.4738" fill="none" id="Selecci&#243;n-to-*end*Usuarios" style="stroke:#181818;stroke-width:1;"/><polygon fill="#181818" points="290,232.4738,294,223.4738,290,227.4738,286,223.4738,290,232.4738" style="stroke:#181818;stroke-width:1;"/></g><g id="Publicaciones"><rect fill="#F1F1F1" height="50" rx="12.5" ry="12.5" style="stroke:#181818;stroke-width:0.5;" width="115.1904" x="7" y="341.2969"/><line style="stroke:#181818;stroke-width:0.5;" x1="7" x2="122.1904" y1="367.5938" y2="367.5938"/><text fill="#000000" font-family="sans-serif" font-size="14" lengthAdjust="spacing" textLength="95.1904" x="17" y="359.292">Publicaciones</text></g><g id="Reportes"><rect fill="#F1F1F1" height="50" rx="12.5" ry="12.5" style="stroke:#181818;stroke-width:0.5;" width="82.9453" x="180" y="341.2969"/><line style="stroke:#181818;stroke-width:0.5;" x1="180" x2="262.9453" y1="367.5938" y2="367.5938"/><text fill="#000000" font-family="sans-serif" font-size="14" lengthAdjust="spacing" textLength="62.9453" x="190" y="359.292">Reportes</text></g><g id="Aplicaci&#243;n"><rect fill="#F1F1F1" height="50" rx="12.5" ry="12.5" style="stroke:#181818;stroke-width:0.5;" width="91.5449" x="298.5" y="341.2969"/><line style="stroke:#181818;stroke-width:0.5;" x1="298.5" x2="390.0449" y1="367.5938" y2="367.5938"/><text fill="#000000" font-family="sans-serif" font-size="14" lengthAdjust="spacing" textLength="71.5449" x="308.5" y="359.292">Aplicaci&#243;n</text></g><g id="Comunidades"><rect fill="#F1F1F1" height="50" rx="12.5" ry="12.5" style="stroke:#181818;stroke-width:0.5;" width="115.874" x="425.5" y="341.2969"/><line style="stroke:#181818;stroke-width:0.5;" x1="425.5" x2="541.374" y1="367.5938" y2="367.5938"/><text fill="#000000" font-family="sans-serif" font-size="14" lengthAdjust="spacing" textLength="95.874" x="435.5" y="359.292">Comunidades</text></g><ellipse cx="620.5" cy="366.2969" fill="none" rx="11" ry="11" style="stroke:#222222;stroke-width:1;"/><ellipse cx="620.5" cy="366.2969" fill="#222222" rx="6" ry="6" style="stroke:#222222;stroke-width:1;"/><!--link Usuarios to Publicaciones--><g class="link" data-entity-1="Usuarios" data-entity-2="Publicaciones" data-source-line="9" data-uid="lnk9" id="link_Usuarios_Publicaciones"><path d="M234.44,213.8469 C196.7,236.4569 155.45,264.1669 121.5,294.2969 C105.89,308.1469 94.741,321.7214 84.191,336.3414" fill="none" id="Usuarios-to-Publicaciones" style="stroke:#181818;stroke-width:1;"/><polygon fill="#181818" points="80.68,341.2069,89.1902,336.2493,83.6058,337.1523,82.7028,331.568,80.68,341.2069" style="stroke:#181818;stroke-width:1;"/><text fill="#000000" font-family="sans-serif" font-size="13" lengthAdjust="spacing" textLength="115.1719" x="122.5" y="307.3638">Ver publicaciones</text></g><!--link Usuarios to Reportes--><g class="link" data-entity-1="Usuarios" data-entity-2="Reportes" data-source-line="10" data-uid="lnk11" id="link_Usuarios_Reportes"><path d="M270.85,264.3369 C264.78,274.3469 258.91,284.4369 253.5,294.2969 C245.18,309.4669 239.5225,321.693 233.6025,335.653" fill="none" id="Usuarios-to-Reportes" style="stroke:#181818;stroke-width:1;"/><polygon fill="#181818" points="231.26,341.1769,238.4563,334.4528,233.2121,336.5737,231.0912,331.3295,231.26,341.1769" style="stroke:#181818;stroke-width:1;"/><text fill="#000000" font-family="sans-serif" font-size="13" lengthAdjust="spacing" textLength="81.1294" x="254.5" y="307.3638">Ver reportes</text></g><!--link Usuarios to Aplicaci?n--><g class="link" data-entity-1="Usuarios" data-entity-2="Aplicaci&#243;n" data-source-line="11" data-uid="lnk13" id="link_Usuarios_Aplicaci&#243;n"><path d="M344.5,264.6069 C344.5,293.5069 344.5,315.9669 344.5,335.2169" fill="none" id="Usuarios-to-Aplicaci&#243;n" style="stroke:#181818;stroke-width:1;"/><polygon fill="#181818" points="344.5,341.2169,348.5,332.2169,344.5,336.2169,340.5,332.2169,344.5,341.2169" style="stroke:#181818;stroke-width:1;"/><text fill="#000000" font-family="sans-serif" font-size="13" lengthAdjust="spacing" textLength="91.876" x="345.5" y="307.3638">Ver aplicaci&#243;n</text></g><!--link Usuarios to Comunidades--><g class="link" data-entity-1="Usuarios" data-entity-2="Comunidades" data-source-line="12" data-uid="lnk15" id="link_Usuarios_Comunidades"><path d="M421.79,264.4169 C428.55,274.4569 435.21,284.5169 441.5,294.2969 C451.34,309.5969 458.749,321.9913 466.749,335.8413" fill="none" id="Usuarios-to-Comunidades" style="stroke:#181818;stroke-width:1;"/><polygon fill="#181818" points="469.75,341.0369,468.7121,331.2429,467.2491,336.7072,461.7847,335.2442,469.75,341.0369" style="stroke:#181818;stroke-width:1;"/><text fill="#000000" font-family="sans-serif" font-size="13" lengthAdjust="spacing" textLength="98.6934" x="452.5" y="307.3638">Ver comunidad</text></g><!--link Usuarios to *end*--><g class="link" data-entity-1="Usuarios" data-entity-2="*end*" data-source-line="13" data-uid="lnk17" id="link_Usuarios_*end*"><path d="M454.62,217.9669 C489.67,240.0969 527.6,266.4569 559.5,294.2969 C582.28,314.1669 600.6281,337.7965 610.8881,351.8865" fill="none" id="Usuarios-to-*end*" style="stroke:#181818;stroke-width:1;"/><polygon fill="#181818" points="614.42,356.7369,612.3557,347.1068,611.4768,352.6949,605.8886,351.816,614.42,356.7369" style="stroke:#181818;stroke-width:1;"/><text fill="#000000" font-family="sans-serif" font-size="13" lengthAdjust="spacing" textLength="328.1738" x="576.5" y="307.3638">Cerrar Sesi&#243;n / Desactivar Permisos de Moderador</text></g><!--SRC=[PP0nRiCm34LtdOB86238xg60uI9RWI11kwGT68a30KTKAIbBa5Fr2BrOwRfEwdQI-FJ9hy_2fIVOrEXP8cK858kA7R1upXML9I-SomKBmGJWuW0EopTOhHvWJprvpvyVqU2z-FC63UnhJXG3wMjimvcqiDqUAHzxUQ-4-h_TBDpLkPljmBRrsBF7yRSDl912-etcwXqbqJ89zQUQQzeqTflhACCxc2ixETN80SCqq4zWhXjMqq17ggYMANy7MeDbHL_uR71BUk8imxhXIMmd64I_0000]--></g></svg>