<svg xmlns="http://www.w3.org/2000/svg" xmlns:xlink="http://www.w3.org/1999/xlink" contentStyleType="text/css" data-diagram-type="STATE" height="390px" preserveAspectRatio="none" style="width:921px;height:390px;background:#FFFFFF;" version="1.1" viewBox="0 0 921 390" width="921px" zoomAndPan="magnify"><title>Funciones dentro de "Aplicaci&#243;n"</title><defs/><g><g class="title" data-source-line="1"><text fill="#000000" font-family="sans-serif" font-size="14" font-weight="bold" lengthAdjust="spacing" textLength="262.3154" x="322.6091" y="22.9951">Funciones dentro de "Aplicaci&#243;n"</text></g><path d="M180.5,44.2969 L508.9839,44.2969 A12.5,12.5 0 0 1 521.4839,56.7969 L521.4839,70.5938 L168,70.5938 L168,56.7969 A12.5,12.5 0 0 1 180.5,44.2969" fill="#F1F1F1"/><rect fill="none" height="213.2969" rx="12.5" ry="12.5" style="stroke:#181818;stroke-width:0.5;" width="353.4839" x="168" y="44.2969"/><line style="stroke:#181818;stroke-width:0.5;" x1="168" x2="521.4839" y1="70.5938" y2="70.5938"/><text fill="#000000" font-family="sans-serif" font-size="14" lengthAdjust="spacing" textLength="71.5449" x="308.9695" y="62.292">Aplicaci&#243;n</text><ellipse cx="223.5" cy="91.5938" fill="#222222" rx="10" ry="10" style="stroke:#222222;stroke-width:1;"/><g id="Aplicaci&#243;n.Selecci&#243;n"><rect fill="#F1F1F1" height="50" rx="12.5" ry="12.5" style="stroke:#181818;stroke-width:0.5;" width="86.7256" x="180" y="138.5938"/><line style="stroke:#181818;stroke-width:0.5;" x1="180" x2="266.7256" y1="164.8906" y2="164.8906"/><text fill="#000000" font-family="sans-serif" font-size="14" lengthAdjust="spacing" textLength="66.7256" x="190" y="156.5889">Selecci&#243;n</text></g><ellipse cx="223.5" cy="236.5938" fill="none" rx="11" ry="11" style="stroke:#222222;stroke-width:1;"/><ellipse cx="223.5" cy="236.5938" fill="#222222" rx="6" ry="6" style="stroke:#222222;stroke-width:1;"/><!--link *start*Aplicaci?n to Selecci?n--><g class="link" data-entity-1="*start*Aplicaci&#243;n" data-entity-2="Selecci&#243;n" data-source-line="4" data-uid="lnk4" id="link_*start*Aplicaci&#243;n_Selecci&#243;n"><path d="M223.5,101.7438 C223.5,111.0137 223.5,119.7338 223.5,132.3738" fill="none" id="*start*Aplicaci&#243;n-to-Selecci&#243;n" style="stroke:#181818;stroke-width:1;"/><polygon fill="#181818" points="223.5,138.3738,227.5,129.3738,223.5,133.3738,219.5,129.3738,223.5,138.3738" style="stroke:#181818;stroke-width:1;"/></g><!--link Selecci?n to Selecci?n--><g class="link" data-entity-1="Selecci&#243;n" data-entity-2="Selecci&#243;n" data-source-line="5" data-uid="lnk5" id="link_Selecci&#243;n_Selecci&#243;n"><path d="M267.17,155.8738 C277.43,156.5138 285,159.0838 285,163.5938 C285,168.1038 283.4184,170.3002 273.1584,170.9402" fill="none" id="Selecci&#243;n-to-Selecci&#243;n" style="stroke:#181818;stroke-width:1;"/><polygon fill="#181818" points="267.17,171.3138,276.4016,174.7457,272.1603,171.0025,275.9035,166.7612,267.17,171.3138" style="stroke:#181818;stroke-width:1;"/><text fill="#000000" font-family="sans-serif" font-size="13" lengthAdjust="spacing" textLength="215.4839" x="291" y="168.1606">Bloquear Palabras O Expresiones</text></g><!--link Selecci?n to *end*Aplicaci?n--><g class="link" data-entity-1="Selecci&#243;n" data-entity-2="*end*Aplicaci&#243;n" data-source-line="8" data-uid="lnk7" id="link_Selecci&#243;n_*end*Aplicaci&#243;n"><path d="M223.5,188.6338 C223.5,201.1838 223.5,209.8738 223.5,219.4438" fill="none" id="Selecci&#243;n-to-*end*Aplicaci&#243;n" style="stroke:#181818;stroke-width:1;"/><polygon fill="#181818" points="223.5,225.4438,227.5,216.4438,223.5,220.4438,219.5,216.4438,223.5,225.4438" style="stroke:#181818;stroke-width:1;"/></g><g id="Publicaciones"><rect fill="#F1F1F1" height="50" rx="12.5" ry="12.5" style="stroke:#181818;stroke-width:0.5;" width="115.1904" x="7" y="334.2969"/><line style="stroke:#181818;stroke-width:0.5;" x1="7" x2="122.1904" y1="360.5938" y2="360.5938"/><text fill="#000000" font-family="sans-serif" font-size="14" lengthAdjust="spacing" textLength="95.1904" x="17" y="352.292">Publicaciones</text></g><g id="Reportes"><rect fill="#F1F1F1" height="50" rx="12.5" ry="12.5" style="stroke:#181818;stroke-width:0.5;" width="82.9453" x="180" y="334.2969"/><line style="stroke:#181818;stroke-width:0.5;" x1="180" x2="262.9453" y1="360.5938" y2="360.5938"/><text fill="#000000" font-family="sans-serif" font-size="14" lengthAdjust="spacing" textLength="62.9453" x="190" y="352.292">Reportes</text></g><g id="Usuarios"><rect fill="#F1F1F1" height="50" rx="12.5" ry="12.5" style="stroke:#181818;stroke-width:0.5;" width="80.498" x="302.5" y="334.2969"/><line style="stroke:#181818;stroke-width:0.5;" x1="302.5" x2="382.998" y1="360.5938" y2="360.5938"/><text fill="#000000" font-family="sans-serif" font-size="14" lengthAdjust="spacing" textLength="60.498" x="312.5" y="352.292">Usuarios</text></g><g id="Comunidades"><rect fill="#F1F1F1" height="50" rx="12.5" ry="12.5" style="stroke:#181818;stroke-width:0.5;" width="115.874" x="417.5" y="334.2969"/><line style="stroke:#181818;stroke-width:0.5;" x1="417.5" x2="533.374" y1="360.5938" y2="360.5938"/><text fill="#000000" font-family="sans-serif" font-size="14" lengthAdjust="spacing" textLength="95.874" x="427.5" y="352.292">Comunidades</text></g><ellipse cx="627.5" cy="359.2969" fill="none" rx="11" ry="11" style="stroke:#222222;stroke-width:1;"/><ellipse cx="627.5" cy="359.2969" fill="#222222" rx="6" ry="6" style="stroke:#222222;stroke-width:1;"/><!--link Aplicaci?n to Publicaciones--><g class="link" data-entity-1="Aplicaci&#243;n" data-entity-2="Publicaciones" data-source-line="11" data-uid="lnk9" id="link_Aplicaci&#243;n_Publicaciones"><path d="M167.76,250.2469 C151.19,261.9469 135.15,274.3569 120.5,287.2969 C104.97,301.0169 94.0109,314.5586 83.7109,329.2086" fill="none" id="Aplicaci&#243;n-to-Publicaciones" style="stroke:#181818;stroke-width:1;"/><polygon fill="#181818" points="80.26,334.1169,88.7085,329.055,83.1357,330.0266,82.1641,324.4538,80.26,334.1169" style="stroke:#181818;stroke-width:1;"/><text fill="#000000" font-family="sans-serif" font-size="13" lengthAdjust="spacing" textLength="115.1719" x="121.5" y="300.3638">Ver publicaciones</text></g><!--link Aplicaci?n to Reportes--><g class="link" data-entity-1="Aplicaci&#243;n" data-entity-2="Reportes" data-source-line="12" data-uid="lnk11" id="link_Aplicaci&#243;n_Reportes"><path d="M270.03,257.5169 C263.87,267.4369 257.92,277.4669 252.5,287.2969 C244.18,302.3669 238.6837,314.5562 233.0137,328.5462" fill="none" id="Aplicaci&#243;n-to-Reportes" style="stroke:#181818;stroke-width:1;"/><polygon fill="#181818" points="230.76,334.1069,237.8476,327.2683,232.6381,329.473,230.4334,324.2634,230.76,334.1069" style="stroke:#181818;stroke-width:1;"/><text fill="#000000" font-family="sans-serif" font-size="13" lengthAdjust="spacing" textLength="81.1294" x="253.5" y="300.3638">Ver reportes</text></g><!--link Aplicaci?n to Usuarios--><g class="link" data-entity-1="Aplicaci&#243;n" data-entity-2="Usuarios" data-source-line="13" data-uid="lnk13" id="link_Aplicaci&#243;n_Usuarios"><path d="M343.48,257.4669 C343.2,286.2469 342.979,308.7672 342.789,328.0972" fill="none" id="Aplicaci&#243;n-to-Usuarios" style="stroke:#181818;stroke-width:1;"/><polygon fill="#181818" points="342.73,334.0969,346.8183,325.1366,342.7791,329.0971,338.8187,325.058,342.73,334.0969" style="stroke:#181818;stroke-width:1;"/><text fill="#000000" font-family="sans-serif" font-size="13" lengthAdjust="spacing" textLength="81.269" x="344.5" y="300.3638">Ver usuarios</text></g><!--link Aplicaci?n to Comunidades--><g class="link" data-entity-1="Aplicaci&#243;n" data-entity-2="Comunidades" data-source-line="14" data-uid="lnk15" id="link_Aplicaci&#243;n_Comunidades"><path d="M414.7,257.6369 C421.12,267.6269 427.47,277.6269 433.5,287.2969 C443.13,302.7269 450.5184,315.1432 458.5684,328.9532" fill="none" id="Aplicaci&#243;n-to-Comunidades" style="stroke:#181818;stroke-width:1;"/><polygon fill="#181818" points="461.59,334.1369,460.5134,324.347,459.072,329.8172,453.6019,328.3758,461.59,334.1369" style="stroke:#181818;stroke-width:1;"/><text fill="#000000" font-family="sans-serif" font-size="13" lengthAdjust="spacing" textLength="113.4644" x="444.5" y="300.3638">Ver comunidades</text></g><!--link Aplicaci?n to *end*--><g class="link" data-entity-1="Aplicaci&#243;n" data-entity-2="*end*" data-source-line="15" data-uid="lnk17" id="link_Aplicaci&#243;n_*end*"><path d="M521.11,252.4069 C536.93,263.5369 552.31,275.2369 566.5,287.2969 C589.53,306.8769 607.8009,330.6128 617.9809,344.7928" fill="none" id="Aplicaci&#243;n-to-*end*" style="stroke:#181818;stroke-width:1;"/><polygon fill="#181818" points="621.48,349.6669,619.4807,340.0231,618.5641,345.6052,612.982,344.6886,621.48,349.6669" style="stroke:#181818;stroke-width:1;"/><text fill="#000000" font-family="sans-serif" font-size="13" lengthAdjust="spacing" textLength="330.0337" x="583.5" y="300.3638">Cerrar Sesi&#243;n / Desactivar permisos de moderador</text></g><!--SRC=[PP4nQaCn38Ptd-8dOo5aVqEXJTEreI5TIWV5rc3mintP3eNIK_K8lLZjv8KywideqoS9oTbcntWkNjlWES6mpnBgWyL3T5QJjhy_Vg5KofGPCuOl1RpVVM2vlCUE7Uiphl0M_CjXmACBny8as9AZWr322pQVKJYTvzTgrNUeKzItKlFX3M_BuG9QvV36WZWddV_ACKYkAfehKzHf-rH8R9YqCaMTjWvZyTQGkJRKDz39xKu3rYnILz_LPLjYXITEfBCzLHXPHfj2-m6CmR2G2V87]--></g></svg>