<svg xmlns="http://www.w3.org/2000/svg" xmlns:xlink="http://www.w3.org/1999/xlink" contentStyleType="text/css" data-diagram-type="STATE" height="390px" preserveAspectRatio="none" style="width:883px;height:390px;background:#FFFFFF;" version="1.1" viewBox="0 0 883 390" width="883px" zoomAndPan="magnify"><title>Funciones dentro de "Publicaciones"</title><defs/><g><g class="title" data-source-line="1"><text fill="#000000" font-family="sans-serif" font-size="14" font-weight="bold" lengthAdjust="spacing" textLength="289.5361" x="290.0688" y="22.9951">Funciones dentro de "Publicaciones"</text></g><path d="M130.5,44.2969 L466.5981,44.2969 A12.5,12.5 0 0 1 479.0981,56.7969 L479.0981,70.5938 L118,70.5938 L118,56.7969 A12.5,12.5 0 0 1 130.5,44.2969" fill="#F1F1F1"/><rect fill="none" height="213.2969" rx="12.5" ry="12.5" style="stroke:#181818;stroke-width:0.5;" width="361.0981" x="118" y="44.2969"/><line style="stroke:#181818;stroke-width:0.5;" x1="118" x2="479.0981" y1="70.5938" y2="70.5938"/><text fill="#000000" font-family="sans-serif" font-size="14" lengthAdjust="spacing" textLength="95.1904" x="250.9539" y="62.292">Publicaciones</text><ellipse cx="173.5" cy="91.5938" fill="#222222" rx="10" ry="10" style="stroke:#222222;stroke-width:1;"/><g id="Publicaciones.Selecci&#243;n"><rect fill="#F1F1F1" height="50" rx="12.5" ry="12.5" style="stroke:#181818;stroke-width:0.5;" width="86.7256" x="130" y="138.5938"/><line style="stroke:#181818;stroke-width:0.5;" x1="130" x2="216.7256" y1="164.8906" y2="164.8906"/><text fill="#000000" font-family="sans-serif" font-size="14" lengthAdjust="spacing" textLength="66.7256" x="140" y="156.5889">Selecci&#243;n</text></g><ellipse cx="173.5" cy="236.5938" fill="none" rx="11" ry="11" style="stroke:#222222;stroke-width:1;"/><ellipse cx="173.5" cy="236.5938" fill="#222222" rx="6" ry="6" style="stroke:#222222;stroke-width:1;"/><!--link *start*Publicaciones to Selecci?n--><g class="link" data-entity-1="*start*Publicaciones" data-entity-2="Selecci&#243;n" data-source-line="4" data-uid="lnk4" id="link_*start*Publicaciones_Selecci&#243;n"><path d="M173.5,101.7438 C173.5,111.0137 173.5,119.7338 173.5,132.3738" fill="none" id="*start*Publicaciones-to-Selecci&#243;n" style="stroke:#181818;stroke-width:1;"/><polygon fill="#181818" points="173.5,138.3738,177.5,129.3738,173.5,133.3738,169.5,129.3738,173.5,138.3738" style="stroke:#181818;stroke-width:1;"/></g><!--link Selecci?n to Selecci?n--><g class="link" data-entity-1="Selecci&#243;n" data-entity-2="Selecci&#243;n" data-source-line="5" data-uid="lnk5" id="link_Selecci&#243;n_Selecci&#243;n"><path d="M217.17,159.7338 C227.43,160.0537 235,161.3338 235,163.5938 C235,165.8538 233.4271,166.9467 223.1671,167.2667" fill="none" id="Selecci&#243;n-to-Selecci&#243;n" style="stroke:#181818;stroke-width:1;"/><polygon fill="#181818" points="217.17,167.4538,226.2903,171.1712,222.1676,167.2979,226.0409,163.1751,217.17,167.4538" style="stroke:#181818;stroke-width:1;"/><text fill="#000000" font-family="sans-serif" font-size="13" lengthAdjust="spacing" textLength="80.9263" x="241" y="168.1606">EliminarPost</text></g><!--link Selecci?n to Selecci?n--><g class="link" data-entity-1="Selecci&#243;n" data-entity-2="Selecci&#243;n" data-source-line="6" data-uid="lnk6" id="link_Selecci&#243;n_Selecci&#243;n"><path d="M217.33,157.0438 C263.86,154.0038 327,156.1938 327,163.5938 C327,170.9938 269.8472,173.5749 223.3172,170.5349" fill="none" id="Selecci&#243;n-to-Selecci&#243;n-1" style="stroke:#181818;stroke-width:1;"/><polygon fill="#181818" points="217.33,170.1438,226.0501,174.722,222.3194,170.4697,226.5716,166.739,217.33,170.1438" style="stroke:#181818;stroke-width:1;"/><text fill="#000000" font-family="sans-serif" font-size="13" lengthAdjust="spacing" textLength="131.0981" x="333" y="168.1606">RevisarComentarios</text></g><!--link Selecci?n to *end*Publicaciones--><g class="link" data-entity-1="Selecci&#243;n" data-entity-2="*end*Publicaciones" data-source-line="7" data-uid="lnk8" id="link_Selecci&#243;n_*end*Publicaciones"><path d="M173.5,188.6338 C173.5,201.1838 173.5,209.8738 173.5,219.4438" fill="none" id="Selecci&#243;n-to-*end*Publicaciones" style="stroke:#181818;stroke-width:1;"/><polygon fill="#181818" points="173.5,225.4438,177.5,216.4438,173.5,220.4438,169.5,216.4438,173.5,225.4438" style="stroke:#181818;stroke-width:1;"/></g><g id="Reportes"><rect fill="#F1F1F1" height="50" rx="12.5" ry="12.5" style="stroke:#181818;stroke-width:0.5;" width="82.9453" x="7" y="334.2969"/><line style="stroke:#181818;stroke-width:0.5;" x1="7" x2="89.9453" y1="360.5938" y2="360.5938"/><text fill="#000000" font-family="sans-serif" font-size="14" lengthAdjust="spacing" textLength="62.9453" x="17" y="352.292">Reportes</text></g><g id="Usuarios"><rect fill="#F1F1F1" height="50" rx="12.5" ry="12.5" style="stroke:#181818;stroke-width:0.5;" width="80.498" x="134.5" y="334.2969"/><line style="stroke:#181818;stroke-width:0.5;" x1="134.5" x2="214.998" y1="360.5938" y2="360.5938"/><text fill="#000000" font-family="sans-serif" font-size="14" lengthAdjust="spacing" textLength="60.498" x="144.5" y="352.292">Usuarios</text></g><g id="Aplicaci&#243;n"><rect fill="#F1F1F1" height="50" rx="12.5" ry="12.5" style="stroke:#181818;stroke-width:0.5;" width="91.5449" x="251.5" y="334.2969"/><line style="stroke:#181818;stroke-width:0.5;" x1="251.5" x2="343.0449" y1="360.5938" y2="360.5938"/><text fill="#000000" font-family="sans-serif" font-size="14" lengthAdjust="spacing" textLength="71.5449" x="261.5" y="352.292">Aplicaci&#243;n</text></g><g id="Comunidades"><rect fill="#F1F1F1" height="50" rx="12.5" ry="12.5" style="stroke:#181818;stroke-width:0.5;" width="115.874" x="378.5" y="334.2969"/><line style="stroke:#181818;stroke-width:0.5;" x1="378.5" x2="494.374" y1="360.5938" y2="360.5938"/><text fill="#000000" font-family="sans-serif" font-size="14" lengthAdjust="spacing" textLength="95.874" x="388.5" y="352.292">Comunidades</text></g><ellipse cx="591.5" cy="359.2969" fill="none" rx="11" ry="11" style="stroke:#222222;stroke-width:1;"/><ellipse cx="591.5" cy="359.2969" fill="#222222" rx="6" ry="6" style="stroke:#222222;stroke-width:1;"/><!--link Publicaciones to Reportes--><g class="link" data-entity-1="Publicaciones" data-entity-2="Reportes" data-source-line="10" data-uid="lnk10" id="link_Publicaciones_Reportes"><path d="M138.76,257.5269 C126.83,267.1769 115.26,277.1469 104.5,287.2969 C89.54,301.4069 78.734,314.7963 68.324,329.2663" fill="none" id="Publicaciones-to-Reportes" style="stroke:#181818;stroke-width:1;"/><polygon fill="#181818" points="64.82,334.1369,73.323,329.167,67.74,330.0781,66.8289,324.4951,64.82,334.1369" style="stroke:#181818;stroke-width:1;"/><text fill="#000000" font-family="sans-serif" font-size="13" lengthAdjust="spacing" textLength="84.8174" x="105.5" y="300.3638">Ver Reportes</text></g><!--link Publicaciones to Usuarios--><g class="link" data-entity-1="Publicaciones" data-entity-2="Usuarios" data-source-line="11" data-uid="lnk12" id="link_Publicaciones_Usuarios"><path d="M223.19,257.4669 C216.96,267.4069 210.97,277.4469 205.5,287.2969 C197.15,302.3469 191.6503,314.5348 185.9903,328.5248" fill="none" id="Publicaciones-to-Usuarios" style="stroke:#181818;stroke-width:1;"/><polygon fill="#181818" points="183.74,334.0869,190.8234,327.244,185.6152,329.4518,183.4074,324.2436,183.74,334.0869" style="stroke:#181818;stroke-width:1;"/><text fill="#000000" font-family="sans-serif" font-size="13" lengthAdjust="spacing" textLength="82.5449" x="206.5" y="300.3638">Ver Usuarios</text></g><!--link Publicaciones to Aplicaci?n--><g class="link" data-entity-1="Publicaciones" data-entity-2="Aplicaci&#243;n" data-source-line="12" data-uid="lnk14" id="link_Publicaciones_Aplicaci&#243;n"><path d="M297.64,257.5769 C297.59,267.6169 297.54,277.6469 297.5,287.2969 C297.44,302.8269 297.4312,314.2669 297.4512,327.9769" fill="none" id="Publicaciones-to-Aplicaci&#243;n" style="stroke:#181818;stroke-width:1;"/><polygon fill="#181818" points="297.46,333.9769,301.4469,324.971,297.4527,328.9769,293.4469,324.9827,297.46,333.9769" style="stroke:#181818;stroke-width:1;"/><text fill="#000000" font-family="sans-serif" font-size="13" lengthAdjust="spacing" textLength="92.8027" x="298.5" y="300.3638">Ver Aplicaci&#243;n</text></g><!--link Publicaciones to Comunidades--><g class="link" data-entity-1="Publicaciones" data-entity-2="Comunidades" data-source-line="13" data-uid="lnk16" id="link_Publicaciones_Comunidades"><path d="M375.75,257.6269 C382.55,267.5769 389.23,277.5669 395.5,287.2969 C405.37,302.6069 412.6943,315.1185 420.4743,329.0485" fill="none" id="Publicaciones-to-Comunidades" style="stroke:#181818;stroke-width:1;"/><polygon fill="#181818" points="423.4,334.2869,422.5037,324.4789,420.9619,329.9216,415.5193,328.3798,423.4,334.2869" style="stroke:#181818;stroke-width:1;"/><text fill="#000000" font-family="sans-serif" font-size="13" lengthAdjust="spacing" textLength="115.394" x="406.5" y="300.3638">Ver Comunidades</text></g><!--link Publicaciones to *end*--><g class="link" data-entity-1="Publicaciones" data-entity-2="*end*" data-source-line="14" data-uid="lnk18" id="link_Publicaciones_*end*"><path d="M479.26,249.2269 C497.14,261.2469 514.56,274.0069 530.5,287.2969 C553.72,306.6469 571.9275,330.4638 582.0475,344.7238" fill="none" id="Publicaciones-to-*end*" style="stroke:#181818;stroke-width:1;"/><polygon fill="#181818" points="585.52,349.6169,583.5733,339.9623,582.6263,345.5393,577.0492,344.5923,585.52,349.6169" style="stroke:#181818;stroke-width:1;"/><text fill="#000000" font-family="sans-serif" font-size="13" lengthAdjust="spacing" textLength="328.1738" x="547.5" y="300.3638">Cerrar Sesi&#243;n / Desactivar Permisos de Moderador</text></g><!--SRC=[XP6nQiCm48PtFSMHCM2oUoYKjDaA9g5TIeQBTCE1hGjtSfQGfyeZzCKYnwbhjuPEul__JxfVKk9K4spQw5aY6GIAIIKliAZQGyqU-s3Xd2LC11CNpWxWSxc7edY27TNaFNzTOpP_nAyCIdYjkU68MecbVz0jdTXGrzBaNgWizdT3dkykpasBTS6MZg8fYn8-I0SvGxvRUp_yGNxB6VBvs1jzlGuUEJDyRjv63XY66YDdXkyUiuGrgQBcYzfzq0fUoD0dFcMp8ctOfFigU9D0Ya7q1W00]--></g></svg>