<svg xmlns="http://www.w3.org/2000/svg" xmlns:xlink="http://www.w3.org/1999/xlink" contentStyleType="text/css" data-diagram-type="STATE" height="390px" preserveAspectRatio="none" style="width:927px;height:390px;background:#FFFFFF;" version="1.1" viewBox="0 0 927 390" width="927px" zoomAndPan="magnify"><title>Funciones dentro de "Reportes"</title><defs/><g><g class="title" data-source-line="1"><text fill="#000000" font-family="sans-serif" font-size="14" font-weight="bold" lengthAdjust="spacing" textLength="252.7725" x="330.4507" y="22.9951">Funciones dentro de "Reportes"</text></g><path d="M230.5,44.2969 L458.3418,44.2969 A12.5,12.5 0 0 1 470.8418,56.7969 L470.8418,70.5938 L218,70.5938 L218,56.7969 A12.5,12.5 0 0 1 230.5,44.2969" fill="#F1F1F1"/><rect fill="none" height="213.2969" rx="12.5" ry="12.5" style="stroke:#181818;stroke-width:0.5;" width="252.8418" x="218" y="44.2969"/><line style="stroke:#181818;stroke-width:0.5;" x1="218" x2="470.8418" y1="70.5938" y2="70.5938"/><text fill="#000000" font-family="sans-serif" font-size="14" lengthAdjust="spacing" textLength="62.9453" x="312.9482" y="62.292">Reportes</text><ellipse cx="273.5" cy="91.5938" fill="#222222" rx="10" ry="10" style="stroke:#222222;stroke-width:1;"/><g id="Reportes.Selecci&#243;n"><rect fill="#F1F1F1" height="50" rx="12.5" ry="12.5" style="stroke:#181818;stroke-width:0.5;" width="86.7256" x="230" y="138.5938"/><line style="stroke:#181818;stroke-width:0.5;" x1="230" x2="316.7256" y1="164.8906" y2="164.8906"/><text fill="#000000" font-family="sans-serif" font-size="14" lengthAdjust="spacing" textLength="66.7256" x="240" y="156.5889">Selecci&#243;n</text></g><ellipse cx="273.5" cy="236.5938" fill="none" rx="11" ry="11" style="stroke:#222222;stroke-width:1;"/><ellipse cx="273.5" cy="236.5938" fill="#222222" rx="6" ry="6" style="stroke:#222222;stroke-width:1;"/><!--link *start*Reportes to Selecci?n--><g class="link" data-entity-1="*start*Reportes" data-entity-2="Selecci&#243;n" data-source-line="4" data-uid="lnk4" id="link_*start*Reportes_Selecci&#243;n"><path d="M273.5,101.7438 C273.5,111.0137 273.5,119.7338 273.5,132.3738" fill="none" id="*start*Reportes-to-Selecci&#243;n" style="stroke:#181818;stroke-width:1;"/><polygon fill="#181818" points="273.5,138.3738,277.5,129.3738,273.5,133.3738,269.5,129.3738,273.5,138.3738" style="stroke:#181818;stroke-width:1;"/></g><!--link Selecci?n to Selecci?n--><g class="link" data-entity-1="Selecci&#243;n" data-entity-2="Selecci&#243;n" data-source-line="5" data-uid="lnk5" id="link_Selecci&#243;n_Selecci&#243;n"><path d="M317.17,155.8738 C327.43,156.5138 335,159.0838 335,163.5938 C335,168.1038 333.4184,170.3002 323.1584,170.9402" fill="none" id="Selecci&#243;n-to-Selecci&#243;n" style="stroke:#181818;stroke-width:1;"/><polygon fill="#181818" points="317.17,171.3138,326.4016,174.7457,322.1603,171.0025,325.9035,166.7612,317.17,171.3138" style="stroke:#181818;stroke-width:1;"/><text fill="#000000" font-family="sans-serif" font-size="13" lengthAdjust="spacing" textLength="114.8418" x="341" y="168.1606">RevisarContenido</text></g><!--link Selecci?n to *end*Reportes--><g class="link" data-entity-1="Selecci&#243;n" data-entity-2="*end*Reportes" data-source-line="6" data-uid="lnk7" id="link_Selecci&#243;n_*end*Reportes"><path d="M273.5,188.6338 C273.5,201.1838 273.5,209.8738 273.5,219.4438" fill="none" id="Selecci&#243;n-to-*end*Reportes" style="stroke:#181818;stroke-width:1;"/><polygon fill="#181818" points="273.5,225.4438,277.5,216.4438,273.5,220.4438,269.5,216.4438,273.5,225.4438" style="stroke:#181818;stroke-width:1;"/></g><g id="Publicaciones"><rect fill="#F1F1F1" height="50" rx="12.5" ry="12.5" style="stroke:#181818;stroke-width:0.5;" width="115.1904" x="7" y="334.2969"/><line style="stroke:#181818;stroke-width:0.5;" x1="7" x2="122.1904" y1="360.5938" y2="360.5938"/><text fill="#000000" font-family="sans-serif" font-size="14" lengthAdjust="spacing" textLength="95.1904" x="17" y="352.292">Publicaciones</text></g><g id="Usuarios"><rect fill="#F1F1F1" height="50" rx="12.5" ry="12.5" style="stroke:#181818;stroke-width:0.5;" width="80.498" x="181.5" y="334.2969"/><line style="stroke:#181818;stroke-width:0.5;" x1="181.5" x2="261.998" y1="360.5938" y2="360.5938"/><text fill="#000000" font-family="sans-serif" font-size="14" lengthAdjust="spacing" textLength="60.498" x="191.5" y="352.292">Usuarios</text></g><g id="Aplicaci&#243;n"><rect fill="#F1F1F1" height="50" rx="12.5" ry="12.5" style="stroke:#181818;stroke-width:0.5;" width="91.5449" x="297.5" y="334.2969"/><line style="stroke:#181818;stroke-width:0.5;" x1="297.5" x2="389.0449" y1="360.5938" y2="360.5938"/><text fill="#000000" font-family="sans-serif" font-size="14" lengthAdjust="spacing" textLength="71.5449" x="307.5" y="352.292">Aplicaci&#243;n</text></g><g id="Comunidades"><rect fill="#F1F1F1" height="50" rx="12.5" ry="12.5" style="stroke:#181818;stroke-width:0.5;" width="115.874" x="424.5" y="334.2969"/><line style="stroke:#181818;stroke-width:0.5;" x1="424.5" x2="540.374" y1="360.5938" y2="360.5938"/><text fill="#000000" font-family="sans-serif" font-size="14" lengthAdjust="spacing" textLength="95.874" x="434.5" y="352.292">Comunidades</text></g><ellipse cx="635.5" cy="359.2969" fill="none" rx="11" ry="11" style="stroke:#222222;stroke-width:1;"/><ellipse cx="635.5" cy="359.2969" fill="#222222" rx="6" ry="6" style="stroke:#222222;stroke-width:1;"/><!--link Reportes to Publicaciones--><g class="link" data-entity-1="Reportes" data-entity-2="Publicaciones" data-source-line="9" data-uid="lnk9" id="link_Reportes_Publicaciones"><path d="M217.96,218.2369 C184.96,238.2969 150.53,261.8269 121.5,287.2969 C105.82,301.0569 94.6535,314.636 84.1235,329.276" fill="none" id="Reportes-to-Publicaciones" style="stroke:#181818;stroke-width:1;"/><polygon fill="#181818" points="80.62,334.1469,89.1225,329.1762,83.5396,330.0878,82.6279,324.5049,80.62,334.1469" style="stroke:#181818;stroke-width:1;"/><text fill="#000000" font-family="sans-serif" font-size="13" lengthAdjust="spacing" textLength="115.1719" x="122.5" y="300.3638">Ver publicaciones</text></g><!--link Reportes to Usuarios--><g class="link" data-entity-1="Reportes" data-entity-2="Usuarios" data-source-line="10" data-uid="lnk11" id="link_Reportes_Usuarios"><path d="M271,257.6269 C264.87,267.5269 258.94,277.5169 253.5,287.2969 C245.09,302.4269 239.4258,314.6502 233.5258,328.6102" fill="none" id="Reportes-to-Usuarios" style="stroke:#181818;stroke-width:1;"/><polygon fill="#181818" points="231.19,334.1369,238.3781,327.404,233.1365,329.5313,231.0092,324.2897,231.19,334.1369" style="stroke:#181818;stroke-width:1;"/><text fill="#000000" font-family="sans-serif" font-size="13" lengthAdjust="spacing" textLength="81.269" x="254.5" y="300.3638">Ver usuarios</text></g><!--link Reportes to Aplicaci?n--><g class="link" data-entity-1="Reportes" data-entity-2="Aplicaci&#243;n" data-source-line="11" data-uid="lnk13" id="link_Reportes_Aplicaci&#243;n"><path d="M343.99,257.4669 C343.85,286.2469 343.7379,308.7669 343.6479,328.0969" fill="none" id="Reportes-to-Aplicaci&#243;n" style="stroke:#181818;stroke-width:1;"/><polygon fill="#181818" points="343.62,334.0969,347.6619,325.1156,343.6433,329.0969,339.6619,325.0783,343.62,334.0969" style="stroke:#181818;stroke-width:1;"/><text fill="#000000" font-family="sans-serif" font-size="13" lengthAdjust="spacing" textLength="91.876" x="345.5" y="300.3638">Ver aplicaci&#243;n</text></g><!--link Reportes to Comunidades--><g class="link" data-entity-1="Reportes" data-entity-2="Comunidades" data-source-line="12" data-uid="lnk15" id="link_Reportes_Comunidades"><path d="M421.75,257.6269 C428.55,267.5769 435.23,277.5669 441.5,287.2969 C451.37,302.6069 458.6943,315.1185 466.4743,329.0485" fill="none" id="Reportes-to-Comunidades" style="stroke:#181818;stroke-width:1;"/><polygon fill="#181818" points="469.4,334.2869,468.5037,324.4789,466.9619,329.9216,461.5193,328.3798,469.4,334.2869" style="stroke:#181818;stroke-width:1;"/><text fill="#000000" font-family="sans-serif" font-size="13" lengthAdjust="spacing" textLength="113.4644" x="452.5" y="300.3638">Ver comunidades</text></g><!--link Reportes to *end*--><g class="link" data-entity-1="Reportes" data-entity-2="*end*" data-source-line="13" data-uid="lnk17" id="link_Reportes_*end*"><path d="M471.24,216.4569 C506.27,236.9369 543.22,261.1269 574.5,287.2969 C597.68,306.6969 615.902,330.4978 626.032,344.7378" fill="none" id="Reportes-to-*end*" style="stroke:#181818;stroke-width:1;"/><polygon fill="#181818" points="629.51,349.6269,627.5524,339.9745,626.6117,345.5526,621.0336,344.6119,629.51,349.6269" style="stroke:#181818;stroke-width:1;"/><text fill="#000000" font-family="sans-serif" font-size="13" lengthAdjust="spacing" textLength="328.1738" x="591.5" y="300.3638">Cerrar Sesi&#243;n / Desactivar Permisos de Moderador</text></g><!--SRC=[PP2z2W8n383tFaLm5CJz1a5Et0HHT167s6O8dCsHjhU8J-KZ-6BsFFKydKg-V6b-8iUAO9cyPV4Km96FAlc1qOPgqKXXP4o860dU02u6u30-mcGoWorLP2tVRpx3FlZ9GP6h6mwefVX8dftyw_bBSpNcqwPbwtIgs68tNG5xKgY_qT3UXOJAyXBJAnewyxghpbqx3NimD4ivfpmfkdTdsuEXsHwZW99KKVDMuRdI51OKq4PkCboJdZb8Us1OYID59_e0]--></g></svg>