<svg xmlns="http://www.w3.org/2000/svg" xmlns:xlink="http://www.w3.org/1999/xlink" contentStyleType="text/css" data-diagram-type="STATE" height="422px" preserveAspectRatio="none" style="width:683px;height:422px;background:#FFFFFF;" version="1.1" viewBox="0 0 683 422" width="683px" zoomAndPan="magnify"><title>Funciones dentro de "Moderador"</title><defs/><g><g class="title" data-source-line="1"><text fill="#000000" font-family="sans-serif" font-size="14" font-weight="bold" lengthAdjust="spacing" textLength="267.3945" x="201.2498" y="22.9951">Funciones dentro de "Moderador"</text></g><path d="M226,44.2969 L467.2671,44.2969 A12.5,12.5 0 0 1 479.7671,56.7969 L479.7671,70.5938 L213.5,70.5938 L213.5,56.7969 A12.5,12.5 0 0 1 226,44.2969" fill="#F1F1F1"/><rect fill="none" height="245.2969" rx="12.5" ry="12.5" style="stroke:#181818;stroke-width:0.5;" width="266.2671" x="213.5" y="44.2969"/><line style="stroke:#181818;stroke-width:0.5;" x1="213.5" x2="479.7671" y1="70.5938" y2="70.5938"/><text fill="#000000" font-family="sans-serif" font-size="14" lengthAdjust="spacing" textLength="75.6875" x="308.7898" y="62.292">Moderador</text><g id="Moderador.Selecci&#243;n"><rect fill="#F1F1F1" height="50" rx="12.5" ry="12.5" style="stroke:#181818;stroke-width:0.5;" width="86.7256" x="225.5" y="154.5938"/><line style="stroke:#181818;stroke-width:0.5;" x1="225.5" x2="312.2256" y1="180.8906" y2="180.8906"/><text fill="#000000" font-family="sans-serif" font-size="14" lengthAdjust="spacing" textLength="66.7256" x="235.5" y="172.5889">Selecci&#243;n</text></g><ellipse cx="269" cy="91.5938" fill="#222222" rx="10" ry="10" style="stroke:#222222;stroke-width:1;"/><ellipse cx="269" cy="268.5938" fill="none" rx="11" ry="11" style="stroke:#222222;stroke-width:1;"/><ellipse cx="269" cy="268.5938" fill="#222222" rx="6" ry="6" style="stroke:#222222;stroke-width:1;"/><!--link *start*Moderador to Selecci?n--><g class="link" data-entity-1="*start*Moderador" data-entity-2="Selecci&#243;n" data-source-line="5" data-uid="lnk3" id="link_*start*Moderador_Selecci&#243;n"><path d="M269,101.7937 C269,114.2738 269,131.0138 269,148.5238" fill="none" id="*start*Moderador-to-Selecci&#243;n" style="stroke:#181818;stroke-width:1;"/><polygon fill="#181818" points="269,154.5238,273,145.5238,269,149.5238,265,145.5238,269,154.5238" style="stroke:#181818;stroke-width:1;"/><text fill="#000000" font-family="sans-serif" font-size="13" lengthAdjust="spacing" textLength="39.9902" x="270" y="132.6606">entrar</text></g><!--link Selecci?n to *end*Moderador--><g class="link" data-entity-1="Selecci&#243;n" data-entity-2="*end*Moderador" data-source-line="7" data-uid="lnk5" id="link_Selecci&#243;n_*end*Moderador"><path d="M269,204.8238 C269,222.1238 269,238.5138 269,251.3438" fill="none" id="Selecci&#243;n-to-*end*Moderador" style="stroke:#181818;stroke-width:1;"/><polygon fill="#181818" points="269,257.3438,273,248.3438,269,252.3438,265,248.3438,269,257.3438" style="stroke:#181818;stroke-width:1;"/><text fill="#000000" font-family="sans-serif" font-size="13" lengthAdjust="spacing" textLength="111.687" x="270" y="235.6606">Guardar cambios</text></g><!--link Selecci?n to Selecci?n--><g class="link" data-entity-1="Selecci&#243;n" data-entity-2="Selecci&#243;n" data-source-line="8" data-uid="lnk6" id="link_Selecci&#243;n_Selecci&#243;n"><path d="M312.67,170.4038 C322.93,171.1638 330.5,174.2238 330.5,179.5938 C330.5,184.9638 328.9136,187.5805 318.6536,188.3405" fill="none" id="Selecci&#243;n-to-Selecci&#243;n" style="stroke:#181818;stroke-width:1;"/><polygon fill="#181818" points="312.67,188.7838,321.9409,192.108,317.6563,188.4144,321.3499,184.1298,312.67,188.7838" style="stroke:#181818;stroke-width:1;"/><text fill="#000000" font-family="sans-serif" font-size="13" lengthAdjust="spacing" textLength="128.2671" x="336.5" y="184.1606">Hacer m&#225;s cambios</text></g><g id="Publicaciones"><rect fill="#F1F1F1" height="50" rx="12.5" ry="12.5" style="stroke:#181818;stroke-width:0.5;" width="115.1904" x="7" y="366.2969"/><line style="stroke:#181818;stroke-width:0.5;" x1="7" x2="122.1904" y1="392.5938" y2="392.5938"/><text fill="#000000" font-family="sans-serif" font-size="14" lengthAdjust="spacing" textLength="95.1904" x="17" y="384.292">Publicaciones</text></g><g id="Reportes"><rect fill="#F1F1F1" height="50" rx="12.5" ry="12.5" style="stroke:#181818;stroke-width:0.5;" width="82.9453" x="179" y="366.2969"/><line style="stroke:#181818;stroke-width:0.5;" x1="179" x2="261.9453" y1="392.5938" y2="392.5938"/><text fill="#000000" font-family="sans-serif" font-size="14" lengthAdjust="spacing" textLength="62.9453" x="189" y="384.292">Reportes</text></g><g id="Usuarios"><rect fill="#F1F1F1" height="50" rx="12.5" ry="12.5" style="stroke:#181818;stroke-width:0.5;" width="80.498" x="306.5" y="366.2969"/><line style="stroke:#181818;stroke-width:0.5;" x1="306.5" x2="386.998" y1="392.5938" y2="392.5938"/><text fill="#000000" font-family="sans-serif" font-size="14" lengthAdjust="spacing" textLength="60.498" x="316.5" y="384.292">Usuarios</text></g><g id="Aplicaci&#243;n"><rect fill="#F1F1F1" height="50" rx="12.5" ry="12.5" style="stroke:#181818;stroke-width:0.5;" width="91.5449" x="424.5" y="366.2969"/><line style="stroke:#181818;stroke-width:0.5;" x1="424.5" x2="516.0449" y1="392.5938" y2="392.5938"/><text fill="#000000" font-family="sans-serif" font-size="14" lengthAdjust="spacing" textLength="71.5449" x="434.5" y="384.292">Aplicaci&#243;n</text></g><g id="Comunidades"><rect fill="#F1F1F1" height="50" rx="12.5" ry="12.5" style="stroke:#181818;stroke-width:0.5;" width="115.874" x="551.5" y="366.2969"/><line style="stroke:#181818;stroke-width:0.5;" x1="551.5" x2="667.374" y1="392.5938" y2="392.5938"/><text fill="#000000" font-family="sans-serif" font-size="14" lengthAdjust="spacing" textLength="95.874" x="561.5" y="384.292">Comunidades</text></g><!--link Moderador to Publicaciones--><g class="link" data-entity-1="Moderador" data-entity-2="Publicaciones" data-source-line="12" data-uid="lnk7" id="link_Moderador_Publicaciones"><path d="M213.38,245.4669 C180.73,267.3569 147.01,292.5469 118.5,319.2969 C103.7,333.1769 93.2977,346.4948 83.3577,361.0248" fill="none" id="Moderador-to-Publicaciones" style="stroke:#181818;stroke-width:1;"/><polygon fill="#181818" points="79.97,365.9769,88.353,360.8072,82.7931,361.8501,81.7502,356.2902,79.97,365.9769" style="stroke:#181818;stroke-width:1;"/><text fill="#000000" font-family="sans-serif" font-size="13" lengthAdjust="spacing" textLength="114.7593" x="119.5" y="332.3638">Ver Publicaciones</text></g><!--link Moderador to Reportes--><g class="link" data-entity-1="Moderador" data-entity-2="Reportes" data-source-line="13" data-uid="lnk8" id="link_Moderador_Reportes"><path d="M265.94,289.4569 C260.16,299.4269 254.61,309.4569 249.5,319.2969 C241.65,334.4269 236.5248,346.5657 231.2348,360.5357" fill="none" id="Moderador-to-Reportes" style="stroke:#181818;stroke-width:1;"/><polygon fill="#181818" points="229.11,366.1469,236.038,359.1466,230.8806,361.4709,228.5564,356.3136,229.11,366.1469" style="stroke:#181818;stroke-width:1;"/><text fill="#000000" font-family="sans-serif" font-size="13" lengthAdjust="spacing" textLength="84.8174" x="250.5" y="332.3638">Ver Reportes</text></g><!--link Moderador to Usuarios--><g class="link" data-entity-1="Moderador" data-entity-2="Usuarios" data-source-line="14" data-uid="lnk9" id="link_Moderador_Usuarios"><path d="M343.02,289.7469 C342.95,305.4169 343.08,321.2369 343.5,336.2969 C343.77,346.0569 343.9665,350.8073 344.5165,360.1273" fill="none" id="Moderador-to-Usuarios" style="stroke:#181818;stroke-width:1;"/><polygon fill="#181818" points="344.87,366.1169,348.3329,356.8969,344.5754,361.1256,340.3468,357.3681,344.87,366.1169" style="stroke:#181818;stroke-width:1;"/><text fill="#000000" font-family="sans-serif" font-size="13" lengthAdjust="spacing" textLength="82.5449" x="344.5" y="332.3638">Ver Usuarios</text></g><!--link Moderador to Aplicaci?n--><g class="link" data-entity-1="Moderador" data-entity-2="Aplicaci&#243;n" data-source-line="15" data-uid="lnk10" id="link_Moderador_Aplicaci&#243;n"><path d="M414.8,289.2969 C420.46,299.4369 426.08,309.5369 431.5,319.2969 C440.17,334.9169 446.9583,347.2442 454.4983,361.0142" fill="none" id="Moderador-to-Aplicaci&#243;n" style="stroke:#181818;stroke-width:1;"/><polygon fill="#181818" points="457.38,366.2769,456.5659,356.4617,454.9786,361.8913,449.549,360.304,457.38,366.2769" style="stroke:#181818;stroke-width:1;"/><text fill="#000000" font-family="sans-serif" font-size="13" lengthAdjust="spacing" textLength="92.8027" x="441.5" y="332.3638">Ver Aplicaci&#243;n</text></g><!--link Moderador to Comunidades--><g class="link" data-entity-1="Moderador" data-entity-2="Comunidades" data-source-line="16" data-uid="lnk11" id="link_Moderador_Comunidades"><path d="M479.54,266.0969 C501.06,283.2769 522.74,301.3869 542.5,319.2969 C558.7,333.9769 571.575,347.4282 584.335,361.5982" fill="none" id="Moderador-to-Comunidades" style="stroke:#181818;stroke-width:1;"/><polygon fill="#181818" points="588.35,366.0569,585.2999,356.6922,585.0042,362.3413,579.355,362.0455,588.35,366.0569" style="stroke:#181818;stroke-width:1;"/><text fill="#000000" font-family="sans-serif" font-size="13" lengthAdjust="spacing" textLength="115.394" x="560.5" y="332.3638">Ver Comunidades</text></g><!--SRC=[RP4xJWCn48RxFSKeJG1fbNwBI17F9b84WWPHEFP8iUJrB7vKYCDm1ewGYp5h9yQxuCRoFzyy_d7GmI3SHIirMVIWq0P7VC5YImgTKEGMJRDQGjksSEi32o2f7oBwG52O55wk6WR291U4hwYF1lYyNhqnluOdD2YbFdvRw61iB5oAvoA_qIHMy9WxrkZWFWgdX0Cf-hqc_nyuQV8W93heZr- -f7mMTnjvMi9xHF32eEKzcByUQs4DkxWtMefJQWSlt62YpVX77CW5HjF9_5cReS-UxV6CDNhMPkXco0r7cuMjn1b-JNsqMWcLviXqfPMLtF0lQyiJN0o6LtSWmrNyvVItfswpLXpbPvawF-l1ib8r_m40]--></g></svg>