<svg xmlns="http://www.w3.org/2000/svg" xmlns:xlink="http://www.w3.org/1999/xlink" contentStyleType="text/css" data-diagram-type="STATE" height="496px" preserveAspectRatio="none" style="width:648px;height:496px;background:#FFFFFF;" version="1.1" viewBox="0 0 648 496" width="648px" zoomAndPan="magnify"><defs/><g><ellipse cx="450.51" cy="16" fill="#222222" rx="10" ry="10" style="stroke:#222222;stroke-width:1;"/><g id="Inicio"><rect fill="#F1F1F1" height="50" rx="12.5" ry="12.5" style="stroke:#181818;stroke-width:0.5;" width="57.0439" x="422.01" y="87"/><line style="stroke:#181818;stroke-width:0.5;" x1="422.01" x2="479.0539" y1="113.2969" y2="113.2969"/><text fill="#000000" font-family="sans-serif" font-size="14" lengthAdjust="spacing" textLength="37.0439" x="432.01" y="104.9951">Inicio</text></g><g id="UsuarioRegistrado"><rect fill="#F1F1F1" height="50" rx="12.5" ry="12.5" style="stroke:#181818;stroke-width:0.5;" width="148.8916" x="128.01" y="214"/><line style="stroke:#181818;stroke-width:0.5;" x1="128.01" x2="276.9016" y1="240.2969" y2="240.2969"/><text fill="#000000" font-family="sans-serif" font-size="14" lengthAdjust="spacing" textLength="128.8916" x="138.01" y="231.9951">UsuarioRegistrado</text></g><g id="Moderador"><rect fill="#F1F1F1" height="50" rx="12.5" ry="12.5" style="stroke:#181818;stroke-width:0.5;" width="95.6875" x="211.51" y="341"/><line style="stroke:#181818;stroke-width:0.5;" x1="211.51" x2="307.1975" y1="367.2969" y2="367.2969"/><text fill="#000000" font-family="sans-serif" font-size="14" lengthAdjust="spacing" textLength="75.6875" x="221.51" y="358.9951">Moderador</text></g><ellipse cx="38.51" cy="479" fill="none" rx="11" ry="11" style="stroke:#222222;stroke-width:1;"/><ellipse cx="38.51" cy="479" fill="#222222" rx="6" ry="6" style="stroke:#222222;stroke-width:1;"/><!--link *start* to Inicio--><g class="link" data-entity-1="*start*" data-entity-2="Inicio" data-source-line="1" data-uid="lnk4" id="link_*start*_Inicio"><path d="M450.51,26.01 C450.51,39.89 450.51,60.97 450.51,80.84" fill="none" id="*start*-to-Inicio" style="stroke:#181818;stroke-width:1;"/><polygon fill="#181818" points="450.51,86.84,454.51,77.84,450.51,81.84,446.51,77.84,450.51,86.84" style="stroke:#181818;stroke-width:1;"/></g><!--link Inicio to UsuarioRegistrado--><g class="link" data-entity-1="Inicio" data-entity-2="UsuarioRegistrado" data-source-line="2" data-uid="lnk6" id="link_Inicio_UsuarioRegistrado"><path d="M421.57,127.58 C379.54,148.77 306.4277,185.619 255.7077,211.189" fill="none" id="Inicio-to-UsuarioRegistrado" style="stroke:#181818;stroke-width:1;"/><polygon fill="#181818" points="250.35,213.89,260.1872,213.4103,254.8147,211.6392,256.5858,206.2667,250.35,213.89" style="stroke:#181818;stroke-width:1;"/><text fill="#000000" font-family="sans-serif" font-size="13" lengthAdjust="spacing" textLength="111.3188" x="341.51" y="180.0669">seleccionar perfil</text></g><!--link Inicio to Moderador--><g class="link" data-entity-1="Inicio" data-entity-2="Moderador" data-source-line="3" data-uid="lnk8" id="link_Inicio_Moderador"><path d="M471.28,137.3 C503.06,177.53 555.84,258.72 513.51,311 C488.12,342.36 380.0292,355.7614 313.7092,361.2914" fill="none" id="Inicio-to-Moderador" style="stroke:#181818;stroke-width:1;"/><polygon fill="#181818" points="307.73,361.79,317.0313,365.0283,312.7127,361.3745,316.3665,357.056,307.73,361.79" style="stroke:#181818;stroke-width:1;"/><text fill="#000000" font-family="sans-serif" font-size="13" lengthAdjust="spacing" textLength="111.3188" x="529.51" y="243.5669">seleccionar perfil</text></g><!--link UsuarioRegistrado to Moderador--><g class="link" data-entity-1="UsuarioRegistrado" data-entity-2="Moderador" data-source-line="5" data-uid="lnk9" id="link_UsuarioRegistrado_Moderador"><path d="M266.61,264.06 C278.94,271.72 290.26,281.54 297.51,294 C306.44,309.35 301.0097,322.3462 289.3897,336.1762" fill="none" id="UsuarioRegistrado-to-Moderador" style="stroke:#181818;stroke-width:1;"/><polygon fill="#181818" points="285.53,340.77,294.3821,336.4525,288.7464,336.9419,288.257,331.3062,285.53,340.77" style="stroke:#181818;stroke-width:1;"/><text fill="#000000" font-family="sans-serif" font-size="13" lengthAdjust="spacing" textLength="203.6392" x="301.51" y="307.0669">Activar Permisos de Moderador</text></g><!--link Moderador to UsuarioRegistrado--><g class="link" data-entity-1="Moderador" data-entity-2="UsuarioRegistrado" data-source-line="6" data-uid="lnk10" id="link_Moderador_UsuarioRegistrado"><path d="M211.13,358.64 C158.29,350.58 78.72,334.81 60.51,311 C36.9,280.13 76.5176,263.0526 122.1376,252.7426" fill="none" id="Moderador-to-UsuarioRegistrado" style="stroke:#181818;stroke-width:1;"/><polygon fill="#181818" points="127.99,251.42,118.3296,249.5023,123.113,252.5222,120.0931,257.3055,127.99,251.42" style="stroke:#181818;stroke-width:1;"/><text fill="#000000" font-family="sans-serif" font-size="13" lengthAdjust="spacing" textLength="227.4937" x="61.51" y="307.0669">Desactivar Permisos de Moderador</text></g><!--link UsuarioRegistrado to *end*--><g class="link" data-entity-1="UsuarioRegistrado" data-entity-2="*end*" data-source-line="8" data-uid="lnk12" id="link_UsuarioRegistrado_*end*"><path d="M127.76,247.7 C97.66,254.83 65.6,268.38 46.51,294 C6,348.35 25.4501,433.1013 33.8901,462.6113" fill="none" id="UsuarioRegistrado-to-*end*" style="stroke:#181818;stroke-width:1;"/><polygon fill="#181818" points="35.54,468.38,36.911,458.627,34.1651,463.5727,29.2194,460.8269,35.54,468.38" style="stroke:#181818;stroke-width:1;"/><text fill="#000000" font-family="sans-serif" font-size="13" lengthAdjust="spacing" textLength="88.0356" x="27.51" y="370.5669">Cerrar Sesi&#243;n</text></g><!--link Moderador to *end*--><g class="link" data-entity-1="Moderador" data-entity-2="*end*" data-source-line="9" data-uid="lnk13" id="link_Moderador_*end*"><path d="M211.55,391.09 C158.23,417.87 81.3123,456.5082 53.4623,470.4882" fill="none" id="Moderador-to-*end*" style="stroke:#181818;stroke-width:1;"/><polygon fill="#181818" points="48.1,473.18,57.938,472.7173,52.5686,470.9369,54.349,465.5675,48.1,473.18" style="stroke:#181818;stroke-width:1;"/><text fill="#000000" font-family="sans-serif" font-size="13" lengthAdjust="spacing" textLength="88.0356" x="149.51" y="434.0669">Cerrar Sesi&#243;n</text></g><!--SRC=[YzQALT3LjLFmpCjCpipdWb1WaT3YqiIYpFoWrFJCufAYn9HyAuNYr9pKPA1yNcAHGa5gKLfc3h86t_oKL92w8gmAkJ3CGzVac5oIMGRK491Qb9jPd5-ia9AAaEQ2it0vpYMrE16l2JXS40qC0Ii5vzIY8g3EuDJYpCERyz1imwO40000]--></g></svg>