<svg xmlns="http://www.w3.org/2000/svg" xmlns:xlink="http://www.w3.org/1999/xlink" contentStyleType="text/css" data-diagram-type="STATE" height="258px" preserveAspectRatio="none" style="width:408px;height:258px;background:#FFFFFF;" version="1.1" viewBox="0 0 408 258" width="408px" zoomAndPan="magnify"><defs/><g><ellipse cx="143" cy="16" fill="#222222" rx="10" ry="10" style="stroke:#222222;stroke-width:1;"/><g id="Post"><rect fill="#F1F1F1" height="50" rx="12.5" ry="12.5" style="stroke:#181818;stroke-width:0.5;" width="50" x="7" y="103"/><line style="stroke:#181818;stroke-width:0.5;" x1="7" x2="57" y1="129.2969" y2="129.2969"/><text fill="#000000" font-family="sans-serif" font-size="14" lengthAdjust="spacing" textLength="29.791" x="17.1045" y="120.9951">Post</text></g><ellipse cx="143" cy="241" fill="none" rx="11" ry="11" style="stroke:#222222;stroke-width:1;"/><ellipse cx="143" cy="241" fill="#222222" rx="6" ry="6" style="stroke:#222222;stroke-width:1;"/><!--link *start* to Post--><g class="link" data-entity-1="*start*" data-entity-2="Post" data-source-line="1" data-uid="lnk4" id="link_*start*_Post"><path d="M136.39,23.55 C120.99,38.81 86.3317,73.1565 60.6217,98.6365" fill="none" id="*start*-to-Post" style="stroke:#181818;stroke-width:1;"/><polygon fill="#181818" points="56.36,102.86,65.5682,99.3658,59.9114,99.3404,59.9368,93.6836,56.36,102.86" style="stroke:#181818;stroke-width:1;"/><text fill="#000000" font-family="sans-serif" font-size="13" lengthAdjust="spacing" textLength="54.0313" x="102" y="69.0669">Ver Post</text></g><!--link *start* to *end*--><g class="link" data-entity-1="*start*" data-entity-2="*end*" data-source-line="2" data-uid="lnk6" id="link_*start*_*end*"><path d="M150.29,22.97 C178.14,46.5 274.22,134.74 232,200 C214.52,227.02 179.9002,235.1248 160.1502,237.9348" fill="none" id="*start*-to-*end*" style="stroke:#181818;stroke-width:1;"/><polygon fill="#181818" points="154.21,238.78,163.6837,241.4724,159.1601,238.0757,162.5568,233.5521,154.21,238.78" style="stroke:#181818;stroke-width:1;"/><text fill="#000000" font-family="sans-serif" font-size="13" lengthAdjust="spacing" textLength="157.5425" x="243" y="132.5669">Registrarse/InicarSesion</text></g><!--link Post to Post--><g class="link" data-entity-1="Post" data-entity-2="Post" data-source-line="3" data-uid="lnk7" id="link_Post_Post"><path d="M57.28,117.26 C74.77,114 92,117.58 92,128 C92,138.42 80.6684,143.0994 63.1784,139.8394" fill="none" id="Post-to-Post" style="stroke:#181818;stroke-width:1;"/><polygon fill="#181818" points="57.28,138.74,65.3947,144.3214,62.1953,139.6562,66.8606,136.4569,57.28,138.74" style="stroke:#181818;stroke-width:1;"/><text fill="#000000" font-family="sans-serif" font-size="13" lengthAdjust="spacing" textLength="97.1064" x="98" y="132.5669">Compartir Post</text></g><!--link Post to *end*--><g class="link" data-entity-1="Post" data-entity-2="*end*" data-source-line="4" data-uid="lnk8" id="link_Post_*end*"><path d="M40.43,153.3 C46.55,168.18 56.03,186.83 69,200 C87.55,218.83 111.2056,229.023 126.7856,234.553" fill="none" id="Post-to-*end*" style="stroke:#181818;stroke-width:1;"/><polygon fill="#181818" points="132.44,236.56,125.2964,229.7799,127.728,234.8875,122.6204,237.3191,132.44,236.56" style="stroke:#181818;stroke-width:1;"/><text fill="#000000" font-family="sans-serif" font-size="13" lengthAdjust="spacing" textLength="157.5425" x="70" y="196.0669">Registrarse/InicarSesion</text></g><!--SRC=[YzQALT3LjLC8o2ykiL88Ioq2ixYYeS8WsaeXA3KzixYaAB6eE5NVCoypER4eEBKuCp-F2wGMIRjpVcv1Ob599jGGk2pG5Do60000]--></g></svg>