<svg xmlns="http://www.w3.org/2000/svg" xmlns:xlink="http://www.w3.org/1999/xlink" contentStyleType="text/css" data-diagram-type="CLASS" height="826px" preserveAspectRatio="none" style="width:848px;height:826px;background:#FFFFFF;" version="1.1" viewBox="0 0 848 826" width="848px" zoomAndPan="magnify"><defs/><g><!--class Usuario--><g class="entity" data-entity="Usuario" data-source-line="1" data-uid="ent0002" id="entity_Usuario"><rect fill="#F1F1F1" height="162.0781" rx="2.5" ry="2.5" style="stroke:#181818;stroke-width:0.5;" width="252.1465" x="252.16" y="196.49"/><ellipse cx="347.3812" cy="212.49" fill="#ADD1B2" rx="11" ry="11" style="stroke:#181818;stroke-width:1;"/><path d="M350.3499,218.1306 Q349.7718,218.4275 349.1312,218.5681 Q348.4906,218.7244 347.7874,218.7244 Q345.2874,218.7244 343.9593,217.0838 Q342.6468,215.4275 342.6468,212.3025 Q342.6468,209.1775 343.9593,207.5213 Q345.2874,205.865 347.7874,205.865 Q348.4906,205.865 349.1312,206.0213 Q349.7874,206.1775 350.3499,206.4744 L350.3499,209.1931 Q349.7249,208.615 349.1312,208.3494 Q348.5374,208.0681 347.9124,208.0681 Q346.5687,208.0681 345.8812,209.1463 Q345.1937,210.2088 345.1937,212.3025 Q345.1937,214.3963 345.8812,215.4744 Q346.5687,216.5369 347.9124,216.5369 Q348.5374,216.5369 349.1312,216.2713 Q349.7249,215.99 350.3499,215.4119 L350.3499,218.1306 Z " fill="#000000"/><text fill="#000000" font-family="sans-serif" font-size="14" lengthAdjust="spacing" textLength="53.2041" x="367.8812" y="217.3367">Usuario</text><line style="stroke:#181818;stroke-width:0.5;" x1="253.16" x2="503.3065" y1="228.49" y2="228.49"/><ellipse cx="263.16" cy="242.1384" fill="none" rx="3" ry="3" style="stroke:#038048;stroke-width:1;"/><text fill="#000000" font-family="sans-serif" font-size="14" lengthAdjust="spacing" textLength="59.0078" x="272.16" y="245.4851">String id</text><ellipse cx="263.16" cy="258.4353" fill="none" rx="3" ry="3" style="stroke:#038048;stroke-width:1;"/><text fill="#000000" font-family="sans-serif" font-size="14" lengthAdjust="spacing" textLength="100.5635" x="272.16" y="261.782">String nombre</text><ellipse cx="263.16" cy="274.7322" fill="none" rx="3" ry="3" style="stroke:#038048;stroke-width:1;"/><text fill="#000000" font-family="sans-serif" font-size="14" lengthAdjust="spacing" textLength="56.4443" x="272.16" y="278.0789">File foto</text><ellipse cx="263.16" cy="291.0291" fill="none" rx="3" ry="3" style="stroke:#038048;stroke-width:1;"/><text fill="#000000" font-family="sans-serif" font-size="14" lengthAdjust="spacing" textLength="176.7158" x="272.16" y="294.3757">String correoInstitucional</text><ellipse cx="263.16" cy="307.3259" fill="none" rx="3" ry="3" style="stroke:#038048;stroke-width:1;"/><text fill="#000000" font-family="sans-serif" font-size="14" lengthAdjust="spacing" textLength="119.7041" x="272.16" y="310.6726">List&lt;Post&gt; posts</text><ellipse cx="263.16" cy="323.6228" fill="none" rx="3" ry="3" style="stroke:#038048;stroke-width:1;"/><text fill="#000000" font-family="sans-serif" font-size="14" lengthAdjust="spacing" textLength="226.1465" x="272.16" y="326.9695">List&lt;Comunidad&gt; comunidades</text><ellipse cx="263.16" cy="339.9197" fill="none" rx="3" ry="3" style="stroke:#038048;stroke-width:1;"/><text fill="#000000" font-family="sans-serif" font-size="14" lengthAdjust="spacing" textLength="131.6123" x="272.16" y="343.2664">Date fechaEntrada</text><line style="stroke:#181818;stroke-width:0.5;" x1="253.16" x2="503.3065" y1="350.5681" y2="350.5681"/></g><!--class Post--><g class="entity" data-entity="Post" data-source-line="11" data-uid="ent0003" id="entity_Post"><rect fill="#F1F1F1" height="210.9688" rx="2.5" ry="2.5" style="stroke:#181818;stroke-width:0.5;" width="247.0879" x="343.69" y="418.57"/><ellipse cx="448.0884" cy="434.57" fill="#ADD1B2" rx="11" ry="11" style="stroke:#181818;stroke-width:1;"/><path d="M451.0572,440.2106 Q450.4791,440.5075 449.8384,440.6481 Q449.1978,440.8044 448.4947,440.8044 Q445.9947,440.8044 444.6666,439.1638 Q443.3541,437.5075 443.3541,434.3825 Q443.3541,431.2575 444.6666,429.6013 Q445.9947,427.945 448.4947,427.945 Q449.1978,427.945 449.8384,428.1013 Q450.4947,428.2575 451.0572,428.5544 L451.0572,431.2731 Q450.4322,430.695 449.8384,430.4294 Q449.2447,430.1481 448.6197,430.1481 Q447.2759,430.1481 446.5884,431.2263 Q445.9009,432.2888 445.9009,434.3825 Q445.9009,436.4763 446.5884,437.5544 Q447.2759,438.6169 448.6197,438.6169 Q449.2447,438.6169 449.8384,438.3513 Q450.4322,438.07 451.0572,437.4919 L451.0572,440.2106 Z " fill="#000000"/><text fill="#000000" font-family="sans-serif" font-size="14" lengthAdjust="spacing" textLength="29.791" x="468.5884" y="439.4167">Post</text><line style="stroke:#181818;stroke-width:0.5;" x1="344.69" x2="589.7779" y1="450.57" y2="450.57"/><ellipse cx="354.69" cy="464.2184" fill="none" rx="3" ry="3" style="stroke:#038048;stroke-width:1;"/><text fill="#000000" font-family="sans-serif" font-size="14" lengthAdjust="spacing" textLength="59.0078" x="363.69" y="467.5651">String id</text><ellipse cx="354.69" cy="480.5153" fill="none" rx="3" ry="3" style="stroke:#038048;stroke-width:1;"/><text fill="#000000" font-family="sans-serif" font-size="14" lengthAdjust="spacing" textLength="138.3525" x="363.69" y="483.862">Date fechaCreacion</text><ellipse cx="354.69" cy="496.8122" fill="none" rx="3" ry="3" style="stroke:#038048;stroke-width:1;"/><text fill="#000000" font-family="sans-serif" font-size="14" lengthAdjust="spacing" textLength="137.6689" x="363.69" y="500.1589">Date fechaResuelto</text><ellipse cx="354.69" cy="513.1091" fill="none" rx="3" ry="3" style="stroke:#038048;stroke-width:1;"/><text fill="#000000" font-family="sans-serif" font-size="14" lengthAdjust="spacing" textLength="83.8223" x="363.69" y="516.4557">int duracion</text><ellipse cx="354.69" cy="529.4059" fill="none" rx="3" ry="3" style="stroke:#038048;stroke-width:1;"/><text fill="#000000" font-family="sans-serif" font-size="14" lengthAdjust="spacing" textLength="115.6846" x="363.69" y="532.7526">String contenido</text><ellipse cx="354.69" cy="545.7028" fill="none" rx="3" ry="3" style="stroke:#038048;stroke-width:1;"/><text fill="#000000" font-family="sans-serif" font-size="14" lengthAdjust="spacing" textLength="117.5166" x="363.69" y="549.0495">boolean resuelto</text><ellipse cx="354.69" cy="561.9997" fill="none" rx="3" ry="3" style="stroke:#038048;stroke-width:1;"/><text fill="#000000" font-family="sans-serif" font-size="14" lengthAdjust="spacing" textLength="111.5078" x="363.69" y="565.3464">Usuario creador</text><ellipse cx="354.69" cy="578.2966" fill="none" rx="3" ry="3" style="stroke:#038048;stroke-width:1;"/><text fill="#000000" font-family="sans-serif" font-size="14" lengthAdjust="spacing" textLength="176.7773" x="363.69" y="581.6432">List&lt;Etiqueta&gt; etiquetas</text><ellipse cx="354.69" cy="594.5934" fill="none" rx="3" ry="3" style="stroke:#038048;stroke-width:1;"/><text fill="#000000" font-family="sans-serif" font-size="14" lengthAdjust="spacing" textLength="221.0879" x="363.69" y="597.9401">List&lt;Comentarios&gt; comentario</text><ellipse cx="354.69" cy="610.8903" fill="none" rx="3" ry="3" style="stroke:#038048;stroke-width:1;"/><text fill="#000000" font-family="sans-serif" font-size="14" lengthAdjust="spacing" textLength="119.8818" x="363.69" y="614.237">List&lt;Likes&gt; likes</text><line style="stroke:#181818;stroke-width:0.5;" x1="344.69" x2="589.7779" y1="621.5387" y2="621.5387"/></g><!--class Etiqueta--><g class="entity" data-entity="Etiqueta" data-source-line="23" data-uid="ent0004" id="entity_Etiqueta"><rect fill="#F1F1F1" height="80.5938" rx="2.5" ry="2.5" style="stroke:#181818;stroke-width:0.5;" width="252.1465" x="220.16" y="713.98"/><ellipse cx="312.6502" cy="729.98" fill="#ADD1B2" rx="11" ry="11" style="stroke:#181818;stroke-width:1;"/><path d="M315.619,735.6206 Q315.0409,735.9175 314.4002,736.0581 Q313.7596,736.2144 313.0565,736.2144 Q310.5565,736.2144 309.2284,734.5738 Q307.9159,732.9175 307.9159,729.7925 Q307.9159,726.6675 309.2284,725.0113 Q310.5565,723.355 313.0565,723.355 Q313.7596,723.355 314.4002,723.5113 Q315.0565,723.6675 315.619,723.9644 L315.619,726.6831 Q314.994,726.105 314.4002,725.8394 Q313.8065,725.5581 313.1815,725.5581 Q311.8377,725.5581 311.1502,726.6363 Q310.4627,727.6988 310.4627,729.7925 Q310.4627,731.8863 311.1502,732.9644 Q311.8377,734.0269 313.1815,734.0269 Q313.8065,734.0269 314.4002,733.7613 Q314.994,733.48 315.619,732.9019 L315.619,735.6206 Z " fill="#000000"/><text fill="#000000" font-family="sans-serif" font-size="14" lengthAdjust="spacing" textLength="58.666" x="333.1502" y="734.8267">Etiqueta</text><line style="stroke:#181818;stroke-width:0.5;" x1="221.16" x2="471.3065" y1="745.98" y2="745.98"/><ellipse cx="231.16" cy="759.6284" fill="none" rx="3" ry="3" style="stroke:#038048;stroke-width:1;"/><text fill="#000000" font-family="sans-serif" font-size="14" lengthAdjust="spacing" textLength="119.7041" x="240.16" y="762.9751">List&lt;Post&gt; posts</text><ellipse cx="231.16" cy="775.9253" fill="none" rx="3" ry="3" style="stroke:#038048;stroke-width:1;"/><text fill="#000000" font-family="sans-serif" font-size="14" lengthAdjust="spacing" textLength="226.1465" x="240.16" y="779.272">List&lt;Comunidad&gt; comunidades</text><line style="stroke:#181818;stroke-width:0.5;" x1="221.16" x2="471.3065" y1="786.5738" y2="786.5738"/></g><!--class Comunidad--><g class="entity" data-entity="Comunidad" data-source-line="28" data-uid="ent0005" id="entity_Comunidad"><rect fill="#F1F1F1" height="129.4844" rx="2.5" ry="2.5" style="stroke:#181818;stroke-width:0.5;" width="273.1396" x="330.66" y="7"/><ellipse cx="422.9964" cy="23" fill="#ADD1B2" rx="11" ry="11" style="stroke:#181818;stroke-width:1;"/><path d="M425.9652,28.6406 Q425.3871,28.9375 424.7464,29.0781 Q424.1058,29.2344 423.4027,29.2344 Q420.9027,29.2344 419.5746,27.5938 Q418.2621,25.9375 418.2621,22.8125 Q418.2621,19.6875 419.5746,18.0313 Q420.9027,16.375 423.4027,16.375 Q424.1058,16.375 424.7464,16.5313 Q425.4027,16.6875 425.9652,16.9844 L425.9652,19.7031 Q425.3402,19.125 424.7464,18.8594 Q424.1527,18.5781 423.5277,18.5781 Q422.1839,18.5781 421.4964,19.6563 Q420.8089,20.7188 420.8089,22.8125 Q420.8089,24.9063 421.4964,25.9844 Q422.1839,27.0469 423.5277,27.0469 Q424.1527,27.0469 424.7464,26.7813 Q425.3402,26.5 425.9652,25.9219 L425.9652,28.6406 Z " fill="#000000"/><text fill="#000000" font-family="sans-serif" font-size="14" lengthAdjust="spacing" textLength="79.9668" x="443.4964" y="27.8467">Comunidad</text><line style="stroke:#181818;stroke-width:0.5;" x1="331.66" x2="602.7996" y1="39" y2="39"/><ellipse cx="341.66" cy="52.6484" fill="none" rx="3" ry="3" style="stroke:#038048;stroke-width:1;"/><text fill="#000000" font-family="sans-serif" font-size="14" lengthAdjust="spacing" textLength="100.5635" x="350.66" y="55.9951">String nombre</text><ellipse cx="341.66" cy="68.9453" fill="none" rx="3" ry="3" style="stroke:#038048;stroke-width:1;"/><text fill="#000000" font-family="sans-serif" font-size="14" lengthAdjust="spacing" textLength="56.4443" x="350.66" y="72.292">File foto</text><ellipse cx="341.66" cy="85.2422" fill="none" rx="3" ry="3" style="stroke:#038048;stroke-width:1;"/><text fill="#000000" font-family="sans-serif" font-size="14" lengthAdjust="spacing" textLength="247.1396" x="350.66" y="88.5889">List&lt;Etiqueta&gt; etiquetasAsociadas</text><ellipse cx="341.66" cy="101.5391" fill="none" rx="3" ry="3" style="stroke:#038048;stroke-width:1;"/><text fill="#000000" font-family="sans-serif" font-size="14" lengthAdjust="spacing" textLength="175.8682" x="350.66" y="104.8857">List&lt;Usuario&gt; miembros</text><ellipse cx="341.66" cy="117.8359" fill="none" rx="3" ry="3" style="stroke:#038048;stroke-width:1;"/><text fill="#000000" font-family="sans-serif" font-size="14" lengthAdjust="spacing" textLength="119.7041" x="350.66" y="121.1826">List&lt;Post&gt; posts</text><line style="stroke:#181818;stroke-width:0.5;" x1="331.66" x2="602.7996" y1="128.4844" y2="128.4844"/></g><!--class Filtro--><g class="entity" data-entity="Filtro" data-source-line="36" data-uid="ent0006" id="entity_Filtro"><rect fill="#F1F1F1" height="96.8906" rx="2.5" ry="2.5" style="stroke:#181818;stroke-width:0.5;" width="178.4619" x="7" y="705.83"/><ellipse cx="74.1597" cy="721.83" fill="#ADD1B2" rx="11" ry="11" style="stroke:#181818;stroke-width:1;"/><path d="M77.1284,727.4706 Q76.5503,727.7675 75.9097,727.9081 Q75.269,728.0644 74.5659,728.0644 Q72.0659,728.0644 70.7378,726.4237 Q69.4253,724.7675 69.4253,721.6425 Q69.4253,718.5175 70.7378,716.8612 Q72.0659,715.205 74.5659,715.205 Q75.269,715.205 75.9097,715.3612 Q76.5659,715.5175 77.1284,715.8144 L77.1284,718.5331 Q76.5034,717.955 75.9097,717.6894 Q75.3159,717.4081 74.6909,717.4081 Q73.3472,717.4081 72.6597,718.4862 Q71.9722,719.5487 71.9722,721.6425 Q71.9722,723.7362 72.6597,724.8144 Q73.3472,725.8769 74.6909,725.8769 Q75.3159,725.8769 75.9097,725.6112 Q76.5034,725.33 77.1284,724.7519 L77.1284,727.4706 Z " fill="#000000"/><text fill="#000000" font-family="sans-serif" font-size="14" lengthAdjust="spacing" textLength="35.6426" x="94.6597" y="726.6767">Filtro</text><line style="stroke:#181818;stroke-width:0.5;" x1="8" x2="184.4619" y1="737.83" y2="737.83"/><ellipse cx="18" cy="751.4784" fill="none" rx="3" ry="3" style="stroke:#038048;stroke-width:1;"/><text fill="#000000" font-family="sans-serif" font-size="14" lengthAdjust="spacing" textLength="152.4619" x="27" y="754.8251">List&lt;Etiqueta&gt; Filtrar</text><ellipse cx="18" cy="767.7753" fill="none" rx="3" ry="3" style="stroke:#038048;stroke-width:1;"/><text fill="#000000" font-family="sans-serif" font-size="14" lengthAdjust="spacing" textLength="87.9854" x="27" y="771.122">localizarPost</text><line style="stroke:#181818;stroke-width:0.5;" x1="8" x2="184.4619" y1="778.4237" y2="778.4237"/><ellipse cx="18" cy="792.0722" fill="#84BE84" rx="3" ry="3" style="stroke:#038048;stroke-width:1;"/><text fill="#000000" font-family="sans-serif" font-size="14" lengthAdjust="spacing" textLength="116.5322" x="27" y="795.4189">elegirEtiquetas()</text></g><!--class Comentario--><g class="entity" data-entity="Comentario" data-source-line="42" data-uid="ent0007" id="entity_Comentario"><rect fill="#F1F1F1" height="129.4844" rx="2.5" ry="2.5" style="stroke:#181818;stroke-width:0.5;" width="164.3525" x="507.05" y="689.54"/><ellipse cx="544.8238" cy="705.54" fill="#ADD1B2" rx="11" ry="11" style="stroke:#181818;stroke-width:1;"/><path d="M547.7925,711.1806 Q547.2144,711.4775 546.5738,711.6181 Q545.9332,711.7744 545.23,711.7744 Q542.73,711.7744 541.4019,710.1338 Q540.0894,708.4775 540.0894,705.3525 Q540.0894,702.2275 541.4019,700.5713 Q542.73,698.915 545.23,698.915 Q545.9332,698.915 546.5738,699.0713 Q547.23,699.2275 547.7925,699.5244 L547.7925,702.2431 Q547.1675,701.665 546.5738,701.3994 Q545.98,701.1181 545.355,701.1181 Q544.0113,701.1181 543.3238,702.1963 Q542.6363,703.2588 542.6363,705.3525 Q542.6363,707.4463 543.3238,708.5244 Q544.0113,709.5869 545.355,709.5869 Q545.98,709.5869 546.5738,709.3213 Q547.1675,709.04 547.7925,708.4619 L547.7925,711.1806 Z " fill="#000000"/><text fill="#000000" font-family="sans-serif" font-size="14" lengthAdjust="spacing" textLength="81.7441" x="563.8846" y="710.3867">Comentario</text><line style="stroke:#181818;stroke-width:0.5;" x1="508.05" x2="670.4025" y1="721.54" y2="721.54"/><ellipse cx="518.05" cy="735.1884" fill="none" rx="3" ry="3" style="stroke:#038048;stroke-width:1;"/><text fill="#000000" font-family="sans-serif" font-size="14" lengthAdjust="spacing" textLength="61.1406" x="527.05" y="738.5351">String ID</text><ellipse cx="518.05" cy="751.4853" fill="none" rx="3" ry="3" style="stroke:#038048;stroke-width:1;"/><text fill="#000000" font-family="sans-serif" font-size="14" lengthAdjust="spacing" textLength="64.4766" x="527.05" y="754.832">Post post</text><ellipse cx="518.05" cy="767.7822" fill="none" rx="3" ry="3" style="stroke:#038048;stroke-width:1;"/><text fill="#000000" font-family="sans-serif" font-size="14" lengthAdjust="spacing" textLength="111.5078" x="527.05" y="771.1289">Usuario creador</text><ellipse cx="518.05" cy="784.0791" fill="none" rx="3" ry="3" style="stroke:#038048;stroke-width:1;"/><text fill="#000000" font-family="sans-serif" font-size="14" lengthAdjust="spacing" textLength="115.6846" x="527.05" y="787.4257">String contenido</text><ellipse cx="518.05" cy="800.3759" fill="none" rx="3" ry="3" style="stroke:#038048;stroke-width:1;"/><text fill="#000000" font-family="sans-serif" font-size="14" lengthAdjust="spacing" textLength="138.3525" x="527.05" y="803.7226">Date fechaCreacion</text><line style="stroke:#181818;stroke-width:0.5;" x1="508.05" x2="670.4025" y1="811.0244" y2="811.0244"/></g><!--class Like--><g class="entity" data-entity="Like" data-source-line="50" data-uid="ent0008" id="entity_Like"><rect fill="#F1F1F1" height="113.1875" rx="2.5" ry="2.5" style="stroke:#181818;stroke-width:0.5;" width="135.4844" x="706.49" y="697.68"/><ellipse cx="755.7771" cy="713.68" fill="#ADD1B2" rx="11" ry="11" style="stroke:#181818;stroke-width:1;"/><path d="M758.7459,719.3206 Q758.1677,719.6175 757.5271,719.7581 Q756.8865,719.9144 756.1834,719.9144 Q753.6834,719.9144 752.3552,718.2738 Q751.0427,716.6175 751.0427,713.4925 Q751.0427,710.3675 752.3552,708.7113 Q753.6834,707.055 756.1834,707.055 Q756.8865,707.055 757.5271,707.2113 Q758.1834,707.3675 758.7459,707.6644 L758.7459,710.3831 Q758.1209,709.805 757.5271,709.5394 Q756.9334,709.2581 756.3084,709.2581 Q754.9646,709.2581 754.2771,710.3363 Q753.5896,711.3988 753.5896,713.4925 Q753.5896,715.5863 754.2771,716.6644 Q754.9646,717.7269 756.3084,717.7269 Q756.9334,717.7269 757.5271,717.4613 Q758.1209,717.18 758.7459,716.6019 L758.7459,719.3206 Z " fill="#000000"/><text fill="#000000" font-family="sans-serif" font-size="14" lengthAdjust="spacing" textLength="28.4102" x="776.2771" y="718.5267">Like</text><line style="stroke:#181818;stroke-width:0.5;" x1="707.49" x2="840.9744" y1="729.68" y2="729.68"/><ellipse cx="717.49" cy="743.3284" fill="none" rx="3" ry="3" style="stroke:#038048;stroke-width:1;"/><text fill="#000000" font-family="sans-serif" font-size="14" lengthAdjust="spacing" textLength="61.1406" x="726.49" y="746.6751">String ID</text><ellipse cx="717.49" cy="759.6253" fill="none" rx="3" ry="3" style="stroke:#038048;stroke-width:1;"/><text fill="#000000" font-family="sans-serif" font-size="14" lengthAdjust="spacing" textLength="64.4766" x="726.49" y="762.972">Post post</text><ellipse cx="717.49" cy="775.9222" fill="none" rx="3" ry="3" style="stroke:#038048;stroke-width:1;"/><text fill="#000000" font-family="sans-serif" font-size="14" lengthAdjust="spacing" textLength="109.4844" x="726.49" y="779.2689">Usuario usuario</text><ellipse cx="717.49" cy="792.2191" fill="none" rx="3" ry="3" style="stroke:#038048;stroke-width:1;"/><text fill="#000000" font-family="sans-serif" font-size="14" lengthAdjust="spacing" textLength="106.0664" x="726.49" y="795.5657">Date DateTime</text><line style="stroke:#181818;stroke-width:0.5;" x1="707.49" x2="840.9744" y1="802.8675" y2="802.8675"/></g><!--reverse link Comunidad to Usuario--><g class="link" data-entity-1="Comunidad" data-entity-2="Usuario" data-source-line="57" data-uid="lnk9" id="link_Comunidad_Usuario"><path codeLine="57" d="M434.3903,147.9383 C426.1903,166.7283 421.92,176.5 413.33,196.15" fill="none" id="Comunidad-backto-Usuario" style="stroke:#181818;stroke-width:1;"/><polygon fill="none" points="439.19,136.94,433.124,140.8393,434.3903,147.9383,440.4563,144.0391,439.19,136.94" style="stroke:#181818;stroke-width:1;"/></g><!--reverse link Comunidad to Post--><g class="link" data-entity-1="Comunidad" data-entity-2="Post" data-source-line="58" data-uid="lnk10" id="link_Comunidad_Post"><path codeLine="58" d="M506.7095,147.7997 C515.0895,166.4897 517.96,176.37 522.23,196.49 C537.19,266.95 533.8,287.47 522.23,358.57 C519.04,378.18 513.84,398.62 507.87,418.14" fill="none" id="Comunidad-backto-Post" style="stroke:#181818;stroke-width:1;"/><polygon fill="none" points="501.8,136.85,500.6048,143.9614,506.7095,147.7997,507.9047,140.6884,501.8,136.85" style="stroke:#181818;stroke-width:1;"/></g><!--link Usuario to Post--><g class="link" data-entity-1="Usuario" data-entity-2="Post" data-source-line="59" data-uid="lnk11" id="link_Usuario_Post"><path codeLine="59" d="M409.5521,364.5682 C416.4421,383.4982 419.7773,392.6821 426.9973,412.5121" fill="none" id="Usuario-Post" style="stroke:#181818;stroke-width:1;"/><polygon fill="#181818" points="407.5,358.93,406.8194,368.7553,409.2101,363.6285,414.337,366.0191,407.5,358.93" style="stroke:#181818;stroke-width:1;"/><polygon fill="#181818" points="429.05,418.15,429.7295,408.3246,427.3394,413.4517,422.2123,411.0616,429.05,418.15" style="stroke:#181818;stroke-width:1;"/></g><!--link Post to Etiqueta--><g class="link" data-entity-1="Post" data-entity-2="Etiqueta" data-source-line="60" data-uid="lnk12" id="link_Post_Etiqueta"><path codeLine="60" d="M406.0699,640.4126 C390.2899,670.1826 385.3034,679.5992 372.9434,702.8992" fill="none" id="Post-Etiqueta" style="stroke:#181818;stroke-width:1;"/><polygon fill="none" points="411.69,629.81,405.3458,633.2379,406.0699,640.4126,412.4142,636.9846,411.69,629.81" style="stroke:#181818;stroke-width:1;"/><polygon fill="none" points="367.32,713.5,373.6653,710.0741,372.9434,702.8992,366.5981,706.3251,367.32,713.5" style="stroke:#181818;stroke-width:1;"/></g><!--reverse link Post to Like--><g class="link" data-entity-1="Post" data-entity-2="Like" data-source-line="61" data-uid="lnk13" id="link_Post_Like"><path codeLine="61" d="M600.8415,623.8544 C632.8115,647.5444 657.5,665.88 689.23,689.54 C694.7,693.61 700.37,697.85 706.06,702.1" fill="none" id="Post-backto-Like" style="stroke:#181818;stroke-width:1;"/><polygon fill="#181818" points="591.2,616.71,593.6393,623.496,600.8415,623.8544,598.4022,617.0684,591.2,616.71" style="stroke:#181818;stroke-width:1;"/></g><!--reverse link Post to Comentario--><g class="link" data-entity-1="Post" data-entity-2="Comentario" data-source-line="62" data-uid="lnk14" id="link_Post_Comentario"><path codeLine="62" d="M528.8868,640.393 C539.7268,660.673 545.12,670.75 555,689.24" fill="none" id="Post-backto-Comentario" style="stroke:#181818;stroke-width:1;"/><polygon fill="#181818" points="523.23,629.81,522.5307,636.9871,528.8868,640.393,529.5861,633.2159,523.23,629.81" style="stroke:#181818;stroke-width:1;"/></g><!--link Post to Filtro--><g class="link" data-entity-1="Post" data-entity-2="Filtro" data-source-line="63" data-uid="lnk15" id="link_Post_Filtro"><path codeLine="63" d="M343.44,601.21 C287.49,635.62 228.2008,672.0968 179.1608,702.2568" fill="none" id="Post-to-Filtro" style="stroke:#181818;stroke-width:1;stroke-dasharray:7.0,7.0;"/><polygon fill="#181818" points="174.05,705.4,183.8117,704.0924,178.309,702.7807,179.6208,697.278,174.05,705.4" style="stroke:#181818;stroke-width:1;"/></g><!--link Filtro to Etiqueta--><g class="link" data-entity-1="Filtro" data-entity-2="Etiqueta" data-source-line="64" data-uid="lnk16" id="link_Filtro_Etiqueta"><path codeLine="64" d="M185.59,754.28 C196.99,754.28 202.39,754.28 213.79,754.28" fill="none" id="Filtro-to-Etiqueta" style="stroke:#181818;stroke-width:1;stroke-dasharray:7.0,7.0;"/><polygon fill="#181818" points="219.79,754.28,210.79,750.28,214.79,754.28,210.79,758.28,219.79,754.28" style="stroke:#181818;stroke-width:1;"/></g><!--SRC=[ZLD9RiCm3Bpx5JfsWVE2m42Hf42078ek3r1aDYKYYwqaNshaxzLcHGxYe3vOrd0P3aaBoOrX7wRd6eaD5NFFuvlLg0uCsybLKRVN4A5dbC0-oTB4Gv3MG5jbBDfU82akets7nYvVoDY6VRktAT0LTRt2bhUD2q-Va1pMt3eM45zyewpcBGzmTQf4gDedd2dv7BdIm7qfb_Whc1xaA02LPMsl2yyiILbmHIM_FP44hfYUH8_j4uwh9LsesrZywS7oXa7wkj0EolfG4zIdI-6nmoCuc_H7rZqcJTfdsdkxlwSg9SlsuR_3dXFsP4YW6rAfC7McOHs2IqXcPXzoEOxBQXgkCWKRJ-q52GVKez7StKTOak0IVxdssISgKtEdChVhU0shv4kvCT3h6t5bqpAhdzvG5Lm5J-Reurd5JFxrZXtu97aqZEfw_4Slq21pJBMiwoOYWSVPAIzBX1vSYA_gV3jt9cABHMeqLV5W3XYJ_040]--></g></svg>