<svg xmlns="http://www.w3.org/2000/svg" xmlns:xlink="http://www.w3.org/1999/xlink" contentStyleType="text/css" data-diagram-type="STATE" height="347px" preserveAspectRatio="none" style="width:508px;height:347px;background:#FFFFFF;" version="1.1" viewBox="0 0 508 347" width="508px" zoomAndPan="magnify"><title>Funciones dentro de "Ajustes"</title><defs/><g><text fill="#000000" font-family="sans-serif" font-size="14" font-weight="bold" lengthAdjust="spacing" textLength="239.8867" x="127.3767" y="22.9951">Funciones dentro de "Ajustes"</text><path d="M158,44.2969 L274.1807,44.2969 A12.5,12.5 0 0 1 286.6807,56.7969 L286.6807,70.5938 L145.5,70.5938 L145.5,56.7969 A12.5,12.5 0 0 1 158,44.2969" fill="#F1F1F1" style="stroke:#F1F1F1;stroke-width:1;"/><rect fill="none" height="170.2969" rx="12.5" ry="12.5" style="stroke:#181818;stroke-width:0.5;" width="141.1807" x="145.5" y="44.2969"/><line style="stroke:#181818;stroke-width:0.5;" x1="145.5" x2="286.6807" y1="70.5938" y2="70.5938"/><text fill="#000000" font-family="sans-serif" font-size="14" lengthAdjust="spacing" textLength="51.0303" x="190.5752" y="62.292">Ajustes</text><ellipse cx="216" cy="91.5938" fill="#222222" rx="10" ry="10" style="stroke:#222222;stroke-width:1;"/><g id="Ajustes.Configuraci&#243;n"><rect fill="#F1F1F1" height="50" rx="12.5" ry="12.5" style="stroke:#181818;stroke-width:0.5;" width="117.1523" x="157.5" y="154.5938"/><line style="stroke:#181818;stroke-width:0.5;" x1="157.5" x2="274.6523" y1="180.8906" y2="180.8906"/><text fill="#000000" font-family="sans-serif" font-size="14" lengthAdjust="spacing" textLength="97.1523" x="167.5" y="172.5889">Configuraci&#243;n</text></g><!--link *start*Ajustes to Configuraci?n--><g class="link" data-entity-1="*start*Ajustes" data-entity-2="Configuraci&#243;n" data-source-line="4" data-uid="lnk4" id="link_*start*Ajustes_Configuraci&#243;n"><path d="M216,101.7938 C216,114.2738 216,131.0138 216,148.5238" fill="none" id="*start*Ajustes-to-Configuraci&#243;n" style="stroke:#181818;stroke-width:1;"/><polygon fill="#181818" points="216,154.5238,220,145.5238,216,149.5238,212,145.5238,216,154.5238" style="stroke:#181818;stroke-width:1;"/><text fill="#000000" font-family="sans-serif" font-size="13" lengthAdjust="spacing" textLength="59.6807" x="217" y="132.6606">Modificar</text></g><g id="Dashboard"><rect fill="#F1F1F1" height="50" rx="12.5" ry="12.5" style="stroke:#181818;stroke-width:0.5;" width="96.2002" x="7" y="291.2969"/><line style="stroke:#181818;stroke-width:0.5;" x1="7" x2="103.2002" y1="317.5938" y2="317.5938"/><text fill="#000000" font-family="sans-serif" font-size="14" lengthAdjust="spacing" textLength="76.2002" x="17" y="309.292">Dashboard</text></g><g id="Perfil"><rect fill="#F1F1F1" height="50" rx="12.5" ry="12.5" style="stroke:#181818;stroke-width:0.5;" width="55.5195" x="138" y="291.2969"/><line style="stroke:#181818;stroke-width:0.5;" x1="138" x2="193.5195" y1="317.5938" y2="317.5938"/><text fill="#000000" font-family="sans-serif" font-size="14" lengthAdjust="spacing" textLength="35.5195" x="148" y="309.292">Perfil</text></g><g id="Comunidades"><rect fill="#F1F1F1" height="50" rx="12.5" ry="12.5" style="stroke:#181818;stroke-width:0.5;" width="115.874" x="229" y="291.2969"/><line style="stroke:#181818;stroke-width:0.5;" x1="229" x2="344.874" y1="317.5938" y2="317.5938"/><text fill="#000000" font-family="sans-serif" font-size="14" lengthAdjust="spacing" textLength="95.874" x="239" y="309.292">Comunidades</text></g><g id="Etiqueta"><rect fill="#F1F1F1" height="50" rx="12.5" ry="12.5" style="stroke:#181818;stroke-width:0.5;" width="78.666" x="394.5" y="291.2969"/><line style="stroke:#181818;stroke-width:0.5;" x1="394.5" x2="473.166" y1="317.5938" y2="317.5938"/><text fill="#000000" font-family="sans-serif" font-size="14" lengthAdjust="spacing" textLength="58.666" x="404.5" y="309.292">Etiqueta</text></g><!--link Ajustes to Dashboard--><g class="link" data-entity-1="Ajustes" data-entity-2="Dashboard" data-source-line="7" data-uid="lnk6" id="link_Ajustes_Dashboard"><path d="M145.37,195.5269 C130.08,210.9269 114.47,227.7169 101,244.2969 C89.05,258.9969 80.5756,271.7832 72.0156,285.9332" fill="none" id="Ajustes-to-Dashboard" style="stroke:#181818;stroke-width:1;"/><polygon fill="#181818" points="68.91,291.0669,76.9909,285.4367,71.498,286.7888,70.146,281.2959,68.91,291.0669" style="stroke:#181818;stroke-width:1;"/><text fill="#000000" font-family="sans-serif" font-size="13" lengthAdjust="spacing" textLength="60.8042" x="102" y="257.3638">Ver Posts</text></g><!--link Ajustes to Perfil--><g class="link" data-entity-1="Ajustes" data-entity-2="Perfil" data-source-line="8" data-uid="lnk8" id="link_Ajustes_Perfil"><path d="M181.44,214.5069 C178.2,224.4369 175.29,234.5169 173,244.2969 C169.42,259.6169 168.0378,271.2182 167.1878,285.0582" fill="none" id="Ajustes-to-Perfil" style="stroke:#181818;stroke-width:1;"/><polygon fill="#181818" points="166.82,291.0469,171.3642,282.309,167.1265,286.0563,163.3792,281.8186,166.82,291.0469" style="stroke:#181818;stroke-width:1;"/><text fill="#000000" font-family="sans-serif" font-size="13" lengthAdjust="spacing" textLength="59.3506" x="174" y="257.3638">Ver Perfil</text></g><!--link Ajustes to Comunidades--><g class="link" data-entity-1="Ajustes" data-entity-2="Comunidades" data-source-line="9" data-uid="lnk10" id="link_Ajustes_Comunidades"><path d="M248.28,214.4069 C259.05,242.4669 268.0703,265.9652 275.6303,285.6652" fill="none" id="Ajustes-to-Comunidades" style="stroke:#181818;stroke-width:1;"/><polygon fill="#181818" points="277.78,291.2669,278.2899,281.4312,275.9886,286.5988,270.821,284.2975,277.78,291.2669" style="stroke:#181818;stroke-width:1;"/><text fill="#000000" font-family="sans-serif" font-size="13" lengthAdjust="spacing" textLength="115.394" x="268" y="257.3638">Ver Comunidades</text></g><!--link Ajustes to Etiqueta--><g class="link" data-entity-1="Ajustes" data-entity-2="Etiqueta" data-source-line="10" data-uid="lnk12" id="link_Ajustes_Etiqueta"><path d="M286.62,165.9569 C321.18,185.7669 361.74,212.7869 392,244.2969 C405.09,257.9369 413.1623,271.0225 420.5123,285.6925" fill="none" id="Ajustes-to-Etiqueta" style="stroke:#181818;stroke-width:1;"/><polygon fill="#181818" points="423.2,291.0569,422.7447,281.2185,420.9603,286.5866,415.5923,284.8021,423.2,291.0569" style="stroke:#181818;stroke-width:1;"/><text fill="#000000" font-family="sans-serif" font-size="13" lengthAdjust="spacing" textLength="95.6401" x="405" y="257.3638">Elegir Etiqueta</text></g><!--SRC=[LSiz3i8m30NWFQUmEYBr0Wn8g9GDgHCBOWYDMunAB6ndGfoA8t0nmayHdQpttcSZ6n3MARR44HK2HXFE1uhbAQcX5iwfUKFuPhWwWDri3sMvW8fZHtqItzBZ7c4E6mxKKUl5tPmRFrvovVLuO2yXeoqADAoc4z6WT3ICypjCzehFALBm8USF-ciciZQw93IVMJrWJ_9hdW00]--></g></svg>