<svg xmlns="http://www.w3.org/2000/svg" xmlns:xlink="http://www.w3.org/1999/xlink" contentStyleType="text/css" data-diagram-type="STATE" height="549px" preserveAspectRatio="none" style="width:767px;height:549px;background:#FFFFFF;" version="1.1" viewBox="0 0 767 549" width="767px" zoomAndPan="magnify"><title>Navegaci&#243;n Principal del Usuario</title><defs/><g><text fill="#000000" font-family="sans-serif" font-size="14" font-weight="bold" lengthAdjust="spacing" textLength="260.6064" x="246.2146" y="22.9951">Navegaci&#243;n Principal del Usuario</text><g id="Inicio"><rect fill="#F1F1F1" height="50" rx="12.5" ry="12.5" style="stroke:#181818;stroke-width:0.5;" width="57.0439" x="490.5" y="140.2969"/><line style="stroke:#181818;stroke-width:0.5;" x1="490.5" x2="547.5439" y1="166.5938" y2="166.5938"/><text fill="#000000" font-family="sans-serif" font-size="14" lengthAdjust="spacing" textLength="37.0439" x="500.5" y="158.292">Inicio</text></g><g id="Dashboard"><rect fill="#F1F1F1" height="50" rx="12.5" ry="12.5" style="stroke:#181818;stroke-width:0.5;" width="96.2002" x="311" y="267.2969"/><line style="stroke:#181818;stroke-width:0.5;" x1="311" x2="407.2002" y1="293.5938" y2="293.5938"/><text fill="#000000" font-family="sans-serif" font-size="14" lengthAdjust="spacing" textLength="76.2002" x="321" y="285.292">Dashboard</text></g><g id="Perfil"><rect fill="#F1F1F1" height="50" rx="12.5" ry="12.5" style="stroke:#181818;stroke-width:0.5;" width="55.5195" x="7" y="394.2969"/><line style="stroke:#181818;stroke-width:0.5;" x1="7" x2="62.5195" y1="420.5938" y2="420.5938"/><text fill="#000000" font-family="sans-serif" font-size="14" lengthAdjust="spacing" textLength="35.5195" x="17" y="412.292">Perfil</text></g><g id="Comunidades"><rect fill="#F1F1F1" height="50" rx="12.5" ry="12.5" style="stroke:#181818;stroke-width:0.5;" width="115.874" x="101" y="394.2969"/><line style="stroke:#181818;stroke-width:0.5;" x1="101" x2="216.874" y1="420.5938" y2="420.5938"/><text fill="#000000" font-family="sans-serif" font-size="14" lengthAdjust="spacing" textLength="95.874" x="111" y="412.292">Comunidades</text></g><g id="Ajustes"><rect fill="#F1F1F1" height="50" rx="12.5" ry="12.5" style="stroke:#181818;stroke-width:0.5;" width="71.0303" x="261.5" y="394.2969"/><line style="stroke:#181818;stroke-width:0.5;" x1="261.5" x2="332.5303" y1="420.5938" y2="420.5938"/><text fill="#000000" font-family="sans-serif" font-size="14" lengthAdjust="spacing" textLength="51.0303" x="271.5" y="412.292">Ajustes</text></g><g id="Etiqueta"><rect fill="#F1F1F1" height="50" rx="12.5" ry="12.5" style="stroke:#181818;stroke-width:0.5;" width="78.666" x="379.5" y="394.2969"/><line style="stroke:#181818;stroke-width:0.5;" x1="379.5" x2="458.166" y1="420.5938" y2="420.5938"/><text fill="#000000" font-family="sans-serif" font-size="14" lengthAdjust="spacing" textLength="58.666" x="389.5" y="412.292">Etiqueta</text></g><ellipse cx="519" cy="53.2969" fill="#222222" rx="10" ry="10" style="stroke:#222222;stroke-width:1;"/><ellipse cx="358" cy="532.2969" fill="none" rx="11" ry="11" style="stroke:#222222;stroke-width:1;"/><ellipse cx="358" cy="532.2969" fill="#222222" rx="6" ry="6" style="stroke:#222222;stroke-width:1;"/><!--link *start* to Inicio--><g class="link" data-entity-1="*start*" data-entity-2="Inicio" data-source-line="10" data-uid="lnk3" id="link_*start*_Inicio"><path d="M519,63.2969 C519,79.9269 519,109.9569 519,134.1669" fill="none" id="*start*-to-Inicio" style="stroke:#181818;stroke-width:1;"/><polygon fill="#181818" points="519,140.1669,523,131.1669,519,135.1669,515,131.1669,519,140.1669" style="stroke:#181818;stroke-width:1;"/><text fill="#000000" font-family="sans-serif" font-size="13" lengthAdjust="spacing" textLength="173.5513" x="520" y="106.3638">Registrarse / Iniciar Sesi&#243;n</text></g><!--link Inicio to Dashboard--><g class="link" data-entity-1="Inicio" data-entity-2="Dashboard" data-source-line="11" data-uid="lnk4" id="link_Inicio_Dashboard"><path d="M490.4,188.6469 C462.08,210.7669 423.5984,240.8333 394.5384,263.5333" fill="none" id="Inicio-to-Dashboard" style="stroke:#181818;stroke-width:1;"/><polygon fill="#181818" points="389.81,267.2269,399.365,264.8388,393.7503,264.1489,394.4402,258.5343,389.81,267.2269" style="stroke:#181818;stroke-width:1;"/><text fill="#000000" font-family="sans-serif" font-size="13" lengthAdjust="spacing" textLength="60.8042" x="450" y="233.3638">Ver Posts</text></g><!--link Dashboard to Perfil--><g class="link" data-entity-1="Dashboard" data-entity-2="Perfil" data-source-line="13" data-uid="lnk5" id="link_Dashboard_Perfil"><path d="M310.82,293.8369 C255.17,296.4669 162.59,307.1969 95,347.2969 C75.85,358.6569 63.2622,373.4306 52.6322,389.2106" fill="none" id="Dashboard-to-Perfil" style="stroke:#181818;stroke-width:1;"/><polygon fill="#181818" points="49.28,394.1869,57.6258,388.9573,52.0735,390.04,50.9908,384.4877,49.28,394.1869" style="stroke:#181818;stroke-width:1;"/><text fill="#000000" font-family="sans-serif" font-size="13" lengthAdjust="spacing" textLength="59.3506" x="96" y="360.3638">Ver Perfil</text></g><!--link Dashboard to Comunidades--><g class="link" data-entity-1="Dashboard" data-entity-2="Comunidades" data-source-line="14" data-uid="lnk6" id="link_Dashboard_Comunidades"><path d="M310.6,293.9969 C268.18,297.3269 207.97,309.1069 173,347.2969 C161.55,359.8069 158.4888,372.8705 157.9588,388.0905" fill="none" id="Dashboard-to-Comunidades" style="stroke:#181818;stroke-width:1;"/><polygon fill="#181818" points="157.75,394.0869,162.0608,385.2315,157.924,389.0899,154.0656,384.9531,157.75,394.0869" style="stroke:#181818;stroke-width:1;"/><text fill="#000000" font-family="sans-serif" font-size="13" lengthAdjust="spacing" textLength="115.394" x="174" y="360.3638">Ver Comunidades</text></g><!--link Dashboard to Ajustes--><g class="link" data-entity-1="Dashboard" data-entity-2="Ajustes" data-source-line="15" data-uid="lnk7" id="link_Dashboard_Ajustes"><path d="M326.36,317.2969 C317.26,325.7269 308.39,335.9569 303,347.2969 C296.09,361.8169 294.5409,373.8979 294.8009,388.1879" fill="none" id="Dashboard-to-Ajustes" style="stroke:#181818;stroke-width:1;"/><polygon fill="#181818" points="294.91,394.1869,298.7456,385.1156,294.819,389.1877,290.7469,385.2611,294.91,394.1869" style="stroke:#181818;stroke-width:1;"/><text fill="#000000" font-family="sans-serif" font-size="13" lengthAdjust="spacing" textLength="73.7534" x="304" y="360.3638">Ver Ajustes</text></g><!--link Dashboard to Etiqueta--><g class="link" data-entity-1="Dashboard" data-entity-2="Etiqueta" data-source-line="16" data-uid="lnk8" id="link_Dashboard_Etiqueta"><path d="M370.57,317.3969 C381.19,339.5369 394.2522,366.7484 404.8722,388.8584" fill="none" id="Dashboard-to-Etiqueta" style="stroke:#181818;stroke-width:1;"/><polygon fill="#181818" points="407.47,394.2669,407.1789,384.4223,405.3052,389.7598,399.9676,387.8861,407.47,394.2669" style="stroke:#181818;stroke-width:1;"/><text fill="#000000" font-family="sans-serif" font-size="13" lengthAdjust="spacing" textLength="95.6401" x="394" y="360.3638">Elegir Etiqueta</text></g><!--link Inicio to *end*--><g class="link" data-entity-1="Inicio" data-entity-2="*end*" data-source-line="19" data-uid="lnk10" id="link_Inicio_*end*"><path d="M547.5,190.3969 C603.21,240.4369 715.96,358.0969 655,444.2969 C620.18,493.5369 423.9671,522.5318 374.7471,529.1118" fill="none" id="Inicio-to-*end*" style="stroke:#181818;stroke-width:1;"/><polygon fill="#181818" points="368.8,529.9069,378.2507,532.679,373.7559,529.2443,377.1906,524.7496,368.8,529.9069" style="stroke:#181818;stroke-width:1;"/><text fill="#000000" font-family="sans-serif" font-size="13" lengthAdjust="spacing" textLength="88.0356" x="671" y="360.3638">Cerrar Sesi&#243;n</text></g><!--link Dashboard to *end*--><g class="link" data-entity-1="Dashboard" data-entity-2="*end*" data-source-line="20" data-uid="lnk11" id="link_Dashboard_*end*"><path d="M407.17,298.2769 C438.73,304.3269 477.75,317.7069 498,347.2969 C518.94,377.8969 637.95,304.6169 491,491.2969 C460.87,529.5669 401.4788,532.468 375.2388,531.938" fill="none" id="Dashboard-to-*end*" style="stroke:#181818;stroke-width:1;"/><polygon fill="#181818" points="369.24,531.8169,378.1574,535.9978,374.239,531.9178,378.3189,527.9994,369.24,531.8169" style="stroke:#181818;stroke-width:1;"/><text fill="#000000" font-family="sans-serif" font-size="13" lengthAdjust="spacing" textLength="88.0356" x="558" y="423.8638">Cerrar Sesi&#243;n</text></g><!--link Perfil to *end*--><g class="link" data-entity-1="Perfil" data-entity-2="*end*" data-source-line="21" data-uid="lnk12" id="link_Perfil_*end*"><path d="M42.93,444.3069 C49.49,460.2569 60.45,480.2369 77,491.2969 C122.48,521.6869 294.4033,529.2494 340.8533,530.7794" fill="none" id="Perfil-to-*end*" style="stroke:#181818;stroke-width:1;"/><polygon fill="#181818" points="346.85,530.9769,337.9866,526.6828,341.8527,530.8123,337.7232,534.6784,346.85,530.9769" style="stroke:#181818;stroke-width:1;"/><text fill="#000000" font-family="sans-serif" font-size="13" lengthAdjust="spacing" textLength="88.0356" x="78" y="487.3638">Cerrar Sesi&#243;n</text></g><!--link Comunidades to *end*--><g class="link" data-entity-1="Comunidades" data-entity-2="*end*" data-source-line="22" data-uid="lnk13" id="link_Comunidades_*end*"><path d="M162.62,444.3669 C166.21,459.9269 173.26,479.4269 187,491.2969 C211.46,512.4269 306.7217,525.2803 340.7917,529.3203" fill="none" id="Comunidades-to-*end*" style="stroke:#181818;stroke-width:1;"/><polygon fill="#181818" points="346.75,530.0269,338.2836,524.9949,341.7848,529.4381,337.3416,532.9393,346.75,530.0269" style="stroke:#181818;stroke-width:1;"/><text fill="#000000" font-family="sans-serif" font-size="13" lengthAdjust="spacing" textLength="88.0356" x="188" y="487.3638">Cerrar Sesi&#243;n</text></g><!--link Ajustes to *end*--><g class="link" data-entity-1="Ajustes" data-entity-2="*end*" data-source-line="23" data-uid="lnk14" id="link_Ajustes_*end*"><path d="M287.86,444.4769 C283.97,458.9469 281.94,477.2169 290,491.2969 C302.44,513.0569 326.0857,522.4816 341.8357,527.0316" fill="none" id="Ajustes-to-*end*" style="stroke:#181818;stroke-width:1;"/><polygon fill="#181818" points="347.6,528.6969,340.0637,522.3562,342.7964,527.3092,337.8434,530.0419,347.6,528.6969" style="stroke:#181818;stroke-width:1;"/><text fill="#000000" font-family="sans-serif" font-size="13" lengthAdjust="spacing" textLength="88.0356" x="291" y="487.3638">Cerrar Sesi&#243;n</text></g><!--link Etiqueta to *end*--><g class="link" data-entity-1="Etiqueta" data-entity-2="*end*" data-source-line="24" data-uid="lnk15" id="link_Etiqueta_*end*"><path d="M408.02,444.3269 C401.45,458.2569 392.7,476.0069 384,491.2969 C377.61,502.5269 372.7452,509.9799 367.2752,517.9499" fill="none" id="Etiqueta-to-*end*" style="stroke:#181818;stroke-width:1;"/><polygon fill="#181818" points="363.88,522.8969,372.2708,517.7399,366.7094,518.7744,365.6749,513.2129,363.88,522.8969" style="stroke:#181818;stroke-width:1;"/><text fill="#000000" font-family="sans-serif" font-size="13" lengthAdjust="spacing" textLength="88.0356" x="394" y="487.3638">Cerrar Sesi&#243;n</text></g><!--SRC=[TP2nJiD038RtUmflbP0gzWv8A7HWGL5Hko06avZYwfgqjiEByGYy61V52HT1nj_t-VH_DhP8y8IVTCIAlxyQA8MRYYyOeQO8U-rGk0r13OtWiU4gfI4ye7wyjIYrvvBadQE7eZrt3TTOa_ha_jIfJMbhVEt8C8INcrTOh-_yRzZ0Zewi9YXAS3kCKU2PjEyN7EitfW9fwK02PQkc8VoEUsXeDH93nJcHLNKiBpzdNSAvKMdEZ6e9siRa8fdi2Wec4Kh71VrhrDzY0qKYCkFvx_yYBhdudYikGgFR8Z29BH4_]--></g></svg>