<svg xmlns="http://www.w3.org/2000/svg" xmlns:xlink="http://www.w3.org/1999/xlink" contentStyleType="text/css" data-diagram-type="STATE" height="422px" preserveAspectRatio="none" style="width:531px;height:422px;background:#FFFFFF;" version="1.1" viewBox="0 0 531 422" width="531px" zoomAndPan="magnify"><title>Funciones dentro de "Perfil"</title><defs/><g><text fill="#000000" font-family="sans-serif" font-size="14" font-weight="bold" lengthAdjust="spacing" textLength="223.7813" x="146.9294" y="22.9951">Funciones dentro de "Perfil"</text><path d="M177.5,44.2969 L370.1104,44.2969 A12.5,12.5 0 0 1 382.6104,56.7969 L382.6104,70.5938 L165,70.5938 L165,56.7969 A12.5,12.5 0 0 1 177.5,44.2969" fill="#F1F1F1" style="stroke:#F1F1F1;stroke-width:1;"/><rect fill="none" height="245.2969" rx="12.5" ry="12.5" style="stroke:#181818;stroke-width:0.5;" width="217.6104" x="165" y="44.2969"/><line style="stroke:#181818;stroke-width:0.5;" x1="165" x2="382.6104" y1="70.5938" y2="70.5938"/><text fill="#000000" font-family="sans-serif" font-size="14" lengthAdjust="spacing" textLength="35.5195" x="256.0454" y="62.292">Perfil</text><ellipse cx="212.5" cy="91.5938" fill="#222222" rx="10" ry="10" style="stroke:#222222;stroke-width:1;"/><g id="Perfil.Edici&#243;n"><rect fill="#F1F1F1" height="50" rx="12.5" ry="12.5" style="stroke:#181818;stroke-width:0.5;" width="70.6475" x="177" y="154.5938"/><line style="stroke:#181818;stroke-width:0.5;" x1="177" x2="247.6475" y1="180.8906" y2="180.8906"/><text fill="#000000" font-family="sans-serif" font-size="14" lengthAdjust="spacing" textLength="50.6475" x="187" y="172.5889">Edici&#243;n</text></g><ellipse cx="212.5" cy="268.5938" fill="none" rx="11" ry="11" style="stroke:#222222;stroke-width:1;"/><ellipse cx="212.5" cy="268.5938" fill="#222222" rx="6" ry="6" style="stroke:#222222;stroke-width:1;"/><!--link *start*Perfil to Edici?n--><g class="link" data-entity-1="*start*Perfil" data-entity-2="Edici&#243;n" data-source-line="4" data-uid="lnk4" id="link_*start*Perfil_Edici&#243;n"><path d="M212.5,101.7937 C212.5,114.2738 212.5,131.0138 212.5,148.5238" fill="none" id="*start*Perfil-to-Edici&#243;n" style="stroke:#181818;stroke-width:1;"/><polygon fill="#181818" points="212.5,154.5238,216.5,145.5238,212.5,149.5238,208.5,145.5238,212.5,154.5238" style="stroke:#181818;stroke-width:1;"/><text fill="#000000" font-family="sans-serif" font-size="13" lengthAdjust="spacing" textLength="159.1104" x="213.5" y="132.6606">Modificar Datos de Perfil</text></g><!--link Edici?n to *end*Perfil--><g class="link" data-entity-1="Edici&#243;n" data-entity-2="*end*Perfil" data-source-line="5" data-uid="lnk6" id="link_Edici&#243;n_*end*Perfil"><path d="M212.5,204.8238 C212.5,222.1238 212.5,238.5138 212.5,251.3438" fill="none" id="Edici&#243;n-to-*end*Perfil" style="stroke:#181818;stroke-width:1;"/><polygon fill="#181818" points="212.5,257.3438,216.5,248.3438,212.5,252.3438,208.5,248.3438,212.5,257.3438" style="stroke:#181818;stroke-width:1;"/><text fill="#000000" font-family="sans-serif" font-size="13" lengthAdjust="spacing" textLength="113.6167" x="213.5" y="235.6606">Guardar Cambios</text></g><g id="Dashboard"><rect fill="#F1F1F1" height="50" rx="12.5" ry="12.5" style="stroke:#181818;stroke-width:0.5;" width="96.2002" x="7" y="366.2969"/><line style="stroke:#181818;stroke-width:0.5;" x1="7" x2="103.2002" y1="392.5938" y2="392.5938"/><text fill="#000000" font-family="sans-serif" font-size="14" lengthAdjust="spacing" textLength="76.2002" x="17" y="384.292">Dashboard</text></g><g id="Comunidades"><rect fill="#F1F1F1" height="50" rx="12.5" ry="12.5" style="stroke:#181818;stroke-width:0.5;" width="115.874" x="138" y="366.2969"/><line style="stroke:#181818;stroke-width:0.5;" x1="138" x2="253.874" y1="392.5938" y2="392.5938"/><text fill="#000000" font-family="sans-serif" font-size="14" lengthAdjust="spacing" textLength="95.874" x="148" y="384.292">Comunidades</text></g><g id="Ajustes"><rect fill="#F1F1F1" height="50" rx="12.5" ry="12.5" style="stroke:#181818;stroke-width:0.5;" width="71.0303" x="317.5" y="366.2969"/><line style="stroke:#181818;stroke-width:0.5;" x1="317.5" x2="388.5303" y1="392.5938" y2="392.5938"/><text fill="#000000" font-family="sans-serif" font-size="14" lengthAdjust="spacing" textLength="51.0303" x="327.5" y="384.292">Ajustes</text></g><g id="Etiqueta"><rect fill="#F1F1F1" height="50" rx="12.5" ry="12.5" style="stroke:#181818;stroke-width:0.5;" width="78.666" x="428.5" y="366.2969"/><line style="stroke:#181818;stroke-width:0.5;" x1="428.5" x2="507.166" y1="392.5938" y2="392.5938"/><text fill="#000000" font-family="sans-serif" font-size="14" lengthAdjust="spacing" textLength="58.666" x="438.5" y="384.292">Etiqueta</text></g><!--link Perfil to Dashboard--><g class="link" data-entity-1="Perfil" data-entity-2="Dashboard" data-source-line="8" data-uid="lnk8" id="link_Perfil_Dashboard"><path d="M164.79,274.8369 C149.98,289.6769 135.05,304.7969 121,319.2969 C106.13,334.6469 93.8284,347.8177 81.1184,361.6577" fill="none" id="Perfil-to-Dashboard" style="stroke:#181818;stroke-width:1;"/><polygon fill="#181818" points="77.06,366.0769,86.0937,362.1537,80.442,362.3942,80.2015,356.7425,77.06,366.0769" style="stroke:#181818;stroke-width:1;"/><text fill="#000000" font-family="sans-serif" font-size="13" lengthAdjust="spacing" textLength="60.8042" x="122" y="332.3638">Ver Posts</text></g><!--link Perfil to Comunidades--><g class="link" data-entity-1="Perfil" data-entity-2="Comunidades" data-source-line="9" data-uid="lnk10" id="link_Perfil_Comunidades"><path d="M202.63,289.3669 C198.8,299.2769 195.5,309.3169 193,319.2969 C189.16,334.6169 189.1784,346.4116 190.8884,360.3316" fill="none" id="Perfil-to-Comunidades" style="stroke:#181818;stroke-width:1;"/><polygon fill="#181818" points="191.62,366.2869,194.4928,356.8663,191.0104,361.3242,186.5525,357.8417,191.62,366.2869" style="stroke:#181818;stroke-width:1;"/><text fill="#000000" font-family="sans-serif" font-size="13" lengthAdjust="spacing" textLength="115.394" x="194" y="332.3638">Ver Comunidades</text></g><!--link Perfil to Ajustes--><g class="link" data-entity-1="Perfil" data-entity-2="Ajustes" data-source-line="10" data-uid="lnk12" id="link_Perfil_Ajustes"><path d="M317.2,289.4669 C327.57,318.6869 335.5904,341.2834 342.3904,360.4134" fill="none" id="Perfil-to-Ajustes" style="stroke:#181818;stroke-width:1;"/><polygon fill="#181818" points="344.4,366.0669,345.1546,356.247,342.7253,361.3557,337.6166,358.9264,344.4,366.0669" style="stroke:#181818;stroke-width:1;"/><text fill="#000000" font-family="sans-serif" font-size="13" lengthAdjust="spacing" textLength="73.7534" x="333" y="332.3638">Ver Ajustes</text></g><!--link Perfil to Etiqueta--><g class="link" data-entity-1="Perfil" data-entity-2="Etiqueta" data-source-line="11" data-uid="lnk14" id="link_Perfil_Etiqueta"><path d="M383.1,282.4369 C394.06,294.7169 404.87,307.1569 415,319.2969 C427.61,334.4169 437.3446,347.3045 447.4446,361.2745" fill="none" id="Perfil-to-Etiqueta" style="stroke:#181818;stroke-width:1;"/><polygon fill="#181818" points="450.96,366.1369,448.9285,356.4998,448.0305,362.0849,442.4454,361.187,450.96,366.1369" style="stroke:#181818;stroke-width:1;"/><text fill="#000000" font-family="sans-serif" font-size="13" lengthAdjust="spacing" textLength="95.6401" x="428" y="332.3638">Elegir Etiqueta</text></g><!--SRC=[JSx12i8m30RWUvyYx2Zi1NOGP9kUX9syY8TkpJIoDTYc9_6fV0HVp9QDqLFum_U72Cc4S0ns8BRemQ0Lnt50qQ4RQIgKyg85OOdmLW3NtGtASW-jeO5-NmiLdDdGI8Dsq6ZXT6SjHBwnr4dT2av1EnDnhUUUsAkFKklzP1hj7pr74UK57NJinUUWvZbOCjh4ZnUIRN9uU0Ol6rfJ3bgXLq3HKRGJtibjcpy0]--></g></svg>