<svg xmlns="http://www.w3.org/2000/svg" xmlns:xlink="http://www.w3.org/1999/xlink" contentStyleType="text/css" data-diagram-type="STATE" height="434px" preserveAspectRatio="none" style="width:452px;height:434px;background:#FFFFFF;" version="1.1" viewBox="0 0 452 434" width="452px" zoomAndPan="magnify"><title>Funciones dentro de "Comunidades"</title><defs/><g><text fill="#000000" font-family="sans-serif" font-size="14" font-weight="bold" lengthAdjust="spacing" textLength="287.9639" x="75.3381" y="22.9951">Funciones dentro de "Comunidades"</text><path d="M72,44.2969 L359.9487,44.2969 A12.5,12.5 0 0 1 372.4487,56.7969 L372.4487,70.5938 L59.5,70.5938 L59.5,56.7969 A12.5,12.5 0 0 1 72,44.2969" fill="#F1F1F1" style="stroke:#F1F1F1;stroke-width:1;"/><rect fill="none" height="257.2969" rx="12.5" ry="12.5" style="stroke:#181818;stroke-width:0.5;" width="312.9487" x="59.5" y="44.2969"/><line style="stroke:#181818;stroke-width:0.5;" x1="59.5" x2="372.4487" y1="70.5938" y2="70.5938"/><text fill="#000000" font-family="sans-serif" font-size="14" lengthAdjust="spacing" textLength="95.874" x="168.0373" y="62.292">Comunidades</text><ellipse cx="222.5" cy="91.5938" fill="#222222" rx="10" ry="10" style="stroke:#222222;stroke-width:1;"/><g id="Comunidades.Selecci&#243;n"><rect fill="#F1F1F1" height="50" rx="12.5" ry="12.5" style="stroke:#181818;stroke-width:0.5;" width="86.7256" x="179" y="138.5938"/><line style="stroke:#181818;stroke-width:0.5;" x1="179" x2="265.7256" y1="164.8906" y2="164.8906"/><text fill="#000000" font-family="sans-serif" font-size="14" lengthAdjust="spacing" textLength="66.7256" x="189" y="156.5889">Selecci&#243;n</text></g><g id="Comunidades.Creaci&#243;nComunidad"><rect fill="#F1F1F1" height="50" rx="12.5" ry="12.5" style="stroke:#181818;stroke-width:0.5;" width="161.7158" x="71.5" y="241.5938"/><line style="stroke:#181818;stroke-width:0.5;" x1="71.5" x2="233.2158" y1="267.8906" y2="267.8906"/><text fill="#000000" font-family="sans-serif" font-size="14" lengthAdjust="spacing" textLength="141.7158" x="81.5" y="259.5889">Creaci&#243;nComunidad</text></g><ellipse cx="352.5" cy="266.5938" fill="none" rx="11" ry="11" style="stroke:#222222;stroke-width:1;"/><ellipse cx="352.5" cy="266.5938" fill="#222222" rx="6" ry="6" style="stroke:#222222;stroke-width:1;"/><!--link *start*Comunidades to Selecci?n--><g class="link" data-entity-1="*start*Comunidades" data-entity-2="Selecci&#243;n" data-source-line="4" data-uid="lnk4" id="link_*start*Comunidades_Selecci&#243;n"><path d="M222.5,101.7438 C222.5,111.0137 222.5,119.7337 222.5,132.3738" fill="none" id="*start*Comunidades-to-Selecci&#243;n" style="stroke:#181818;stroke-width:1;"/><polygon fill="#181818" points="222.5,138.3738,226.5,129.3738,222.5,133.3738,218.5,129.3738,222.5,138.3738" style="stroke:#181818;stroke-width:1;"/></g><!--link Selecci?n to Creaci?nComunidad--><g class="link" data-entity-1="Selecci&#243;n" data-entity-2="Creaci&#243;nComunidad" data-source-line="5" data-uid="lnk6" id="link_Selecci&#243;n_Creaci&#243;nComunidad"><path d="M178.7,165.0338 C146.95,167.9538 105.97,177.6137 84.5,206.5938 C74.92,219.5338 79.0984,228.2153 93.4484,238.0353" fill="none" id="Selecci&#243;n-to-Creaci&#243;nComunidad" style="stroke:#181818;stroke-width:1;"/><polygon fill="#181818" points="98.4,241.4237,93.2316,233.04,94.2737,238.6,88.7136,239.6421,98.4,241.4237" style="stroke:#181818;stroke-width:1;"/><text fill="#000000" font-family="sans-serif" font-size="13" lengthAdjust="spacing" textLength="114.1182" x="85.5" y="219.6606">Crear Comunidad</text></g><!--link Creaci?nComunidad to Selecci?n--><g class="link" data-entity-1="Creaci&#243;nComunidad" data-entity-2="Selecci&#243;n" data-source-line="6" data-uid="lnk7" id="link_Creaci&#243;nComunidad_Selecci&#243;n"><path d="M184.72,241.3938 C190.51,236.0038 196.1,229.9738 200.5,223.5938 C207.71,213.1638 211.101,205.7877 214.621,194.5877" fill="none" id="Creaci&#243;nComunidad-to-Selecci&#243;n" style="stroke:#181818;stroke-width:1;"/><polygon fill="#181818" points="216.42,188.8637,209.9056,196.2504,214.9209,193.6337,217.5375,198.649,216.42,188.8637" style="stroke:#181818;stroke-width:1;"/><text fill="#000000" font-family="sans-serif" font-size="13" lengthAdjust="spacing" textLength="113.6167" x="211.5" y="219.6606">Guardar Cambios</text></g><!--link Selecci?n to *end*Comunidades--><g class="link" data-entity-1="Selecci&#243;n" data-entity-2="*end*Comunidades" data-source-line="7" data-uid="lnk9" id="link_Selecci&#243;n_*end*Comunidades"><path d="M266.16,173.0537 C287.61,179.1838 312.45,189.5038 329.5,206.5938 C343.01,220.1338 347.7271,236.6168 350.0371,249.5768" fill="none" id="Selecci&#243;n-to-*end*Comunidades" style="stroke:#181818;stroke-width:1;"/><polygon fill="#181818" points="351.09,255.4838,353.4487,245.9215,350.2126,250.5613,345.5728,247.3253,351.09,255.4838" style="stroke:#181818;stroke-width:1;"/></g><g id="Dashboard"><rect fill="#F1F1F1" height="50" rx="12.5" ry="12.5" style="stroke:#181818;stroke-width:0.5;" width="96.2002" x="7" y="378.2969"/><line style="stroke:#181818;stroke-width:0.5;" x1="7" x2="103.2002" y1="404.5938" y2="404.5938"/><text fill="#000000" font-family="sans-serif" font-size="14" lengthAdjust="spacing" textLength="76.2002" x="17" y="396.292">Dashboard</text></g><g id="Perfil"><rect fill="#F1F1F1" height="50" rx="12.5" ry="12.5" style="stroke:#181818;stroke-width:0.5;" width="55.5195" x="138" y="378.2969"/><line style="stroke:#181818;stroke-width:0.5;" x1="138" x2="193.5195" y1="404.5938" y2="404.5938"/><text fill="#000000" font-family="sans-serif" font-size="14" lengthAdjust="spacing" textLength="35.5195" x="148" y="396.292">Perfil</text></g><g id="Ajustes"><rect fill="#F1F1F1" height="50" rx="12.5" ry="12.5" style="stroke:#181818;stroke-width:0.5;" width="71.0303" x="231.5" y="378.2969"/><line style="stroke:#181818;stroke-width:0.5;" x1="231.5" x2="302.5303" y1="404.5938" y2="404.5938"/><text fill="#000000" font-family="sans-serif" font-size="14" lengthAdjust="spacing" textLength="51.0303" x="241.5" y="396.292">Ajustes</text></g><g id="Etiqueta"><rect fill="#F1F1F1" height="50" rx="12.5" ry="12.5" style="stroke:#181818;stroke-width:0.5;" width="78.666" x="342.5" y="378.2969"/><line style="stroke:#181818;stroke-width:0.5;" x1="342.5" x2="421.166" y1="404.5938" y2="404.5938"/><text fill="#000000" font-family="sans-serif" font-size="14" lengthAdjust="spacing" textLength="58.666" x="352.5" y="396.292">Etiqueta</text></g><!--link Comunidades to Dashboard--><g class="link" data-entity-1="Comunidades" data-entity-2="Dashboard" data-source-line="10" data-uid="lnk11" id="link_Comunidades_Dashboard"><path d="M112.15,301.7169 C105.12,311.5769 98.33,321.5069 92,331.2969 C82.34,346.2369 75.7177,358.5929 68.8877,372.6129" fill="none" id="Comunidades-to-Dashboard" style="stroke:#181818;stroke-width:1;"/><polygon fill="#181818" points="66.26,378.0069,73.7976,371.6677,68.4498,373.5119,66.6056,368.1641,66.26,378.0069" style="stroke:#181818;stroke-width:1;"/><text fill="#000000" font-family="sans-serif" font-size="13" lengthAdjust="spacing" textLength="60.8042" x="93" y="344.3638">Ver Posts</text></g><!--link Comunidades to Perfil--><g class="link" data-entity-1="Comunidades" data-entity-2="Perfil" data-source-line="11" data-uid="lnk13" id="link_Comunidades_Perfil"><path d="M169.24,301.4269 C166.75,311.4369 164.61,321.4769 163,331.2969 C160.47,346.7569 160.6015,358.3858 161.9615,372.1858" fill="none" id="Comunidades-to-Perfil" style="stroke:#181818;stroke-width:1;"/><polygon fill="#181818" points="162.55,378.1569,165.648,368.808,162.0596,373.181,157.6866,369.5926,162.55,378.1569" style="stroke:#181818;stroke-width:1;"/><text fill="#000000" font-family="sans-serif" font-size="13" lengthAdjust="spacing" textLength="59.3506" x="164" y="344.3638">Ver Perfil</text></g><!--link Comunidades to Ajustes--><g class="link" data-entity-1="Comunidades" data-entity-2="Ajustes" data-source-line="12" data-uid="lnk15" id="link_Comunidades_Ajustes"><path d="M244.48,301.4069 C251.05,330.8469 256.0555,353.2304 260.3055,372.3104" fill="none" id="Comunidades-to-Ajustes" style="stroke:#181818;stroke-width:1;"/><polygon fill="#181818" points="261.61,378.1669,263.5576,368.5125,260.5229,373.2865,255.7489,370.2518,261.61,378.1669" style="stroke:#181818;stroke-width:1;"/><text fill="#000000" font-family="sans-serif" font-size="13" lengthAdjust="spacing" textLength="73.7534" x="256" y="344.3638">Ver Ajustes</text></g><!--link Comunidades to Etiqueta--><g class="link" data-entity-1="Comunidades" data-entity-2="Etiqueta" data-source-line="13" data-uid="lnk17" id="link_Comunidades_Etiqueta"><path d="M316.66,301.4769 C324.01,311.4769 331.19,321.4969 338,331.2969 C348.59,346.5469 356.5068,359.1496 364.8568,373.0896" fill="none" id="Comunidades-to-Etiqueta" style="stroke:#181818;stroke-width:1;"/><polygon fill="#181818" points="367.94,378.2369,366.7467,368.4606,365.3707,373.9475,359.8837,372.5715,367.94,378.2369" style="stroke:#181818;stroke-width:1;"/><text fill="#000000" font-family="sans-serif" font-size="13" lengthAdjust="spacing" textLength="95.6401" x="349" y="344.3638">Elegir Etiqueta</text></g><!--SRC=[ROun3i8m34NtdCBgYDGBC22XKbWh8R4WXhGn4DGc8d4cnAau0XV33T0MXSd-F-__c3Ir2EjW6cqDUb1eo5aUa1Ms2qOhgT1dGdYIX33nu2O0zhC3vFa2jjXYq-Zdmx0vYlXME9HH3M6OHzEDTPpwW_qsSseJf5DzJdQrjZxzY-yHTo6cP_RsIlfpRJdB7JjqK5bFFg4gT4VTVf4e4cPv2PvuVqCVbL0bwMj0aeoLBPwq6vmN]--></g></svg>