<svg xmlns="http://www.w3.org/2000/svg" xmlns:xlink="http://www.w3.org/1999/xlink" contentStyleType="text/css" data-diagram-type="STATE" height="227px" preserveAspectRatio="none" style="width:480px;height:227px;background:#FFFFFF;" version="1.1" viewBox="0 0 480 227" width="480px" zoomAndPan="magnify"><title>Funciones dentro de "Etiqueta"</title><defs/><g><text fill="#000000" font-family="sans-serif" font-size="14" font-weight="bold" lengthAdjust="spacing" textLength="248.1104" x="109.3215" y="22.9951">Funciones dentro de "Etiqueta"</text><g id="Etiqueta"><rect fill="#F1F1F1" height="50" rx="12.5" ry="12.5" style="stroke:#181818;stroke-width:0.5;" width="78.666" x="176.5" y="44.2969"/><line style="stroke:#181818;stroke-width:0.5;" x1="176.5" x2="255.166" y1="70.5938" y2="70.5938"/><text fill="#000000" font-family="sans-serif" font-size="14" lengthAdjust="spacing" textLength="58.666" x="186.5" y="62.292">Etiqueta</text></g><g id="Dashboard"><rect fill="#F1F1F1" height="50" rx="12.5" ry="12.5" style="stroke:#181818;stroke-width:0.5;" width="96.2002" x="7" y="171.2969"/><line style="stroke:#181818;stroke-width:0.5;" x1="7" x2="103.2002" y1="197.5938" y2="197.5938"/><text fill="#000000" font-family="sans-serif" font-size="14" lengthAdjust="spacing" textLength="76.2002" x="17" y="189.292">Dashboard</text></g><g id="Perfil"><rect fill="#F1F1F1" height="50" rx="12.5" ry="12.5" style="stroke:#181818;stroke-width:0.5;" width="55.5195" x="138" y="171.2969"/><line style="stroke:#181818;stroke-width:0.5;" x1="138" x2="193.5195" y1="197.5938" y2="197.5938"/><text fill="#000000" font-family="sans-serif" font-size="14" lengthAdjust="spacing" textLength="35.5195" x="148" y="189.292">Perfil</text></g><g id="Comunidades"><rect fill="#F1F1F1" height="50" rx="12.5" ry="12.5" style="stroke:#181818;stroke-width:0.5;" width="115.874" x="229" y="171.2969"/><line style="stroke:#181818;stroke-width:0.5;" x1="229" x2="344.874" y1="197.5938" y2="197.5938"/><text fill="#000000" font-family="sans-serif" font-size="14" lengthAdjust="spacing" textLength="95.874" x="239" y="189.292">Comunidades</text></g><g id="Ajustes"><rect fill="#F1F1F1" height="50" rx="12.5" ry="12.5" style="stroke:#181818;stroke-width:0.5;" width="71.0303" x="398.5" y="171.2969"/><line style="stroke:#181818;stroke-width:0.5;" x1="398.5" x2="469.5303" y1="197.5938" y2="197.5938"/><text fill="#000000" font-family="sans-serif" font-size="14" lengthAdjust="spacing" textLength="51.0303" x="408.5" y="189.292">Ajustes</text></g><!--link Etiqueta to Dashboard--><g class="link" data-entity-1="Etiqueta" data-entity-2="Dashboard" data-source-line="6" data-uid="lnk3" id="link_Etiqueta_Dashboard"><path d="M176.36,82.0669 C152,90.7769 121.29,104.5869 99,124.2969 C84.44,137.1669 75.7547,150.651 68.2247,165.701" fill="none" id="Etiqueta-to-Dashboard" style="stroke:#181818;stroke-width:1;"/><polygon fill="#181818" points="65.54,171.0669,73.1443,164.8079,67.7773,166.5953,65.9898,161.2283,65.54,171.0669" style="stroke:#181818;stroke-width:1;"/><text fill="#000000" font-family="sans-serif" font-size="13" lengthAdjust="spacing" textLength="60.8042" x="100" y="137.3638">Ver Posts</text></g><!--link Etiqueta to Perfil--><g class="link" data-entity-1="Etiqueta" data-entity-2="Perfil" data-source-line="7" data-uid="lnk5" id="link_Etiqueta_Perfil"><path d="M191.9,94.4469 C184.6,103.1669 177.37,113.5269 173,124.2969 C166.99,139.1069 165.3619,151.0177 165.1219,165.1477" fill="none" id="Etiqueta-to-Perfil" style="stroke:#181818;stroke-width:1;"/><polygon fill="#181818" points="165.02,171.1469,169.1723,162.2161,165.1049,166.1476,161.1734,162.0802,165.02,171.1469" style="stroke:#181818;stroke-width:1;"/><text fill="#000000" font-family="sans-serif" font-size="13" lengthAdjust="spacing" textLength="59.3506" x="174" y="137.3638">Ver Perfil</text></g><!--link Etiqueta to Comunidades--><g class="link" data-entity-1="Etiqueta" data-entity-2="Comunidades" data-source-line="8" data-uid="lnk7" id="link_Etiqueta_Comunidades"><path d="M229.69,94.3969 C242.26,116.5369 257.8264,143.9399 270.3864,166.0499" fill="none" id="Etiqueta-to-Comunidades" style="stroke:#181818;stroke-width:1;"/><polygon fill="#181818" points="273.35,171.2669,272.3826,161.4656,270.8803,166.9194,265.4266,165.4171,273.35,171.2669" style="stroke:#181818;stroke-width:1;"/><text fill="#000000" font-family="sans-serif" font-size="13" lengthAdjust="spacing" textLength="115.394" x="257" y="137.3638">Ver Comunidades</text></g><!--link Etiqueta to Ajustes--><g class="link" data-entity-1="Etiqueta" data-entity-2="Ajustes" data-source-line="9" data-uid="lnk9" id="link_Etiqueta_Ajustes"><path d="M255.75,76.2869 C291.25,83.1769 343.3,97.2169 381,124.2969 C397.99,136.4969 408.7893,150.6402 418.0793,166.0302" fill="none" id="Etiqueta-to-Ajustes" style="stroke:#181818;stroke-width:1;"/><polygon fill="#181818" points="421.18,171.1669,419.9534,161.3947,418.5961,166.8863,413.1045,165.529,421.18,171.1669" style="stroke:#181818;stroke-width:1;"/><text fill="#000000" font-family="sans-serif" font-size="13" lengthAdjust="spacing" textLength="73.7534" x="399" y="137.3638">Ver Ajustes</text></g><!--SRC=[LSwn3i90283XdQSWtVi27KoCshcJE_OmOkeH3svg-kusjcUyYVpm3RZunDZdE8f6DWmSFUawiBcul3CxDM1EpbXw1bW0Ic7R7l1CzhWffO0TNZdXeEPMau7JNQPo_qODJlhAKGA5zOjD_MrgUdncyn_RwmC0]--></g></svg>