<svg xmlns="http://www.w3.org/2000/svg" xmlns:xlink="http://www.w3.org/1999/xlink" contentStyleType="text/css" data-diagram-type="CLASS" height="826px" preserveAspectRatio="none" style="width:602px;height:826px;background:#FFFFFF;" version="1.1" viewBox="0 0 602 826" width="602px" zoomAndPan="magnify"><defs/><g><!--class UsuarioInvitado--><g class="entity" data-entity="UsuarioInvitado" data-source-line="1" data-uid="ent0002" id="entity_UsuarioInvitado"><rect fill="#F1F1F1" height="145.7813" rx="2.5" ry="2.5" style="stroke:#181818;stroke-width:0.5;" width="141.9014" x="66.5" y="7"/><ellipse cx="81.5" cy="23" fill="#A9DCDF" rx="11" ry="11" style="stroke:#181818;stroke-width:1;"/><path d="M81.6094,18.3438 L80.4531,23.4219 L82.7813,23.4219 L81.6094,18.3438 Z M80.125,16.1094 L83.1094,16.1094 L86.4688,28.5 L84.0156,28.5 L83.25,25.4375 L79.9688,25.4375 L79.2188,28.5 L76.7813,28.5 L80.125,16.1094 Z " fill="#000000"/><text fill="#000000" font-family="sans-serif" font-size="14" font-style="italic" lengthAdjust="spacing" textLength="109.9014" x="95.5" y="27.8467">UsuarioInvitado</text><line style="stroke:#181818;stroke-width:0.5;" x1="67.5" x2="207.4014" y1="39" y2="39"/><ellipse cx="77.5" cy="52.6484" fill="none" rx="3" ry="3" style="stroke:#038048;stroke-width:1;"/><text fill="#000000" font-family="sans-serif" font-size="14" lengthAdjust="spacing" textLength="12.7764" x="86.5" y="55.9951">id</text><ellipse cx="77.5" cy="68.9453" fill="none" rx="3" ry="3" style="stroke:#038048;stroke-width:1;"/><text fill="#000000" font-family="sans-serif" font-size="14" lengthAdjust="spacing" textLength="54.332" x="86.5" y="72.292">nombre</text><ellipse cx="77.5" cy="85.2422" fill="none" rx="3" ry="3" style="stroke:#038048;stroke-width:1;"/><text fill="#000000" font-family="sans-serif" font-size="14" lengthAdjust="spacing" textLength="27.5488" x="86.5" y="88.5889">foto</text><ellipse cx="77.5" cy="101.5391" fill="none" rx="3" ry="3" style="stroke:#038048;stroke-width:1;"/><text fill="#000000" font-family="sans-serif" font-size="14" lengthAdjust="spacing" textLength="93.7002" x="86.5" y="104.8857">fechaEntrada</text><line style="stroke:#181818;stroke-width:0.5;" x1="67.5" x2="207.4014" y1="112.1875" y2="112.1875"/><ellipse cx="77.5" cy="125.8359" fill="#84BE84" rx="3" ry="3" style="stroke:#038048;stroke-width:1;"/><text fill="#000000" font-family="sans-serif" font-size="14" lengthAdjust="spacing" textLength="63.3691" x="86.5" y="129.1826">verPost()</text><ellipse cx="77.5" cy="142.1328" fill="#84BE84" rx="3" ry="3" style="stroke:#038048;stroke-width:1;"/><text fill="#000000" font-family="sans-serif" font-size="14" lengthAdjust="spacing" textLength="108.9717" x="86.5" y="145.4795">compartirPost()</text></g><!--class UsuarioRegistrado--><g class="entity" data-entity="UsuarioRegistrado" data-source-line="10" data-uid="ent0003" id="entity_UsuarioRegistrado"><rect fill="#F1F1F1" height="145.7813" rx="2.5" ry="2.5" style="stroke:#181818;stroke-width:0.5;" width="160.8916" x="93" y="213"/><ellipse cx="108" cy="229" fill="#ADD1B2" rx="11" ry="11" style="stroke:#181818;stroke-width:1;"/><path d="M110.9688,234.6406 Q110.3906,234.9375 109.75,235.0781 Q109.1094,235.2344 108.4063,235.2344 Q105.9063,235.2344 104.5781,233.5938 Q103.2656,231.9375 103.2656,228.8125 Q103.2656,225.6875 104.5781,224.0313 Q105.9063,222.375 108.4063,222.375 Q109.1094,222.375 109.75,222.5313 Q110.4063,222.6875 110.9688,222.9844 L110.9688,225.7031 Q110.3438,225.125 109.75,224.8594 Q109.1563,224.5781 108.5313,224.5781 Q107.1875,224.5781 106.5,225.6563 Q105.8125,226.7188 105.8125,228.8125 Q105.8125,230.9063 106.5,231.9844 Q107.1875,233.0469 108.5313,233.0469 Q109.1563,233.0469 109.75,232.7813 Q110.3438,232.5 110.9688,231.9219 L110.9688,234.6406 Z " fill="#000000"/><text fill="#000000" font-family="sans-serif" font-size="14" lengthAdjust="spacing" textLength="128.8916" x="122" y="233.8467">UsuarioRegistrado</text><line style="stroke:#181818;stroke-width:0.5;" x1="94" x2="252.8916" y1="245" y2="245"/><ellipse cx="104" cy="258.6484" fill="none" rx="3" ry="3" style="stroke:#038048;stroke-width:1;"/><text fill="#000000" font-family="sans-serif" font-size="14" lengthAdjust="spacing" textLength="130.4844" x="113" y="261.9951">correoInstitucional</text><ellipse cx="104" cy="274.9453" fill="none" rx="3" ry="3" style="stroke:#038048;stroke-width:1;"/><text fill="#000000" font-family="sans-serif" font-size="14" lengthAdjust="spacing" textLength="37.5293" x="113" y="278.292">posts</text><ellipse cx="104" cy="291.2422" fill="none" rx="3" ry="3" style="stroke:#038048;stroke-width:1;"/><text fill="#000000" font-family="sans-serif" font-size="14" lengthAdjust="spacing" textLength="93.7959" x="113" y="294.5889">comunidades</text><line style="stroke:#181818;stroke-width:0.5;" x1="94" x2="252.8916" y1="301.8906" y2="301.8906"/><ellipse cx="104" cy="315.5391" fill="#84BE84" rx="3" ry="3" style="stroke:#038048;stroke-width:1;"/><text fill="#000000" font-family="sans-serif" font-size="14" lengthAdjust="spacing" textLength="97.1729" x="113" y="318.8857">publicarPost()</text><ellipse cx="104" cy="331.8359" fill="#84BE84" rx="3" ry="3" style="stroke:#038048;stroke-width:1;"/><text fill="#000000" font-family="sans-serif" font-size="14" lengthAdjust="spacing" textLength="107.9258" x="113" y="335.1826">comentarPost()</text><ellipse cx="104" cy="348.1328" fill="#84BE84" rx="3" ry="3" style="stroke:#038048;stroke-width:1;"/><text fill="#000000" font-family="sans-serif" font-size="14" lengthAdjust="spacing" textLength="69.125" x="113" y="351.4795">LikePost()</text></g><!--class Moderador--><g class="entity" data-entity="Moderador" data-source-line="19" data-uid="ent0004" id="entity_Moderador"><rect fill="#F1F1F1" height="80.5938" rx="2.5" ry="2.5" style="stroke:#181818;stroke-width:0.5;" width="139.415" x="87" y="484"/><ellipse cx="116.2774" cy="500" fill="#ADD1B2" rx="11" ry="11" style="stroke:#181818;stroke-width:1;"/><path d="M119.2461,505.6406 Q118.668,505.9375 118.0274,506.0781 Q117.3868,506.2344 116.6836,506.2344 Q114.1836,506.2344 112.8555,504.5938 Q111.543,502.9375 111.543,499.8125 Q111.543,496.6875 112.8555,495.0313 Q114.1836,493.375 116.6836,493.375 Q117.3868,493.375 118.0274,493.5313 Q118.6836,493.6875 119.2461,493.9844 L119.2461,496.7031 Q118.6211,496.125 118.0274,495.8594 Q117.4336,495.5781 116.8086,495.5781 Q115.4649,495.5781 114.7774,496.6563 Q114.0899,497.7188 114.0899,499.8125 Q114.0899,501.9063 114.7774,502.9844 Q115.4649,504.0469 116.8086,504.0469 Q117.4336,504.0469 118.0274,503.7813 Q118.6211,503.5 119.2461,502.9219 L119.2461,505.6406 Z " fill="#000000"/><text fill="#000000" font-family="sans-serif" font-size="14" lengthAdjust="spacing" textLength="75.6875" x="133.4501" y="504.8467">Moderador</text><line style="stroke:#181818;stroke-width:0.5;" x1="88" x2="225.415" y1="516" y2="516"/><line style="stroke:#181818;stroke-width:0.5;" x1="88" x2="225.415" y1="524" y2="524"/><ellipse cx="98" cy="537.6484" fill="#84BE84" rx="3" ry="3" style="stroke:#038048;stroke-width:1;"/><text fill="#000000" font-family="sans-serif" font-size="14" lengthAdjust="spacing" textLength="97.8428" x="107" y="540.9951">eliminarPost()</text><ellipse cx="98" cy="553.9453" fill="#84BE84" rx="3" ry="3" style="stroke:#038048;stroke-width:1;"/><text fill="#000000" font-family="sans-serif" font-size="14" lengthAdjust="spacing" textLength="113.415" x="107" y="557.292">banearUsuario()</text></g><!--class Post--><g class="entity" data-entity="Post" data-source-line="24" data-uid="ent0005" id="entity_Post"><rect fill="#F1F1F1" height="210.9688" rx="2.5" ry="2.5" style="stroke:#181818;stroke-width:0.5;" width="126.4404" x="261.5" y="419"/><ellipse cx="305.5922" cy="435" fill="#ADD1B2" rx="11" ry="11" style="stroke:#181818;stroke-width:1;"/><path d="M308.561,440.6406 Q307.9829,440.9375 307.3422,441.0781 Q306.7016,441.2344 305.9985,441.2344 Q303.4985,441.2344 302.1704,439.5938 Q300.8579,437.9375 300.8579,434.8125 Q300.8579,431.6875 302.1704,430.0313 Q303.4985,428.375 305.9985,428.375 Q306.7016,428.375 307.3422,428.5313 Q307.9985,428.6875 308.561,428.9844 L308.561,431.7031 Q307.936,431.125 307.3422,430.8594 Q306.7485,430.5781 306.1235,430.5781 Q304.7797,430.5781 304.0922,431.6563 Q303.4047,432.7188 303.4047,434.8125 Q303.4047,436.9063 304.0922,437.9844 Q304.7797,439.0469 306.1235,439.0469 Q306.7485,439.0469 307.3422,438.7813 Q307.936,438.5 308.561,437.9219 L308.561,440.6406 Z " fill="#000000"/><text fill="#000000" font-family="sans-serif" font-size="14" lengthAdjust="spacing" textLength="29.791" x="326.0572" y="439.8467">Post</text><line style="stroke:#181818;stroke-width:0.5;" x1="262.5" x2="386.9404" y1="451" y2="451"/><ellipse cx="272.5" cy="464.6484" fill="none" rx="3" ry="3" style="stroke:#038048;stroke-width:1;"/><text fill="#000000" font-family="sans-serif" font-size="14" lengthAdjust="spacing" textLength="12.7764" x="281.5" y="467.9951">id</text><ellipse cx="272.5" cy="480.9453" fill="none" rx="3" ry="3" style="stroke:#038048;stroke-width:1;"/><text fill="#000000" font-family="sans-serif" font-size="14" lengthAdjust="spacing" textLength="100.4404" x="281.5" y="484.292">fechaCreacion</text><ellipse cx="272.5" cy="497.2422" fill="none" rx="3" ry="3" style="stroke:#038048;stroke-width:1;"/><text fill="#000000" font-family="sans-serif" font-size="14" lengthAdjust="spacing" textLength="99.7568" x="281.5" y="500.5889">fechaResuelto</text><ellipse cx="272.5" cy="513.5391" fill="none" rx="3" ry="3" style="stroke:#038048;stroke-width:1;"/><text fill="#000000" font-family="sans-serif" font-size="14" lengthAdjust="spacing" textLength="61.1201" x="281.5" y="516.8857">duracion</text><ellipse cx="272.5" cy="529.8359" fill="none" rx="3" ry="3" style="stroke:#038048;stroke-width:1;"/><text fill="#000000" font-family="sans-serif" font-size="14" lengthAdjust="spacing" textLength="69.4531" x="281.5" y="533.1826">contenido</text><ellipse cx="272.5" cy="546.1328" fill="none" rx="3" ry="3" style="stroke:#038048;stroke-width:1;"/><text fill="#000000" font-family="sans-serif" font-size="14" lengthAdjust="spacing" textLength="57.0938" x="281.5" y="549.4795">resuelto</text><ellipse cx="272.5" cy="562.4297" fill="none" rx="3" ry="3" style="stroke:#038048;stroke-width:1;"/><text fill="#000000" font-family="sans-serif" font-size="14" lengthAdjust="spacing" textLength="53.8535" x="281.5" y="565.7764">creador</text><ellipse cx="272.5" cy="578.7266" fill="none" rx="3" ry="3" style="stroke:#038048;stroke-width:1;"/><text fill="#000000" font-family="sans-serif" font-size="14" lengthAdjust="spacing" textLength="65.7275" x="281.5" y="582.0732">etiquetas</text><ellipse cx="272.5" cy="595.0234" fill="none" rx="3" ry="3" style="stroke:#038048;stroke-width:1;"/><text fill="#000000" font-family="sans-serif" font-size="14" lengthAdjust="spacing" textLength="86.96" x="281.5" y="598.3701">comentarios</text><ellipse cx="272.5" cy="611.3203" fill="none" rx="3" ry="3" style="stroke:#038048;stroke-width:1;"/><text fill="#000000" font-family="sans-serif" font-size="14" lengthAdjust="spacing" textLength="31.7939" x="281.5" y="614.667">likes</text><line style="stroke:#181818;stroke-width:0.5;" x1="262.5" x2="386.9404" y1="621.9688" y2="621.9688"/></g><!--class Etiqueta--><g class="entity" data-entity="Etiqueta" data-source-line="36" data-uid="ent0006" id="entity_Etiqueta"><rect fill="#F1F1F1" height="80.5938" rx="2.5" ry="2.5" style="stroke:#181818;stroke-width:0.5;" width="119.7959" x="185.5" y="714"/><ellipse cx="213.6084" cy="730" fill="#ADD1B2" rx="11" ry="11" style="stroke:#181818;stroke-width:1;"/><path d="M216.5772,735.6406 Q215.9991,735.9375 215.3584,736.0781 Q214.7178,736.2344 214.0147,736.2344 Q211.5147,736.2344 210.1866,734.5938 Q208.8741,732.9375 208.8741,729.8125 Q208.8741,726.6875 210.1866,725.0313 Q211.5147,723.375 214.0147,723.375 Q214.7178,723.375 215.3584,723.5313 Q216.0147,723.6875 216.5772,723.9844 L216.5772,726.7031 Q215.9522,726.125 215.3584,725.8594 Q214.7647,725.5781 214.1397,725.5781 Q212.7959,725.5781 212.1084,726.6563 Q211.4209,727.7188 211.4209,729.8125 Q211.4209,731.9063 212.1084,732.9844 Q212.7959,734.0469 214.1397,734.0469 Q214.7647,734.0469 215.3584,733.7813 Q215.9522,733.5 216.5772,732.9219 L216.5772,735.6406 Z " fill="#000000"/><text fill="#000000" font-family="sans-serif" font-size="14" lengthAdjust="spacing" textLength="58.666" x="230.5214" y="734.8467">Etiqueta</text><line style="stroke:#181818;stroke-width:0.5;" x1="186.5" x2="304.2959" y1="746" y2="746"/><ellipse cx="196.5" cy="759.6484" fill="none" rx="3" ry="3" style="stroke:#038048;stroke-width:1;"/><text fill="#000000" font-family="sans-serif" font-size="14" lengthAdjust="spacing" textLength="37.5293" x="205.5" y="762.9951">posts</text><ellipse cx="196.5" cy="775.9453" fill="none" rx="3" ry="3" style="stroke:#038048;stroke-width:1;"/><text fill="#000000" font-family="sans-serif" font-size="14" lengthAdjust="spacing" textLength="93.7959" x="205.5" y="779.292">comunidades</text><line style="stroke:#181818;stroke-width:0.5;" x1="186.5" x2="304.2959" y1="786.5938" y2="786.5938"/></g><!--class Comunidad--><g class="entity" data-entity="Comunidad" data-source-line="41" data-uid="ent0007" id="entity_Comunidad"><rect fill="#F1F1F1" height="129.4844" rx="2.5" ry="2.5" style="stroke:#181818;stroke-width:0.5;" width="162.0898" x="243.5" y="15.5"/><ellipse cx="281.0554" cy="31.5" fill="#ADD1B2" rx="11" ry="11" style="stroke:#181818;stroke-width:1;"/><path d="M284.0241,37.1406 Q283.446,37.4375 282.8054,37.5781 Q282.1647,37.7344 281.4616,37.7344 Q278.9616,37.7344 277.6335,36.0938 Q276.321,34.4375 276.321,31.3125 Q276.321,28.1875 277.6335,26.5313 Q278.9616,24.875 281.4616,24.875 Q282.1647,24.875 282.8054,25.0313 Q283.4616,25.1875 284.0241,25.4844 L284.0241,28.2031 Q283.3991,27.625 282.8054,27.3594 Q282.2116,27.0781 281.5866,27.0781 Q280.2429,27.0781 279.5554,28.1563 Q278.8679,29.2188 278.8679,31.3125 Q278.8679,33.4063 279.5554,34.4844 Q280.2429,35.5469 281.5866,35.5469 Q282.2116,35.5469 282.8054,35.2813 Q283.3991,35 284.0241,34.4219 L284.0241,37.1406 Z " fill="#000000"/><text fill="#000000" font-family="sans-serif" font-size="14" lengthAdjust="spacing" textLength="79.9668" x="300.0677" y="36.3467">Comunidad</text><line style="stroke:#181818;stroke-width:0.5;" x1="244.5" x2="404.5898" y1="47.5" y2="47.5"/><ellipse cx="254.5" cy="61.1484" fill="none" rx="3" ry="3" style="stroke:#038048;stroke-width:1;"/><text fill="#000000" font-family="sans-serif" font-size="14" lengthAdjust="spacing" textLength="54.332" x="263.5" y="64.4951">nombre</text><ellipse cx="254.5" cy="77.4453" fill="none" rx="3" ry="3" style="stroke:#038048;stroke-width:1;"/><text fill="#000000" font-family="sans-serif" font-size="14" lengthAdjust="spacing" textLength="27.5488" x="263.5" y="80.792">foto</text><ellipse cx="254.5" cy="93.7422" fill="none" rx="3" ry="3" style="stroke:#038048;stroke-width:1;"/><text fill="#000000" font-family="sans-serif" font-size="14" lengthAdjust="spacing" textLength="136.0898" x="263.5" y="97.0889">etiquetasAsociadas</text><ellipse cx="254.5" cy="110.0391" fill="none" rx="3" ry="3" style="stroke:#038048;stroke-width:1;"/><text fill="#000000" font-family="sans-serif" font-size="14" lengthAdjust="spacing" textLength="70.2803" x="263.5" y="113.3857">miembros</text><ellipse cx="254.5" cy="126.3359" fill="none" rx="3" ry="3" style="stroke:#038048;stroke-width:1;"/><text fill="#000000" font-family="sans-serif" font-size="14" lengthAdjust="spacing" textLength="37.5293" x="263.5" y="129.6826">posts</text><line style="stroke:#181818;stroke-width:0.5;" x1="244.5" x2="404.5898" y1="136.9844" y2="136.9844"/></g><!--class Filtro--><g class="entity" data-entity="Filtro" data-source-line="49" data-uid="ent0008" id="entity_Filtro"><rect fill="#F1F1F1" height="96.8906" rx="2.5" ry="2.5" style="stroke:#181818;stroke-width:0.5;" width="142.5322" x="7" y="706"/><ellipse cx="56.1948" cy="722" fill="#ADD1B2" rx="11" ry="11" style="stroke:#181818;stroke-width:1;"/><path d="M59.1636,727.6406 Q58.5854,727.9375 57.9448,728.0781 Q57.3042,728.2344 56.6011,728.2344 Q54.1011,728.2344 52.7729,726.5938 Q51.4604,724.9375 51.4604,721.8125 Q51.4604,718.6875 52.7729,717.0313 Q54.1011,715.375 56.6011,715.375 Q57.3042,715.375 57.9448,715.5313 Q58.6011,715.6875 59.1636,715.9844 L59.1636,718.7031 Q58.5386,718.125 57.9448,717.8594 Q57.3511,717.5781 56.7261,717.5781 Q55.3823,717.5781 54.6948,718.6563 Q54.0073,719.7188 54.0073,721.8125 Q54.0073,723.9063 54.6948,724.9844 Q55.3823,726.0469 56.7261,726.0469 Q57.3511,726.0469 57.9448,725.7813 Q58.5386,725.5 59.1636,724.9219 L59.1636,727.6406 Z " fill="#000000"/><text fill="#000000" font-family="sans-serif" font-size="14" lengthAdjust="spacing" textLength="35.6426" x="76.6948" y="726.8467">Filtro</text><line style="stroke:#181818;stroke-width:0.5;" x1="8" x2="148.5322" y1="738" y2="738"/><ellipse cx="18" cy="751.6484" fill="none" rx="3" ry="3" style="stroke:#038048;stroke-width:1;"/><text fill="#000000" font-family="sans-serif" font-size="14" lengthAdjust="spacing" textLength="41.4121" x="27" y="754.9951">Filtrar</text><ellipse cx="18" cy="767.9453" fill="none" rx="3" ry="3" style="stroke:#038048;stroke-width:1;"/><text fill="#000000" font-family="sans-serif" font-size="14" lengthAdjust="spacing" textLength="87.9854" x="27" y="771.292">localizarPost</text><line style="stroke:#181818;stroke-width:0.5;" x1="8" x2="148.5322" y1="778.5938" y2="778.5938"/><ellipse cx="18" cy="792.2422" fill="#84BE84" rx="3" ry="3" style="stroke:#038048;stroke-width:1;"/><text fill="#000000" font-family="sans-serif" font-size="14" lengthAdjust="spacing" textLength="116.5322" x="27" y="795.5889">elegirEtiquetas()</text></g><!--class Comentario--><g class="entity" data-entity="Comentario" data-source-line="55" data-uid="ent0009" id="entity_Comentario"><rect fill="#F1F1F1" height="129.4844" rx="2.5" ry="2.5" style="stroke:#181818;stroke-width:0.5;" width="126.4404" x="340.5" y="690"/><ellipse cx="361.2133" cy="706" fill="#ADD1B2" rx="11" ry="11" style="stroke:#181818;stroke-width:1;"/><path d="M364.1821,711.6406 Q363.604,711.9375 362.9633,712.0781 Q362.3227,712.2344 361.6196,712.2344 Q359.1196,712.2344 357.7915,710.5938 Q356.479,708.9375 356.479,705.8125 Q356.479,702.6875 357.7915,701.0313 Q359.1196,699.375 361.6196,699.375 Q362.3227,699.375 362.9633,699.5313 Q363.6196,699.6875 364.1821,699.9844 L364.1821,702.7031 Q363.5571,702.125 362.9633,701.8594 Q362.3696,701.5781 361.7446,701.5781 Q360.4008,701.5781 359.7133,702.6563 Q359.0258,703.7188 359.0258,705.8125 Q359.0258,707.9063 359.7133,708.9844 Q360.4008,710.0469 361.7446,710.0469 Q362.3696,710.0469 362.9633,709.7813 Q363.5571,709.5 364.1821,708.9219 L364.1821,711.6406 Z " fill="#000000"/><text fill="#000000" font-family="sans-serif" font-size="14" lengthAdjust="spacing" textLength="81.7441" x="376.483" y="710.8467">Comentario</text><line style="stroke:#181818;stroke-width:0.5;" x1="341.5" x2="465.9404" y1="722" y2="722"/><ellipse cx="351.5" cy="735.6484" fill="none" rx="3" ry="3" style="stroke:#038048;stroke-width:1;"/><text fill="#000000" font-family="sans-serif" font-size="14" lengthAdjust="spacing" textLength="14.9092" x="360.5" y="738.9951">ID</text><ellipse cx="351.5" cy="751.9453" fill="none" rx="3" ry="3" style="stroke:#038048;stroke-width:1;"/><text fill="#000000" font-family="sans-serif" font-size="14" lengthAdjust="spacing" textLength="30.2354" x="360.5" y="755.292">post</text><ellipse cx="351.5" cy="768.2422" fill="none" rx="3" ry="3" style="stroke:#038048;stroke-width:1;"/><text fill="#000000" font-family="sans-serif" font-size="14" lengthAdjust="spacing" textLength="53.8535" x="360.5" y="771.5889">creador</text><ellipse cx="351.5" cy="784.5391" fill="none" rx="3" ry="3" style="stroke:#038048;stroke-width:1;"/><text fill="#000000" font-family="sans-serif" font-size="14" lengthAdjust="spacing" textLength="69.4531" x="360.5" y="787.8857">contenido</text><ellipse cx="351.5" cy="800.8359" fill="none" rx="3" ry="3" style="stroke:#038048;stroke-width:1;"/><text fill="#000000" font-family="sans-serif" font-size="14" lengthAdjust="spacing" textLength="100.4404" x="360.5" y="804.1826">fechaCreacion</text><line style="stroke:#181818;stroke-width:0.5;" x1="341.5" x2="465.9404" y1="811.4844" y2="811.4844"/></g><!--class Like--><g class="entity" data-entity="Like" data-source-line="63" data-uid="ent0010" id="entity_Like"><rect fill="#F1F1F1" height="113.1875" rx="2.5" ry="2.5" style="stroke:#181818;stroke-width:0.5;" width="94.1543" x="501.5" y="698"/><ellipse cx="531.6849" cy="714" fill="#ADD1B2" rx="11" ry="11" style="stroke:#181818;stroke-width:1;"/><path d="M534.6536,719.6406 Q534.0755,719.9375 533.4349,720.0781 Q532.7942,720.2344 532.0911,720.2344 Q529.5911,720.2344 528.263,718.5938 Q526.9505,716.9375 526.9505,713.8125 Q526.9505,710.6875 528.263,709.0313 Q529.5911,707.375 532.0911,707.375 Q532.7942,707.375 533.4349,707.5313 Q534.0911,707.6875 534.6536,707.9844 L534.6536,710.7031 Q534.0286,710.125 533.4349,709.8594 Q532.8411,709.5781 532.2161,709.5781 Q530.8724,709.5781 530.1849,710.6563 Q529.4974,711.7188 529.4974,713.8125 Q529.4974,715.9063 530.1849,716.9844 Q530.8724,718.0469 532.2161,718.0469 Q532.8411,718.0469 533.4349,717.7813 Q534.0286,717.5 534.6536,716.9219 L534.6536,719.6406 Z " fill="#000000"/><text fill="#000000" font-family="sans-serif" font-size="14" lengthAdjust="spacing" textLength="28.4102" x="549.0593" y="718.8467">Like</text><line style="stroke:#181818;stroke-width:0.5;" x1="502.5" x2="594.6543" y1="730" y2="730"/><ellipse cx="512.5" cy="743.6484" fill="none" rx="3" ry="3" style="stroke:#038048;stroke-width:1;"/><text fill="#000000" font-family="sans-serif" font-size="14" lengthAdjust="spacing" textLength="14.9092" x="521.5" y="746.9951">ID</text><ellipse cx="512.5" cy="759.9453" fill="none" rx="3" ry="3" style="stroke:#038048;stroke-width:1;"/><text fill="#000000" font-family="sans-serif" font-size="14" lengthAdjust="spacing" textLength="30.2354" x="521.5" y="763.292">post</text><ellipse cx="512.5" cy="776.2422" fill="none" rx="3" ry="3" style="stroke:#038048;stroke-width:1;"/><text fill="#000000" font-family="sans-serif" font-size="14" lengthAdjust="spacing" textLength="51.8301" x="521.5" y="779.5889">usuario</text><ellipse cx="512.5" cy="792.5391" fill="none" rx="3" ry="3" style="stroke:#038048;stroke-width:1;"/><text fill="#000000" font-family="sans-serif" font-size="14" lengthAdjust="spacing" textLength="68.1543" x="521.5" y="795.8857">DateTime</text><line style="stroke:#181818;stroke-width:0.5;" x1="502.5" x2="594.6543" y1="803.1875" y2="803.1875"/></g><!--reverse link Comunidad to UsuarioRegistrado--><g class="link" data-entity-1="Comunidad" data-entity-2="UsuarioRegistrado" data-source-line="70" data-uid="lnk11" id="link_Comunidad_UsuarioRegistrado"><path codeLine="70" d="M270.2037,154.3574 C254.2037,175.9874 243.34,190.65 226.88,212.89" fill="none" id="Comunidad-backto-UsuarioRegistrado" style="stroke:#181818;stroke-width:1;"/><polygon fill="none" points="277.34,144.71,270.556,147.1549,270.2037,154.3574,276.9876,151.9125,277.34,144.71" style="stroke:#181818;stroke-width:1;"/></g><!--reverse link Comunidad to Post--><g class="link" data-entity-1="Comunidad" data-entity-2="Post" data-source-line="71" data-uid="lnk12" id="link_Comunidad_Post"><path codeLine="71" d="M324.5,156.87 C324.5,228.43 324.5,333.54 324.5,418.59" fill="none" id="Comunidad-backto-Post" style="stroke:#181818;stroke-width:1;"/><polygon fill="none" points="324.5,144.87,320.5,150.87,324.5,156.87,328.5,150.87,324.5,144.87" style="stroke:#181818;stroke-width:1;"/></g><!--link UsuarioRegistrado to Post--><g class="link" data-entity-1="UsuarioRegistrado" data-entity-2="Post" data-source-line="72" data-uid="lnk13" id="link_UsuarioRegistrado_Post"><path codeLine="72" d="M222.8581,364.2976 C236.0381,384.9476 244.1808,397.7031 258.1908,419.6431" fill="none" id="UsuarioRegistrado-Post" style="stroke:#181818;stroke-width:1;"/><polygon fill="#181818" points="219.63,359.24,221.1003,368.9785,222.3201,363.4547,227.8438,364.6744,219.63,359.24" style="stroke:#181818;stroke-width:1;"/><polygon fill="#181818" points="261.42,424.7,259.9476,414.9618,258.729,420.4859,253.205,419.2674,261.42,424.7" style="stroke:#181818;stroke-width:1;"/></g><!--reverse link UsuarioInvitado to UsuarioRegistrado--><g class="link" data-entity-1="UsuarioInvitado" data-entity-2="UsuarioRegistrado" data-source-line="73" data-uid="lnk14" id="link_UsuarioInvitado_UsuarioRegistrado"><path codeLine="73" d="M153.3697,170.9358 C156.7897,190.3058 157.36,193.52 160.77,212.89" fill="none" id="UsuarioInvitado-backto-UsuarioRegistrado" style="stroke:#181818;stroke-width:1;"/><polygon fill="none" points="150.24,153.21,147.4611,171.9791,159.2783,169.8926,150.24,153.21" style="stroke:#181818;stroke-width:1;"/></g><!--reverse link UsuarioRegistrado to Moderador--><g class="link" data-entity-1="UsuarioRegistrado" data-entity-2="Moderador" data-source-line="74" data-uid="lnk15" id="link_UsuarioRegistrado_Moderador"><path codeLine="74" d="M167.0192,377.1937 C164.0692,418.2237 161.78,450.04 159.34,483.97" fill="none" id="UsuarioRegistrado-backto-Moderador" style="stroke:#181818;stroke-width:1;"/><polygon fill="none" points="168.31,359.24,161.0346,376.7634,173.0037,377.6239,168.31,359.24" style="stroke:#181818;stroke-width:1;"/></g><!--link Post to Etiqueta--><g class="link" data-entity-1="Post" data-entity-2="Etiqueta" data-source-line="75" data-uid="lnk16" id="link_Post_Etiqueta"><path codeLine="75" d="M288.24,630.16 C277.93,659.89 271.2703,679.1419 263.2003,702.4219" fill="none" id="Post-to-Etiqueta" style="stroke:#181818;stroke-width:1;"/><polygon fill="none" points="259.27,713.76,265.0145,709.4011,263.2003,702.4219,257.4558,706.7808,259.27,713.76" style="stroke:#181818;stroke-width:1;"/></g><!--reverse link Post to Like--><g class="link" data-entity-1="Post" data-entity-2="Like" data-source-line="76" data-uid="lnk17" id="link_Post_Like"><path codeLine="76" d="M396.2004,598.4795 C432.3004,635.2195 468.36,671.93 501.37,705.53" fill="none" id="Post-backto-Like" style="stroke:#181818;stroke-width:1;"/><polygon fill="#181818" points="387.79,589.92,389.142,597.0032,396.2004,598.4795,394.8484,591.3963,387.79,589.92" style="stroke:#181818;stroke-width:1;"/></g><!--reverse link Post to Comentario--><g class="link" data-entity-1="Post" data-entity-2="Comentario" data-source-line="77" data-uid="lnk18" id="link_Post_Comentario"><path codeLine="77" d="M364.6897,641.4983 C371.7497,661.8683 375.02,671.3 381.44,689.84" fill="none" id="Post-backto-Comentario" style="stroke:#181818;stroke-width:1;"/><polygon fill="#181818" points="360.76,630.16,358.9454,637.1391,364.6897,641.4983,366.5043,634.5192,360.76,630.16" style="stroke:#181818;stroke-width:1;"/></g><!--link Post to Filtro--><g class="link" data-entity-1="Post" data-entity-2="Filtro" data-source-line="78" data-uid="lnk19" id="link_Post_Filtro"><path codeLine="78" d="M261.38,611.01 C255.55,617.63 249.56,624.05 243.5,630 C234.57,638.78 190.8965,671.3392 148.7665,702.2692" fill="none" id="Post-to-Filtro" style="stroke:#181818;stroke-width:1;stroke-dasharray:7.0,7.0;"/><polygon fill="#181818" points="143.93,705.82,153.552,703.7182,147.9604,702.861,148.8176,697.2695,143.93,705.82" style="stroke:#181818;stroke-width:1;"/></g><!--link Filtro to Etiqueta--><g class="link" data-entity-1="Filtro" data-entity-2="Etiqueta" data-source-line="79" data-uid="lnk20" id="link_Filtro_Etiqueta"><path codeLine="79" d="M150.26,754.5 C161.92,754.5 167.57,754.5 179.23,754.5" fill="none" id="Filtro-to-Etiqueta" style="stroke:#181818;stroke-width:1;stroke-dasharray:7.0,7.0;"/><polygon fill="#181818" points="185.23,754.5,176.23,750.5,180.23,754.5,176.23,758.5,185.23,754.5" style="stroke:#181818;stroke-width:1;"/></g><!--SRC=[VLFRJiCm37tlL_IHYxelc2QXRKYJG48JV82R6h18uv6aUs3mxwJDfKqtw4kI4-Vu-DY5sbWDmfP2WZ7bY-b04-_KaImqN9wAqdstrFXLSLjhzFjNjXnsADvXgnnF0nuvedvYOw-k_L5mUm1jAO8_HP6bs-CRzJB6X8ArHYV3MBAT85OW_SN1CPZ4sYbgeC407BfQae1vQbGsnnxe0-TA7hd1Ne2E2b1IIof_M8D2q47qz7KVDFTgS6Mj4Nhv4sYFfaCPlMiwFGaGh2owciAbpaA5ut82WpnBdnrQC7cPn06GhaRZ17fzsn0TD4vjp7rC5QqZUFglyqd5dM51hlqXUqlemgCMdonHtvEqcWFlS81Ob7I3eADO4ssNB43Ib-z59Z7K7BXscp7V1SjcvkRzIQpzSFp9r_dM-yC6B3vJY_tRP5V9LNK-rhFxeOxpsLzMrIgxIx_XyliYwmMAFZ3DSZ7CPLLn6W2FtBYWlixnD7hfiSLY5VfK-ALqG2Jv1G00]--></g></svg>