<svg xmlns="http://www.w3.org/2000/svg" xmlns:xlink="http://www.w3.org/1999/xlink" contentStyleType="text/css" data-diagram-type="CLASS" height="386px" preserveAspectRatio="none" style="width:461px;height:386px;background:#FFFFFF;" version="1.1" viewBox="0 0 461 386" width="461px" zoomAndPan="magnify"><defs/><g><!--class UsuarioInvitado--><g class="entity" data-entity="UsuarioInvitado" data-source-line="1" data-uid="ent0002" id="entity_UsuarioInvitado"><rect fill="#F1F1F1" height="48" rx="2.5" ry="2.5" style="stroke:#181818;stroke-width:0.5;" width="141.9014" x="7" y="7"/><ellipse cx="22" cy="23" fill="#A9DCDF" rx="11" ry="11" style="stroke:#181818;stroke-width:1;"/><path d="M22.1094,18.3438 L20.9531,23.4219 L23.2813,23.4219 L22.1094,18.3438 Z M20.625,16.1094 L23.6094,16.1094 L26.9688,28.5 L24.5156,28.5 L23.75,25.4375 L20.4688,25.4375 L19.7188,28.5 L17.2813,28.5 L20.625,16.1094 Z " fill="#000000"/><text fill="#000000" font-family="sans-serif" font-size="14" font-style="italic" lengthAdjust="spacing" textLength="109.9014" x="36" y="27.8467">UsuarioInvitado</text><line style="stroke:#181818;stroke-width:0.5;" x1="8" x2="147.9014" y1="39" y2="39"/><line style="stroke:#181818;stroke-width:0.5;" x1="8" x2="147.9014" y1="47" y2="47"/></g><!--class UsuarioRegistrado--><g class="entity" data-entity="UsuarioRegistrado" data-source-line="3" data-uid="ent0003" id="entity_UsuarioRegistrado"><rect fill="#F1F1F1" height="48" rx="2.5" ry="2.5" style="stroke:#181818;stroke-width:0.5;" width="160.8916" x="25.5" y="115"/><ellipse cx="40.5" cy="131" fill="#ADD1B2" rx="11" ry="11" style="stroke:#181818;stroke-width:1;"/><path d="M43.4688,136.6406 Q42.8906,136.9375 42.25,137.0781 Q41.6094,137.2344 40.9063,137.2344 Q38.4063,137.2344 37.0781,135.5938 Q35.7656,133.9375 35.7656,130.8125 Q35.7656,127.6875 37.0781,126.0313 Q38.4063,124.375 40.9063,124.375 Q41.6094,124.375 42.25,124.5313 Q42.9063,124.6875 43.4688,124.9844 L43.4688,127.7031 Q42.8438,127.125 42.25,126.8594 Q41.6563,126.5781 41.0313,126.5781 Q39.6875,126.5781 39,127.6563 Q38.3125,128.7188 38.3125,130.8125 Q38.3125,132.9063 39,133.9844 Q39.6875,135.0469 41.0313,135.0469 Q41.6563,135.0469 42.25,134.7813 Q42.8438,134.5 43.4688,133.9219 L43.4688,136.6406 Z " fill="#000000"/><text fill="#000000" font-family="sans-serif" font-size="14" lengthAdjust="spacing" textLength="128.8916" x="54.5" y="135.8467">UsuarioRegistrado</text><line style="stroke:#181818;stroke-width:0.5;" x1="26.5" x2="185.3916" y1="147" y2="147"/><line style="stroke:#181818;stroke-width:0.5;" x1="26.5" x2="185.3916" y1="155" y2="155"/></g><!--class Moderador--><g class="entity" data-entity="Moderador" data-source-line="5" data-uid="ent0004" id="entity_Moderador"><rect fill="#F1F1F1" height="48" rx="2.5" ry="2.5" style="stroke:#181818;stroke-width:0.5;" width="107.6875" x="52" y="223"/><ellipse cx="67" cy="239" fill="#ADD1B2" rx="11" ry="11" style="stroke:#181818;stroke-width:1;"/><path d="M69.9688,244.6406 Q69.3906,244.9375 68.75,245.0781 Q68.1094,245.2344 67.4063,245.2344 Q64.9063,245.2344 63.5781,243.5938 Q62.2656,241.9375 62.2656,238.8125 Q62.2656,235.6875 63.5781,234.0313 Q64.9063,232.375 67.4063,232.375 Q68.1094,232.375 68.75,232.5313 Q69.4063,232.6875 69.9688,232.9844 L69.9688,235.7031 Q69.3438,235.125 68.75,234.8594 Q68.1563,234.5781 67.5313,234.5781 Q66.1875,234.5781 65.5,235.6563 Q64.8125,236.7188 64.8125,238.8125 Q64.8125,240.9063 65.5,241.9844 Q66.1875,243.0469 67.5313,243.0469 Q68.1563,243.0469 68.75,242.7813 Q69.3438,242.5 69.9688,241.9219 L69.9688,244.6406 Z " fill="#000000"/><text fill="#000000" font-family="sans-serif" font-size="14" lengthAdjust="spacing" textLength="75.6875" x="81" y="243.8467">Moderador</text><line style="stroke:#181818;stroke-width:0.5;" x1="53" x2="158.6875" y1="255" y2="255"/><line style="stroke:#181818;stroke-width:0.5;" x1="53" x2="158.6875" y1="263" y2="263"/></g><!--class Post--><g class="entity" data-entity="Post" data-source-line="7" data-uid="ent0005" id="entity_Post"><rect fill="#F1F1F1" height="48" rx="2.5" ry="2.5" style="stroke:#181818;stroke-width:0.5;" width="61.791" x="202" y="223"/><ellipse cx="217" cy="239" fill="#ADD1B2" rx="11" ry="11" style="stroke:#181818;stroke-width:1;"/><path d="M219.9688,244.6406 Q219.3906,244.9375 218.75,245.0781 Q218.1094,245.2344 217.4063,245.2344 Q214.9063,245.2344 213.5781,243.5938 Q212.2656,241.9375 212.2656,238.8125 Q212.2656,235.6875 213.5781,234.0313 Q214.9063,232.375 217.4063,232.375 Q218.1094,232.375 218.75,232.5313 Q219.4063,232.6875 219.9688,232.9844 L219.9688,235.7031 Q219.3438,235.125 218.75,234.8594 Q218.1563,234.5781 217.5313,234.5781 Q216.1875,234.5781 215.5,235.6563 Q214.8125,236.7188 214.8125,238.8125 Q214.8125,240.9063 215.5,241.9844 Q216.1875,243.0469 217.5313,243.0469 Q218.1563,243.0469 218.75,242.7813 Q219.3438,242.5 219.9688,241.9219 L219.9688,244.6406 Z " fill="#000000"/><text fill="#000000" font-family="sans-serif" font-size="14" lengthAdjust="spacing" textLength="29.791" x="231" y="243.8467">Post</text><line style="stroke:#181818;stroke-width:0.5;" x1="203" x2="262.791" y1="255" y2="255"/><line style="stroke:#181818;stroke-width:0.5;" x1="203" x2="262.791" y1="263" y2="263"/></g><!--class Etiqueta--><g class="entity" data-entity="Etiqueta" data-source-line="9" data-uid="ent0006" id="entity_Etiqueta"><rect fill="#F1F1F1" height="48" rx="2.5" ry="2.5" style="stroke:#181818;stroke-width:0.5;" width="90.666" x="118.5" y="331"/><ellipse cx="133.5" cy="347" fill="#ADD1B2" rx="11" ry="11" style="stroke:#181818;stroke-width:1;"/><path d="M136.4688,352.6406 Q135.8906,352.9375 135.25,353.0781 Q134.6094,353.2344 133.9063,353.2344 Q131.4063,353.2344 130.0781,351.5938 Q128.7656,349.9375 128.7656,346.8125 Q128.7656,343.6875 130.0781,342.0313 Q131.4063,340.375 133.9063,340.375 Q134.6094,340.375 135.25,340.5313 Q135.9063,340.6875 136.4688,340.9844 L136.4688,343.7031 Q135.8438,343.125 135.25,342.8594 Q134.6563,342.5781 134.0313,342.5781 Q132.6875,342.5781 132,343.6563 Q131.3125,344.7188 131.3125,346.8125 Q131.3125,348.9063 132,349.9844 Q132.6875,351.0469 134.0313,351.0469 Q134.6563,351.0469 135.25,350.7813 Q135.8438,350.5 136.4688,349.9219 L136.4688,352.6406 Z " fill="#000000"/><text fill="#000000" font-family="sans-serif" font-size="14" lengthAdjust="spacing" textLength="58.666" x="147.5" y="351.8467">Etiqueta</text><line style="stroke:#181818;stroke-width:0.5;" x1="119.5" x2="208.166" y1="363" y2="363"/><line style="stroke:#181818;stroke-width:0.5;" x1="119.5" x2="208.166" y1="371" y2="371"/></g><!--class Comunidad--><g class="entity" data-entity="Comunidad" data-source-line="11" data-uid="ent0007" id="entity_Comunidad"><rect fill="#F1F1F1" height="48" rx="2.5" ry="2.5" style="stroke:#181818;stroke-width:0.5;" width="111.9668" x="184" y="7"/><ellipse cx="199" cy="23" fill="#ADD1B2" rx="11" ry="11" style="stroke:#181818;stroke-width:1;"/><path d="M201.9688,28.6406 Q201.3906,28.9375 200.75,29.0781 Q200.1094,29.2344 199.4063,29.2344 Q196.9063,29.2344 195.5781,27.5938 Q194.2656,25.9375 194.2656,22.8125 Q194.2656,19.6875 195.5781,18.0313 Q196.9063,16.375 199.4063,16.375 Q200.1094,16.375 200.75,16.5313 Q201.4063,16.6875 201.9688,16.9844 L201.9688,19.7031 Q201.3438,19.125 200.75,18.8594 Q200.1563,18.5781 199.5313,18.5781 Q198.1875,18.5781 197.5,19.6563 Q196.8125,20.7188 196.8125,22.8125 Q196.8125,24.9063 197.5,25.9844 Q198.1875,27.0469 199.5313,27.0469 Q200.1563,27.0469 200.75,26.7813 Q201.3438,26.5 201.9688,25.9219 L201.9688,28.6406 Z " fill="#000000"/><text fill="#000000" font-family="sans-serif" font-size="14" lengthAdjust="spacing" textLength="79.9668" x="213" y="27.8467">Comunidad</text><line style="stroke:#181818;stroke-width:0.5;" x1="185" x2="294.9668" y1="39" y2="39"/><line style="stroke:#181818;stroke-width:0.5;" x1="185" x2="294.9668" y1="47" y2="47"/></g><!--class Filtro--><g class="entity" data-entity="Filtro" data-source-line="13" data-uid="ent0008" id="entity_Filtro"><rect fill="#F1F1F1" height="48" rx="2.5" ry="2.5" style="stroke:#181818;stroke-width:0.5;" width="67.6426" x="15" y="331"/><ellipse cx="30" cy="347" fill="#ADD1B2" rx="11" ry="11" style="stroke:#181818;stroke-width:1;"/><path d="M32.9688,352.6406 Q32.3906,352.9375 31.75,353.0781 Q31.1094,353.2344 30.4063,353.2344 Q27.9063,353.2344 26.5781,351.5938 Q25.2656,349.9375 25.2656,346.8125 Q25.2656,343.6875 26.5781,342.0313 Q27.9063,340.375 30.4063,340.375 Q31.1094,340.375 31.75,340.5313 Q32.4063,340.6875 32.9688,340.9844 L32.9688,343.7031 Q32.3438,343.125 31.75,342.8594 Q31.1563,342.5781 30.5313,342.5781 Q29.1875,342.5781 28.5,343.6563 Q27.8125,344.7188 27.8125,346.8125 Q27.8125,348.9063 28.5,349.9844 Q29.1875,351.0469 30.5313,351.0469 Q31.1563,351.0469 31.75,350.7813 Q32.3438,350.5 32.9688,349.9219 L32.9688,352.6406 Z " fill="#000000"/><text fill="#000000" font-family="sans-serif" font-size="14" lengthAdjust="spacing" textLength="35.6426" x="44" y="351.8467">Filtro</text><line style="stroke:#181818;stroke-width:0.5;" x1="16" x2="81.6426" y1="363" y2="363"/><line style="stroke:#181818;stroke-width:0.5;" x1="16" x2="81.6426" y1="371" y2="371"/></g><!--class Comentario--><g class="entity" data-entity="Comentario" data-source-line="15" data-uid="ent0009" id="entity_Comentario"><rect fill="#F1F1F1" height="48" rx="2.5" ry="2.5" style="stroke:#181818;stroke-width:0.5;" width="113.7441" x="245" y="331"/><ellipse cx="260" cy="347" fill="#ADD1B2" rx="11" ry="11" style="stroke:#181818;stroke-width:1;"/><path d="M262.9688,352.6406 Q262.3906,352.9375 261.75,353.0781 Q261.1094,353.2344 260.4063,353.2344 Q257.9063,353.2344 256.5781,351.5938 Q255.2656,349.9375 255.2656,346.8125 Q255.2656,343.6875 256.5781,342.0313 Q257.9063,340.375 260.4063,340.375 Q261.1094,340.375 261.75,340.5313 Q262.4063,340.6875 262.9688,340.9844 L262.9688,343.7031 Q262.3438,343.125 261.75,342.8594 Q261.1563,342.5781 260.5313,342.5781 Q259.1875,342.5781 258.5,343.6563 Q257.8125,344.7188 257.8125,346.8125 Q257.8125,348.9063 258.5,349.9844 Q259.1875,351.0469 260.5313,351.0469 Q261.1563,351.0469 261.75,350.7813 Q262.3438,350.5 262.9688,349.9219 L262.9688,352.6406 Z " fill="#000000"/><text fill="#000000" font-family="sans-serif" font-size="14" lengthAdjust="spacing" textLength="81.7441" x="274" y="351.8467">Comentario</text><line style="stroke:#181818;stroke-width:0.5;" x1="246" x2="357.7441" y1="363" y2="363"/><line style="stroke:#181818;stroke-width:0.5;" x1="246" x2="357.7441" y1="371" y2="371"/></g><!--class Like--><g class="entity" data-entity="Like" data-source-line="17" data-uid="ent0010" id="entity_Like"><rect fill="#F1F1F1" height="48" rx="2.5" ry="2.5" style="stroke:#181818;stroke-width:0.5;" width="60.4102" x="394" y="331"/><ellipse cx="409" cy="347" fill="#ADD1B2" rx="11" ry="11" style="stroke:#181818;stroke-width:1;"/><path d="M411.9688,352.6406 Q411.3906,352.9375 410.75,353.0781 Q410.1094,353.2344 409.4063,353.2344 Q406.9063,353.2344 405.5781,351.5938 Q404.2656,349.9375 404.2656,346.8125 Q404.2656,343.6875 405.5781,342.0313 Q406.9063,340.375 409.4063,340.375 Q410.1094,340.375 410.75,340.5313 Q411.4063,340.6875 411.9688,340.9844 L411.9688,343.7031 Q411.3438,343.125 410.75,342.8594 Q410.1563,342.5781 409.5313,342.5781 Q408.1875,342.5781 407.5,343.6563 Q406.8125,344.7188 406.8125,346.8125 Q406.8125,348.9063 407.5,349.9844 Q408.1875,351.0469 409.5313,351.0469 Q410.1563,351.0469 410.75,350.7813 Q411.3438,350.5 411.9688,349.9219 L411.9688,352.6406 Z " fill="#000000"/><text fill="#000000" font-family="sans-serif" font-size="14" lengthAdjust="spacing" textLength="28.4102" x="423" y="351.8467">Like</text><line style="stroke:#181818;stroke-width:0.5;" x1="395" x2="453.4102" y1="363" y2="363"/><line style="stroke:#181818;stroke-width:0.5;" x1="395" x2="453.4102" y1="371" y2="371"/></g><!--reverse link Comunidad to UsuarioRegistrado--><g class="link" data-entity-1="Comunidad" data-entity-2="UsuarioRegistrado" data-source-line="19" data-uid="lnk11" id="link_Comunidad_UsuarioRegistrado"><path codeLine="19" d="M201.5094,62.4458 C179.1894,80.1058 157.91,96.94 135.48,114.68" fill="none" id="Comunidad-backto-UsuarioRegistrado" style="stroke:#181818;stroke-width:1;"/><polygon fill="none" points="210.92,55,203.7328,55.5861,201.5094,62.4458,208.6966,61.8598,210.92,55" style="stroke:#181818;stroke-width:1;"/></g><!--reverse link Comunidad to Post--><g class="link" data-entity-1="Comunidad" data-entity-2="Post" data-source-line="20" data-uid="lnk12" id="link_Comunidad_Post"><path codeLine="20" d="M238.8466,67.3036 C237.4966,108.4636 235.11,181.58 233.76,222.72" fill="none" id="Comunidad-backto-Post" style="stroke:#181818;stroke-width:1;"/><polygon fill="none" points="239.24,55.31,235.0455,61.1757,238.8466,67.3036,243.0412,61.4379,239.24,55.31" style="stroke:#181818;stroke-width:1;"/></g><!--link UsuarioRegistrado to Post--><g class="link" data-entity-1="UsuarioRegistrado" data-entity-2="Post" data-source-line="21" data-uid="lnk13" id="link_UsuarioRegistrado_Post"><path codeLine="21" d="M138.1656,166.8456 C159.3156,184.5056 179.204,201.0948 200.454,218.8348" fill="none" id="UsuarioRegistrado-Post" style="stroke:#181818;stroke-width:1;"/><polygon fill="#181818" points="133.56,163,137.9046,171.8388,137.398,166.2047,143.0321,165.698,133.56,163" style="stroke:#181818;stroke-width:1;"/><polygon fill="#181818" points="205.06,222.68,200.7145,213.8416,201.2217,219.4757,195.5876,219.9829,205.06,222.68" style="stroke:#181818;stroke-width:1;"/></g><!--reverse link UsuarioInvitado to UsuarioRegistrado--><g class="link" data-entity-1="UsuarioInvitado" data-entity-2="UsuarioRegistrado" data-source-line="22" data-uid="lnk14" id="link_UsuarioInvitado_UsuarioRegistrado"><path codeLine="22" d="M88.6725,72.4043 C93.3325,90.0643 95.15,96.94 99.84,114.68" fill="none" id="UsuarioInvitado-backto-UsuarioRegistrado" style="stroke:#181818;stroke-width:1;"/><polygon fill="none" points="84.08,55,82.8711,73.9351,94.4739,70.8734,84.08,55" style="stroke:#181818;stroke-width:1;"/></g><!--reverse link UsuarioRegistrado to Moderador--><g class="link" data-entity-1="UsuarioRegistrado" data-entity-2="Moderador" data-source-line="23" data-uid="lnk15" id="link_UsuarioRegistrado_Moderador"><path codeLine="23" d="M106,181 C106,198.66 106,204.94 106,222.68" fill="none" id="UsuarioRegistrado-backto-Moderador" style="stroke:#181818;stroke-width:1;"/><polygon fill="none" points="106,163,100,181,112,181,106,163" style="stroke:#181818;stroke-width:1;"/></g><!--link Post to Etiqueta--><g class="link" data-entity-1="Post" data-entity-2="Etiqueta" data-source-line="24" data-uid="lnk16" id="link_Post_Etiqueta"><path codeLine="24" d="M218.03,271 C206.53,288.66 197.2774,302.8836 185.7274,320.6236" fill="none" id="Post-to-Etiqueta" style="stroke:#181818;stroke-width:1;"/><polygon fill="none" points="179.18,330.68,185.8058,327.8343,185.7274,320.6236,179.1016,323.4693,179.18,330.68" style="stroke:#181818;stroke-width:1;"/></g><!--reverse link Post to Like--><g class="link" data-entity-1="Post" data-entity-2="Like" data-source-line="25" data-uid="lnk17" id="link_Post_Like"><path codeLine="25" d="M274.6038,271.0908 C310.4438,290.9708 358.42,317.61 393.85,337.27" fill="none" id="Post-backto-Like" style="stroke:#181818;stroke-width:1;"/><polygon fill="#181818" points="264.11,265.27,267.4166,271.6783,274.6038,271.0908,271.2971,264.6825,264.11,265.27" style="stroke:#181818;stroke-width:1;"/></g><!--reverse link Post to Comentario--><g class="link" data-entity-1="Post" data-entity-2="Comentario" data-source-line="26" data-uid="lnk18" id="link_Post_Comentario"><path codeLine="26" d="M254.5183,281.0559 C266.0183,298.7159 275.27,312.94 286.82,330.68" fill="none" id="Post-backto-Comentario" style="stroke:#181818;stroke-width:1;"/><polygon fill="#181818" points="247.97,271,247.8922,278.2107,254.5183,281.0559,254.5961,273.8452,247.97,271" style="stroke:#181818;stroke-width:1;"/></g><!--link Post to Filtro--><g class="link" data-entity-1="Post" data-entity-2="Filtro" data-source-line="27" data-uid="lnk19" id="link_Post_Filtro"><path codeLine="27" d="M201.79,265.98 C168.87,284.94 122.3795,311.7357 88.3795,331.3157" fill="none" id="Post-to-Filtro" style="stroke:#181818;stroke-width:1;stroke-dasharray:7.0,7.0;"/><polygon fill="#181818" points="83.18,334.31,92.9754,333.2849,87.5129,331.8148,88.983,326.3523,83.18,334.31" style="stroke:#181818;stroke-width:1;"/></g><!--link Filtro to Etiqueta--><g class="link" data-entity-1="Filtro" data-entity-2="Etiqueta" data-source-line="28" data-uid="lnk20" id="link_Filtro_Etiqueta"><path codeLine="28" d="M83.14,355 C94.83,355 100.51,355 112.2,355" fill="none" id="Filtro-to-Etiqueta" style="stroke:#181818;stroke-width:1;stroke-dasharray:7.0,7.0;"/><polygon fill="#181818" points="118.2,355,109.2,351,113.2,355,109.2,359,118.2,355" style="stroke:#181818;stroke-width:1;"/></g><!--SRC=[RP1D2i8m48NtEKNMGdg2qeqe20eYU82n2J9OEvXCtQXtjsCrQMnNORxtvkS5Je4zrAph1aBGnz21HzgqTsImf1ylfJBbuCue7Pcs8-i4-H7RK-1HkMAyTOvXX9PqxLgqO1DQOyEUCejhMVOcjiMBaogsQp9cUjwVBkUeQORIc2hJOlBoEJjrPeGOum-eJsvZA2OUoA8toUMfIja6LXJLDxyQ7js3tv0t]--></g></svg>