<svg xmlns="http://www.w3.org/2000/svg" xmlns:xlink="http://www.w3.org/1999/xlink" contentStyleType="text/css" data-diagram-type="DESCRIPTION" height="450px" preserveAspectRatio="none" style="width:414px;height:450px;background:#FFFFFF;" version="1.1" viewBox="0 0 414 450" width="414px" zoomAndPan="magnify"><defs/><g><!--cluster Aplicacion--><g class="cluster" data-entity="Aplicacion" data-source-line="4" data-uid="ent0003" id="cluster_Aplicacion"><path d="M128.19,6 L210.0728,6 A3.75,3.75 0 0 1 212.5728,8.5 L219.5728,28.2969 L405.02,28.2969 A2.5,2.5 0 0 1 407.52,30.7969 L407.52,440.5 A2.5,2.5 0 0 1 405.02,443 L128.19,443 A2.5,2.5 0 0 1 125.69,440.5 L125.69,8.5 A2.5,2.5 0 0 1 128.19,6" fill="none" style="stroke:#000000;stroke-width:1.5;"/><line style="stroke:#000000;stroke-width:1.5;" x1="125.69" x2="219.5728" y1="28.2969" y2="28.2969"/><text fill="#000000" font-family="sans-serif" font-size="14" font-weight="bold" lengthAdjust="spacing" textLength="80.8828" x="129.69" y="20.9951">Aplicacion</text></g><!--cluster Usuarios--><g class="cluster" data-entity="Usuarios" data-source-line="5" data-uid="ent0004" id="cluster_Usuarios"><path d="M166.93,185 L236.6995,185 A3.75,3.75 0 0 1 239.1995,187.5 L246.1995,207.2969 L366.28,207.2969 A2.5,2.5 0 0 1 368.78,209.7969 L368.78,416.5 A2.5,2.5 0 0 1 366.28,419 L166.93,419 A2.5,2.5 0 0 1 164.43,416.5 L164.43,187.5 A2.5,2.5 0 0 1 166.93,185" fill="none" style="stroke:#000000;stroke-width:1.5;"/><line style="stroke:#000000;stroke-width:1.5;" x1="164.43" x2="246.1995" y1="207.2969" y2="207.2969"/><text fill="#000000" font-family="sans-serif" font-size="14" font-weight="bold" lengthAdjust="spacing" textLength="68.7695" x="168.43" y="199.9951">Usuarios</text></g><!--entity UC7--><g class="entity" data-entity="UC7" data-source-line="10" data-uid="ent0008" id="entity_UC7"><ellipse cx="266.6077" cy="142.0035" fill="#F1F1F1" rx="124.9177" ry="27.3835" style="stroke:#181818;stroke-width:0.5;"/><text fill="#000000" font-family="sans-serif" font-size="14" lengthAdjust="spacing" textLength="229.8174" x="151.699" y="146.652">Bloquear palabras o expresiones</text></g><!--entity UC9--><g class="entity" data-entity="UC9" data-source-line="12" data-uid="ent0009" id="entity_UC9"><ellipse cx="266.6126" cy="60.0025" fill="#F1F1F1" rx="84.7626" ry="19.3525" style="stroke:#181818;stroke-width:0.5;"/><text fill="#000000" font-family="sans-serif" font-size="14" lengthAdjust="spacing" textLength="141.7773" x="195.724" y="64.651">Eliminar Comunidad</text></g><!--entity UC3--><g class="entity" data-entity="UC3" data-source-line="6" data-uid="ent0005" id="entity_UC3"><ellipse cx="266.6116" cy="385.0043" fill="#F1F1F1" rx="80.1216" ry="18.4243" style="stroke:#181818;stroke-width:0.5;"/><text fill="#000000" font-family="sans-serif" font-size="14" lengthAdjust="spacing" textLength="130.9629" x="201.1302" y="389.6528">Suspender usuario</text></g><!--entity UC5--><g class="entity" data-entity="UC5" data-source-line="7" data-uid="ent0006" id="entity_UC5"><ellipse cx="266.6071" cy="312.9974" fill="#F1F1F1" rx="80.5371" ry="18.5074" style="stroke:#181818;stroke-width:0.5;"/><text fill="#000000" font-family="sans-serif" font-size="14" lengthAdjust="spacing" textLength="131.9404" x="200.6368" y="317.6458">Enviar advertencia</text></g><!--entity UC8--><g class="entity" data-entity="UC8" data-source-line="8" data-uid="ent0007" id="entity_UC8"><ellipse cx="266.6112" cy="240.0042" fill="#F1F1F1" rx="86.1712" ry="19.6342" style="stroke:#181818;stroke-width:0.5;"/><text fill="#000000" font-family="sans-serif" font-size="14" lengthAdjust="spacing" textLength="145.0176" x="194.1024" y="244.6527">Desbloquear usuario</text></g><!--entity Moderador--><g class="entity" data-entity="Moderador" data-source-line="2" data-uid="ent0002" id="entity_Moderador"><ellipse cx="43.8438" cy="210.35" fill="#F1F1F1" rx="8" ry="8" style="stroke:#181818;stroke-width:0.5;"/><path d="M43.8438,218.35 L43.8438,245.35 M30.8438,226.35 L56.8438,226.35 M43.8438,245.35 L30.8438,260.35 M43.8438,245.35 L56.8438,260.35" fill="none" style="stroke:#181818;stroke-width:0.5;"/><text fill="#000000" font-family="sans-serif" font-size="14" lengthAdjust="spacing" textLength="75.6875" x="6" y="274.8451">Moderador</text></g><!--link Moderador to UC3--><g class="link" data-entity-1="Moderador" data-entity-2="UC3" data-source-line="15" data-uid="lnk10" id="link_Moderador_UC3"><path d="M61.54,278.5 C73.77,302.26 92.6,331.46 117.69,349 C139.35,364.15 160.7793,371.7594 186.0193,376.8694" fill="none" id="Moderador-to-UC3" style="stroke:#181818;stroke-width:1;"/><polygon fill="#181818" points="191.9,378.06,183.8727,372.3537,186.9994,377.0678,182.2852,380.1946,191.9,378.06" style="stroke:#181818;stroke-width:1;"/></g><!--link Moderador to UC5--><g class="link" data-entity-1="Moderador" data-entity-2="UC5" data-source-line="16" data-uid="lnk11" id="link_Moderador_UC5"><path d="M81.91,260.91 C93.16,266.68 105.71,272.57 117.69,277 C145.2,287.18 170.8116,294.0042 197.6216,299.9342" fill="none" id="Moderador-to-UC5" style="stroke:#181818;stroke-width:1;"/><polygon fill="#181818" points="203.48,301.23,195.5563,295.3807,198.598,300.1502,193.8285,303.1919,203.48,301.23" style="stroke:#181818;stroke-width:1;"/></g><!--link Moderador to UC7--><g class="link" data-entity-1="Moderador" data-entity-2="UC7" data-source-line="17" data-uid="lnk12" id="link_Moderador_UC7"><path d="M82.06,221.05 C93.43,215.42 106.01,209.33 117.69,204 C146.31,190.94 172.9425,179.6159 199.9525,168.4859" fill="none" id="Moderador-to-UC7" style="stroke:#181818;stroke-width:1;"/><polygon fill="#181818" points="205.5,166.2,195.6548,165.9306,200.8771,168.105,198.7028,173.3272,205.5,166.2" style="stroke:#181818;stroke-width:1;"/></g><!--link Moderador to UC8--><g class="link" data-entity-1="Moderador" data-entity-2="UC8" data-source-line="18" data-uid="lnk13" id="link_Moderador_UC8"><path d="M81.79,240 C108.68,240 140.19,240 174.32,240" fill="none" id="Moderador-to-UC8" style="stroke:#181818;stroke-width:1;"/><polygon fill="#181818" points="180.32,240,171.32,236,175.32,240,171.32,244,180.32,240" style="stroke:#181818;stroke-width:1;"/></g><!--link Moderador to UC9--><g class="link" data-entity-1="Moderador" data-entity-2="UC9" data-source-line="19" data-uid="lnk14" id="link_Moderador_UC9"><path d="M54.74,201.43 C65.09,168.85 84.56,123.38 117.69,97 C137.36,81.34 156.9382,73.4803 181.1582,68.1903" fill="none" id="Moderador-to-UC9" style="stroke:#181818;stroke-width:1;"/><polygon fill="#181818" points="187.02,66.91,177.3737,64.9226,182.1352,67.9769,179.0808,72.7383,187.02,66.91" style="stroke:#181818;stroke-width:1;"/></g><!--SRC=[PT31Qe8n3C3nUvyYUFSaebu4vpnw6Zv0R3CNLfikQKKGtztoyUd0zlZdbq0QwRj04L0-_HG8hEGBItBeYoZi9P1Y47Kke__54y4cH_RecxavUCQ3LLGMQsbyrSYZ4Ko-gcLARKrB0ve06XosivxkqeLH0SE5j53oZAETz_QJx1ZbhnA-BruE-EvUzEFfCaOyQaC2TCrAreuW6ySMxdzY5_dCgKrivLmJ1mmZMhcxSwzFWUbqFLpoNkPTMNHbsPNL0m00]--></g></svg>