<svg xmlns="http://www.w3.org/2000/svg" xmlns:xlink="http://www.w3.org/1999/xlink" contentStyleType="text/css" data-diagram-type="DESCRIPTION" height="462px" preserveAspectRatio="none" style="width:421px;height:462px;background:#FFFFFF;" version="1.1" viewBox="0 0 421 462" width="421px" zoomAndPan="magnify"><defs/><g><!--cluster Aplicacion--><g class="cluster" data-entity="Aplicacion" data-source-line="4" data-uid="ent0003" id="cluster_Aplicacion"><path d="M104.19,6 L186.0728,6 A3.75,3.75 0 0 1 188.5728,8.5 L195.5728,28.2969 L411.77,28.2969 A2.5,2.5 0 0 1 414.27,30.7969 L414.27,452.5 A2.5,2.5 0 0 1 411.77,455 L104.19,455 A2.5,2.5 0 0 1 101.69,452.5 L101.69,8.5 A2.5,2.5 0 0 1 104.19,6" fill="none" style="stroke:#000000;stroke-width:1.5;"/><line style="stroke:#000000;stroke-width:1.5;" x1="101.69" x2="195.5728" y1="28.2969" y2="28.2969"/><text fill="#000000" font-family="sans-serif" font-size="14" font-weight="bold" lengthAdjust="spacing" textLength="80.8828" x="105.69" y="20.9951">Aplicacion</text></g><!--cluster publicaciones--><g class="cluster" data-entity="publicaciones" data-source-line="6" data-uid="ent0004" id="cluster_publicaciones"><path d="M128.19,105 L237.0543,105 A3.75,3.75 0 0 1 239.5543,107.5 L246.5543,127.2969 L387.77,127.2969 A2.5,2.5 0 0 1 390.27,129.7969 L390.27,428.5 A2.5,2.5 0 0 1 387.77,431 L128.19,431 A2.5,2.5 0 0 1 125.69,428.5 L125.69,107.5 A2.5,2.5 0 0 1 128.19,105" fill="none" style="stroke:#000000;stroke-width:1.5;"/><line style="stroke:#000000;stroke-width:1.5;" x1="125.69" x2="246.5543" y1="127.2969" y2="127.2969"/><text fill="#000000" font-family="sans-serif" font-size="14" font-weight="bold" lengthAdjust="spacing" textLength="107.8643" x="129.69" y="119.9951">publicaciones</text></g><!--entity UC7--><g class="entity" data-entity="UC7" data-source-line="13" data-uid="ent0009" id="entity_UC7"><ellipse cx="257.9848" cy="65.005" fill="#F1F1F1" rx="109.0748" ry="24.215" style="stroke:#181818;stroke-width:0.5;"/><text fill="#000000" font-family="sans-serif" font-size="14" lengthAdjust="spacing" textLength="195.877" x="160.0464" y="69.6534">Salir de Vista de moderador</text></g><!--entity UC1--><g class="entity" data-entity="UC1" data-source-line="7" data-uid="ent0005" id="entity_UC1"><ellipse cx="257.983" cy="394.9966" fill="#F1F1F1" rx="89.333" ry="20.2666" style="stroke:#181818;stroke-width:0.5;"/><text fill="#000000" font-family="sans-serif" font-size="14" lengthAdjust="spacing" textLength="152.2295" x="181.8682" y="399.645">Revisar publicaciones</text></g><!--entity UC2--><g class="entity" data-entity="UC2" data-source-line="8" data-uid="ent0006" id="entity_UC2"><ellipse cx="257.9789" cy="320.0018" fill="#F1F1F1" rx="84.6589" ry="19.3318" style="stroke:#181818;stroke-width:0.5;"/><text fill="#000000" font-family="sans-serif" font-size="14" lengthAdjust="spacing" textLength="141.5381" x="187.2099" y="324.6502">Eliminar publicacion</text></g><!--entity UC4--><g class="entity" data-entity="UC4" data-source-line="9" data-uid="ent0007" id="entity_UC4"><ellipse cx="257.9805" cy="239.9981" fill="#F1F1F1" rx="116.2905" ry="25.6581" style="stroke:#181818;stroke-width:0.5;"/><text fill="#000000" font-family="sans-serif" font-size="14" lengthAdjust="spacing" textLength="211.4219" x="152.2695" y="244.6465">Revisar reportes de contenido</text></g><!--entity UC6--><g class="entity" data-entity="UC6" data-source-line="11" data-uid="ent0008" id="entity_UC6"><ellipse cx="257.9843" cy="159.9969" fill="#F1F1F1" rx="85.5343" ry="19.5069" style="stroke:#181818;stroke-width:0.5;"/><text fill="#000000" font-family="sans-serif" font-size="14" lengthAdjust="spacing" textLength="143.5547" x="186.207" y="164.6453">Revisar comentarios</text></g><!--entity Moderador--><g class="entity" data-entity="Moderador" data-source-line="2" data-uid="ent0002" id="entity_Moderador"><ellipse cx="43.8438" cy="210.35" fill="#F1F1F1" rx="8" ry="8" style="stroke:#181818;stroke-width:0.5;"/><path d="M43.8438,218.35 L43.8438,245.35 M30.8438,226.35 L56.8438,226.35 M43.8438,245.35 L30.8438,260.35 M43.8438,245.35 L56.8438,260.35" fill="none" style="stroke:#181818;stroke-width:0.5;"/><text fill="#000000" font-family="sans-serif" font-size="14" lengthAdjust="spacing" textLength="75.6875" x="6" y="274.8451">Moderador</text></g><!--link Moderador to UC1--><g class="link" data-entity-1="Moderador" data-entity-2="UC1" data-source-line="16" data-uid="lnk10" id="link_Moderador_UC1"><path d="M51.49,278.6 C57.93,304.45 70.33,337.24 93.69,357 C115.13,375.14 137.719,383.8617 164.889,389.1117" fill="none" id="Moderador-to-UC1" style="stroke:#181818;stroke-width:1;"/><polygon fill="#181818" points="170.78,390.25,162.7023,384.6152,165.8708,389.3014,161.1846,392.4699,170.78,390.25" style="stroke:#181818;stroke-width:1;"/></g><!--link Moderador to UC2--><g class="link" data-entity-1="Moderador" data-entity-2="UC2" data-source-line="17" data-uid="lnk11" id="link_Moderador_UC2"><path d="M82.17,275.99 C85.9,278.6 89.76,281 93.69,283 C121,296.95 147.6346,304.5748 176.4446,310.0248" fill="none" id="Moderador-to-UC2" style="stroke:#181818;stroke-width:1;"/><polygon fill="#181818" points="182.34,311.14,174.2403,305.5368,177.4271,310.2106,172.7533,313.3974,182.34,311.14" style="stroke:#181818;stroke-width:1;"/></g><!--link Moderador to UC4--><g class="link" data-entity-1="Moderador" data-entity-2="UC4" data-source-line="18" data-uid="lnk12" id="link_Moderador_UC4"><path d="M81.79,240 C98.77,240 113.93,240 135.61,240" fill="none" id="Moderador-to-UC4" style="stroke:#181818;stroke-width:1;"/><polygon fill="#181818" points="141.61,240,132.61,236,136.61,240,132.61,244,141.61,240" style="stroke:#181818;stroke-width:1;"/></g><!--link Moderador to UC6--><g class="link" data-entity-1="Moderador" data-entity-2="UC6" data-source-line="19" data-uid="lnk13" id="link_Moderador_UC6"><path d="M82.17,204.01 C85.9,201.4 89.76,199 93.69,197 C120.74,183.18 147.0164,175.6048 175.6264,170.1448" fill="none" id="Moderador-to-UC6" style="stroke:#181818;stroke-width:1;"/><polygon fill="#181818" points="181.52,169.02,171.9297,166.778,176.6086,169.9573,173.4294,174.6362,181.52,169.02" style="stroke:#181818;stroke-width:1;"/></g><!--link Moderador to UC7--><g class="link" data-entity-1="Moderador" data-entity-2="UC7" data-source-line="20" data-uid="lnk14" id="link_Moderador_UC7"><path d="M52.62,201.47 C59.52,176.38 71.98,144.61 93.69,124 C115.66,103.14 139.8124,91.3573 168.0124,82.5573" fill="none" id="Moderador-to-UC7" style="stroke:#181818;stroke-width:1;"/><polygon fill="#181818" points="173.74,80.77,163.957,79.6326,168.967,82.2594,166.3402,87.2694,173.74,80.77" style="stroke:#181818;stroke-width:1;"/></g><!--SRC=[TP0nRy9038Lt_mgBdQ48mLQfgXXPGB2REnSiadFaCoo8_quI9QtI4vwizpu_sQxunz4LJSuNnoZ6mKKJK70rt6faewW6q52uqfdngwaaK6YP1m2sDHhDxJGwd1-zrTKjSw3CEDlnNJBPb9iXPJnyVvJuff9QqfGVwCNxSED6pJbZP0oQd9D47SQM00KVjERaPABZAgi-_Fc7xgaIw_AEafswfXw_CeoiuGdm-ogSpp_xa_uhYq9P5iggKDOl]--></g></svg>