<svg xmlns="http://www.w3.org/2000/svg" xmlns:xlink="http://www.w3.org/1999/xlink" contentStyleType="text/css" data-diagram-type="STATE" height="612px" preserveAspectRatio="none" style="width:517px;height:612px;background:#FFFFFF;" version="1.1" viewBox="0 0 517 612" width="517px" zoomAndPan="magnify"><title>Navegaci&#243;n Principal del Usuario</title><defs/><g><g class="title" data-source-line="1"><text fill="#000000" font-family="sans-serif" font-size="14" font-weight="bold" lengthAdjust="spacing" textLength="260.6064" x="121.5318" y="22.9951">Navegaci&#243;n Principal del Usuario</text></g><g id="Inicio"><rect fill="#F1F1F1" height="50" rx="12.5" ry="12.5" style="stroke:#181818;stroke-width:0.5;" width="57.0439" x="429.24" y="124.2969"/><line style="stroke:#181818;stroke-width:0.5;" x1="429.24" x2="486.2839" y1="150.5938" y2="150.5938"/><text fill="#000000" font-family="sans-serif" font-size="14" lengthAdjust="spacing" textLength="37.0439" x="439.24" y="142.292">Inicio</text></g><g id="Dashboard"><rect fill="#F1F1F1" height="50" rx="12.5" ry="12.5" style="stroke:#181818;stroke-width:0.5;" width="96.2002" x="295.66" y="251.2969"/><line style="stroke:#181818;stroke-width:0.5;" x1="295.66" x2="391.8602" y1="277.5938" y2="277.5938"/><text fill="#000000" font-family="sans-serif" font-size="14" lengthAdjust="spacing" textLength="76.2002" x="305.66" y="269.292">Dashboard</text></g><g id="Perfil"><rect fill="#F1F1F1" height="50" rx="12.5" ry="12.5" style="stroke:#181818;stroke-width:0.5;" width="55.5195" x="7" y="362.2969"/><line style="stroke:#181818;stroke-width:0.5;" x1="7" x2="62.5195" y1="388.5938" y2="388.5938"/><text fill="#000000" font-family="sans-serif" font-size="14" lengthAdjust="spacing" textLength="35.5195" x="17" y="380.292">Perfil</text></g><g id="Comunidades"><rect fill="#F1F1F1" height="50" rx="12.5" ry="12.5" style="stroke:#181818;stroke-width:0.5;" width="115.874" x="97.82" y="362.2969"/><line style="stroke:#181818;stroke-width:0.5;" x1="97.82" x2="213.694" y1="388.5938" y2="388.5938"/><text fill="#000000" font-family="sans-serif" font-size="14" lengthAdjust="spacing" textLength="95.874" x="107.82" y="380.292">Comunidades</text></g><g id="Ajustes"><rect fill="#F1F1F1" height="50" rx="12.5" ry="12.5" style="stroke:#181818;stroke-width:0.5;" width="71.0303" x="248.24" y="362.2969"/><line style="stroke:#181818;stroke-width:0.5;" x1="248.24" x2="319.2703" y1="388.5938" y2="388.5938"/><text fill="#000000" font-family="sans-serif" font-size="14" lengthAdjust="spacing" textLength="51.0303" x="258.24" y="380.292">Ajustes</text></g><g id="Etiqueta"><rect fill="#F1F1F1" height="50" rx="12.5" ry="12.5" style="stroke:#181818;stroke-width:0.5;" width="78.666" x="354.43" y="362.2969"/><line style="stroke:#181818;stroke-width:0.5;" x1="354.43" x2="433.096" y1="388.5938" y2="388.5938"/><text fill="#000000" font-family="sans-serif" font-size="14" lengthAdjust="spacing" textLength="58.666" x="364.43" y="380.292">Etiqueta</text></g><g id="CerrarSesion"><rect fill="#F1F1F1" height="50" rx="12.5" ry="12.5" style="stroke:#181818;stroke-width:0.5;" width="110.3574" x="297.58" y="473.2969"/><line style="stroke:#181818;stroke-width:0.5;" x1="297.58" x2="407.9374" y1="499.5938" y2="499.5938"/><text fill="#000000" font-family="sans-serif" font-size="14" lengthAdjust="spacing" textLength="90.3574" x="307.58" y="491.292">CerrarSesion</text></g><ellipse cx="457.76" cy="53.2969" fill="#222222" rx="10" ry="10" style="stroke:#222222;stroke-width:1;"/><ellipse cx="352.76" cy="595.2969" fill="none" rx="11" ry="11" style="stroke:#222222;stroke-width:1;"/><ellipse cx="352.76" cy="595.2969" fill="#222222" rx="6" ry="6" style="stroke:#222222;stroke-width:1;"/><!--link *start* to Inicio--><g class="link" data-entity-1=".start." data-entity-2="Inicio" data-source-line="11" data-uid="lnk3" id="link_.start._Inicio"><path d="M457.76,63.6569 C457.76,77.5869 457.76,98.2469 457.76,117.9469" fill="none" id="*start*-to-Inicio" style="stroke:#181818;stroke-width:1;"/><polygon fill="#181818" points="457.76,123.9469,461.76,114.9469,457.76,118.9469,453.76,114.9469,457.76,123.9469" style="stroke:#181818;stroke-width:1;"/></g><!--link Inicio to Dashboard--><g class="link" data-entity-1="Inicio" data-entity-2="Dashboard" data-source-line="12" data-uid="lnk4" id="link_Inicio_Dashboard"><path d="M435.51,174.6969 C415.42,196.7169 390.0638,224.5243 369.9938,246.5243" fill="none" id="Inicio-to-Dashboard" style="stroke:#181818;stroke-width:1;"/><polygon fill="#181818" points="365.95,250.9569,374.9707,247.0038,369.3198,247.263,369.0606,241.6121,365.95,250.9569" style="stroke:#181818;stroke-width:1;"/><text fill="#000000" font-family="sans-serif" font-size="13" lengthAdjust="spacing" textLength="60.8042" x="408.76" y="217.3638">Ver Posts</text></g><!--link Dashboard to Perfil--><g class="link" data-entity-1="Dashboard" data-entity-2="Perfil" data-source-line="14" data-uid="lnk5" id="link_Dashboard_Perfil"><path d="M295.37,290.2869 C241.93,305.2369 153.79,331.7069 80.76,362.2969 C74.78,364.8069 73.8646,365.0702 67.9646,368.0802" fill="none" id="Dashboard-to-Perfil" style="stroke:#181818;stroke-width:1;"/><polygon fill="#181818" points="62.62,370.8069,72.4548,370.28,67.0739,368.5346,68.8192,363.1538,62.62,370.8069" style="stroke:#181818;stroke-width:1;"/></g><!--link Dashboard to Comunidades--><g class="link" data-entity-1="Dashboard" data-entity-2="Comunidades" data-source-line="15" data-uid="lnk6" id="link_Dashboard_Comunidades"><path d="M301.57,301.7569 C270.61,319.7069 233.9309,340.9777 203.0009,358.9077" fill="none" id="Dashboard-to-Comunidades" style="stroke:#181818;stroke-width:1;"/><polygon fill="#181818" points="197.81,361.9169,207.6024,360.8638,202.1357,359.4093,203.5902,353.9426,197.81,361.9169" style="stroke:#181818;stroke-width:1;"/></g><!--link Dashboard to Ajustes--><g class="link" data-entity-1="Dashboard" data-entity-2="Ajustes" data-source-line="16" data-uid="lnk7" id="link_Dashboard_Ajustes"><path d="M330.29,301.7569 C320.41,319.7069 309.9434,338.7306 300.0734,356.6606" fill="none" id="Dashboard-to-Ajustes" style="stroke:#181818;stroke-width:1;"/><polygon fill="#181818" points="297.18,361.9169,305.0243,355.9615,299.5912,357.5367,298.016,352.1036,297.18,361.9169" style="stroke:#181818;stroke-width:1;"/></g><!--link Dashboard to Etiqueta--><g class="link" data-entity-1="Dashboard" data-entity-2="Etiqueta" data-source-line="17" data-uid="lnk8" id="link_Dashboard_Etiqueta"><path d="M354.98,301.7569 C363.22,319.7069 371.847,338.5339 380.077,356.4639" fill="none" id="Dashboard-to-Etiqueta" style="stroke:#181818;stroke-width:1;"/><polygon fill="#181818" points="382.58,361.9169,382.4609,352.0687,380.4942,357.3727,375.1902,355.406,382.58,361.9169" style="stroke:#181818;stroke-width:1;"/></g><!--link Inicio to CerrarSesion--><g class="link" data-entity-1="Inicio" data-entity-2="CerrarSesion" data-source-line="20" data-uid="lnk9" id="link_Inicio_CerrarSesion"><path d="M468.71,174.5369 C472.31,183.6669 475.87,194.2769 477.76,204.2969 C494.93,295.1369 510.67,324.8169 480.76,412.2969 C469.67,444.7369 442.9335,463.5591 413.6035,476.7291" fill="none" id="Inicio-to-CerrarSesion" style="stroke:#181818;stroke-width:1;"/><polygon fill="#181818" points="408.13,479.1869,417.9788,479.1492,412.6913,477.1387,414.7018,471.8512,408.13,479.1869" style="stroke:#181818;stroke-width:1;"/></g><!--link Dashboard to CerrarSesion--><g class="link" data-entity-1="Dashboard" data-entity-2="CerrarSesion" data-source-line="21" data-uid="lnk10" id="link_Dashboard_CerrarSesion"><path d="M391.23,301.7169 C413.69,316.0369 438.28,336.4469 450.76,362.2969 C460.42,382.3069 459.99,392.0769 450.76,412.2969 C439.21,437.5969 420.9196,454.8421 399.9796,469.4621" fill="none" id="Dashboard-to-CerrarSesion" style="stroke:#181818;stroke-width:1;"/><polygon fill="#181818" points="395.06,472.8969,404.7292,471.0244,399.1597,470.0346,400.1495,464.465,395.06,472.8969" style="stroke:#181818;stroke-width:1;"/></g><!--link Perfil to CerrarSesion--><g class="link" data-entity-1="Perfil" data-entity-2="CerrarSesion" data-source-line="22" data-uid="lnk11" id="link_Perfil_CerrarSesion"><path d="M62.6,403.8269 C68.5,406.8369 74.77,409.8169 80.76,412.2969 C153.8,442.4869 235.8061,466.5376 291.5061,481.5276" fill="none" id="Perfil-to-CerrarSesion" style="stroke:#181818;stroke-width:1;"/><polygon fill="#181818" points="297.3,483.0869,289.6487,476.8854,292.4718,481.7875,287.5697,484.6106,297.3,483.0869" style="stroke:#181818;stroke-width:1;"/></g><!--link Comunidades to CerrarSesion--><g class="link" data-entity-1="Comunidades" data-entity-2="CerrarSesion" data-source-line="23" data-uid="lnk12" id="link_Comunidades_CerrarSesion"><path d="M199.97,412.7569 C232.41,430.7069 271.0399,452.0824 303.4499,470.0124" fill="none" id="Comunidades-to-CerrarSesion" style="stroke:#181818;stroke-width:1;"/><polygon fill="#181818" points="308.7,472.9169,302.7611,465.06,304.3249,470.4965,298.8885,472.0602,308.7,472.9169" style="stroke:#181818;stroke-width:1;"/></g><!--link Ajustes to CerrarSesion--><g class="link" data-entity-1="Ajustes" data-entity-2="CerrarSesion" data-source-line="24" data-uid="lnk13" id="link_Ajustes_CerrarSesion"><path d="M299.24,412.7569 C310.61,430.7069 322.7588,449.9185 334.1188,467.8485" fill="none" id="Ajustes-to-CerrarSesion" style="stroke:#181818;stroke-width:1;"/><polygon fill="#181818" points="337.33,472.9169,335.8921,463.1735,334.654,468.6932,329.1343,467.4551,337.33,472.9169" style="stroke:#181818;stroke-width:1;"/></g><!--link Etiqueta to CerrarSesion--><g class="link" data-entity-1="Etiqueta" data-entity-2="CerrarSesion" data-source-line="25" data-uid="lnk14" id="link_Etiqueta_CerrarSesion"><path d="M384.56,412.7569 C377.81,430.7069 370.7939,449.3716 364.0439,467.3016" fill="none" id="Etiqueta-to-CerrarSesion" style="stroke:#181818;stroke-width:1;"/><polygon fill="#181818" points="361.93,472.9169,368.8444,465.9033,363.6916,468.2375,361.3574,463.0847,361.93,472.9169" style="stroke:#181818;stroke-width:1;"/></g><!--link CerrarSesion to *end*--><g class="link" data-entity-1="CerrarSesion" data-entity-2=".end." data-source-line="26" data-uid="lnk16" id="link_CerrarSesion_.end."><path d="M352.76,523.7569 C352.76,543.3369 352.76,563.7869 352.76,578.0969" fill="none" id="CerrarSesion-to-*end*" style="stroke:#181818;stroke-width:1;"/><polygon fill="#181818" points="352.76,584.0969,356.76,575.0969,352.76,579.0969,348.76,575.0969,352.76,584.0969" style="stroke:#181818;stroke-width:1;"/></g><!--SRC=[RP112i8m44NtESNi1A4NS258TU562g8RSJ6seuxKH3Ef5_C8NipOfZMrhiB_VyX_VCUk95ZXWqwOy-kf8REiSxvX2GMLi94ABHkbnA4ZM6hElMh47ELyC6YBe3EoHow3ICsrqbnWGHASsQKIrwc5utj53jjpiXRjceIDLcettaEIJDkwvgcThXCci2KBcH4dIdtjpr40wPinK3zfmVfk1wX6aBB78py8Y2VqAyL8FVIVpZXgg8P-13OC0zimQF7-_1U9ElLhlW40]--></g></svg>