<svg xmlns="http://www.w3.org/2000/svg" xmlns:xlink="http://www.w3.org/1999/xlink" contentStyleType="text/css" data-diagram-type="STATE" height="258px" preserveAspectRatio="none" style="width:288px;height:258px;background:#FFFFFF;" version="1.1" viewBox="0 0 288 258" width="288px" zoomAndPan="magnify"><defs/><g><ellipse cx="198" cy="16" fill="#222222" rx="10" ry="10" style="stroke:#222222;stroke-width:1;"/><g id="Post"><rect fill="#F1F1F1" height="50" rx="12.5" ry="12.5" style="stroke:#181818;stroke-width:0.5;" width="50" x="7" y="103"/><line style="stroke:#181818;stroke-width:0.5;" x1="7" x2="57" y1="129.2969" y2="129.2969"/><text fill="#000000" font-family="sans-serif" font-size="14" lengthAdjust="spacing" textLength="29.791" x="17.1045" y="120.9951">Post</text></g><ellipse cx="143" cy="241" fill="transparent" rx="11" ry="11" style="stroke:#222222;stroke-width:1;"/><ellipse cx="143" cy="241" fill="#222222" rx="6" ry="6" style="stroke:#222222;stroke-width:1;"/><!--link *start* to Post--><g id="link_*start*_Post"><path d="M189.99,22.31 C166.23,38.06 100.3517,81.706 62.1217,107.036 " fill="transparent" id="*start*-to-Post" style="stroke:#181818;stroke-width:1;"/><polygon fill="#181818" points="57.12,110.35,66.8319,108.7135,61.2881,107.5883,62.4133,102.0445,57.12,110.35" style="stroke:#181818;stroke-width:1;"/><text fill="#000000" font-family="sans-serif" font-size="13" lengthAdjust="spacing" textLength="54.0313" x="136" y="69.0669">Ver Post</text></g><!--link *start* to *end*--><g id="link_*start*_*end*"><path d="M199.51,26 C202.91,47.93 210.28,105.77 202,153 C198.16,174.88 197.14,181.4 185,200 C175.86,214 165.6769,223.0162 156.2969,230.1862 " fill="transparent" id="*start*-to-*end*" style="stroke:#181818;stroke-width:1;"/><polygon fill="#181818" points="151.53,233.83,161.1095,231.5423,155.5024,230.7935,156.2511,225.1865,151.53,233.83" style="stroke:#181818;stroke-width:1;"/><text fill="#000000" font-family="sans-serif" font-size="13" lengthAdjust="spacing" textLength="74.1914" x="206" y="132.5669">Registrarse</text></g><!--link Post to Post--><g id="link_Post_Post"><path d="M57.28,117.51 C74.77,114.33 92,117.83 92,128 C92,138.17 80.6732,142.7433 63.1832,139.5633 " fill="transparent" id="Post-to-Post" style="stroke:#181818;stroke-width:1;"/><polygon fill="#181818" points="57.28,138.49,65.4193,144.0354,62.1993,139.3844,66.8504,136.1645,57.28,138.49" style="stroke:#181818;stroke-width:1;"/><text fill="#000000" font-family="sans-serif" font-size="13" lengthAdjust="spacing" textLength="97.1064" x="98" y="132.5669">Compartir Post</text></g><!--link Post to *end*--><g id="link_Post_*end*"><path d="M56.09,153.09 C81.33,178.33 115.2774,212.2774 131.2874,228.2874 " fill="transparent" id="Post-to-*end*" style="stroke:#181818;stroke-width:1;"/><polygon fill="#181818" points="135.53,232.53,131.9945,223.3376,131.9945,228.9945,126.3376,228.9945,135.53,232.53" style="stroke:#181818;stroke-width:1;"/><text fill="#000000" font-family="sans-serif" font-size="13" lengthAdjust="spacing" textLength="74.1914" x="102" y="196.0669">Registrarse</text></g><!--SRC=[YzQALT3LjLC8o2ykiL88Ioq2ixYYeS8WsaeXA3KzixYaAB6eE9KB98sampa_jo2ng2GJgWyk2zI8eWy0]--></g></svg>