<svg xmlns="http://www.w3.org/2000/svg" xmlns:xlink="http://www.w3.org/1999/xlink" contentStyleType="text/css" data-diagram-type="DESCRIPTION" height="678px" preserveAspectRatio="none" style="width:443px;height:678px;background:#FFFFFF;" version="1.1" viewBox="0 0 443 678" width="443px" zoomAndPan="magnify"><defs/><g><!--cluster Aplicaci?n--><g class="cluster" data-entity="Aplicaci&#243;n" data-source-line="4" data-uid="ent0003" id="cluster_Aplicaci&#243;n"><rect fill="none" height="665" rx="2.5" ry="2.5" style="stroke:#181818;stroke-width:1;" width="260" x="177" y="7"/><text fill="#000000" font-family="sans-serif" font-size="14" font-weight="bold" lengthAdjust="spacing" textLength="80.8828" x="266.5586" y="21.9951">Aplicaci&#243;n</text></g><!--cluster Comunidad--><g class="cluster" data-entity="Comunidad" data-source-line="12" data-uid="ent0008" id="cluster_Comunidad"><rect fill="none" height="316" rx="2.5" ry="2.5" style="stroke:#181818;stroke-width:1;" width="212" x="201" y="332"/><text fill="#000000" font-family="sans-serif" font-size="14" font-weight="bold" lengthAdjust="spacing" textLength="88.7031" x="262.6484" y="346.9951">Comunidad</text></g><g class="entity" data-entity="UC7" data-source-line="6" data-uid="ent0004" id="entity_UC7"><ellipse cx="307.1428" cy="66.9286" fill="#F1F1F1" rx="70.1428" ry="16.4286" style="stroke:#181818;stroke-width:0.5;"/><text fill="#000000" font-family="sans-serif" font-size="14" lengthAdjust="spacing" textLength="93.2148" x="257.5353" y="70.6761">Cerrar sesi&#243;n</text></g><g class="entity" data-entity="UC12" data-source-line="7" data-uid="ent0005" id="entity_UC12"><ellipse cx="307.1869" cy="137.1374" fill="#F1F1F1" rx="78.6869" ry="18.1374" style="stroke:#181818;stroke-width:0.5;"/><text fill="#000000" font-family="sans-serif" font-size="14" lengthAdjust="spacing" textLength="115.3154" x="247.3539" y="140.6638">Filtrar contenido</text></g><g class="entity" data-entity="UC13" data-source-line="8" data-uid="ent0006" id="entity_UC13"><ellipse cx="307.0938" cy="208.0188" fill="#F1F1F1" rx="75.5938" ry="17.5188" style="stroke:#181818;stroke-width:0.5;"/><text fill="#000000" font-family="sans-serif" font-size="14" lengthAdjust="spacing" textLength="107.5361" x="250.3258" y="211.7663">Modificar datos</text></g><g class="entity" data-entity="UC14" data-source-line="9" data-uid="ent0007" id="entity_UC14"><ellipse cx="307.0255" cy="283.9051" fill="#F1F1F1" rx="105.0255" ry="23.4051" style="stroke:#181818;stroke-width:0.5;"/><text fill="#000000" font-family="sans-serif" font-size="14" lengthAdjust="spacing" textLength="175.0752" x="219.4879" y="286.7518">Activar modo moderador</text></g><g class="entity" data-entity="UC8" data-source-line="13" data-uid="ent0009" id="entity_UC8"><ellipse cx="307.145" cy="387.129" fill="#F1F1F1" rx="88.645" ry="20.129" style="stroke:#181818;stroke-width:0.5;"/><text fill="#000000" font-family="sans-serif" font-size="14" lengthAdjust="spacing" textLength="138.667" x="237.8115" y="389.9757">Entrar a comunidad</text></g><g class="entity" data-entity="UC9" data-source-line="14" data-uid="ent0010" id="entity_UC9"><ellipse cx="307.1636" cy="461.8327" fill="#F1F1F1" rx="87.1636" ry="19.8327" style="stroke:#181818;stroke-width:0.5;"/><text fill="#000000" font-family="sans-serif" font-size="14" lengthAdjust="spacing" textLength="135.29" x="239.5186" y="464.6794">Salir de comunidad</text></g><g class="entity" data-entity="UC10" data-source-line="15" data-uid="ent0011" id="entity_UC10"><ellipse cx="306.8222" cy="535.7644" fill="#F1F1F1" rx="81.8222" ry="18.7644" style="stroke:#181818;stroke-width:0.5;"/><text fill="#000000" font-family="sans-serif" font-size="14" lengthAdjust="spacing" textLength="122.8965" x="244.3733" y="538.9424">Crear Comunidad</text></g><g class="entity" data-entity="UC11" data-source-line="16" data-uid="ent0012" id="entity_UC11"><ellipse cx="307.0161" cy="610.9032" fill="#F1F1F1" rx="90.0161" ry="20.4032" style="stroke:#181818;stroke-width:0.5;"/><text fill="#000000" font-family="sans-serif" font-size="14" lengthAdjust="spacing" textLength="141.7773" x="236.1274" y="613.7499">Eliminar Comunidad</text></g><!--entity Usuario_Registrado--><g class="entity" data-entity="Usuario_Registrado" data-source-line="2" data-uid="ent0002" id="entity_Usuario_Registrado"><ellipse cx="73.9458" cy="306.5" fill="#F1F1F1" rx="8" ry="8" style="stroke:#181818;stroke-width:0.5;"/><path d="M73.9458,314.5 L73.9458,341.5 M60.9458,322.5 L86.9458,322.5 M73.9458,341.5 L60.9458,356.5 M73.9458,341.5 L86.9458,356.5" fill="none" style="stroke:#181818;stroke-width:0.5;"/><text fill="#000000" font-family="sans-serif" font-size="14" lengthAdjust="spacing" textLength="135.8916" x="6" y="370.9951">Usuario_Registrado</text></g><!--link Usuario_Registrado to UC7--><g class="link" data-entity-1="Usuario_Registrado" data-entity-2="UC7" data-source-line="22" data-uid="lnk13" id="link_Usuario_Registrado_UC7"><path d="M79.51,297.72 C87.75,245.4 110.2,152.24 169,101 C188.21,84.26 208.5295,76.598 232.8795,72.108" fill="none" id="Usuario_Registrado-to-UC7" style="stroke:#181818;stroke-width:1;"/><polygon fill="#181818" points="238.78,71.02,229.2039,68.7184,233.8629,71.9267,230.6546,76.5857,238.78,71.02" style="stroke:#181818;stroke-width:1;"/></g><!--link Usuario_Registrado to UC8--><g class="link" data-entity-1="Usuario_Registrado" data-entity-2="UC8" data-source-line="23" data-uid="lnk14" id="link_Usuario_Registrado_UC8"><path d="M142.13,350.82 C173.96,357.85 205.9212,364.9062 237.2112,371.8162" fill="none" id="Usuario_Registrado-to-UC8" style="stroke:#181818;stroke-width:1;"/><polygon fill="#181818" points="243.07,373.11,235.1443,367.2633,238.1876,372.0318,233.4192,375.0751,243.07,373.11" style="stroke:#181818;stroke-width:1;"/></g><!--link Usuario_Registrado to UC9--><g class="link" data-entity-1="Usuario_Registrado" data-entity-2="UC9" data-source-line="24" data-uid="lnk15" id="link_Usuario_Registrado_UC9"><path d="M107.87,374.33 C124.6,391.72 146.19,411.2 169,424 C189.99,435.78 209.0448,442.6225 231.7948,448.4025" fill="none" id="Usuario_Registrado-to-UC9" style="stroke:#181818;stroke-width:1;"/><polygon fill="#181818" points="237.61,449.88,229.8721,443.787,232.764,448.6488,227.9022,451.5406,237.61,449.88" style="stroke:#181818;stroke-width:1;"/></g><!--link Usuario_Registrado to UC10--><g class="link" data-entity-1="Usuario_Registrado" data-entity-2="UC10" data-source-line="25" data-uid="lnk16" id="link_Usuario_Registrado_UC10"><path d="M87.27,374.13 C101.21,411.43 127.57,467.13 169,499 C187.55,513.27 205.3664,520.6469 227.7764,526.0369" fill="none" id="Usuario_Registrado-to-UC10" style="stroke:#181818;stroke-width:1;"/><polygon fill="#181818" points="233.61,527.44,225.7949,521.4463,228.7486,526.2708,223.9241,529.2245,233.61,527.44" style="stroke:#181818;stroke-width:1;"/></g><!--link Usuario_Registrado to UC11--><g class="link" data-entity-1="Usuario_Registrado" data-entity-2="UC11" data-source-line="26" data-uid="lnk17" id="link_Usuario_Registrado_UC11"><path d="M79.71,374.16 C88.18,426.37 110.9,519.53 169,572 C185.06,586.5 200.3567,594.052 221.1667,599.802" fill="none" id="Usuario_Registrado-to-UC11" style="stroke:#181818;stroke-width:1;"/><polygon fill="#181818" points="226.95,601.4,219.3404,595.1475,222.1306,600.0684,217.2097,602.8586,226.95,601.4" style="stroke:#181818;stroke-width:1;"/></g><!--link Usuario_Registrado to UC12--><g class="link" data-entity-1="Usuario_Registrado" data-entity-2="UC12" data-source-line="27" data-uid="lnk18" id="link_Usuario_Registrado_UC12"><path d="M87.22,297.81 C101.13,260.47 127.46,204.73 169,173 C188.05,158.44 206.6176,151.0727 229.5376,145.8927" fill="none" id="Usuario_Registrado-to-UC12" style="stroke:#181818;stroke-width:1;"/><polygon fill="#181818" points="235.39,144.57,225.7296,142.6524,230.513,145.6722,227.4932,150.4556,235.39,144.57" style="stroke:#181818;stroke-width:1;"/></g><!--link Usuario_Registrado to UC13--><g class="link" data-entity-1="Usuario_Registrado" data-entity-2="UC13" data-source-line="28" data-uid="lnk19" id="link_Usuario_Registrado_UC13"><path d="M105.27,297.57 C122.14,278.56 144.63,256.8 169,243 C191.22,230.42 212.1279,223.569 236.0979,218.339" fill="none" id="Usuario_Registrado-to-UC13" style="stroke:#181818;stroke-width:1;"/><polygon fill="#181818" points="241.96,217.06,232.3142,215.0705,237.0749,218.1259,234.0196,222.8866,241.96,217.06" style="stroke:#181818;stroke-width:1;"/></g><!--link Usuario_Registrado to UC14--><g class="link" data-entity-1="Usuario_Registrado" data-entity-2="UC14" data-source-line="29" data-uid="lnk20" id="link_Usuario_Registrado_UC14"><path d="M142.13,320.89 C170.37,314.53 197.4666,308.4381 226.3766,301.9281" fill="none" id="Usuario_Registrado-to-UC14" style="stroke:#181818;stroke-width:1;"/><polygon fill="#181818" points="232.23,300.61,222.5711,298.6848,227.3521,301.7084,224.3286,306.4894,232.23,300.61" style="stroke:#181818;stroke-width:1;"/></g><!--SRC=[VP71QiCm38RlVWgJUs5f2silWnAwsouRFGzXgwd0iORix3BwL7k4lTZij84n9p5OOFvFulzbX-Ue8skXzXAr9K4JYRq24rdqAVGWnE-ls5A80fQLoWJurg6k3X-E31Zw-VQL_b8wdSWjnWlA_PbF7z10I7Y38Y0wOBXrGD2dvh7adid531hs4JrPlgFrkcHVsD8vcH1j8N8OoKr97bAmpyHrR3aNp75aRDWE3TUX3kLFp8QxFja0Mqs4Elh1AoIt8tKRkIlPDt2KZ6B1xYUM9PZ6Dl_0-c72WQEE_1HSgwjI-PR_g5Uhfs7xiz9kNjhFIydWl5OlQEi5RREWRNy1]--></g></svg>