<svg xmlns="http://www.w3.org/2000/svg" xmlns:xlink="http://www.w3.org/1999/xlink" contentStyleType="text/css" data-diagram-type="DESCRIPTION" height="359px" preserveAspectRatio="none" style="width:291px;height:359px;background:#FFFFFF;" version="1.1" viewBox="0 0 291 359" width="291px" zoomAndPan="magnify"><defs/><g><!--entity Usuario--><g class="entity" data-entity="Usuario" data-source-line="3" data-uid="ent0002" id="entity_Usuario"><ellipse cx="148.6821" cy="14" fill="#F1F1F1" rx="8" ry="8" style="stroke:#181818;stroke-width:0.5;"/><path d="M148.6821,22 L148.6821,49 M135.6821,30 L161.6821,30 M148.6821,49 L135.6821,64 M148.6821,49 L161.6821,64" fill="none" style="stroke:#181818;stroke-width:0.5;"/><text fill="#000000" font-family="sans-serif" font-size="14" lengthAdjust="spacing" textLength="53.2041" x="122.08" y="78.4951">Usuario</text></g><!--entity UsuarioInvitado--><g class="entity" data-entity="UsuarioInvitado" data-source-line="4" data-uid="ent0003" id="entity_UsuarioInvitado"><ellipse cx="227.6862" cy="150.3" fill="#F1F1F1" rx="8" ry="8" style="stroke:#181818;stroke-width:0.5;"/><path d="M227.6862,158.3 L227.6862,185.3 M214.6862,166.3 L240.6862,166.3 M227.6862,185.3 L214.6862,200.3 M227.6862,185.3 L240.6862,200.3" fill="none" style="stroke:#181818;stroke-width:0.5;"/><text fill="#000000" font-family="sans-serif" font-size="14" lengthAdjust="spacing" textLength="114.1123" x="170.63" y="214.7951">Usuario invitado</text></g><!--entity UsuarioRegistrado--><g class="entity" data-entity="UsuarioRegistrado" data-source-line="5" data-uid="ent0004" id="entity_UsuarioRegistrado"><ellipse cx="70.6851" cy="150.3" fill="#F1F1F1" rx="8" ry="8" style="stroke:#181818;stroke-width:0.5;"/><path d="M70.6851,158.3 L70.6851,185.3 M57.6851,166.3 L83.6851,166.3 M70.6851,185.3 L57.6851,200.3 M70.6851,185.3 L83.6851,200.3" fill="none" style="stroke:#181818;stroke-width:0.5;"/><text fill="#000000" font-family="sans-serif" font-size="14" lengthAdjust="spacing" textLength="129.3701" x="6" y="214.7951">Usuario registrado</text></g><!--entity Moderador--><g class="entity" data-entity="Moderador" data-source-line="6" data-uid="ent0005" id="entity_Moderador"><ellipse cx="70.6838" cy="286.59" fill="#F1F1F1" rx="8" ry="8" style="stroke:#181818;stroke-width:0.5;"/><path d="M70.6838,294.59 L70.6838,321.59 M57.6838,302.59 L83.6838,302.59 M70.6838,321.59 L57.6838,336.59 M70.6838,321.59 L83.6838,336.59" fill="none" style="stroke:#181818;stroke-width:0.5;"/><text fill="#000000" font-family="sans-serif" font-size="14" lengthAdjust="spacing" textLength="75.6875" x="32.84" y="351.0851">Moderador</text></g><!--reverse link Usuario to UsuarioInvitado--><g class="link" data-entity-1="Usuario" data-entity-2="UsuarioInvitado" data-source-line="8" data-uid="lnk7" id="link_Usuario_UsuarioInvitado"><path d="M179.8207,97.5722 C190.7807,116.1922 194.86,123.14 205.8,141.74" fill="none" id="Usuario-backto-UsuarioInvitado" style="stroke:#181818;stroke-width:1;"/><polygon fill="none" points="170.69,82.06,174.65,100.6158,184.9915,94.5287,170.69,82.06" style="stroke:#181818;stroke-width:1;"/></g><!--reverse link Usuario to UsuarioRegistrado--><g class="link" data-entity-1="Usuario" data-entity-2="UsuarioRegistrado" data-source-line="9" data-uid="lnk9" id="link_Usuario_UsuarioRegistrado"><path d="M117.9163,97.6232 C107.0963,116.2432 103.1,123.14 92.3,141.74" fill="none" id="Usuario-backto-UsuarioRegistrado" style="stroke:#181818;stroke-width:1;"/><polygon fill="none" points="126.96,82.06,112.7286,94.6086,123.104,100.6377,126.96,82.06" style="stroke:#181818;stroke-width:1;"/></g><!--reverse link UsuarioRegistrado to Moderador--><g class="link" data-entity-1="UsuarioRegistrado" data-entity-2="Moderador" data-source-line="10" data-uid="lnk11" id="link_UsuarioRegistrado_Moderador"><path d="M70.69,236.35 C70.69,254.98 70.69,259.43 70.69,278.03" fill="none" id="UsuarioRegistrado-backto-Moderador" style="stroke:#181818;stroke-width:1;"/><polygon fill="none" points="70.69,218.35,64.69,236.35,76.69,236.35,70.69,218.35" style="stroke:#181818;stroke-width:1;"/></g><!--SRC=[POun2e0m34NtdYAuUmN1qS55y03L5icWNzBevE55g1NY-7_UVqInau8cg6Abm19dPMpEjRD2Q4o75qPELOx4sydg0ohowMMwt5bMui99nT13QJFV8yGdYdD6IFMnrrTJVlaPB51Kvl0jRW00]--></g></svg>