<svg xmlns="http://www.w3.org/2000/svg" xmlns:xlink="http://www.w3.org/1999/xlink" contentStyleType="text/css" data-diagram-type="STATE" height="397px" preserveAspectRatio="none" style="width:357px;height:397px;background:#FFFFFF;" version="1.1" viewBox="0 0 357 397" width="357px" zoomAndPan="magnify"><defs/><g><ellipse cx="210.02" cy="16" fill="#222222" rx="10" ry="10" style="stroke:#222222;stroke-width:1;"/><g id="Usuario"><rect fill="#F1F1F1" height="50.2656" rx="12.5" ry="12.5" style="stroke:#181818;stroke-width:0.5;" width="131.2402" x="144.4" y="87"/><line style="stroke:#181818;stroke-width:0.5;" x1="144.4" x2="275.6402" y1="113.2969" y2="113.2969"/><text fill="#000000" font-family="sans-serif" font-size="14" lengthAdjust="spacing" textLength="53.2041" x="183.4181" y="104.9951">Usuario</text><text fill="#000000" font-family="sans-serif" font-size="12" lengthAdjust="spacing" textLength="111.2402" x="149.4" y="129.4355">Estado del usuario</text></g><g id="Alta"><rect fill="#F1F1F1" height="50.2656" rx="12.5" ry="12.5" style="stroke:#181818;stroke-width:0.5;" width="105.8516" x="74.09" y="214.27"/><line style="stroke:#181818;stroke-width:0.5;" x1="74.09" x2="179.9416" y1="240.5669" y2="240.5669"/><text fill="#000000" font-family="sans-serif" font-size="14" lengthAdjust="spacing" textLength="27.5352" x="113.2482" y="232.2651">Alta</text><text fill="#000000" font-family="sans-serif" font-size="12" lengthAdjust="spacing" textLength="85.8516" x="79.09" y="256.7055">Usuario activo</text></g><g id="NoAlta"><rect fill="#F1F1F1" height="50.2656" rx="12.5" ry="12.5" style="stroke:#181818;stroke-width:0.5;" width="116.791" x="214.62" y="214.27"/><line style="stroke:#181818;stroke-width:0.5;" x1="214.62" x2="331.411" y1="240.5669" y2="240.5669"/><text fill="#000000" font-family="sans-serif" font-size="14" lengthAdjust="spacing" textLength="46.5732" x="249.7289" y="232.2651">NoAlta</text><text fill="#000000" font-family="sans-serif" font-size="12" lengthAdjust="spacing" textLength="96.791" x="219.62" y="256.7055">Usuario inactivo</text></g><g id="Suspendido"><rect fill="#F1F1F1" height="50.2656" rx="12.5" ry="12.5" style="stroke:#181818;stroke-width:0.5;" width="240.0313" x="7" y="341.53"/><line style="stroke:#181818;stroke-width:0.5;" x1="7" x2="247.0313" y1="367.8269" y2="367.8269"/><text fill="#000000" font-family="sans-serif" font-size="14" lengthAdjust="spacing" textLength="81.6553" x="86.188" y="359.5251">Suspendido</text><text fill="#000000" font-family="sans-serif" font-size="12" lengthAdjust="spacing" textLength="220.0313" x="12" y="383.9655">Usuario suspendido indefinidamente</text></g><!--link *start* to Usuario--><g class="link" data-entity-1="*start*" data-entity-2="Usuario" data-source-line="1" data-uid="lnk4" id="link_*start*_Usuario"><path d="M210.02,26.37 C210.02,40.32 210.02,61.03 210.02,80.75" fill="none" id="*start*-to-Usuario" style="stroke:#181818;stroke-width:1;"/><polygon fill="#181818" points="210.02,86.75,214.02,77.75,210.02,81.75,206.02,77.75,210.02,86.75" style="stroke:#181818;stroke-width:1;"/></g><!--link Usuario to Alta--><g class="link" data-entity-1="Usuario" data-entity-2="Alta" data-source-line="3" data-uid="lnk6" id="link_Usuario_Alta"><path d="M171.68,137.64 C161.35,145.92 151.09,155.96 144.02,167.27 C135.26,181.26 131.8568,193.4501 129.7968,207.9001" fill="none" id="Usuario-to-Alta" style="stroke:#181818;stroke-width:1;"/><polygon fill="#181818" points="128.95,213.84,134.1802,205.4946,129.6557,208.89,126.2602,204.3656,128.95,213.84" style="stroke:#181818;stroke-width:1;"/><text fill="#000000" font-family="sans-serif" font-size="13" lengthAdjust="spacing" textLength="83.3384" x="145.02" y="180.3369">Dado de alta</text></g><!--link Usuario to NoAlta--><g class="link" data-entity-1="Usuario" data-entity-2="NoAlta" data-source-line="4" data-uid="lnk8" id="link_Usuario_NoAlta"><path d="M222.31,137.59 C233.41,159.66 246.9641,186.5998 258.0541,208.6498" fill="none" id="Usuario-to-NoAlta" style="stroke:#181818;stroke-width:1;"/><polygon fill="#181818" points="260.75,214.01,260.2796,204.1724,258.5034,209.5431,253.1326,207.7669,260.75,214.01" style="stroke:#181818;stroke-width:1;"/><text fill="#000000" font-family="sans-serif" font-size="13" lengthAdjust="spacing" textLength="103.3906" x="246.02" y="180.3369">No dado de alta</text></g><!--link Alta to Suspendido--><g class="link" data-entity-1="Alta" data-entity-2="Suspendido" data-source-line="7" data-uid="lnk10" id="link_Alta_Suspendido"><path d="M93.2,264.76 C84.29,273.09 75.82,283.21 71.02,294.53 C63.71,311.75 70.8063,324.3542 85.2963,337.1742" fill="none" id="Alta-to-Suspendido" style="stroke:#181818;stroke-width:1;"/><polygon fill="#181818" points="89.79,341.15,85.7,332.1905,86.0453,337.8369,80.399,338.1821,89.79,341.15" style="stroke:#181818;stroke-width:1;"/><text fill="#000000" font-family="sans-serif" font-size="13" lengthAdjust="spacing" textLength="64.0605" x="72.02" y="307.5969">Infracci&#243;n</text></g><!--link Suspendido to Alta--><g class="link" data-entity-1="Suspendido" data-entity-2="Alta" data-source-line="8" data-uid="lnk11" id="link_Suspendido_Alta"><path d="M135.82,341.11 C139.71,327.47 143,310.14 141.02,294.53 C139.77,284.71 138.8842,279.9043 136.3542,270.7243" fill="none" id="Suspendido-to-Alta" style="stroke:#181818;stroke-width:1;"/><polygon fill="#181818" points="134.76,264.94,133.295,274.6793,136.0885,269.7603,141.0075,272.5537,134.76,264.94" style="stroke:#181818;stroke-width:1;"/><text fill="#000000" font-family="sans-serif" font-size="13" lengthAdjust="spacing" textLength="96.313" x="143.02" y="307.5969">Fin suspensi&#243;n</text></g><!--SRC=[NOuz3i8m34RtdC8pKY_0W8G4I2nT41DYiE9KibGSL2Uz64VWOYGbfQ6JvUyz_zmsTsYQ7Lmrui3Ub0fRE6f0ya2kXxY2UM3V1qpMuUi0flQFjxuORUArLEBPHHjuzEQdppbB8LEUDrwYFfqGK_xkBDs0rlBx9QO2rMSd5j29wDfQhkWIif3hM9ZmuIIu3m00]--></g></svg>