<svg xmlns="http://www.w3.org/2000/svg" xmlns:xlink="http://www.w3.org/1999/xlink" contentStyleType="text/css" data-diagram-type="DESCRIPTION" height="478px" preserveAspectRatio="none" style="width:433px;height:478px;background:#FFFFFF;" version="1.1" viewBox="0 0 433 478" width="433px" zoomAndPan="magnify"><defs/><g><!--cluster Aplicacion--><g class="cluster" data-entity="Aplicacion" data-source-line="4" data-uid="ent0003" id="cluster_Aplicacion"><path d="M104.5,6 L186.3828,6 A3.75,3.75 0 0 1 188.8828,8.5 L195.8828,28.2969 L423.5,28.2969 A2.5,2.5 0 0 1 426,30.7969 L426,468.5 A2.5,2.5 0 0 1 423.5,471 L104.5,471 A2.5,2.5 0 0 1 102,468.5 L102,8.5 A2.5,2.5 0 0 1 104.5,6" fill="none" style="stroke:#000000;stroke-width:1.5;"/><line style="stroke:#000000;stroke-width:1.5;" x1="102" x2="195.8828" y1="28.2969" y2="28.2969"/><text fill="#000000" font-family="sans-serif" font-size="14" font-weight="bold" lengthAdjust="spacing" textLength="80.8828" x="106" y="20.9951">Aplicacion</text></g><!--cluster publicaciones--><g class="cluster" data-entity="publicaciones" data-source-line="6" data-uid="ent0004" id="cluster_publicaciones"><path d="M128.5,49 L237.3643,49 A3.75,3.75 0 0 1 239.8643,51.5 L246.8643,71.2969 L399.5,71.2969 A2.5,2.5 0 0 1 402,73.7969 L402,382.5 A2.5,2.5 0 0 1 399.5,385 L128.5,385 A2.5,2.5 0 0 1 126,382.5 L126,51.5 A2.5,2.5 0 0 1 128.5,49" fill="none" style="stroke:#000000;stroke-width:1.5;"/><line style="stroke:#000000;stroke-width:1.5;" x1="126" x2="246.8643" y1="71.2969" y2="71.2969"/><text fill="#000000" font-family="sans-serif" font-size="14" font-weight="bold" lengthAdjust="spacing" textLength="107.8643" x="130" y="63.9951">publicaciones</text></g><g class="entity" data-entity="UC7" data-source-line="12" data-uid="ent0009" id="entity_UC7"><ellipse cx="264.1384" cy="428.8277" fill="#F1F1F1" rx="114.6384" ry="25.3277" style="stroke:#181818;stroke-width:0.5;"/><text fill="#000000" font-family="sans-serif" font-size="14" lengthAdjust="spacing" textLength="195.877" x="166.1999" y="431.6744">Salir de Vista de moderador</text></g><g class="entity" data-entity="UC4" data-source-line="7" data-uid="ent0005" id="entity_UC4"><ellipse cx="263.9086" cy="110.7817" fill="#F1F1F1" rx="121.9086" ry="26.7817" style="stroke:#181818;stroke-width:0.5;"/><text fill="#000000" font-family="sans-serif" font-size="14" lengthAdjust="spacing" textLength="211.4219" x="158.1977" y="113.6284">Revisar reportes de contenido</text></g><g class="entity" data-entity="UC1" data-source-line="8" data-uid="ent0006" id="entity_UC1"><ellipse cx="264.1666" cy="194.8333" fill="#F1F1F1" rx="94.6666" ry="21.3333" style="stroke:#181818;stroke-width:0.5;"/><text fill="#000000" font-family="sans-serif" font-size="14" lengthAdjust="spacing" textLength="152.2295" x="188.0518" y="197.68">Revisar publicaciones</text></g><g class="entity" data-entity="UC6" data-source-line="9" data-uid="ent0007" id="entity_UC6"><ellipse cx="263.8023" cy="272.0605" fill="#F1F1F1" rx="90.8023" ry="20.5605" style="stroke:#181818;stroke-width:0.5;"/><text fill="#000000" font-family="sans-serif" font-size="14" lengthAdjust="spacing" textLength="143.5547" x="192.0249" y="274.9071">Revisar comentarios</text></g><g class="entity" data-entity="UC2" data-source-line="10" data-uid="ent0008" id="entity_UC2"><ellipse cx="263.9104" cy="347.8821" fill="#F1F1F1" rx="89.9104" ry="20.3821" style="stroke:#181818;stroke-width:0.5;"/><text fill="#000000" font-family="sans-serif" font-size="14" lengthAdjust="spacing" textLength="141.5381" x="193.1413" y="350.7288">Eliminar publicaci&#243;n</text></g><!--entity Moderador--><g class="entity" data-entity="Moderador" data-source-line="2" data-uid="ent0002" id="entity_Moderador"><ellipse cx="43.8438" cy="242.5" fill="#F1F1F1" rx="8" ry="8" style="stroke:#181818;stroke-width:0.5;"/><path d="M43.8438,250.5 L43.8438,277.5 M30.8438,258.5 L56.8438,258.5 M43.8438,277.5 L30.8438,292.5 M43.8438,277.5 L56.8438,292.5" fill="none" style="stroke:#181818;stroke-width:0.5;"/><text fill="#000000" font-family="sans-serif" font-size="14" lengthAdjust="spacing" textLength="75.6875" x="6" y="306.9951">Moderador</text></g><!--link Moderador to UC1--><g class="link" data-entity-1="Moderador" data-entity-2="UC1" data-source-line="15" data-uid="lnk10" id="link_Moderador_UC1"><path d="M82.19,240.62 C86.05,238.15 90.01,235.89 94,234 C121.61,220.89 148.0112,213.2498 176.9212,207.3498" fill="none" id="Moderador-to-UC1" style="stroke:#181818;stroke-width:1;"/><polygon fill="#181818" points="182.8,206.15,173.1819,204.0304,177.901,207.1498,174.7816,211.8689,182.8,206.15" style="stroke:#181818;stroke-width:1;"/></g><!--link Moderador to UC2--><g class="link" data-entity-1="Moderador" data-entity-2="UC2" data-source-line="16" data-uid="lnk11" id="link_Moderador_UC2"><path d="M82.18,303.41 C86.04,305.86 90.01,308.12 94,310 C122.43,323.4 149.919,331.0517 179.469,336.7617" fill="none" id="Moderador-to-UC2" style="stroke:#181818;stroke-width:1;"/><polygon fill="#181818" points="185.36,337.9,177.2823,332.2651,180.4508,336.9514,175.7646,340.1199,185.36,337.9" style="stroke:#181818;stroke-width:1;"/></g><!--link Moderador to UC4--><g class="link" data-entity-1="Moderador" data-entity-2="UC4" data-source-line="17" data-uid="lnk12" id="link_Moderador_UC4"><path d="M51.98,233.95 C58.59,208.42 71.07,175.94 94,156 C111.53,140.76 127.9236,132.336 150.3636,125.596" fill="none" id="Moderador-to-UC4" style="stroke:#181818;stroke-width:1;"/><polygon fill="#181818" points="156.11,123.87,146.3398,122.628,151.3213,125.3083,148.6411,130.2899,156.11,123.87" style="stroke:#181818;stroke-width:1;"/></g><!--link Moderador to UC6--><g class="link" data-entity-1="Moderador" data-entity-2="UC6" data-source-line="18" data-uid="lnk13" id="link_Moderador_UC6"><path d="M82.48,272 C107.31,272 135.01,272 166.58,272" fill="none" id="Moderador-to-UC6" style="stroke:#181818;stroke-width:1;"/><polygon fill="#181818" points="172.58,272,163.58,268,167.58,272,163.58,276,172.58,272" style="stroke:#181818;stroke-width:1;"/></g><!--link Moderador to UC7--><g class="link" data-entity-1="Moderador" data-entity-2="UC7" data-source-line="19" data-uid="lnk14" id="link_Moderador_UC7"><path d="M52.5,310.2 C59.28,334.92 71.75,365.95 94,385 C112.77,401.07 130.9241,409.7815 154.8541,416.3515" fill="none" id="Moderador-to-UC7" style="stroke:#181818;stroke-width:1;"/><polygon fill="#181818" points="160.64,417.94,153.0202,411.7,155.8184,416.6162,150.9021,419.4145,160.64,417.94" style="stroke:#181818;stroke-width:1;"/></g><!--SRC=[TP2nYW9H34NxV4Mmjr14Eq5aInj5-_XULiFEl0nvqKRyAZ_17zCPPcHrC5MuzznmIS6_ZgveSZWwHZ4EBfg0WglXIYCRHJM0Yi8V7HWNLI61mfEv0E1pEgCwxJk7ywMnwZbb3fGP1si-IoP3uqhDEMDa39gSaqGT86NSBYVVOs_dMtpq7GzQSd8oqGwUzk6VGaf9_u_VRwd5nmr-XHUyeKAiBhsJx5GlPVUTDZA3Ay3hPJWSpfkEdygufqnwohIdp1u0]--></g></svg>