<svg xmlns="http://www.w3.org/2000/svg" xmlns:xlink="http://www.w3.org/1999/xlink" contentStyleType="text/css" data-diagram-type="DESCRIPTION" height="479px" preserveAspectRatio="none" style="width:434px;height:479px;background:#FFFFFF;" version="1.1" viewBox="0 0 434 479" width="434px" zoomAndPan="magnify"><defs/><g><!--cluster Aplicacion--><g class="cluster" data-entity="Aplicacion" data-source-line="4" data-uid="ent0003" id="cluster_Aplicacion"><path d="M120.5,6 L202.3828,6 A3.75,3.75 0 0 1 204.8828,8.5 L211.8828,28.2969 L424.5,28.2969 A2.5,2.5 0 0 1 427,30.7969 L427,469.5 A2.5,2.5 0 0 1 424.5,472 L120.5,472 A2.5,2.5 0 0 1 118,469.5 L118,8.5 A2.5,2.5 0 0 1 120.5,6" fill="none" style="stroke:#000000;stroke-width:1.5;"/><line style="stroke:#000000;stroke-width:1.5;" x1="118" x2="211.8828" y1="28.2969" y2="28.2969"/><text fill="#000000" font-family="sans-serif" font-size="14" font-weight="bold" lengthAdjust="spacing" textLength="80.8828" x="122" y="20.9951">Aplicacion</text></g><!--cluster Usuarios--><g class="cluster" data-entity="Usuarios" data-source-line="10" data-uid="ent0006" id="cluster_Usuarios"><path d="M167.5,207 L237.2695,207 A3.75,3.75 0 0 1 239.7695,209.5 L246.7695,229.2969 L377.5,229.2969 A2.5,2.5 0 0 1 380,231.7969 L380,445.5 A2.5,2.5 0 0 1 377.5,448 L167.5,448 A2.5,2.5 0 0 1 165,445.5 L165,209.5 A2.5,2.5 0 0 1 167.5,207" fill="none" style="stroke:#000000;stroke-width:1.5;"/><line style="stroke:#000000;stroke-width:1.5;" x1="165" x2="246.7695" y1="229.2969" y2="229.2969"/><text fill="#000000" font-family="sans-serif" font-size="14" font-weight="bold" lengthAdjust="spacing" textLength="68.7695" x="169" y="221.9951">Usuarios</text></g><g class="entity" data-entity="UC7" data-source-line="7" data-uid="ent0004" id="entity_UC7"><ellipse cx="272.5885" cy="78.0177" fill="#F1F1F1" rx="130.5885" ry="28.5177" style="stroke:#181818;stroke-width:0.5;"/><text fill="#000000" font-family="sans-serif" font-size="14" lengthAdjust="spacing" textLength="229.8174" x="157.6799" y="80.8644">Bloquear palabras o expresiones</text></g><g class="entity" data-entity="UC9" data-source-line="8" data-uid="ent0005" id="entity_UC9"><ellipse cx="272.5161" cy="161.9032" fill="#F1F1F1" rx="90.0161" ry="20.4032" style="stroke:#181818;stroke-width:0.5;"/><text fill="#000000" font-family="sans-serif" font-size="14" lengthAdjust="spacing" textLength="141.7773" x="201.6274" y="164.7499">Eliminar Comunidad</text></g><g class="entity" data-entity="UC5" data-source-line="11" data-uid="ent0007" id="entity_UC5"><ellipse cx="272.7021" cy="262.0404" fill="#F1F1F1" rx="85.7021" ry="19.5404" style="stroke:#181818;stroke-width:0.5;"/><text fill="#000000" font-family="sans-serif" font-size="14" lengthAdjust="spacing" textLength="131.9404" x="206.7319" y="264.8871">Enviar advertencia</text></g><g class="entity" data-entity="UC3" data-source-line="12" data-uid="ent0008" id="entity_UC3"><ellipse cx="272.2771" cy="335.9554" fill="#F1F1F1" rx="85.2771" ry="19.4554" style="stroke:#181818;stroke-width:0.5;"/><text fill="#000000" font-family="sans-serif" font-size="14" lengthAdjust="spacing" textLength="130.9629" x="206.7957" y="338.8021">Suspender usuario</text></g><g class="entity" data-entity="UC8" data-source-line="13" data-uid="ent0009" id="entity_UC8"><ellipse cx="272.4509" cy="411.1902" fill="#F1F1F1" rx="91.4509" ry="20.6902" style="stroke:#181818;stroke-width:0.5;"/><text fill="#000000" font-family="sans-serif" font-size="14" lengthAdjust="spacing" textLength="145.0176" x="199.9421" y="414.0369">Desbloquear usuario</text></g><!--entity Moderador--><g class="entity" data-entity="Moderador" data-source-line="2" data-uid="ent0002" id="entity_Moderador"><ellipse cx="43.8438" cy="232.5" fill="#F1F1F1" rx="8" ry="8" style="stroke:#181818;stroke-width:0.5;"/><path d="M43.8438,240.5 L43.8438,267.5 M30.8438,248.5 L56.8438,248.5 M43.8438,267.5 L30.8438,282.5 M43.8438,267.5 L56.8438,282.5" fill="none" style="stroke:#181818;stroke-width:0.5;"/><text fill="#000000" font-family="sans-serif" font-size="14" lengthAdjust="spacing" textLength="75.6875" x="6" y="296.9951">Moderador</text></g><!--link Moderador to UC3--><g class="link" data-entity-1="Moderador" data-entity-2="UC3" data-source-line="17" data-uid="lnk10" id="link_Moderador_UC3"><path d="M82.23,285.65 C91.09,290.58 100.68,295.37 110,299 C139.35,310.43 167.26,317.6562 196.32,323.5562" fill="none" id="Moderador-to-UC3" style="stroke:#181818;stroke-width:1;"/><polygon fill="#181818" points="202.2,324.75,194.1758,319.0393,197.3,323.7552,192.5841,326.8793,202.2,324.75" style="stroke:#181818;stroke-width:1;"/></g><!--link Moderador to UC5--><g class="link" data-entity-1="Moderador" data-entity-2="UC5" data-source-line="18" data-uid="lnk11" id="link_Moderador_UC5"><path d="M82.15,262 C110.51,262 144.73,262 180.81,262" fill="none" id="Moderador-to-UC5" style="stroke:#181818;stroke-width:1;"/><polygon fill="#181818" points="186.81,262,177.81,258,181.81,262,177.81,266,186.81,262" style="stroke:#181818;stroke-width:1;"/></g><!--link Moderador to UC7--><g class="link" data-entity-1="Moderador" data-entity-2="UC7" data-source-line="19" data-uid="lnk12" id="link_Moderador_UC7"><path d="M53.63,223.84 C62.61,192.67 79.72,149.71 110,124 C125.78,110.6 139.548,103.0274 159.418,96.2874" fill="none" id="Moderador-to-UC7" style="stroke:#181818;stroke-width:1;"/><polygon fill="#181818" points="165.1,94.36,155.2921,93.463,160.365,95.9661,157.8619,101.0391,165.1,94.36" style="stroke:#181818;stroke-width:1;"/></g><!--link Moderador to UC8--><g class="link" data-entity-1="Moderador" data-entity-2="UC8" data-source-line="20" data-uid="lnk13" id="link_Moderador_UC8"><path d="M58.24,300.14 C68.63,324.54 85.48,354.89 110,373 C132.01,389.26 154.0526,397.4733 180.4526,402.8933" fill="none" id="Moderador-to-UC8" style="stroke:#181818;stroke-width:1;"/><polygon fill="#181818" points="186.33,404.1,178.3183,398.3717,181.4322,403.0945,176.7094,406.2083,186.33,404.1" style="stroke:#181818;stroke-width:1;"/></g><!--link Moderador to UC9--><g class="link" data-entity-1="Moderador" data-entity-2="UC9" data-source-line="21" data-uid="lnk14" id="link_Moderador_UC9"><path d="M82.04,240.41 C91.07,235.45 100.79,230.35 110,226 C147.22,208.41 185.0359,193.4702 217.4859,181.4102" fill="none" id="Moderador-to-UC9" style="stroke:#181818;stroke-width:1;"/><polygon fill="#181818" points="223.11,179.32,213.2803,178.7059,218.4232,181.0618,216.0673,186.2047,223.11,179.32" style="stroke:#181818;stroke-width:1;"/></g><!--SRC=[RP2nJaCn34LtVuNLlHEgsYv8K3eoeNw0cvXNYpGEJb8XLVrtegSK2KB6etDlR0T-BrWKJQPJGI_6heX685VKy5Kz6tarW4JkWoR6fnJ4aMlE5Q3enEN4TWNihsPsb1aNpq4_AvDXea17euoA_9MCSujoNc0ZXzrw3Ew3d2Msu4xFDOedtztjxDu0xwCSSYKJpV_yleyNQHNaBso5enFg9QlHVQivSMoBDZGNTlLXL5yu7-zx_POtVRWRmC_HSBbyd7l-ajL0rWFP36Jx3G00]--></g></svg>
