<svg xmlns="http://www.w3.org/2000/svg" xmlns:xlink="http://www.w3.org/1999/xlink" contentStyleType="text/css" data-diagram-type="STATE" height="524px" preserveAspectRatio="none" style="width:1444px;height:524px;background:#FFFFFF;" version="1.1" viewBox="0 0 1444 524" width="1444px" zoomAndPan="magnify"><defs/><g><ellipse cx="477" cy="16" fill="#222222" rx="10" ry="10" style="stroke:#222222;stroke-width:1;"/><g id="Inicio"><rect fill="#F1F1F1" height="50" rx="12.5" ry="12.5" style="stroke:#181818;stroke-width:0.5;" width="57.0439" x="448.48" y="87"/><line style="stroke:#181818;stroke-width:0.5;" x1="448.48" x2="505.5239" y1="113.2969" y2="113.2969"/><text fill="#000000" font-family="sans-serif" font-size="14" lengthAdjust="spacing" textLength="37.0439" x="458.48" y="104.9951">Inicio</text></g><g id="Usuario"><rect fill="#F1F1F1" height="50" rx="12.5" ry="12.5" style="stroke:#181818;stroke-width:0.5;" width="73.2041" x="348.4" y="214"/><line style="stroke:#181818;stroke-width:0.5;" x1="348.4" x2="421.6041" y1="240.2969" y2="240.2969"/><text fill="#000000" font-family="sans-serif" font-size="14" lengthAdjust="spacing" textLength="53.2041" x="358.4" y="231.9951">Usuario</text></g><g id="Moderador"><rect fill="#F1F1F1" height="50" rx="12.5" ry="12.5" style="stroke:#181818;stroke-width:0.5;" width="95.6875" x="522.16" y="341"/><line style="stroke:#181818;stroke-width:0.5;" x1="522.16" x2="617.8475" y1="367.2969" y2="367.2969"/><text fill="#000000" font-family="sans-serif" font-size="14" lengthAdjust="spacing" textLength="75.6875" x="532.16" y="358.9951">Moderador</text></g><g id="Publicaciones"><rect fill="#F1F1F1" height="50" rx="12.5" ry="12.5" style="stroke:#181818;stroke-width:0.5;" width="115.1904" x="1192.4" y="468"/><line style="stroke:#181818;stroke-width:0.5;" x1="1192.4" x2="1307.5904" y1="494.2969" y2="494.2969"/><text fill="#000000" font-family="sans-serif" font-size="14" lengthAdjust="spacing" textLength="95.1904" x="1202.4" y="485.9951">Publicaciones</text></g><g id="Reportes"><rect fill="#F1F1F1" height="50" rx="12.5" ry="12.5" style="stroke:#181818;stroke-width:0.5;" width="82.9453" x="290.53" y="468"/><line style="stroke:#181818;stroke-width:0.5;" x1="290.53" x2="373.4753" y1="494.2969" y2="494.2969"/><text fill="#000000" font-family="sans-serif" font-size="14" lengthAdjust="spacing" textLength="62.9453" x="300.53" y="485.9951">Reportes</text></g><g id="Usuarios"><rect fill="#F1F1F1" height="50" rx="12.5" ry="12.5" style="stroke:#181818;stroke-width:0.5;" width="80.498" x="529.75" y="468"/><line style="stroke:#181818;stroke-width:0.5;" x1="529.75" x2="610.248" y1="494.2969" y2="494.2969"/><text fill="#000000" font-family="sans-serif" font-size="14" lengthAdjust="spacing" textLength="60.498" x="539.75" y="485.9951">Usuarios</text></g><g id="Aplicacion"><rect fill="#F1F1F1" height="50" rx="12.5" ry="12.5" style="stroke:#181818;stroke-width:0.5;" width="91.5449" x="778.23" y="468"/><line style="stroke:#181818;stroke-width:0.5;" x1="778.23" x2="869.7749" y1="494.2969" y2="494.2969"/><text fill="#000000" font-family="sans-serif" font-size="14" lengthAdjust="spacing" textLength="71.5449" x="788.23" y="485.9951">Aplicacion</text></g><g id="Comunidades"><rect fill="#F1F1F1" height="50" rx="12.5" ry="12.5" style="stroke:#181818;stroke-width:0.5;" width="115.874" x="1021.06" y="468"/><line style="stroke:#181818;stroke-width:0.5;" x1="1021.06" x2="1136.934" y1="494.2969" y2="494.2969"/><text fill="#000000" font-family="sans-serif" font-size="14" lengthAdjust="spacing" textLength="95.874" x="1031.06" y="485.9951">Comunidades</text></g><ellipse cx="17" cy="493" fill="none" rx="11" ry="11" style="stroke:#222222;stroke-width:1;"/><ellipse cx="17" cy="493" fill="#222222" rx="6" ry="6" style="stroke:#222222;stroke-width:1;"/><!--link *start* to Inicio--><g class="link" data-entity-1="*start*" data-entity-2="Inicio" data-source-line="1" data-uid="lnk4" id="link_*start*_Inicio"><path d="M477,26.36 C477,40.29 477,60.95 477,80.65" fill="none" id="*start*-to-Inicio" style="stroke:#181818;stroke-width:1;"/><polygon fill="#181818" points="477,86.65,481,77.65,477,81.65,473,77.65,477,86.65" style="stroke:#181818;stroke-width:1;"/></g><!--link Inicio to Usuario--><g class="link" data-entity-1="Inicio" data-entity-2="Usuario" data-source-line="2" data-uid="lnk6" id="link_Inicio_Usuario"><path d="M447.98,124.22 C429.4,132.98 406.51,147.05 394,167 C385.35,180.79 383.2165,193.06 383.1765,207.61" fill="none" id="Inicio-to-Usuario" style="stroke:#181818;stroke-width:1;"/><polygon fill="#181818" points="383.16,213.61,387.1847,204.621,383.1737,208.61,379.1848,204.599,383.16,213.61" style="stroke:#181818;stroke-width:1;"/><text fill="#000000" font-family="sans-serif" font-size="13" lengthAdjust="spacing" textLength="148.478" x="395" y="180.0669">Elegir perfil de Usuario</text></g><!--link Inicio to Moderador--><g class="link" data-entity-1="Inicio" data-entity-2="Moderador" data-source-line="3" data-uid="lnk8" id="link_Inicio_Moderador"><path d="M505.89,127.5 C521.03,136.68 538.38,150.02 548,167 C579.55,222.67 577.5747,295.3086 573.7247,334.6286" fill="none" id="Inicio-to-Moderador" style="stroke:#181818;stroke-width:1;"/><polygon fill="#181818" points="573.14,340.6,577.998,332.0326,573.6272,335.6238,570.0361,331.253,573.14,340.6" style="stroke:#181818;stroke-width:1;"/><text fill="#000000" font-family="sans-serif" font-size="13" lengthAdjust="spacing" textLength="169.3555" x="574" y="243.5669">Elegir perfil de Moderador</text></g><!--link Usuario to Moderador--><g class="link" data-entity-1="Usuario" data-entity-2="Moderador" data-source-line="5" data-uid="lnk9" id="link_Usuario_Moderador"><path d="M376.75,264.34 C373.32,279.24 372.13,297.89 382,311 C398.86,333.38 466.1655,348.3308 516.0955,356.8508" fill="none" id="Usuario-to-Moderador" style="stroke:#181818;stroke-width:1;"/><polygon fill="#181818" points="522.01,357.86,513.8111,352.4031,517.0812,357.019,512.4654,360.2891,522.01,357.86" style="stroke:#181818;stroke-width:1;"/><text fill="#000000" font-family="sans-serif" font-size="13" lengthAdjust="spacing" textLength="160.4941" x="383" y="307.0669">Cambiando a Moderador</text></g><!--link Moderador to Publicaciones--><g class="link" data-entity-1="Moderador" data-entity-2="Publicaciones" data-source-line="7" data-uid="lnk11" id="link_Moderador_Publicaciones"><path d="M618.3,366.88 C744.93,367.25 1083.61,372.85 1183,421 C1204.2,431.27 1218.5635,446.4951 1230.5235,462.6751" fill="none" id="Moderador-to-Publicaciones" style="stroke:#181818;stroke-width:1;"/><polygon fill="#181818" points="1234.09,467.5,1231.9569,457.8849,1231.1179,463.4792,1225.5236,462.6403,1234.09,467.5" style="stroke:#181818;stroke-width:1;"/><text fill="#000000" font-family="sans-serif" font-size="13" lengthAdjust="spacing" textLength="229.9248" x="1207" y="434.0669">Eliminar posts\Revisar comentarios</text></g><!--link Moderador to Reportes--><g class="link" data-entity-1="Moderador" data-entity-2="Reportes" data-source-line="8" data-uid="lnk13" id="link_Moderador_Reportes"><path d="M522.05,367.5 C475.63,370.46 405.88,381.8 361,421 C347.36,432.91 341.4896,446.3903 337.6096,461.8603" fill="none" id="Moderador-to-Reportes" style="stroke:#181818;stroke-width:1;"/><polygon fill="#181818" points="336.15,467.68,342.2193,459.9235,337.3664,462.8302,334.4596,457.9773,336.15,467.68" style="stroke:#181818;stroke-width:1;"/><text fill="#000000" font-family="sans-serif" font-size="13" lengthAdjust="spacing" textLength="196.5679" x="362" y="434.0669">Revisar reportes\de contenido</text></g><!--link Moderador to Usuarios--><g class="link" data-entity-1="Moderador" data-entity-2="Usuarios" data-source-line="9" data-uid="lnk15" id="link_Moderador_Usuarios"><path d="M568.35,391.45 C567.81,400.7 567.27,411.33 567,421 C566.57,436.54 566.9231,447.9912 567.7631,461.7012" fill="none" id="Moderador-to-Usuarios" style="stroke:#181818;stroke-width:1;"/><polygon fill="#181818" points="568.13,467.69,571.5721,458.4622,567.8242,462.6994,563.5871,458.9515,568.13,467.69" style="stroke:#181818;stroke-width:1;"/><text fill="#000000" font-family="sans-serif" font-size="13" lengthAdjust="spacing" textLength="212.7417" x="568" y="434.0669">Suspender\Advertir\Desbloquear</text></g><!--link Moderador to Aplicacion--><g class="link" data-entity-1="Moderador" data-entity-2="Aplicacion" data-source-line="10" data-uid="lnk17" id="link_Moderador_Aplicacion"><path d="M617.9,368.25 C664.9,371.76 736.4,383.5 785,421 C800.14,432.69 808.0045,446.4061 814.1145,461.9461" fill="none" id="Moderador-to-Aplicacion" style="stroke:#181818;stroke-width:1;"/><polygon fill="#181818" points="816.31,467.53,816.7394,457.6905,814.4804,462.8768,809.2942,460.6178,816.31,467.53" style="stroke:#181818;stroke-width:1;"/><text fill="#000000" font-family="sans-serif" font-size="13" lengthAdjust="spacing" textLength="213.6494" x="801" y="434.0669">Bloquear palabras\o expresiones</text></g><!--link Moderador to Comunidades--><g class="link" data-entity-1="Moderador" data-entity-2="Comunidades" data-source-line="11" data-uid="lnk19" id="link_Moderador_Comunidades"><path d="M618.3,368.14 C720.43,371.3 954.51,382.62 1023,421 C1042.04,431.67 1053.8282,446.5319 1063.4482,462.6019" fill="none" id="Moderador-to-Comunidades" style="stroke:#181818;stroke-width:1;"/><polygon fill="#181818" points="1066.53,467.75,1065.3394,457.9734,1063.9618,463.4599,1058.4753,462.0824,1066.53,467.75" style="stroke:#181818;stroke-width:1;"/><text fill="#000000" font-family="sans-serif" font-size="13" lengthAdjust="spacing" textLength="129.7207" x="1045" y="434.0669">Eliminar comunidad</text></g><!--link Usuario to *end*--><g class="link" data-entity-1="Usuario" data-entity-2="*end*" data-source-line="13" data-uid="lnk21" id="link_Usuario_*end*"><path d="M348.13,253.42 C283.68,278.3 149.04,336.86 61,421 C41.71,439.44 29.8579,462.5676 23.3479,477.2076" fill="none" id="Usuario-to-*end*" style="stroke:#181818;stroke-width:1;"/><polygon fill="#181818" points="20.91,482.69,28.2217,476.0916,22.9416,478.1213,20.9119,472.8411,20.91,482.69" style="stroke:#181818;stroke-width:1;"/><text fill="#000000" font-family="sans-serif" font-size="13" lengthAdjust="spacing" textLength="244.0483" x="166" y="370.5669">Log out/Cambiar a UsuarioRegistrado</text></g><!--link Moderador to *end*--><g class="link" data-entity-1="Moderador" data-entity-2="*end*" data-source-line="14" data-uid="lnk22" id="link_Moderador_*end*"><path d="M521.87,370.78 C408.88,379.9 133.31,403.62 95,421 C62.98,435.52 38.7919,463.4548 26.8519,478.8848" fill="none" id="Moderador-to-*end*" style="stroke:#181818;stroke-width:1;"/><polygon fill="#181818" points="23.18,483.63,31.8514,478.9601,26.2399,479.6757,25.5244,474.0642,23.18,483.63" style="stroke:#181818;stroke-width:1;"/><text fill="#000000" font-family="sans-serif" font-size="13" lengthAdjust="spacing" textLength="244.0483" x="96" y="434.0669">Log out/Cambiar a UsuarioRegistrado</text></g><!--SRC=[ZP6nJWCn38RtUuhCI1Lx1wIsC221L1tgr33uBgQoT1S79wbuV7pN2xGH0rCI-__ysyxnxjsiLW_csLDFt5oEENA86KJlQ_Cqu8d419GF6ep3ahfMlx930SVob_udsJIbQitiOEm8l6C3r_9VoGJiSpTG3-hfCSv6D987jUAOehKjdYdgi-SHVPfyObMXnS2IPhY8PGbPgvtsx1DwSbnnIziJzvPZGAz9QpVkZ998RuyOku4_Cu9Kv2QKbfNTBXeJO81EG4tPu5SGZFDC5RlZCMipu6wdxKluTfr7_SgrUU6JuPpkBmiLNUUYQVLJOfgALox_vhu1]--></g></svg>