<svg xmlns="http://www.w3.org/2000/svg" xmlns:xlink="http://www.w3.org/1999/xlink" contentStyleType="text/css" data-diagram-type="DESCRIPTION" height="659px" preserveAspectRatio="none" style="width:443px;height:659px;background:#FFFFFF;" version="1.1" viewBox="0 0 443 659" width="443px" zoomAndPan="magnify"><defs/><g><!--cluster Aplicaci?n--><g class="cluster" data-entity="Aplicaci&#243;n" data-source-line="4" data-uid="ent0003" id="cluster_Aplicaci&#243;n"><rect fill="none" height="646" rx="2.5" ry="2.5" style="stroke:#181818;stroke-width:1;" width="252.08" x="185.89" y="7"/><text fill="#000000" font-family="sans-serif" font-size="14" font-weight="bold" lengthAdjust="spacing" textLength="80.8828" x="271.4886" y="21.9951">Aplicaci&#243;n</text></g><!--cluster Comunidad--><g class="cluster" data-entity="Comunidad" data-source-line="10" data-uid="ent0008" id="cluster_Comunidad"><rect fill="none" height="306" rx="2.5" ry="2.5" style="stroke:#181818;stroke-width:1;" width="201.52" x="211.17" y="323"/><text fill="#000000" font-family="sans-serif" font-size="14" font-weight="bold" lengthAdjust="spacing" textLength="88.7031" x="267.5784" y="337.9951">Comunidad</text></g><!--entity UC1--><g class="entity" data-entity="UC1" data-source-line="5" data-uid="ent0004" id="entity_UC1"><ellipse cx="311.9346" cy="292.0009" fill="#F1F1F1" rx="64.9046" ry="15.3809" style="stroke:#181818;stroke-width:0.5;"/><text fill="#000000" font-family="sans-serif" font-size="14" lengthAdjust="spacing" textLength="93.2148" x="265.3272" y="296.6494">Cerrar sesi&#243;n</text></g><!--entity UC12--><g class="entity" data-entity="UC12" data-source-line="6" data-uid="ent0005" id="entity_UC12"><ellipse cx="311.9298" cy="224" fill="#F1F1F1" rx="73.5998" ry="17.12" style="stroke:#181818;stroke-width:0.5;"/><text fill="#000000" font-family="sans-serif" font-size="14" lengthAdjust="spacing" textLength="115.3154" x="254.2721" y="228.6484">Filtrar contenido</text></g><!--entity UC13--><g class="entity" data-entity="UC13" data-source-line="7" data-uid="ent0006" id="entity_UC13"><ellipse cx="311.926" cy="148.9952" fill="#F1F1F1" rx="104.426" ry="23.2852" style="stroke:#181818;stroke-width:0.5;"/><text fill="#000000" font-family="sans-serif" font-size="14" lengthAdjust="spacing" textLength="185.7666" x="219.0427" y="153.6436">Modificar datos de usuario</text></g><!--entity UC14--><g class="entity" data-entity="UC14" data-source-line="8" data-uid="ent0007" id="entity_UC14"><ellipse cx="311.9281" cy="65.9976" fill="#F1F1F1" rx="110.0381" ry="24.4076" style="stroke:#181818;stroke-width:0.5;"/><text fill="#000000" font-family="sans-serif" font-size="14" lengthAdjust="spacing" textLength="197.9619" x="212.9471" y="70.6461">Entrar a vista de moderador</text></g><!--entity UC8--><g class="entity" data-entity="UC8" data-source-line="11" data-uid="ent0009" id="entity_UC8"><ellipse cx="311.928" cy="594.0036" fill="#F1F1F1" rx="83.418" ry="19.0836" style="stroke:#181818;stroke-width:0.5;"/><text fill="#000000" font-family="sans-serif" font-size="14" lengthAdjust="spacing" textLength="138.667" x="242.5945" y="598.652">Entrar a comunidad</text></g><!--entity UC9--><g class="entity" data-entity="UC9" data-source-line="12" data-uid="ent0010" id="entity_UC9"><ellipse cx="311.9269" cy="521.0034" fill="#F1F1F1" rx="81.9669" ry="18.7934" style="stroke:#181818;stroke-width:0.5;"/><text fill="#000000" font-family="sans-serif" font-size="14" lengthAdjust="spacing" textLength="135.29" x="244.2819" y="525.6518">Salir de comunidad</text></g><!--entity UC10--><g class="entity" data-entity="UC10" data-source-line="13" data-uid="ent0011" id="entity_UC10"><ellipse cx="311.928" cy="448.9956" fill="#F1F1F1" rx="76.728" ry="17.7456" style="stroke:#181818;stroke-width:0.5;"/><text fill="#000000" font-family="sans-serif" font-size="14" lengthAdjust="spacing" textLength="122.8965" x="250.4797" y="453.644">Crear Comunidad</text></g><!--entity UC11--><g class="entity" data-entity="UC11" data-source-line="14" data-uid="ent0012" id="entity_UC11"><ellipse cx="311.9326" cy="377.0025" fill="#F1F1F1" rx="84.7626" ry="19.3525" style="stroke:#181818;stroke-width:0.5;"/><text fill="#000000" font-family="sans-serif" font-size="14" lengthAdjust="spacing" textLength="141.7773" x="241.044" y="381.651">Eliminar Comunidad</text></g><!--entity Usuario_Registrado--><g class="entity" data-entity="Usuario_Registrado" data-source-line="2" data-uid="ent0002" id="entity_Usuario_Registrado"><ellipse cx="73.9458" cy="305.35" fill="#F1F1F1" rx="8" ry="8" style="stroke:#181818;stroke-width:0.5;"/><path d="M73.9458,313.35 L73.9458,340.35 M60.9458,321.35 L86.9458,321.35 M73.9458,340.35 L60.9458,355.35 M73.9458,340.35 L86.9458,355.35" fill="none" style="stroke:#181818;stroke-width:0.5;"/><text fill="#000000" font-family="sans-serif" font-size="14" lengthAdjust="spacing" textLength="135.8916" x="6" y="369.8451">Usuario_Registrado</text></g><!--link Usuario_Registrado to UC1--><g class="link" data-entity-1="Usuario_Registrado" data-entity-2="UC1" data-source-line="20" data-uid="lnk13" id="link_Usuario_Registrado_UC1"><path d="M142.25,322.74 C179.44,315.96 219.0272,308.7454 253.3872,302.4854" fill="none" id="Usuario_Registrado-to-UC1" style="stroke:#181818;stroke-width:1;"/><polygon fill="#181818" points="259.29,301.41,249.7188,299.0879,254.371,302.3062,251.1527,306.9584,259.29,301.41" style="stroke:#181818;stroke-width:1;"/></g><!--link Usuario_Registrado to UC8--><g class="link" data-entity-1="Usuario_Registrado" data-entity-2="UC8" data-source-line="21" data-uid="lnk14" id="link_Usuario_Registrado_UC8"><path d="M82.42,373.59 C94.08,423.3 121.38,509.02 177.89,557 C194.52,571.12 210.3311,578.3779 231.2911,583.7979" fill="none" id="Usuario_Registrado-to-UC8" style="stroke:#181818;stroke-width:1;"/><polygon fill="#181818" points="237.1,585.3,229.388,579.1742,232.2592,584.0482,227.3852,586.9194,237.1,585.3" style="stroke:#181818;stroke-width:1;"/></g><!--link Usuario_Registrado to UC9--><g class="link" data-entity-1="Usuario_Registrado" data-entity-2="UC9" data-source-line="22" data-uid="lnk15" id="link_Usuario_Registrado_UC9"><path d="M92,373.41 C109.02,407.39 138.32,455.83 177.89,484 C196.44,497.21 213.7317,504.2447 235.4517,509.7147" fill="none" id="Usuario_Registrado-to-UC9" style="stroke:#181818;stroke-width:1;"/><polygon fill="#181818" points="241.27,511.18,233.5194,505.1032,236.4214,509.9589,231.5656,512.8609,241.27,511.18" style="stroke:#181818;stroke-width:1;"/></g><!--link Usuario_Registrado to UC10--><g class="link" data-entity-1="Usuario_Registrado" data-entity-2="UC10" data-source-line="23" data-uid="lnk16" id="link_Usuario_Registrado_UC10"><path d="M116.98,373.35 C134.71,387.84 156.25,403.39 177.89,414 C200.3,424.99 220.7377,431.4736 243.9977,436.9136" fill="none" id="Usuario_Registrado-to-UC10" style="stroke:#181818;stroke-width:1;"/><polygon fill="#181818" points="249.84,438.28,241.9874,432.3355,244.9714,437.1413,240.1656,440.1253,249.84,438.28" style="stroke:#181818;stroke-width:1;"/></g><!--link Usuario_Registrado to UC11--><g class="link" data-entity-1="Usuario_Registrado" data-entity-2="UC11" data-source-line="24" data-uid="lnk17" id="link_Usuario_Registrado_UC11"><path d="M142.21,347.53 C154.09,349.71 166.35,351.94 177.89,354 C199,357.77 216.1074,360.7696 236.9674,364.3696" fill="none" id="Usuario_Registrado-to-UC11" style="stroke:#181818;stroke-width:1;"/><polygon fill="#181818" points="242.88,365.39,234.6914,359.9177,237.9528,364.5397,233.3308,367.8011,242.88,365.39" style="stroke:#181818;stroke-width:1;"/></g><!--link Usuario_Registrado to UC12--><g class="link" data-entity-1="Usuario_Registrado" data-entity-2="UC12" data-source-line="25" data-uid="lnk18" id="link_Usuario_Registrado_UC12"><path d="M119.45,296.4 C136.76,282.98 157.35,268.83 177.89,259 C201.16,247.86 222.6235,241.2386 246.4235,235.7486" fill="none" id="Usuario_Registrado-to-UC12" style="stroke:#181818;stroke-width:1;"/><polygon fill="#181818" points="252.27,234.4,242.6012,232.5253,247.3979,235.5238,244.3994,240.3206,252.27,234.4" style="stroke:#181818;stroke-width:1;"/></g><!--link Usuario_Registrado to UC13--><g class="link" data-entity-1="Usuario_Registrado" data-entity-2="UC13" data-source-line="26" data-uid="lnk19" id="link_Usuario_Registrado_UC13"><path d="M92.83,296.59 C110.14,263.47 139.39,216.74 177.89,189 C193.45,177.79 206.4512,171.5053 224.8812,165.6553" fill="none" id="Usuario_Registrado-to-UC13" style="stroke:#181818;stroke-width:1;"/><polygon fill="#181818" points="230.6,163.84,220.8116,162.7503,225.8343,165.3527,223.2319,170.3754,230.6,163.84" style="stroke:#181818;stroke-width:1;"/></g><!--link Usuario_Registrado to UC14--><g class="link" data-entity-1="Usuario_Registrado" data-entity-2="UC14" data-source-line="27" data-uid="lnk20" id="link_Usuario_Registrado_UC14"><path d="M82.23,296.72 C93.77,246.37 121.07,158.38 177.89,108 C191.39,96.03 202.6475,89.4824 219.8375,83.3624" fill="none" id="Usuario_Registrado-to-UC14" style="stroke:#181818;stroke-width:1;"/><polygon fill="#181818" points="225.49,81.35,215.6697,80.6003,220.7796,83.027,218.3529,88.1369,225.49,81.35" style="stroke:#181818;stroke-width:1;"/></g><!--SRC=[VP4zRiCm38LtdOBm7Y1kCYHBWS9ejYuDCXU4nBW4PAcWv2v1JzKZz6ALRBYeuny1ql8-FZwAbguHeWVX-Zs2OI4TsJk5Edg1IsXHsB-zKiqX2XglL2RGrPQWUFgmh57ppxShuAOWdJQGnf2qYaHG853ePGnmgSenSs8RCwIzY-JO-05x67Cltl0rTH8m67q0GqdhaWq5kt71i-jy4JvJRCnyumtb_39KxBkAxlatKUMRDWL1K_JZpBlgFwetEqpPCrgMtFYUFKxPIYZPLdTWkPr9OBbXDmUNwakfVAShWytciVlxHUcmB1rN3BShsagtjDrbRRUYxNy1]--></g></svg>