<svg xmlns="http://www.w3.org/2000/svg" xmlns:xlink="http://www.w3.org/1999/xlink" contentStyleType="text/css" data-diagram-type="DESCRIPTION" height="359px" preserveAspectRatio="none" style="width:291px;height:359px;background:#FFFFFF;" version="1.1" viewBox="0 0 291 359" width="291px" zoomAndPan="magnify"><defs/><g><!--entity Usuario--><g id="elem_Usuario"><ellipse cx="141.0521" cy="14" fill="#F1F1F1" rx="8" ry="8" style="stroke:#181818;stroke-width:0.5;"/><path d="M141.0521,22 L141.0521,49 M128.0521,30 L154.0521,30 M141.0521,49 L128.0521,64 M141.0521,49 L154.0521,64 " fill="#FFFFFF" fill-opacity="0.00000" style="stroke:#181818;stroke-width:0.5;"/><text fill="#000000" font-family="sans-serif" font-size="14" lengthAdjust="spacing" textLength="53.2041" x="114.45" y="78.4951">Usuario</text></g><!--entity UsuarioInvitado--><g id="elem_UsuarioInvitado"><ellipse cx="63.0562" cy="150.3" fill="#F1F1F1" rx="8" ry="8" style="stroke:#181818;stroke-width:0.5;"/><path d="M63.0562,158.3 L63.0562,185.3 M50.0562,166.3 L76.0562,166.3 M63.0562,185.3 L50.0562,200.3 M63.0562,185.3 L76.0562,200.3 " fill="#FFFFFF" fill-opacity="0.00000" style="stroke:#181818;stroke-width:0.5;"/><text fill="#000000" font-family="sans-serif" font-size="14" lengthAdjust="spacing" textLength="114.1123" x="6" y="214.7951">Usuario invitado</text></g><!--entity UsuarioRegistrado--><g id="elem_UsuarioRegistrado"><ellipse cx="220.0551" cy="150.3" fill="#F1F1F1" rx="8" ry="8" style="stroke:#181818;stroke-width:0.5;"/><path d="M220.0551,158.3 L220.0551,185.3 M207.0551,166.3 L233.0551,166.3 M220.0551,185.3 L207.0551,200.3 M220.0551,185.3 L233.0551,200.3 " fill="#FFFFFF" fill-opacity="0.00000" style="stroke:#181818;stroke-width:0.5;"/><text fill="#000000" font-family="sans-serif" font-size="14" lengthAdjust="spacing" textLength="129.3701" x="155.37" y="214.7951">Usuario registrado</text></g><!--entity Moderador--><g id="elem_Moderador"><ellipse cx="220.0538" cy="286.59" fill="#F1F1F1" rx="8" ry="8" style="stroke:#181818;stroke-width:0.5;"/><path d="M220.0538,294.59 L220.0538,321.59 M207.0538,302.59 L233.0538,302.59 M220.0538,321.59 L207.0538,336.59 M220.0538,321.59 L233.0538,336.59 " fill="#FFFFFF" fill-opacity="0.00000" style="stroke:#181818;stroke-width:0.5;"/><text fill="#000000" font-family="sans-serif" font-size="14" lengthAdjust="spacing" textLength="75.6875" x="182.21" y="351.0851">Moderador</text></g><!--link Usuario to UsuarioInvitado--><g id="link_Usuario_UsuarioInvitado"><path d="M119.33,82.06 C108.51,100.68 104.5084,107.5738 93.7084,126.1738 " fill="#FFFFFF" fill-opacity="0.00000" id="Usuario-to-UsuarioInvitado" style="stroke:#181818;stroke-width:1;"/><polygon fill="#FFFFFF" fill-opacity="0.00000" points="84.67,141.74,98.8972,129.1866,88.5197,123.161,84.67,141.74" style="stroke:#181818;stroke-width:1;"/></g><!--link Usuario to UsuarioRegistrado--><g id="link_Usuario_UsuarioRegistrado"><path d="M163.06,82.06 C174.02,100.68 178.1044,107.6248 189.0444,126.2248 " fill="#FFFFFF" fill-opacity="0.00000" id="Usuario-to-UsuarioRegistrado" style="stroke:#181818;stroke-width:1;"/><polygon fill="#FFFFFF" fill-opacity="0.00000" points="198.17,141.74,194.2161,123.1829,183.8726,129.2666,198.17,141.74" style="stroke:#181818;stroke-width:1;"/></g><!--link UsuarioRegistrado to Moderador--><g id="link_UsuarioRegistrado_Moderador"><path d="M220.06,218.35 C220.06,236.98 220.06,241.43 220.06,260.03 " fill="#FFFFFF" fill-opacity="0.00000" id="UsuarioRegistrado-to-Moderador" style="stroke:#181818;stroke-width:1;"/><polygon fill="#FFFFFF" fill-opacity="0.00000" points="220.06,278.03,226.06,260.03,214.06,260.03,220.06,278.03" style="stroke:#181818;stroke-width:1;"/></g><!--SRC=[SqmkoIzI22qkJIpApEVYSWHpbQ1yXSoyiioIn9Hy9ON4OfWYJwWOkjgYrFJCuf8YDDL1S56eUj_yb5GGjuYB2wPJLxV63iDqR998Xc68G1J2JGS0]--></g></svg>